<?xml version="1.0" encoding="utf-8"?>
<!-- Generator: Adobe Illustrator 23.0.3, SVG Export Plug-In . SVG Version: 6.00 Build 0)  -->
<svg version="1.1" id="Capa_1" xmlns="http://www.w3.org/2000/svg" xmlns:xlink="http://www.w3.org/1999/xlink" x="0px" y="0px"
	 viewBox="0 0 512 512" style="enable-background:new 0 0 512 512;" xml:space="preserve">
<style type="text/css">
	.st0{fill:#FFDF2B;}
	.st1{fill:#FFFFFF;}
</style>
<g>
	<path class="st0" d="M351.4,176.6c0,0,18.7-46,20.8-52c2.1-6.1,60.8,7.6,60.8,7.6L391.6,197L351.4,176.6z"/>
	<path class="st1" d="M349.2,181.1L236,427.8l9.4,10.2c0,0,15.2-12.5,17.1-11.5c1.9,1,129-229.5,129-229.5L349.2,181.1z"/>
	<path d="M432.5,140.6c1.5-2.6,1.7-5.7,0.5-8.4c-1.2-2.7-3.5-4.5-6.3-5l-52.4-8.7c-4.1-0.7-8.2,1.7-9.8,5.7l-21.3,50.9L233.3,412.2
		c-5.8,11.7-2.1,24.6,8.8,30.2c10.9,5.5,23.5,0.9,29.5-10.7l125.8-229.2L432.5,140.6z M355.1,190.9l22.4,11.4l-5.6,10.2l-21.7-11
		L355.1,190.9z M411,143.2l-24.5,43L362.6,174l15.3-36.4L411,143.2z M256.1,423.6c-1.3,2.6-4,3.3-5.7,2.4c-1.7-0.9-2.8-3.4-1.4-6
		c0.1-0.1,93.6-201.8,93.6-201.8l20.6,10.4C363,228.6,256.1,423.5,256.1,423.6z"/>
</g>
<g>
	<polygon class="st0" points="230.7,176 287,176.4 273.5,439.5 261,447.6 246,431.4 	"/>
	<polygon class="st1" points="246,171.4 190,86.4 272.6,59.4 332,90 280,171.4 	"/>
	<path d="M338.2,83.5c-16.4-19.1-45.3-30.6-77.3-30.6s-60.8,11.4-77.2,30.6c-2.7,3.1-2.9,7.6-0.9,11l0,0l48,81.5L240,435
		c0.1,13.1,9.3,22.9,21.5,22.9c12.2,0,21.4-9.8,21.5-22.9l8.2-258.9l48-81.5l0,0C341.1,91.1,340.9,86.6,338.2,83.5z M248.4,182.4
		h25.1l-0.4,11.7h-24.3L248.4,182.4z M265.5,434.8c0,3-2.1,4.7-4,4.7c-1.9,0-4-1.8-4-4.7c0-0.1-8-222.3-8-222.3h23.1
		C272.6,212.5,265.5,434.7,265.5,434.8z M277.7,164.1h-33.5l-42.9-73C215,78.8,237.2,71.3,261,71.3c23.8,0,45.9,7.5,59.7,19.8
		L277.7,164.1z"/>
</g>
<path d="M246,171.4"/>
<g>
	<path class="st1" d="M140.2,199l2.1,5.6l94.5,247.8L255,446c0,0-3.5-24.3-6-35.1c-2.6-10.8-70.7-225.3-70.7-225.3L140.2,199z"/>
	<path class="st0" d="M134.8,180.8l-22.7-43.2c0,0,22.1-8.3,24.9-11.5s27.9,2.1,27.9,2.1l11.2,48.7l-18.5,10.7c0,0-5.6,2-11.1,3.9
		c-5.5,1.9-9.7-4.4-9.7-4.4C134.8,180.8,134.8,180.8,134.8,180.8z"/>
	<path d="M133.1,117.6c-17.2,6-31.6,23.6-20.6,55c4,11.4,10.3,21.6,18,29l94.3,241.7c4.4,12.3,16.3,18.6,27.8,14.5
		c11.5-4,16.9-16.4,12.7-28.7l-77.8-247.5c1.4-10.6,0-22.5-4-33.8C172.6,116.3,150.3,111.6,133.1,117.6z M149.4,202.1l23.7-8.3
		l3.5,11.1l-22.9,8L149.4,202.1z M139.2,134.9c12.6-4.4,22,1.8,27.9,18.6c2.6,7.4,3.7,15,3.4,21.8L139.9,186
		c-4.6-5.1-8.4-11.7-11-19.2C123.1,150.1,126.5,139.3,139.2,134.9z M248.8,434.7c0.8,3.1,0.1,4.9-2.2,5.8c-2.1,0.8-4.2-0.4-5.4-3.1
		c0-0.1-80.9-207.2-80.9-207.2l21.8-7.6C182.1,222.5,248.8,434.6,248.8,434.7z"/>
</g>
</svg>
