<?xml version="1.0" encoding="utf-8"?>
<!-- Generator: Adobe Illustrator 23.0.3, SVG Export Plug-In . SVG Version: 6.00 Build 0)  -->
<svg version="1.1" id="Capa_1" xmlns="http://www.w3.org/2000/svg" xmlns:xlink="http://www.w3.org/1999/xlink" x="0px" y="0px"
	 viewBox="0 0 512 512" style="enable-background:new 0 0 512 512;" xml:space="preserve">
<style type="text/css">
	.st0{fill:#FFFFFF;}
	.st1{fill:#FFDF2B;}
</style>
<g>
	<g>
		<circle class="st0" cx="256" cy="256" r="247.5"/>
		<ellipse class="st0" cx="243.2" cy="256" rx="234.7" ry="247.5"/>
	</g>
	<path d="M271.4,106.9c5.6,18.8,19.8,36.6,13.7,57.1c-4.9,11.6-13.1,21.6-23.6,28.6l-8.4,3.6c6.1-10.3,9.1-22.1,8.6-34
		c-3.2-20.1-22.7-29.8-35.2-43.7c-23.1-25.8-36.9-71.6-20.9-103.8l-0.3-0.9c16.6-3.5,33.5-5.2,50.5-5.2c10.5,0,20.9,0.7,31.3,2
		C267.1,36.2,262.7,76.9,271.4,106.9z"/>
	<path d="M315.7,460.8c0,12.3-0.6,24.3-1.6,35.8c-19,4.6-38.5,6.9-58.1,6.9c-4.3,0-8.5-0.1-12.8-0.3c-15.3-0.7-30.5-2.9-45.3-6.6
		c-1-11.4-1.6-23.5-1.6-35.8c0-15.4,0.9-30.7,2.8-46c0.3-2.5,0.6-4.9,0.9-7.4c13.8,5.6,28.3,9.1,43.2,10.2c4.2,0.3,8.4,0.5,12.8,0.5
		c10.5,0,21-1.1,31.3-3.3c8.4-1.7,16.7-4.2,24.7-7.4C314.5,425.1,315.8,442.9,315.7,460.8L315.7,460.8z"/>
	<path class="st1" d="M290.1,460.8c0,12.3-0.6,24.3-1.6,35.8c-14.9,3.6-30,5.8-45.3,6.6c-15.3-0.7-30.5-2.9-45.3-6.6
		c-1-11.4-1.6-23.5-1.6-35.8c0-15.4,0.9-30.7,2.8-46c10.3,2.2,20.8,3.4,31.3,3.3c4.4,0,8.6-0.2,12.8-0.5
		c14.8-1.2,29.4-4.6,43.2-10.2c0.3,2.5,0.7,4.9,0.9,7.4C289.2,430.1,290.2,445.4,290.1,460.8L290.1,460.8z"/>
	<g>
		<path class="st0" d="M312,407.4c-17.8,7.2-36.8,10.8-56,10.8c-3.5,0-7-0.1-10.4-0.3c-15.6-1-31-4.5-45.6-10.4
			c2.3-16.8,6.2-33.3,11.6-49.3h88.7C305.8,374.1,309.7,390.6,312,407.4z"/>
		<path class="st0" d="M281.6,407.4c-12,5.8-25.1,9.4-38.4,10.4c-13.3-1-26.4-4.6-38.4-10.4c1.9-16.7,5.2-33.2,9.8-49.3h57.2
			C276.4,374.2,279.7,390.7,281.6,407.4z"/>
	</g>
	<path class="st1" d="M315.7,323.2c0,28.8-26.8,52.2-59.7,52.2c-4.3,0-8.6-0.4-12.8-1.2c-25.9-3.6-45.5-25-46.9-51
		c0-27.7,29.4-81.3,46.9-110.8c3.2-5.5,6.1-10.1,8.3-13.6c1-1.6,2.7-2.6,4.5-2.6c1.9,0,3.6,1,4.5,2.6
		C274.4,221.2,315.7,290.4,315.7,323.2z"/>
	<path class="st1" d="M290.1,323.2c-1.4,26.1-21.1,47.5-46.9,51c-25.9-3.6-45.5-25-46.9-51c0-27.7,29.4-81.3,46.9-110.8
		C260.7,241.9,290.1,295.5,290.1,323.2z"/>
	<path d="M256,0C114.6,0,0,114.6,0,256s114.6,256,256,256s256-114.6,256-256C511.8,114.7,397.3,0.2,256,0z M272.6,17.7
		c-14.6,28.3-17.9,61-9.3,91.7c1.9,6,4.2,11.8,6.8,17.4c5.5,12.5,10.3,23.3,6.9,34.7c-1.4,4.3-3.8,8.3-6.9,11.6
		c0.6-4.1,0.6-8.2,0-12.3c-2.7-17.3-14.9-27.8-25.7-37.2c-4.1-3.4-7.9-7-11.5-10.8c-19.9-22.2-33-62.9-20.7-91.6
		c14.4-2.7,29.1-4.1,43.7-4.1C261.6,17.1,267.1,17.3,272.6,17.7z M216,372.4c24.4,15.5,55.5,15.5,79.9,0c2.7,9.6,4.9,19.4,6.5,29.3
		c-30.1,10.3-62.8,10.3-92.9,0C211.2,391.8,213.3,382,216,372.4z M294.9,351.6c-0.2,0.1-0.3,0.3-0.4,0.4
		c-21.8,19.9-55.1,19.9-76.9,0c-0.1-0.1-0.3-0.3-0.4-0.4c-7.7-7.4-12.2-17.6-12.3-28.4c0-23.6,25.9-74.3,51.2-115.5
		c25.3,41.2,51.2,91.9,51.2,115.5C307.1,334,302.6,344.2,294.9,351.6L294.9,351.6z M17.1,256c0.1-107.6,72-201.8,175.7-230.4
		c-8.2,33.7,6,74.5,27.5,98.6c4.1,4.4,8.5,8.5,13.1,12.3c9.8,8.5,18.2,15.8,20,26.9c0.2,10.3-2.5,20.4-7.9,29.2
		c-0.1,0.1,0,0.3-0.1,0.4c-0.4,0.4-0.7,0.9-1.1,1.3c-17,27.3-56.5,94.6-56.5,128.9c0.1,13.7,5.2,26.8,14.2,37
		c-9.8,32.6-14.6,66.5-14.2,100.6c0,8,0.3,16.2,0.8,24.4C87,455.2,17.2,361.9,17.1,256L17.1,256z M206,489.6
		c-0.7-9.7-1.2-19.4-1.2-28.8c0-14,0.8-28,2.3-41.9c31.8,10.3,66,10.3,97.7,0c1.6,13.9,2.3,27.9,2.3,41.9c0,9.5-0.5,19.1-1.2,28.8
		C273.1,496.7,238.9,496.7,206,489.6L206,489.6z M323.4,485.2c0.5-8.2,0.8-16.4,0.8-24.4c0.4-34-4.4-68-14.2-100.6
		c9.1-10.2,14.1-23.3,14.2-37c0-33.3-37-97.3-54.8-126.1c10.8-7.6,19.1-18.3,23.9-30.7c5.2-17.4-1.6-32.9-7.6-46.5
		c-2.3-5-4.4-10.2-6.1-15.4c-8-28.7-3.7-59.4,11.8-84.8c110.8,16.6,195.2,108.1,202.9,219.9C502,351.4,431,453.6,323.4,485.2
		L323.4,485.2z"/>
</g>
</svg>
