<?xml version="1.0" encoding="utf-8"?>
<!-- Generator: Adobe Illustrator 23.0.3, SVG Export Plug-In . SVG Version: 6.00 Build 0)  -->
<svg version="1.1" id="Capa_1" xmlns="http://www.w3.org/2000/svg" xmlns:xlink="http://www.w3.org/1999/xlink" x="0px" y="0px"
	 viewBox="0 0 512 512" style="enable-background:new 0 0 512 512;" xml:space="preserve">
<style type="text/css">
	.st0{fill:#556080;}
	.st1{fill:#FFFFFF;}
	.st2{fill:#FFDF2B;}
</style>
<g>
	<g>
		<rect x="162.1" y="162.1" class="st0" width="34.1" height="34.1"/>
		<rect x="315.7" y="315.7" class="st0" width="34.1" height="34.1"/>
	</g>
	<circle class="st1" cx="256" cy="256" r="247.5"/>
	<ellipse class="st1" cx="243.2" cy="256" rx="234.7" ry="247.5"/>
	<rect x="93.9" y="162.1" class="st1" width="34.1" height="34.1"/>
	<g>
		<rect x="315.7" y="384" class="st1" width="34.1" height="34.1"/>
		<rect x="315.7" y="281.6" class="st1" width="34.1" height="34.1"/>
	</g>
	<rect x="315.7" y="247.5" class="st1" width="34.1" height="34.1"/>
	<rect x="315.7" y="213.3" class="st1" width="34.1" height="34.1"/>
	<g>
		<polygon class="st1" points="349.9,162.1 349.9,213.3 315.7,213.3 315.7,196.3 		"/>
		<rect x="264.5" y="162.1" class="st1" width="34.1" height="34.1"/>
	</g>
	<g>
		<rect x="230.4" y="162.1" class="st1" width="34.1" height="34.1"/>
		<rect x="128" y="162.1" class="st1" width="34.1" height="34.1"/>
	</g>
	<polygon class="st2" points="418.1,315.7 418.1,349.9 162.1,349.9 162.1,93.9 196.3,93.9 196.3,315.7 	"/>
	<g>
		<rect x="196.3" y="162.1" class="st1" width="34.1" height="34.1"/>
		<rect x="315.7" y="349.9" class="st1" width="34.1" height="34.1"/>
	</g>
	<polygon class="st1" points="349.9,162.1 315.7,196.3 298.7,196.3 298.7,162.1 	"/>
	<g>
		<path d="M256,0C114.6,0,0,114.6,0,256s114.6,256,256,256s256-114.6,256-256C511.8,114.7,397.3,0.2,256,0z M256,494.9
			C124,494.9,17.1,388,17.1,256S124,17.1,256,17.1S494.9,124,494.9,256C494.8,387.9,387.9,494.8,256,494.9z"/>
		<path d="M418.1,307.2h-59.7V162.1c0-4.7-3.8-8.5-8.5-8.5H204.8V93.9c0-2.3-0.9-4.4-2.5-6c-1.6-1.6-3.8-2.5-6-2.5h-34.1
			c-2.3,0-4.4,0.9-6,2.5c-1.6,1.6-2.5,3.8-2.5,6v59.7H93.9c-2.3,0-4.4,0.9-6,2.5c-1.6,1.6-2.5,3.8-2.5,6v34.1c0,2.3,0.9,4.4,2.5,6
			c1.6,1.6,3.8,2.5,6,2.5h59.7v145.1c0,2.3,0.9,4.4,2.5,6s3.8,2.5,6,2.5h145.1v59.7c0,2.3,0.9,4.4,2.5,6c1.6,1.6,3.8,2.5,6,2.5h34.1
			c2.3,0,4.4-0.9,6-2.5c1.6-1.6,2.5-3.8,2.5-6v-59.7h59.7c2.3,0,4.4-0.9,6-2.5c1.6-1.6,2.5-3.8,2.5-6v-34.1c0-2.3-0.9-4.4-2.5-6
			C422.6,308.1,420.4,307.2,418.1,307.2z M324.3,307.2v-17.1h17.1v17.1H324.3z M204.8,307.2V204.8h102.4v102.4H204.8z M324.3,221.9
			h17.1v17.1h-17.1V221.9z M324.3,256h17.1v17.1h-17.1V256z M341.3,204.8h-17.1v-5l17.1-17.1V204.8z M312.2,187.7h-5v-17.1h22.1
			L312.2,187.7z M290.1,187.7h-17.1v-17.1h17.1V187.7z M256,187.7h-17.1v-17.1H256V187.7z M221.9,170.7v17.1h-17.1v-17.1H221.9z
			 M102.4,170.7h17.1v17.1h-17.1V170.7z M136.5,187.7v-17.1h17.1v17.1H136.5z M324.3,409.6v-17.1h17.1v17.1H324.3z M341.3,375.5
			h-17.1v-17.1h17.1V375.5z M409.6,341.3H170.7V102.4h17.1v213.3c0,2.3,0.9,4.4,2.5,6c1.6,1.6,3.8,2.5,6,2.5h213.3V341.3z"/>
	</g>
</g>
</svg>
