<?xml version="1.0" encoding="utf-8"?>
<!-- Generator: Adobe Illustrator 23.0.3, SVG Export Plug-In . SVG Version: 6.00 Build 0)  -->
<svg version="1.1" id="Capa_1" xmlns="http://www.w3.org/2000/svg" xmlns:xlink="http://www.w3.org/1999/xlink" x="0px" y="0px"
	 viewBox="0 0 512 512" style="enable-background:new 0 0 512 512;" xml:space="preserve">
<style type="text/css">
	.st0{fill:#FFFFFF;}
	.st1{fill:#FFDF2B;}
	.st2{fill:#F6F6F6;}
</style>
<g>
	<path class="st0" d="M34.1,8.5h443.7c14.1,0,25.6,11.5,25.6,25.6v443.7c0,14.1-11.5,25.6-25.6,25.6H34.1
		C20,503.5,8.5,492,8.5,477.9V34.1C8.5,20,20,8.5,34.1,8.5z"/>
	<path class="st0" d="M34.1,8.5h418.1c14.1,0,25.6,11.5,25.6,25.6v443.7c0,14.1-11.5,25.6-25.6,25.6H34.1
		C20,503.5,8.5,492,8.5,477.9V34.1C8.5,20,20,8.5,34.1,8.5z"/>
	<path class="st0" d="M319.1,360.8c9.4-35.6,14-72.3,13.7-109.1c-0.1-21.6-3.1-43.1-8.9-63.9c-13.5-47-36.6-90.6-67.9-128.1
		c-31.3,37.5-54.5,81.1-67.9,128.1c-5.8,20.8-8.8,42.3-8.9,63.9c-0.3,36.8,4.3,73.5,13.7,109.1c-13.8,1.4-22.2,3.1-22.2,4.9v87.7
		c0,1.1,3.1,2.2,8.5,3.2v46.8h153.6v-46.8c5.4-1,8.5-2,8.5-3.2v-87.7C341.3,363.9,333,362.2,319.1,360.8z"/>
	<path class="st1" d="M301.6,201.3c-7.6,7.8-11.7,18.3-11.4,29.1c0,0-8.5-42.7-34.1-42.7s-34.1,42.7-34.1,42.7
		c0-32-30-41.5-33.8-42.6c11.5-40.3,30.2-78.2,55.1-112c24.9,33.7,43.6,71.6,55.1,112C299.5,192.3,300.6,196.7,301.6,201.3z"/>
	<path class="st1" d="M323.9,187.8c-8.5,2.6-16.1,7.2-22.4,13.5c-0.9-4.6-2-9-3.2-13.5c-11.5-40.3-30.2-78.2-55.1-112
		c3.3-4.5,6.1-8.1,8.3-10.8c0.9-1.2,1.8-2.1,2.4-2.9c1.4-1.6,2.1-2.5,2.1-2.5C287.3,97.2,310.5,140.9,323.9,187.8z"/>
	<path d="M341.3,365.7v87.7c0,1.1-3.1,2.2-8.5,3.2v46.8h-25.6v-46.8c5.5-0.9,8.5-2,8.5-3.2v-87.7c0-1.9-8.4-3.6-22.2-4.9
		c9.4-35.6,14-72.3,13.7-109.1c0-17-1.9-33.9-5.6-50.4c6.2-6.3,13.9-10.9,22.4-13.5c5.8,20.8,8.8,42.3,8.9,63.9
		c0.3,36.8-4.3,73.5-13.7,109.1C333,362.2,341.3,363.9,341.3,365.7z"/>
	<rect x="179.2" y="443.7" width="153.6" height="59.7"/>
	<rect x="179.2" y="443.7" class="st1" width="128" height="59.7"/>
	<path class="st0" d="M341.3,365.7v87.7c0,1.2-3.3,2.3-9.3,3.3c-25.2,3.1-50.6,4.4-76,4c-25.4,0.4-50.8-0.9-76-4
		c-6-1-9.3-2.1-9.3-3.3v-87.7c0-1.9,8.4-3.6,22.2-4.9c15.6-1.5,38.1-2.4,63.1-2.4c25,0,47.5,0.9,63.1,2.4
		C333,362.2,341.3,363.9,341.3,365.7z"/>
	<path class="st2" d="M315.7,365.7v87.7c0,1.2-2.8,2.3-7.9,3.3c-21.4,3.1-43,4.4-64.6,4c-21.6,0.4-43.2-0.9-64.6-4
		c-5.1-1-7.9-2.1-7.9-3.3v-87.7c0-1.9,7.1-3.6,18.9-4.9c17.8-1.7,35.8-2.5,53.7-2.4c17.9-0.1,35.8,0.7,53.7,2.4
		C308.6,362.2,315.7,363.9,315.7,365.7z"/>
	<circle class="st0" cx="290.1" cy="409.6" r="17.1"/>
	<g>
		<path d="M477.9,0H34.1C15.3,0,0,15.3,0,34.1v443.7C0,496.7,15.3,512,34.1,512h443.7c18.8,0,34.1-15.3,34.1-34.1V34.1
			C512,15.3,496.7,0,477.9,0z M187.7,494.9v-28.3c22.7,2.2,45.5,3.1,68.3,2.7c22.8,0.4,45.6-0.5,68.3-2.7v28.3H187.7z M187.7,251.7
			c0.1-17.6,2.2-35.1,6.3-52.2c11.9,5.7,19.4,17.8,19.3,30.9c0,4.4,3.3,8.1,7.7,8.5c4.4,0.4,8.3-2.5,9.2-6.8
			c1.9-9.3,10.7-35.8,25.8-35.8s23.9,26.5,25.8,35.8c0.8,4,4.3,6.8,8.4,6.8c4.7,0,8.5-3.8,8.5-8.5c-0.1-13.2,7.4-25.2,19.3-30.9
			c4.1,17.1,6.2,34.6,6.3,52.2c0.2,33.6-3.7,67.1-11.5,99.7c-13.5-1-31.7-1.6-56.7-1.6c-25,0-43.3,0.6-56.7,1.6
			C191.4,318.8,187.5,285.3,187.7,251.7L187.7,251.7z M198.6,182.6c12.5-39.6,32-76.6,57.4-109.4c25.5,32.8,44.9,69.9,57.5,109.4
			c-9.9,4.4-18.3,11.6-24.2,20.6c-6.5-12.2-17.1-24.1-33.2-24.1s-26.7,11.9-33.2,24.1C216.8,194.2,208.4,187.1,198.6,182.6
			L198.6,182.6z M256,366.9c25.7-0.6,51.3,0.8,76.8,4.2V448c-25.5,3.4-51.1,4.8-76.8,4.2c-25.7,0.6-51.3-0.8-76.8-4.2v-76.9
			C204.7,367.8,230.3,366.4,256,366.9L256,366.9z M494.9,477.9c0,9.4-7.6,17.1-17.1,17.1H341.3v-31.7c8.5-2.9,8.5-6.4,8.5-9.8v-87.8
			c0-4.4,0-9.2-20-12.4c7.8-33.3,11.7-67.4,11.5-101.6c-0.1-21.7-3.1-43.3-8.7-64.3c0.2-1.3-0.2-2.7-1-3.7
			C317.8,136.2,294.2,92,262.4,54c-1.7-1.7-4-2.7-6.4-2.7c-2.4,0-4.7,1-6.4,2.7c-31.9,38-55.5,82.2-69.3,129.8c-0.8,1-1.1,2.3-1,3.5
			c-5.7,21-8.6,42.6-8.7,64.4c-0.2,34.2,3.6,68.3,11.5,101.6c-20,3.1-20,7.9-20,12.4v87.8c0,3.3,0,6.9,8.5,9.8v31.7H34.1
			c-9.4,0-17.1-7.6-17.1-17.1V34.1c0-9.4,7.6-17.1,17.1-17.1h443.7c9.4,0,17.1,7.6,17.1,17.1L494.9,477.9L494.9,477.9z"/>
		<path d="M290.1,435.2c14.1,0,25.6-11.5,25.6-25.6S304.3,384,290.1,384s-25.6,11.5-25.6,25.6C264.5,423.7,276,435.2,290.1,435.2z
			 M290.1,401.1c4.7,0,8.5,3.8,8.5,8.5c0,4.7-3.8,8.5-8.5,8.5c-4.7,0-8.5-3.8-8.5-8.5C281.6,404.9,285.4,401.1,290.1,401.1z"/>
	</g>
</g>
</svg>
