<?xml version="1.0" encoding="utf-8"?>
<!-- Generator: Adobe Illustrator 23.0.3, SVG Export Plug-In . SVG Version: 6.00 Build 0)  -->
<svg version="1.1" id="Capa_1" xmlns="http://www.w3.org/2000/svg" xmlns:xlink="http://www.w3.org/1999/xlink" x="0px" y="0px"
	 viewBox="0 0 512 512" style="enable-background:new 0 0 512 512;" xml:space="preserve">
<style type="text/css">
	.st0{fill:#FFDF2B;}
	.st1{fill:#FFFFFF;}
</style>
<g>
	<polygon class="st0" points="123.9,316.5 183.7,350.8 196.9,380.3 143.4,419.4 92.5,434.8 92.5,396.1 	"/>
	<polygon class="st1" points="200.5,233.6 280.8,309.4 244.6,331.6 200.5,367.5 140.5,316.5 183.7,272.1 	"/>
	<polygon class="st0" points="210.5,230.6 394.3,92.6 415,88 425.3,104.5 280.8,309.4 	"/>
	<g>
		<path d="M426.8,84c-11.1-11.3-29-12.6-41.5-2.9l-189,146.2l-21.1,36.9l-51.3,52.3c-51.8,52.7-48,112.2-47.8,114.7l0.7,9.2l9,0.7
			c0.4,0,1.9,0.1,4.5,0.1c14.9,0,63.9-3.7,108.2-48.8l51.3-52.3l36.3-21.5l143.6-192.4C439.1,113.5,437.9,95.3,426.8,84L426.8,84z
			 M196.9,269.1l9.8-17.1l55.2,56.2l-16.8,9.9L196.9,269.1z M183.7,286l44.7,45.6L198.6,362l-44.7-45.6L183.7,286z M118.7,415.7
			c-8.5,2.3-15.9,3.3-21.3,3.7c0.4-5.5,1.4-13,3.6-21.7c6.3-24.7,19-47,37.8-66.1l0.1-0.1l44.7,45.6l-0.1,0.1
			C164.8,396.4,143,409.3,118.7,415.7z M412.8,113.3l-135,180.9l-57.5-58.5L398.1,98.2c4.2-3.2,10.1-2.8,13.8,1
			C415.6,103,416,109,412.8,113.3L412.8,113.3z"/>
	</g>
</g>
</svg>
