<?xml version="1.0" encoding="utf-8"?>
<!-- Generator: Adobe Illustrator 23.0.3, SVG Export Plug-In . SVG Version: 6.00 Build 0)  -->
<svg version="1.1" id="Capa_1" xmlns="http://www.w3.org/2000/svg" xmlns:xlink="http://www.w3.org/1999/xlink" x="0px" y="0px"
	 viewBox="0 0 512 512" style="enable-background:new 0 0 512 512;" xml:space="preserve">
<style type="text/css">
	.st0{fill:#FFFFFF;}
	.st1{fill:#FFDF2B;}
</style>
<g>
	<g>
		<circle class="st0" cx="256" cy="256" r="247.5"/>
		<ellipse class="st0" cx="243.2" cy="256" rx="234.7" ry="247.5"/>
		<path d="M387.8,272.9L261,399.6c-13.3,13.3-35,13.3-48.3,0L116.2,303c-2.4-2.4-4.5-5.2-6.1-8.3c-7-13.2-4.5-29.4,6.1-39.9
			l126.7-126.7c1.6-1.6,3.8-2.5,6-2.5s4.4,0.9,6,2.5l114.2,114.1l18.6,18.6C391.1,264.1,391.1,269.5,387.8,272.9z"/>
		<path class="st1" d="M369.2,242.2c0.5,2.7-0.3,5.5-2.3,7.5L240.1,376.4c-13.3,13.3-34.9,13.3-48.2,0l-81.7-81.7
			c-7-13.2-4.5-29.4,6.1-39.9L243,128.1c1.6-1.6,3.8-2.5,6-2.5s4.4,0.9,6,2.5L369.2,242.2z"/>
		<ellipse class="st0" cx="273.2" cy="218.5" rx="17.1" ry="17.1"/>
	</g>
	<path class="st1" d="M390.2,324.2c0,0-19.4,34.3-19.4,48.9c0,10.7,8.7,19.4,19.4,19.4c10.7,0,19.4-8.7,19.4-19.4
		C409.6,358.4,390.2,324.2,390.2,324.2z"/>
	<g>
		<path d="M398.8,266.9c0-4.5-1.8-8.9-5-12.1L279.2,140.2l0,0L279,140l-18-18c-2.6-2.6-5.9-4.2-9.5-4.7
			C225.3,99.5,203,95.6,191.7,107c-10.4,10.4-7.8,30.3,6.5,53.8l-88,88c-8,8-12.5,18.9-12.5,30.2s4.5,22.2,12.5,30.2l96.5,96.5
			c16.7,16.6,43.7,16.6,60.3,0L393.7,279C397,275.7,398.8,271.4,398.8,266.9z M203.7,119c2.8-2.8,13.6-1.9,29.3,6.9l-22.5,22.5
			C201.7,132.5,200.9,121.9,203.7,119z M255,393.6c-10,10-26.2,10-36.2,0L122.3,297c-4.8-4.8-7.5-11.3-7.5-18.1s2.7-13.3,7.5-18.1
			l85.7-85.7c5.2,6.8,10.9,13.2,16.9,19.3c7.2,7.2,14.9,13.8,23.1,19.7c-0.3,1.5-0.4,2.9-0.4,4.4c-0.1,12.1,8.3,22.6,20.1,25.3
			c11.8,2.6,23.8-3.3,28.9-14.3s1.8-24-7.8-31.3c-9.6-7.3-23.1-6.9-32.2,1c-6.9-5.2-13.5-10.8-19.5-16.9c-6.1-6-11.7-12.5-16.8-19.4
			l27.5-27.5c6.9,5.1,13.4,10.7,19.5,16.7l114.6,114.6L255,393.6z M267.1,212.6c2.4-2.4,6.1-3.2,9.3-1.9c3.2,1.3,5.3,4.4,5.3,7.9
			s-2.1,6.6-5.3,7.9c-3.2,1.3-6.9,0.6-9.3-1.9c-1.6-1.6-2.5-3.8-2.5-6S265.5,214.1,267.1,212.6L267.1,212.6z"/>
		<path d="M390.2,315.6c-3.1,0-5.9,1.7-7.4,4.3c-3.4,6-20.5,37-20.5,53.1c0,15.4,12.5,27.9,28,27.9s27.9-12.5,28-27.9
			c0-16.1-17.1-47.1-20.5-53.1C396.1,317.3,393.3,315.6,390.2,315.6L390.2,315.6z M390.2,384c-6,0-10.9-4.9-10.9-10.9
			c1.9-10.7,5.6-21,10.9-30.5c5.3,9.5,8.9,19.8,10.9,30.5C401.1,379.1,396.2,384,390.2,384z"/>
	</g>
</g>
</svg>
