<?xml version="1.0" encoding="utf-8"?>
<!-- Generator: Adobe Illustrator 23.0.3, SVG Export Plug-In . SVG Version: 6.00 Build 0)  -->
<svg version="1.1" id="Capa_1" xmlns="http://www.w3.org/2000/svg" xmlns:xlink="http://www.w3.org/1999/xlink" x="0px" y="0px"
	 viewBox="0 0 512 512" style="enable-background:new 0 0 512 512;" xml:space="preserve">
<style type="text/css">
	.st0{fill:#FFDF2B;}
	.st1{fill:none;stroke:#000000;stroke-width:16;stroke-miterlimit:10;}
</style>
<path class="st0" d="M372.1,182.4c-11.8,0-23,2.6-33.1,7.2c-18.7-20.7-46.4-33.9-77.4-33.9c-28.3,0-53.8,10.9-72.3,28.6
	c-10.5-4.6-22-7.1-34.2-7.1c-47.2,0-85.5,38.3-85.5,85.5s38.3,85.5,85.5,85.5c18.4,0,35.4-5.8,49.3-15.7
	c16.3,10.5,36,16.7,57.1,16.7c24.1,0,46.3-8,63.8-21.3c13.2,9.5,29.3,15.1,46.8,15.1c44.3,0,80.3-35.9,80.3-80.3
	S416.4,182.4,372.1,182.4z"/>
<g>
	<circle class="st1" cx="155.1" cy="262.6" r="85.5"/>
	<ellipse class="st1" cx="261.5" cy="252.4" rx="101.8" ry="96.8"/>
	<circle class="st1" cx="372" cy="262.6" r="80.3"/>
</g>
</svg>
