<?xml version="1.0" encoding="utf-8"?>
<!-- Generator: Adobe Illustrator 23.0.3, SVG Export Plug-In . SVG Version: 6.00 Build 0)  -->
<svg version="1.1" id="Capa_1" xmlns="http://www.w3.org/2000/svg" xmlns:xlink="http://www.w3.org/1999/xlink" x="0px" y="0px"
	 viewBox="0 0 512 512" style="enable-background:new 0 0 512 512;" xml:space="preserve">
<style type="text/css">
	.st0{fill:#FFFFFF;}
	.st1{fill:#FFDF2B;}
	.st2{fill:none;stroke:#000000;stroke-width:16;stroke-miterlimit:10;}
</style>
<path d="M221.9,494.9v-25.6c0-4.7,3.8-8.5,8.5-8.5h51.2c4.7,0,8.5,3.8,8.5,8.5v25.6H221.9z"/>
<path d="M477.9,0H34.1C15.3,0,0,15.3,0,34.1v443.7C0,496.7,15.3,512,34.1,512h443.7c18.8,0,34.1-15.3,34.1-34.1V34.1
	C512,15.3,496.7,0,477.9,0z"/>
<path class="st0" d="M462.6,17.7H49.4c-17.5,0-31.8,14.2-31.8,31.8v413.1c0,17.5,14.2,31.8,31.8,31.8h413.1
	c17.5,0,31.8-14.2,31.8-31.8V49.4C494.3,31.9,480.1,17.7,462.6,17.7z"/>
<path class="st1" d="M372.1,182.4c-11.8,0-23,2.6-33.1,7.2c-18.7-20.7-46.4-33.9-77.4-33.9c-28.3,0-53.8,10.9-72.3,28.6
	c-10.5-4.6-22-7.1-34.2-7.1c-47.2,0-85.5,38.3-85.5,85.5s38.3,85.5,85.5,85.5c18.4,0,35.4-5.8,49.3-15.7
	c16.3,10.5,36,16.7,57.1,16.7c24.1,0,46.3-8,63.8-21.3c13.2,9.5,29.3,15.1,46.8,15.1c44.3,0,80.3-35.9,80.3-80.3
	S416.4,182.4,372.1,182.4z"/>
<g>
	<circle class="st2" cx="155.1" cy="262.6" r="85.5"/>
	<ellipse class="st2" cx="261.5" cy="252.4" rx="101.8" ry="96.8"/>
	<circle class="st2" cx="372" cy="262.6" r="80.3"/>
</g>
</svg>
