<?xml version="1.0" encoding="utf-8"?>
<!-- Generator: Adobe Illustrator 23.0.3, SVG Export Plug-In . SVG Version: 6.00 Build 0)  -->
<svg version="1.1" id="Capa_1" xmlns="http://www.w3.org/2000/svg" xmlns:xlink="http://www.w3.org/1999/xlink" x="0px" y="0px"
	 viewBox="0 0 512 512" style="enable-background:new 0 0 512 512;" xml:space="preserve">
<style type="text/css">
	.st0{fill:#FFFFFF;}
	.st1{stroke:#000000;stroke-width:7;stroke-miterlimit:10;}
	.st2{fill:#FFDF2B;}
</style>
<circle class="st0" cx="256" cy="256" r="247.5"/>
<ellipse class="st0" cx="243.2" cy="256" rx="234.7" ry="247.5"/>
<path d="M256,0C114.6,0,0,114.6,0,256s114.6,256,256,256s256-114.6,256-256C511.8,114.7,397.3,0.2,256,0z M256,494.9
	C124,494.9,17.1,388,17.1,256S124,17.1,256,17.1S494.9,124,494.9,256C494.8,387.9,387.9,494.8,256,494.9z"/>
<path class="st1" d="M261.6,109.3c-80.1,0-145,64.9-145,145s64.9,145,145,145s145-64.9,145-145C406.5,174.3,341.6,109.4,261.6,109.3
	z M261.6,389.6c-74.8,0-135.3-60.5-135.3-135.3S186.8,119,261.6,119s135.3,60.5,135.3,135.3C396.8,329,336.3,389.6,261.6,389.6z"/>
<g>
	<g>
		
			<ellipse transform="matrix(0.9309 -0.3652 0.3652 0.9309 -76.3418 113.7081)" class="st2" cx="262.4" cy="258.7" rx="12.9" ry="13.8"/>
		
			<ellipse transform="matrix(0.9309 -0.3652 0.3652 0.9309 -42.1308 155.7328)" class="st2" cx="390.7" cy="189.2" rx="12.9" ry="13.8"/>
	</g>
	<path d="M395.3,171.9c-9.2-3.2-18.8,2-21.3,11.6c-0.8,3.1-0.8,6.4,0,9.6l-99.1,53.7c-2.1-2.5-4.8-4.3-7.7-5.4
		c-9.3-3.2-18.8,2-21.3,11.6s2.8,19.9,12,23.1c9.2,3.2,18.8-2,21.3-11.6c0.8-3.1,0.8-6.4,0-9.6l99.1-53.7c2.1,2.5,4.8,4.3,7.7,5.4
		c9.3,3.2,18.8-2,21.3-11.6C409.9,185.4,404.5,175.1,395.3,171.9z M260.2,267.4c-3.8-1.3-6.4-5.1-6.4-9.2c0-4.2,2.7-7.6,6.5-8.4
		c3.8-0.9,7.8,1.1,9.7,4.9l0,0l0,0c1.8,3.3,1.4,7.3-0.7,10.1C267.1,267.5,263.5,268.5,260.2,267.4L260.2,267.4z M388.3,197.9
		c-2.2-0.8-4.1-2.4-5.2-4.6l0,0l0,0c-2-3.9-1.2-8.6,1.9-11.3c3.1-2.7,7.7-2.5,11,0.3c3.3,2.8,4.3,7.6,2.4,11.4
		C396.5,197.5,392.3,199.3,388.3,197.9L388.3,197.9z"/>
</g>
<g>
	<g>
		
			<ellipse transform="matrix(0.9309 -0.3652 0.3652 0.9309 -109.9403 71.4303)" class="st2" cx="133.9" cy="326.4" rx="12.9" ry="13.8"/>
		
			<ellipse transform="matrix(0.9309 -0.3652 0.3652 0.9309 -75.7293 113.455)" class="st2" cx="262.1" cy="256.9" rx="12.9" ry="13.8"/>
	</g>
	<path d="M266.7,239.6c-9.2-3.2-18.8,2-21.3,11.6c-0.8,3.1-0.8,6.4,0,9.6l-99.1,53.7c-2.1-2.5-4.8-4.3-7.7-5.4
		c-9.3-3.2-18.8,2-21.3,11.6c-2.6,9.6,2.8,19.9,12,23.1s18.8-2,21.3-11.6c0.8-3.1,0.8-6.4,0-9.6l99.1-53.7c2.1,2.5,4.8,4.3,7.7,5.4
		c9.3,3.2,18.8-2,21.3-11.6C281.3,253.1,276,242.8,266.7,239.6z M131.6,335.1c-3.8-1.3-6.4-5.1-6.4-9.2c0-4.2,2.7-7.6,6.5-8.4
		c3.8-0.9,7.8,1.1,9.7,4.9l0,0l0,0c1.8,3.3,1.4,7.3-0.7,10.1C138.6,335.2,135,336.2,131.6,335.1L131.6,335.1z M259.7,265.6
		c-2.2-0.8-4.1-2.4-5.2-4.6l0,0l0,0c-2-3.9-1.2-8.6,1.9-11.3c3.1-2.7,7.7-2.5,11,0.3c3.3,2.8,4.3,7.6,2.4,11.4
		C267.9,265.2,263.7,267,259.7,265.6L259.7,265.6z"/>
</g>
</svg>
