<?xml version="1.0" encoding="utf-8"?>
<!-- Generator: Adobe Illustrator 23.0.3, SVG Export Plug-In . SVG Version: 6.00 Build 0)  -->
<svg version="1.1" id="Слой_1" xmlns="http://www.w3.org/2000/svg" xmlns:xlink="http://www.w3.org/1999/xlink" x="0px" y="0px"
	 viewBox="0 0 480 480" style="enable-background:new 0 0 480 480;" xml:space="preserve">
<style type="text/css">
	.st0{fill:#FFFFFF;}
	.st1{fill:#FFDF2B;}
	.st2{fill:#6FBBC6;}
</style>
<g>
	<path class="st0" d="M472,240c0,128.1-103.9,232-232,232S8,368.1,8,240S111.9,8,240,8S472,111.9,472,240z"/>
</g>
<path class="st0" d="M309.5,357.2H100.8V140.5h82V61.1h126.7V357.2z"/>
<path class="st1" d="M182.8,140.5h-82l82-79.4V140.5z"/>
<path class="st1" d="M355,400.5h-90.9c-7.9,0-14.5-6-14.9-13.7l-6.7-123.5h134.2L370,386.8C369.5,394.5,363,400.5,355,400.5z"/>
<g>
	<path class="st2" d="M309.5,378.8c-4.1,0-7.5-3.2-7.5-7.2v-72.2c0-4,3.3-7.2,7.5-7.2c4.1,0,7.5,3.2,7.5,7.2v72.2
		C317,375.6,313.7,378.8,309.5,378.8z"/>
	<path class="st2" d="M279.7,378.8c-4.1,0-7.5-3.2-7.5-7.2v-72.2c0-4,3.3-7.2,7.5-7.2c4.1,0,7.5,3.2,7.5,7.2v72.2
		C287.2,375.6,283.9,378.8,279.7,378.8z"/>
	<path class="st2" d="M339.4,378.8c-4.1,0-7.5-3.2-7.5-7.2v-72.2c0-4,3.3-7.2,7.5-7.2c4.1,0,7.5,3.2,7.5,7.2v72.2
		C346.8,375.6,343.5,378.8,339.4,378.8z"/>
</g>
<path class="st1" d="M235,234.4h149.1c4.1,0,7.5,3.2,7.5,7.2V256c0,4-3.3,7.2-7.5,7.2H235c-4.1,0-7.5-3.2-7.5-7.2v-14.4
	C227.6,237.6,230.9,234.4,235,234.4z"/>
<path class="st1" d="M369.2,234.4H249.9l6-23.4c0.8-3.2,3.8-5.5,7.2-5.5h92.7c3.4,0,6.4,2.3,7.2,5.5L369.2,234.4z"/>
<path d="M375.9,277.7l0.8-14.4H242.5l0.8,14.4H375.9z"/>
<path d="M309.5,378.8c4.1,0,7.5-3.2,7.5-7.2v-72.2c0-4-3.3-7.2-7.5-7.2c-4.1,0-7.5,3.2-7.5,7.2v72.2
	C302.1,375.6,305.4,378.8,309.5,378.8z"/>
<path d="M279.7,378.8c4.1,0,7.5-3.2,7.5-7.2v-72.2c0-4-3.3-7.2-7.5-7.2c-4.1,0-7.5,3.2-7.5,7.2v72.2
	C272.3,375.6,275.6,378.8,279.7,378.8z"/>
<path d="M339.4,378.8c4.1,0,7.5-3.2,7.5-7.2v-72.2c0-4-3.3-7.2-7.5-7.2c-4.1,0-7.5,3.2-7.5,7.2v72.2
	C331.9,375.6,335.2,378.8,339.4,378.8z"/>
<path d="M309.5,53.8H182.8c-0.1,0-0.3,0.1-0.4,0.1c-0.7,0-1.4,0.2-2,0.4c-0.2,0.1-0.4,0.1-0.7,0.2c-0.8,0.3-1.5,0.8-2.1,1.4
	l-82,79.4c-0.6,0.6-1.1,1.3-1.4,2.1c-0.1,0.2-0.2,0.4-0.2,0.7c-0.2,0.6-0.4,1.3-0.4,1.9c0,0.2-0.1,0.3-0.1,0.4v216.7
	c0,4,3.3,7.2,7.5,7.2h139.6l2,36.5c0.2,3.8,3.5,6.8,7.5,6.8h119.3c4,0,7.2-3,7.5-6.8l7.1-130.4h7.8c4.1,0,7.5-3.2,7.5-7.2v-28.9
	c0-4-3.3-7.2-7.5-7.2H375l-6-23.4c-0.8-3.2-3.8-5.5-7.2-5.5H317V61.1C317,57.1,313.7,53.8,309.5,53.8z M175.4,78.5v54.8h-56.5
	L175.4,78.5z M108.3,349.9V147.7h74.5c4.1,0,7.5-3.2,7.5-7.2V68.3h111.8v130h-44.7c-3.4,0-6.4,2.3-7.2,5.5l-6,23.4h-16.5
	c-4.1,0-7.5,3.2-7.5,7.2v28.9c0,4,3.3,7.2,7.5,7.2h7.8l4.3,79.4H108.3z M362.1,393.3H257l-6.7-122.8h118.4L362.1,393.3z
	 M369.2,241.6h14.9V256H235v-14.4H369.2z M355.9,212.7l3.7,14.4H259.5l3.7-14.4H355.9z"/>
</svg>
