<?xml version="1.0" encoding="utf-8"?>
<!-- Generator: Adobe Illustrator 23.0.3, SVG Export Plug-In . SVG Version: 6.00 Build 0)  -->
<svg version="1.1" id="Слой_1" xmlns="http://www.w3.org/2000/svg" xmlns:xlink="http://www.w3.org/1999/xlink" x="0px" y="0px"
	 viewBox="0 0 480 480" style="enable-background:new 0 0 480 480;" xml:space="preserve">
<style type="text/css">
	.st0{fill:#FFFFFF;}
	.st1{fill:#FFDF2B;}
</style>
<g>
	<g>
		<path class="st0" d="M472,240c0,128.1-103.9,232-232,232S8,368.1,8,240S111.9,8,240,8S472,111.9,472,240z"/>
		<path d="M240,0C107.5,0,0,107.5,0,240s107.5,240,240,240s240-107.5,240-240C479.9,107.5,372.5,0.1,240,0z M240,464
			C116.3,464,16,363.7,16,240S116.3,16,240,16s224,100.3,224,224C463.9,363.7,363.7,463.9,240,464z"/>
	</g>
	<g>
		<polygon class="st1" points="166.2,380.8 149.7,162.5 132.3,157.9 138.3,127.7 207.4,123.1 217.3,93.7 265.7,93.7 276,117.2 
			344.8,124.9 354.2,163.4 336.8,163.4 314.8,386.3 		"/>
		<g>
			<path d="M362.6,151.8l-6.6-21.1c-2.5-8-9.5-13.4-17.4-13.4h-55.3V98c0-9.6-7.3-17.5-16.3-17.5h-50.7c-9,0-16.3,7.8-16.3,17.5
				v19.3h-55.3c-7.9,0-14.9,5.4-17.4,13.4l-6.6,21.1c-1.5,4.8-0.7,10.1,2,14.2c2.8,4.1,7.2,6.6,12,6.6h6.9L156.5,373
				c1.1,14.9,12.9,26.5,26.9,26.5h119.3c13.9,0,25.7-11.6,26.9-26.5l15.1-200.4h3.8c4.7,0,9.2-2.5,12-6.6
				C363.3,161.9,364.1,156.6,362.6,151.8z M217.3,99.2h48.4v18.1h-48.4V99.2z M312.2,371.5c-0.4,5.2-4.5,9.3-9.4,9.3H183.4
				c-4.9,0-9-4.1-9.4-9.3l-15-198.9h168.3L312.2,371.5z M138.3,153.9l5.4-17.3c0.1-0.4,0.5-0.7,0.9-0.7h194c0.4,0,0.7,0.3,0.9,0.7
				l5.4,17.3H138.3z"/>
			<path d="M284.3,370.8c0.2,0,0.3,0,0.5,0c4.6,0,8.5-3.9,8.7-8.9l8.2-168.5c0.3-5.2-3.5-9.6-8.3-9.8c-4.8-0.3-8.9,3.7-9.2,8.8
				L276,361C275.8,366.1,279.5,370.5,284.3,370.8z"/>
			<path d="M190,362c0.3,5,4.1,8.8,8.7,8.8c0.2,0,0.3,0,0.5,0c4.8-0.3,8.5-4.7,8.2-9.8l-8.6-168.5c-0.3-5.2-4.4-9.1-9.2-8.8
				c-4.8,0.3-8.5,4.7-8.2,9.8L190,362z"/>
			<path d="M241.6,370.8c4.8,0,8.7-4.2,8.7-9.3V193c0-5.2-3.9-9.3-8.7-9.3s-8.7,4.2-8.7,9.3v168.5
				C232.9,366.6,236.8,370.8,241.6,370.8z"/>
		</g>
	</g>
</g>
</svg>
