<?xml version="1.0" encoding="utf-8"?>
<!-- Generator: Adobe Illustrator 23.0.3, SVG Export Plug-In . SVG Version: 6.00 Build 0)  -->
<svg version="1.1" id="Слой_1" xmlns="http://www.w3.org/2000/svg" xmlns:xlink="http://www.w3.org/1999/xlink" x="0px" y="0px"
	 viewBox="0 0 480 480" style="enable-background:new 0 0 480 480;" xml:space="preserve">
<style type="text/css">
	.st0{fill:#FFFFFF;}
	.st1{fill:#FFDF2B;}
	.st2{fill:#231F20;}
</style>
<path class="st0" d="M136,320h232c30.9,0,56-25.1,56-56s-25.1-56-56-56c-0.1,0-0.3,0-0.4,0c-3.7-49.2-41.6-89-90.5-95.2
	s-95.5,22.9-111.4,69.6c-26.8-12.1-58.3-6.7-79.5,13.6s-28,51.6-17,78.8C80.1,302.1,106.6,320,136,320z"/>
<path class="st1" d="M264,272v-72h-48v72h-40l34.9,48l29.1,40l29.1-40l34.9-48H264z"/>
<g>
	<path class="st2" d="M374.8,200.3c-7-49.8-46.3-88.8-96.1-95.4s-97.9,20.9-117.6,67.1c-8.1-2.7-16.5-4.1-25-4.1
		c-44.2,0-80,35.8-80,80s35.8,80,80,80H207l33.1,45.6l33.1-45.6H368c34.2,0.2,62.5-26.5,64.3-60.6
		C434.1,233.3,408.8,203.7,374.8,200.3z M240,346.4L191.7,280H224v-72h32v72h32.3L240,346.4z M368,312h-83.2l34.9-48H272v-72h-64v72
		h-47.7l34.9,48H136c-35.3,0-64-28.7-64-64s28.7-64,64-64c9.1,0,18.1,1.9,26.3,5.8l8.1,3.6l2.8-8.3c14.7-43.1,57.6-70,102.8-64.3
		s80.1,42.4,83.6,87.9l0.6,7.4h8.1c26.5,0.1,47.9,21.6,47.9,48.1C416.1,290.6,394.5,312.1,368,312z"/>
</g>
</svg>
