<?xml version="1.0" encoding="utf-8"?>
<!-- Generator: Adobe Illustrator 23.0.3, SVG Export Plug-In . SVG Version: 6.00 Build 0)  -->
<svg version="1.1" id="Capa_1" xmlns="http://www.w3.org/2000/svg" xmlns:xlink="http://www.w3.org/1999/xlink" x="0px" y="0px"
	 viewBox="0 0 512 512" style="enable-background:new 0 0 512 512;" xml:space="preserve">
<style type="text/css">
	.st0{fill:#FFDF2B;}
	.st1{fill:#FFFFFF;}
	.st2{fill:#F4F4F4;}
</style>
<g>
	<path class="st0" d="M358.4,332.8V384c0,9.4-7.7,17-17.1,17.1H273c-9.4,0-17-7.7-17.1-17.1v-51.2H358.4z"/>
	<rect x="256" y="256" class="st0" width="102.4" height="76.8"/>
	<rect x="256" y="179.2" class="st1" width="102.4" height="76.8"/>
	<path class="st1" d="M358.4,119.5v59.7H256v-59.7c0-9.4,7.7-17,17.1-17.1h68.3C350.7,102.4,358.4,110.1,358.4,119.5z"/>
	<path d="M108.1,146.5c13.3-13.3,34.9-13.3,48.3,0l42.2,42.2L150.3,237l-42.2-42.2C94.8,181.5,94.8,159.9,108.1,146.5z"/>
	<path class="st2" d="M150.3,237.1l48.3-48.3l84.5,84.5c13.3,13.3,13.3,34.9,0,48.3s-34.9,13.3-48.3,0L150.3,237.1z"/>
	<g>
		<path d="M341.3,93.9H273c-14.1,0-25.6,11.5-25.6,25.6v106.1l-36.8-36.8l6-6c2.2-2.2,3-5.3,2.2-8.2s-3.1-5.2-6-6s-6.1,0.1-8.2,2.2
			l-6,6l-36.2-36.2c-16.7-16.7-43.7-16.7-60.3,0s-16.7,43.7,0,60.3l36.2,36.2l-6,6c-3.3,3.3-3.3,8.7,0,12.1c3.3,3.4,8.7,3.3,12.1,0
			l6-6l78.4,78.4c5.2,5.1,11.6,8.8,18.7,10.7V384c0,14.1,11.5,25.6,25.6,25.6h68.3c14.1,0,25.6-11.5,25.6-25.6V119.5
			C366.9,105.3,355.5,93.9,341.3,93.9z M273.1,110.9h68.3c4.7,0,8.5,3.8,8.5,8.5v51.2h-85.3v-51.2
			C264.5,114.8,268.4,110.9,273.1,110.9z M264.5,187.7h85.3v59.7h-80.5l-4.8-4.8V187.7L264.5,187.7z M114.1,152.6
			c10-10,26.2-10,36.2,0l36.2,36.2L150.3,225l-36.2-36.2C104.1,178.8,104.1,162.6,114.1,152.6z M162.4,237l36.2-36.2l51.3,51.4
			l0.1,0.1l9.8,9.8l0,0l17.2,17.2c10,10,10,26.2,0,36.2l0,0l0,0c-10,10-26.2,10-36.2,0L162.4,237z M341.3,392.5H273
			c-4.7,0-8.5-3.8-8.5-8.5v-44.5c1.8-0.2,3.7-0.6,5.5-1.1c0.9,5,3.4,9.7,7,13.3c3.3,3.3,8.7,3.3,12,0s3.3-8.7,0-12
			c-1.6-1.6-2.5-3.8-2.5-6c0-2.3,0.9-4.4,2.5-6c3.4-3.2,8.7-3.2,12.1,0c3.3,3.3,8.7,3.3,12.1,0s3.3-8.7,0-12.1
			c-3.6-3.6-8.3-6-13.4-6.8c4.1-14.7,0-30.6-10.8-41.5l-2.7-2.7h63.4v59.7h-17.1c-4.7,0-8.5,3.8-8.5,8.5s3.8,8.5,8.5,8.5h17.1V384
			C349.9,388.7,346,392.5,341.3,392.5z"/>
	</g>
</g>
</svg>
