<?xml version="1.0" encoding="utf-8"?>
<!-- Generator: Adobe Illustrator 23.0.3, SVG Export Plug-In . SVG Version: 6.00 Build 0)  -->
<svg version="1.1" id="Capa_1" xmlns="http://www.w3.org/2000/svg" xmlns:xlink="http://www.w3.org/1999/xlink" x="0px" y="0px"
	 viewBox="0 0 512 512" style="enable-background:new 0 0 512 512;" xml:space="preserve">
<style type="text/css">
	.st0{fill:#FFFFFF;}
	.st1{stroke:#000000;stroke-width:7;stroke-miterlimit:10;}
	.st2{fill:#FFDF2B;}
</style>
<circle class="st0" cx="256" cy="256" r="247.5"/>
<ellipse class="st0" cx="243.2" cy="256" rx="234.7" ry="247.5"/>
<path class="st1" d="M256,117.4c-98.7,0-178.7,62-178.7,138.6s80,138.6,178.7,138.6s178.7-62,178.7-138.6
	C434.6,179.5,354.6,117.5,256,117.4z M256,385.3c-92.2,0-166.8-57.8-166.8-129.3S163.8,126.7,256,126.7S422.8,184.5,422.8,256
	C422.7,327.4,348.1,385.3,256,385.3z"/>
<g>
	<g>
		
			<ellipse transform="matrix(0.7197 -0.6943 0.6943 0.7197 -105.1646 250.3822)" class="st2" cx="257.5" cy="255.4" rx="16.4" ry="14.2"/>
		
			<ellipse transform="matrix(0.7197 -0.6943 0.6943 0.7197 -110.5427 372.4549)" class="st2" cx="406" cy="323.1" rx="16.4" ry="14.2"/>
	</g>
	<path d="M425.9,315.5c-2.6-10.5-13.7-15.5-24.7-11.2c-3.5,1.4-6.8,3.7-9.4,6.6L277,258.5c1.1-3.6,1.2-7.3,0.5-10.6
		c-2.7-10.5-13.7-15.5-24.7-11.2c-11,4.3-17.8,16.1-15.2,26.6c2.6,10.5,13.7,15.5,24.7,11.2c3.5-1.4,6.8-3.7,9.4-6.6l114.7,52.3
		c-1.1,3.6-1.2,7.3-0.5,10.6c2.7,10.5,13.7,15.5,24.7,11.2C421.8,337.8,428.5,325.9,425.9,315.5z M247.6,259.4c-1.1-4.3,1-9.2,5-12
		c4.1-2.9,9.2-2.8,12.3,0.1c3.3,2.8,3.8,7.8,1.3,12.1l0,0l0,0c-2.1,3.9-6.3,6.2-10.4,6.3C251.8,265.6,248.6,263.1,247.6,259.4
		L247.6,259.4z M396,327c-0.6-2.5-0.2-5.3,1.3-7.8l0,0l0,0c2.6-4.5,7.7-7,12.3-6s7.3,5.2,6.6,10.1c-0.7,4.9-4.8,9.1-9.7,9.9
		C401.5,334.1,397.1,331.5,396,327L396,327z"/>
</g>
<g>
	<g>
		
			<ellipse transform="matrix(0.7197 -0.6943 0.6943 0.7197 -98.2694 129.0513)" class="st2" cx="110.7" cy="186.2" rx="16.4" ry="14.2"/>
		
			<ellipse transform="matrix(0.7197 -0.6943 0.6943 0.7197 -103.6547 251.0804)" class="st2" cx="259.1" cy="253.9" rx="16.4" ry="14.2"/>
	</g>
	<path d="M279,246.2c-2.6-10.5-13.7-15.5-24.7-11.2c-3.5,1.4-6.8,3.7-9.4,6.6l-114.7-52.3c1.1-3.6,1.2-7.3,0.5-10.6
		c-2.7-10.5-13.7-15.5-24.7-11.2c-11.1,4.2-17.8,16.1-15.2,26.6c2.6,10.5,13.7,15.5,24.7,11.2c3.5-1.4,6.8-3.7,9.4-6.6L239.6,251
		c-1.1,3.6-1.2,7.3-0.5,10.6c2.7,10.5,13.7,15.5,24.7,11.2C274.9,268.6,281.7,256.8,279,246.2z M100.7,190.1c-1.1-4.3,1-9.2,5-12
		c4.1-2.9,9.2-2.8,12.3,0.1c3.3,2.8,3.8,7.8,1.3,12.1l0,0l0,0c-2.1,3.9-6.3,6.2-10.4,6.3C105,196.5,101.8,193.9,100.7,190.1
		L100.7,190.1z M249.1,257.7c-0.6-2.5-0.2-5.3,1.3-7.8l0,0l0,0c2.6-4.5,7.7-7,12.3-6s7.3,5.2,6.6,10.1c-0.7,4.9-4.8,9.1-9.7,9.9
		C254.6,264.8,250.2,262.3,249.1,257.7L249.1,257.7z"/>
</g>
</svg>
