<?xml version="1.0" encoding="utf-8"?>
<!-- Generator: Adobe Illustrator 23.0.3, SVG Export Plug-In . SVG Version: 6.00 Build 0)  -->
<svg version="1.1" id="Capa_1" xmlns="http://www.w3.org/2000/svg" xmlns:xlink="http://www.w3.org/1999/xlink" x="0px" y="0px"
	 viewBox="0 0 512 512" style="enable-background:new 0 0 512 512;" xml:space="preserve">
<style type="text/css">
	.st0{fill:#FFFFFF;}
	.st1{fill:#FFDF2B;}
</style>
<circle class="st0" cx="256" cy="256" r="247.5"/>
<ellipse class="st0" cx="243.2" cy="256" rx="234.7" ry="247.5"/>
<path class="st1" d="M399.6,207.2l-9.8,9.7L264.2,342.6l-23.8-23.8l-74.5-74.6l125.6-125.6l9.8-9.7c6.7-6.7,17.5-6.7,24.1,0
	l74.2,74.2C406.3,189.7,406.3,200.5,399.6,207.2z"/>
<path class="st0" d="M264.2,342.6L210.7,396c-3.2,3.2-7.5,5.1-12.1,5.1s-8.9-1.8-12.1-5.1l-74.2-74.2c-6.7-6.7-6.7-17.5,0-24.1
	l53.5-53.5l74.5,74.6L264.2,342.6z"/>
<path class="st1" d="M375.8,183.4l-9.8,9.7L240.4,318.8l-74.5-74.6l125.6-125.6l9.8-9.7c6.7-6.7,17.5-6.7,24.1,0l50.3,50.3
	C382.5,165.9,382.5,176.7,375.8,183.4z"/>
<path class="st0" d="M240.4,318.8l-53.5,53.4c-3.2,3.2-7.5,5.1-12.1,5.1s-8.9-1.8-12.1-5.1l-50.3-50.3c-6.7-6.7-6.7-17.5,0-24.1
	l53.5-53.5L240.4,318.8z"/>
<path d="M256,0C114.6,0,0,114.6,0,256s114.6,256,256,256s256-114.6,256-256C511.8,114.7,397.3,0.2,256,0z M256,494.9
	C124,494.9,17.1,388,17.1,256S124,17.1,256,17.1S494.9,124,494.9,256C494.8,387.9,387.9,494.8,256,494.9z"/>
<path d="M331.5,102.8c-10-10-26.2-10-36.2,0L106.4,291.7c-10,10-10,26.2,0,36.2l74.2,74.2c4.8,4.8,11.3,7.5,18.1,7.5
	c0.2,0,0.4,0,0.5-0.1c0.1,0,0.2,0.1,0.3,0.1h153.6c4.7,0,8.5-3.8,8.5-8.5s-3.8-8.5-8.5-8.5H226.3l179.3-179.3c10-10,10-26.2,0-36.2
	L331.5,102.8z M313.4,112.4c2.3,0,4.4,0.9,6,2.5l74.2,74.2c3.3,3.3,3.3,8.7,0,12.1l-9.8,9.8l0,0L264.2,330.5l-86.3-86.3l119.6-119.6
	l0,0l9.8-9.8C308.9,113.3,311.1,112.4,313.4,112.4z M118.4,315.9c-3.3-3.3-3.3-8.7,0-12.1l47.4-47.4l86.3,86.3L204.7,390
	c-3.3,3.3-8.7,3.3-12.1,0L118.4,315.9z"/>
</svg>
