<?xml version="1.0" encoding="utf-8"?>
<!-- Generator: Adobe Illustrator 23.0.3, SVG Export Plug-In . SVG Version: 6.00 Build 0)  -->
<svg version="1.1" id="Capa_1" xmlns="http://www.w3.org/2000/svg" xmlns:xlink="http://www.w3.org/1999/xlink" x="0px" y="0px"
	 viewBox="0 0 512 512" style="enable-background:new 0 0 512 512;" xml:space="preserve">
<style type="text/css">
	.st0{fill:#556080;}
	.st1{fill:#FFFFFF;}
	.st2{fill:#FFDF2B;}
</style>
<g>
	<g>
		<rect x="162.1" y="162.1" class="st0" width="34.1" height="34.1"/>
		<rect x="315.7" y="315.7" class="st0" width="34.1" height="34.1"/>
	</g>
	<circle class="st1" cx="256" cy="256" r="247.5"/>
	<ellipse class="st1" cx="243.2" cy="256" rx="234.7" ry="247.5"/>
	<rect x="93.9" y="162.1" class="st1" width="34.1" height="34.1"/>
	<g>
		<rect x="315.7" y="384" class="st1" width="34.1" height="34.1"/>
		<rect x="315.7" y="281.6" class="st1" width="34.1" height="34.1"/>
	</g>
	<rect x="315.7" y="247.5" class="st1" width="34.1" height="34.1"/>
	<rect x="315.7" y="213.3" class="st1" width="34.1" height="34.1"/>
	<g>
		<polygon class="st1" points="349.9,162.1 349.9,213.3 315.7,213.3 315.7,196.3 		"/>
		<rect x="264.5" y="162.1" class="st1" width="34.1" height="34.1"/>
	</g>
	<g>
		<rect x="196.3" y="162.1" class="st1" width="34.1" height="34.1"/>
		<rect x="315.7" y="349.9" class="st1" width="34.1" height="34.1"/>
	</g>
	<polygon class="st1" points="349.9,162.1 315.7,196.3 298.7,196.3 298.7,162.1 	"/>
	<g>
		<path d="M256,0C114.6,0,0,114.6,0,256s114.6,256,256,256s256-114.6,256-256C511.8,114.7,397.3,0.2,256,0z M256,494.9
			C124,494.9,17.1,388,17.1,256S124,17.1,256,17.1S494.9,124,494.9,256C494.8,387.9,387.9,494.8,256,494.9z"/>
	</g>
</g>
<circle class="st2" cx="226.5" cy="220.5" r="23.1"/>
<polygon class="st2" points="76,351.5 85.4,307.4 143,264.5 162.1,264.5 202.7,294 225.8,307.4 264.5,289 324.3,255.6 324.3,356.6 
	283.3,365.7 110.9,367 85.4,361.3 76,356.6 "/>
<g>
	<g>
		<g>
			<path d="M225.8,187c-17.3,0-31.3,15.3-31.3,34.3c0,18.9,14,34.3,31.3,34.3c17.3,0,31.3-15.3,31.3-34.3S243.1,187,225.8,187z
				 M225.8,239.3c-9.1,0-16.4-8-16.4-18c0-9.9,7.3-18,16.4-18l0,0c9.1,0,16.4,8,16.4,18C242.2,231.2,234.9,239.3,225.8,239.3z"/>
			<path d="M350.6,108.7L147.2,83.4c-7.9-1.2-15.9,1.3-22,6.9c-6.1,5.2-10,12.8-10.8,21.2l-3.7,33.5H99.2
				c-16.4,0-28.7,15.9-28.7,33.9v166.9c-0.4,17.1,11.9,31.4,27.5,31.8c0.4,0,0.8,0,1.1,0h204.5c16.4,0,31.3-13.9,31.3-31.8v-6.5
				c5.1-1.1,9.9-3.3,14.2-6.5c6-5.6,9.9-13.5,10.8-22L377,145C378.8,127,367,110.8,350.6,108.7z M320.1,345.8
				c0,9-8.2,15.5-16.4,15.5H99.2c-7.4,0.2-13.6-6.1-13.8-14.3c0-0.4,0-0.8,0-1.3v-30.2l57.7-46.5c6.9-5.8,16.7-5.3,23.1,1.2
				l40.6,39.2c6.2,5.7,13.9,8.8,22,9c6.3,0.1,12.5-1.8,17.9-5.3l73.4-46.5L320.1,345.8L320.1,345.8z M320.1,247.4l-81.2,51.8
				c-7,4.5-15.8,3.7-22-2l-41-39.6c-11.7-11.1-28.9-11.7-41.3-1.6l-49.2,39.2V178.9c0-9,5.6-17.5,13.8-17.5h204.5
				c8.8,0.4,15.8,8,16.4,17.5V247.4L320.1,247.4z M362.2,142.8c0,0.1,0,0.1,0,0.2l-17.5,165.7c0,4.3-1.8,8.4-4.8,11
				c-1.5,1.6-4.8,2.4-4.8,3.3V178.9c-0.6-18.6-14.3-33.5-31.3-33.9h-178l3.4-31.8c0.7-4.1,2.7-7.9,5.6-10.6
				c3.3-2.5,7.2-3.6,11.2-3.3l203,25.7C356.9,125.9,362.9,133.8,362.2,142.8z"/>
		</g>
	</g>
</g>
<polygon class="st1" points="273,395.5 273,301.8 273,283.1 291.5,274.1 398.9,281.6 414,287 414,404.6 398.9,424 298.6,424 
	283.3,419.8 273,411 "/>
<circle class="st2" cx="315.6" cy="310.9" r="8.7"/>
<circle class="st2" cx="372.1" cy="349.5" r="9.9"/>
<circle class="st2" cx="332.7" cy="392.4" r="8.4"/>
<g>
	<path d="M390.7,274.1h-99.1c-15.2,0-27.6,12.4-27.6,27.7v99.4c0,15.3,12.4,27.7,27.6,27.7h99.1c15.2,0,27.6-12.4,27.6-27.7v-99.4
		C418.3,286.5,405.9,274.1,390.7,274.1L390.7,274.1z M409.3,401.2c0,10.3-8.3,18.6-18.6,18.6h-99.1c-10.2,0-18.6-8.4-18.6-18.6V384
		v-82.2c0-10.3,8.3-18.6,18.6-18.6h99.1c10.2,0,18.6,8.4,18.6,18.6V401.2z"/>
	<path d="M394.4,308.1h-68.9c-1.9-5.6-7.2-9.7-13.5-9.7s-11.6,4.1-13.5,9.7h-10.8c-2.5,0-4.5,2-4.5,4.5s2,4.5,4.5,4.5h10.8
		c1.9,5.6,7.2,9.7,13.5,9.7s11.6-4.1,13.5-9.7h68.9c2.5,0,4.5-2,4.5-4.5S396.9,308.1,394.4,308.1z M312.1,317.8
		c-2.8,0-5.2-2.3-5.2-5.2c0-2.9,2.3-5.2,5.2-5.2c2.8,0,5.2,2.3,5.2,5.2C317.2,315.5,314.9,317.8,312.1,317.8z"/>
	<path d="M394.4,346.9h-10.8c-1.9-5.6-7.2-9.7-13.5-9.7s-11.6,4.1-13.5,9.7h-68.9c-2.5,0-4.5,2-4.5,4.5s2,4.5,4.5,4.5h68.9
		c1.9,5.6,7.2,9.7,13.5,9.7s11.6-4.1,13.5-9.7h10.8c2.5,0,4.5-2,4.5-4.5S396.9,346.9,394.4,346.9z M370.2,356.6
		c-2.8,0-5.2-2.3-5.2-5.2c0-2.9,2.3-5.2,5.2-5.2c2.8,0,5.2,2.3,5.2,5.2C375.3,354.3,373,356.6,370.2,356.6z"/>
	<path d="M394.4,385.8h-49.5c-1.9-5.6-7.2-9.7-13.5-9.7s-11.6,4.1-13.5,9.7h-30.1c-2.5,0-4.5,2-4.5,4.5s2,4.5,4.5,4.5H318
		c1.9,5.6,7.2,9.7,13.5,9.7s11.6-4.1,13.5-9.7h49.5c2.5,0,4.5-2,4.5-4.5S396.9,385.8,394.4,385.8z M331.4,395.5
		c-2.8,0-5.2-2.3-5.2-5.2c0-2.9,2.3-5.2,5.2-5.2c2.8,0,5.2,2.3,5.2,5.2C336.6,393.2,334.3,395.5,331.4,395.5z"/>
</g>
</svg>
