<?xml version="1.0" encoding="utf-8"?>
<!-- Generator: Adobe Illustrator 23.0.3, SVG Export Plug-In . SVG Version: 6.00 Build 0)  -->
<svg version="1.1" id="Capa_1" xmlns="http://www.w3.org/2000/svg" xmlns:xlink="http://www.w3.org/1999/xlink" x="0px" y="0px"
	 viewBox="0 0 512 512" style="enable-background:new 0 0 512 512;" xml:space="preserve">
<style type="text/css">
	.st0{fill:#FFFFFF;}
	.st1{fill:#FFDF2B;}
</style>
<g>
	<path class="st0" d="M237.4,213.4l65,61.6l-50.1,21l-25.1,28.8L162,378.3c0,0-39.6-23.6-37.2-23.6c2.4,0,26.3-44.6,26.3-44.6
		l27.5-14.2l13.8-9.6l37.6-44.4L237.4,213.4z"/>
	<path class="st1" d="M237.4,192.3L351,85.9c0,0,51.6,17.5,54.7,17.5c3.1,0,16.8,35.7,16.8,35.7L306.9,275l-69.5-72.6V192.3z"/>
	<polygon class="st1" points="112.8,341.5 164.2,392.2 130.7,429.8 85.3,378.3 	"/>
	<g>
		<path d="M413.4,91.9c-24.6-25.1-64.7-25.1-89.3,0L220,197.9l-7.4,53.1l-25.5,26l-22.3,7.6l-92.1,93.7l59.5,60.6l92.1-93.7
			l7.4-22.7l25.5-26l52.1-7.6l104.1-106C438,157.8,438,117,413.4,91.9L413.4,91.9z M233.7,252.2l3.7-26.5l44.7,45.5l-26,3.8
			L233.7,252.2z M102.4,378.3l14.9-15.2l29.8,30.3l-14.9,15.2L102.4,378.3z M213.3,310.8l-7.4,22.7L162,378.3L132.2,348l43.9-44.7
			l22.3-7.6l24.1-24.5l14.9,15.2L213.3,310.8z M398.5,167.7l-94.2,95.9L244.8,203l94.2-95.9c16.4-16.7,43.1-16.7,59.5,0
			C415,123.8,415,151,398.5,167.7L398.5,167.7z"/>
	</g>
</g>
</svg>
