<?xml version="1.0" encoding="utf-8"?>
<!-- Generator: Adobe Illustrator 23.0.3, SVG Export Plug-In . SVG Version: 6.00 Build 0)  -->
<svg version="1.1" id="Capa_1" xmlns="http://www.w3.org/2000/svg" xmlns:xlink="http://www.w3.org/1999/xlink" x="0px" y="0px"
	 viewBox="0 0 512 512" style="enable-background:new 0 0 512 512;" xml:space="preserve">
<style type="text/css">
	.st0{fill:#FFFFFF;}
	.st1{fill:#FFDF2B;}
</style>
<g>
	<path class="st0" d="M34.1,8.5h443.7c14.1,0,25.6,11.5,25.6,25.6v443.7c0,14.1-11.5,25.6-25.6,25.6H34.1
		C20,503.5,8.5,492,8.5,477.9V34.1C8.5,20,20,8.5,34.1,8.5z"/>
	<path class="st0" d="M34.1,8.5h418.1c14.1,0,25.6,11.5,25.6,25.6v443.7c0,14.1-11.5,25.6-25.6,25.6H34.1
		C20,503.5,8.5,492,8.5,477.9V34.1C8.5,20,20,8.5,34.1,8.5z"/>
	<g>
		<path d="M223.3,372.6c5.6,0,11.1,0,16.4,0.2c-20.9,0.3-39.1,1.3-51.5,2.7l-0.1-2.2C198.8,372.7,210.8,372.6,223.3,372.6z"/>
		<path d="M426.9,98l-64.3,163l-38.4,97.5l-0.4,17.1c-8.5-0.9-19.7-1.8-32.6-2.2l0.3-14.8L330,261l64.3-163
			c1.7-4.3,1.6-9.1-0.3-13.3c-1.9-4.2-5.5-7.5-9.8-9c-17.5-6-35.5-10.8-53.7-14.3c-2.4-0.4-4.8-0.9-7.3-1.4
			c-3.2-0.6-6.3-1.1-9.6-1.6c-15.5-2.6-31.8-4.4-48.7-5.5c-2.6-0.3-5.3-0.4-8-0.6c-3-0.2-6-0.3-9-0.3c-2.8-0.2-5.8-0.3-8.7-0.3
			c2.7-0.1,5.5-0.2,8.4-0.2c2.8-0.1,5.7-0.1,8.5-0.1c8.3,0,16.5,0.2,24.5,0.6c3.1,0,6.1,0.2,9,0.3c2.7,0.2,5.4,0.3,8,0.6
			c16.9,1.1,33.2,3,48.7,5.5c3.2,0.5,6.4,1,9.6,1.6c2.5,0.4,4.9,0.9,7.3,1.4c18.2,3.5,36.1,8.3,53.7,14.3c4.4,1.5,7.9,4.8,9.8,9
			C428.5,88.8,428.6,93.7,426.9,98z"/>
	</g>
	<g>
		<path class="st1" d="M394.2,98L330,261l-38.4,97.5l-0.3,14.8c-10.8-0.5-22.7-0.7-35.2-0.7c-5.5,0-11,0-16.3,0.2
			c-5.3-0.2-10.8-0.2-16.4-0.2c-12.5,0-24.5,0.2-35.2,0.7l-0.3-14.8L149.3,261L85.1,98c-1.7-4.3-1.6-9.1,0.3-13.3
			c1.9-4.2,5.5-7.5,9.8-9c1.7-0.6,3.4-1.2,5.2-1.7c9.2-3.2,18.9-5.9,29-8.3c0.2-0.1,0.4-0.1,0.6-0.2l32.1,88.1V58.9
			c11.4-2,23.2-3.6,35.3-4.8c2.6-0.3,5.3-0.5,8-0.8c3-0.3,6-0.5,9-0.7c7.7-0.6,15.3-1,23.2-1.2h0.3c0.3,0,0.6,0,0.9,0h0.2
			c2.9,0.1,5.9,0.2,8.7,0.3c3.1,0,6.1,0.2,9,0.3c2.7,0.2,5.4,0.3,8,0.6c16.9,1.1,33.2,3,48.7,5.5c3.2,0.5,6.4,1,9.6,1.6
			c2.5,0.4,4.9,0.9,7.3,1.4c18.2,3.5,36.1,8.3,53.7,14.3c4.4,1.5,7.9,4.8,9.8,9C395.8,88.8,396,93.7,394.2,98z"/>
		<path class="st1" d="M291.2,373.2l-0.1,2.2c-12.5-1.5-30.6-2.4-51.5-2.7c5.3-0.2,10.8-0.2,16.3-0.2
			C268.5,372.6,280.5,372.7,291.2,373.2z"/>
	</g>
	<rect x="179.2" y="443.7" width="153.6" height="59.7"/>
	<rect x="179.2" y="443.7" class="st1" width="128" height="59.7"/>
	<path d="M341.3,365.7v87.7c0,1.2-3.3,2.3-9.3,3.3c-25.2,3.1-50.6,4.4-76,4c-25.4,0.4-50.8-0.9-76-4c-6-1-9.3-2.1-9.3-3.3v-87.7
		c0-1.9,8.4-3.6,22.2-4.9c15.6-1.5,38.1-2.4,63.1-2.4c25,0,47.5,0.9,63.1,2.4C333,362.2,341.3,363.9,341.3,365.7z"/>
	<path class="st0" d="M315.7,365.7v87.7c0,1.2-2.8,2.3-7.9,3.3c-21.4,3.1-43,4.4-64.6,4c-21.6,0.4-43.2-0.9-64.6-4
		c-5.1-1-7.9-2.1-7.9-3.3v-87.7c0-1.9,7.1-3.6,18.9-4.9c17.8-1.7,35.8-2.5,53.7-2.4c17.9-0.1,35.8,0.7,53.7,2.4
		C308.6,362.2,315.7,363.9,315.7,365.7z"/>
	<circle class="st1" cx="281.6" cy="409.6" r="17.1"/>
	<path d="M477.9,0H34.1C15.3,0,0,15.3,0,34.1v443.7C0,496.7,15.3,512,34.1,512h443.7c18.8,0,34.1-15.3,34.1-34.1V34.1
		C512,15.3,496.7,0,477.9,0z M187.7,494.9v-28.4c22.7,2.2,45.5,3.2,68.3,2.8c22.8,0.4,45.6-0.6,68.3-2.8v28.4H187.7z M124.7,75.7
		l29.4,80.8c1.2,3.4,4.4,5.6,8,5.6c0.5,0,1,0,1.5-0.1c4.1-0.7,7-4.3,7.1-8.4V66.2c8.9-1.4,17.8-2.5,26.9-3.5l7.3,117
		c0.3,4.5,4,8,8.5,8c0.2,0,0.4,0,0.5,0c4.7-0.3,8.3-4.3,8-9l-7.3-117.4c8-0.6,16.1-1,24.4-1.2v161.8c0,4.7,3.8,8.5,8.5,8.5
		c4.7,0,8.5-3.8,8.5-8.5V59.7c8,0.2,16.2,0.3,24.5,0.6l-7.4,118.3c-0.3,4.7,3.3,8.8,8,9.1c0.2,0,0.4,0,0.5,0c4.5,0,8.2-3.5,8.5-8
		l7.4-118.5c16.7,1.2,33,3.1,48.6,5.7l-21.8,145.1c-0.7,4.7,2.5,9,7.2,9.7c0.4,0.1,0.8,0.1,1.3,0.1c4.2,0,7.8-3.1,8.4-7.3L363,70
		c17.3,3.4,34.3,8,51,13.6c2.1,0.7,3.9,2.3,4.8,4.3c1,2.2,1.1,4.6,0.2,6.8L317.6,352.1c-2.1-0.2-4.3-0.4-6.6-0.5l-0.1,0
		c-2.4-0.2-4.8-0.3-7.4-0.5c-0.7,0-1.4-0.1-2.1-0.1c-1.9-0.1-3.9-0.2-5.9-0.3c-0.9,0-1.8-0.1-2.7-0.1c-1.9-0.1-3.8-0.1-5.7-0.2
		c-1,0-2.1-0.1-3.1-0.1c-1.9-0.1-3.9-0.1-5.9-0.2c-1.1,0-2.1,0-3.2-0.1c-2.1,0-4.3-0.1-6.5-0.1c-1,0-1.9,0-2.9,0c-3.1,0-6.3,0-9.5,0
		c-3.2,0-6.4,0-9.5,0c-1,0-1.9,0-2.9,0c-2.2,0-4.3,0.1-6.5,0.1c-1.1,0-2.1,0-3.2,0.1c-2,0-4,0.1-5.9,0.2c-1,0-2.1,0.1-3.1,0.1
		c-1.9,0.1-3.8,0.1-5.7,0.2c-0.9,0-1.9,0.1-2.8,0.1c-2,0.1-3.9,0.2-5.8,0.3c-0.7,0-1.5,0.1-2.2,0.1c-2.5,0.1-4.9,0.3-7.2,0.5l-0.2,0
		c-2.3,0.2-4.5,0.3-6.6,0.5L93,94.9c-0.9-2.2-0.8-4.7,0.2-6.9c0.9-2.1,2.7-3.6,4.8-4.4C106.6,80.6,115.6,78,124.7,75.7z M332.8,448
		c-25.5,3.4-51.1,4.8-76.8,4.3c-25.7,0.5-51.3-0.9-76.8-4.3v-76.8c2.1-0.4,5.2-0.9,9.9-1.4c22.2-2.1,44.5-3.1,66.9-2.8
		c3.3,0,6.6,0,9.9,0c19.5,0.2,37.3,0.9,50.7,2.2c2.2,0.2,4.3,0.4,6.3,0.6l0,0l0,0c4.7,0.5,7.8,1,9.9,1.4L332.8,448L332.8,448z
		 M494.9,477.9c0,9.4-7.6,17.1-17.1,17.1H341.3v-31.9c8.5-2.9,8.5-6.4,8.5-9.6v-87.7c0-7.3-6.6-10.1-14.8-11.5L434.9,101
		c2.5-6.5,2.3-13.8-0.6-20.2c-2.9-6.3-8.2-11.1-14.7-13.3c-20.3-6.9-41.1-12.3-62.2-16c-22.3-4-44.7-6.7-67.3-7.9l0,0l0,0l-0.1,0
		c-14.6-0.8-29.2-1.2-42.1-0.9c-0.1,0-0.2-0.1-0.4-0.1c-0.2,0-0.3,0.1-0.5,0.1c-14.4,0.2-28.6,0.9-42.2,2.1
		c-14.8,1.3-29.6,3.2-44.1,5.6c-0.3,0.1-0.6,0.2-0.9,0.3c-0.6,0.2-1.1,0.4-1.6,0.6c-0.5,0.3-0.9,0.5-1.3,0.9
		c-1.8,1.4-2.9,3.4-3.1,5.6c-0.1,0.3-0.1,0.6-0.2,1v46.3l-15.5-42.7c-0.2-0.4-0.4-0.7-0.6-1c-0.2-0.5-0.5-1-0.9-1.4
		c-0.4-0.4-0.8-0.8-1.2-1.1c-0.4-0.3-0.8-0.6-1.3-0.9c-0.5-0.3-1-0.4-1.6-0.6c-0.5-0.2-1-0.3-1.5-0.4c-0.6,0-1.2,0-1.7,0.1
		c-0.4,0-0.8,0-1.2,0c-12.1,2.8-24,6.3-35.7,10.4c-6.5,2.2-11.8,7-14.7,13.3c-2.9,6.4-3.2,13.7-0.6,20.3l99.8,253.1
		c-8.2,1.5-14.8,4.2-14.8,11.5v87.7c0,3.2,0,6.7,8.5,9.6v31.9H34.1c-9.4,0-17.1-7.6-17.1-17.1V34.1c0-9.4,7.6-17.1,17.1-17.1h443.7
		c9.4,0,17.1,7.6,17.1,17.1L494.9,477.9L494.9,477.9z"/>
	<path d="M281.6,384c-14.1,0-25.6,11.5-25.6,25.6s11.5,25.6,25.6,25.6s25.6-11.5,25.6-25.6C307.2,395.5,295.7,384,281.6,384
		L281.6,384z M281.6,418.1c-4.7,0-8.5-3.8-8.5-8.5c0-4.7,3.8-8.5,8.5-8.5c4.7,0,8.5,3.8,8.5,8.5
		C290.1,414.3,286.3,418.1,281.6,418.1L281.6,418.1z"/>
</g>
</svg>
