<?xml version="1.0" encoding="utf-8"?>
<!-- Generator: Adobe Illustrator 23.0.3, SVG Export Plug-In . SVG Version: 6.00 Build 0)  -->
<svg version="1.1" id="Слой_1" xmlns="http://www.w3.org/2000/svg" xmlns:xlink="http://www.w3.org/1999/xlink" x="0px" y="0px"
	 viewBox="0 0 480 480" style="enable-background:new 0 0 480 480;" xml:space="preserve">
<style type="text/css">
	.st0{fill:#FFFFFF;}
	.st1{fill:#FFDF2B;}
</style>
<path class="st0" d="M472,240c0,128.1-103.9,232-232,232S8,368.1,8,240S111.9,8,240,8S472,111.9,472,240z"/>
<path class="st0" d="M304,208v104l32-40v-72h-32V208z"/>
<path d="M240,0C107.5,0,0,107.5,0,240s107.5,240,240,240s240-107.5,240-240C479.9,107.5,372.5,0.1,240,0z M240,464
	C116.3,464,16,363.7,16,240S116.3,16,240,16s224,100.3,224,224C463.9,363.7,363.7,463.9,240,464z"/>
<g id="Clean">
	<path class="st0" d="M336.6,144.1v148c0,12.7-6.2,19.8-14.5,33.9l-10.3,15.9v24H188v-24l-92.8-116c-3.5-5.5-1.9-12.6,3.7-16.2
		l8.7-5.6c10.5-6.8,24.7-4.8,32.8,4.6L188,264V114.1c0-9.9,8.3-18,18.6-18c10.3,0,18.6,8.1,18.6,18v-30c0-9.9,8.3-18,18.6-18
		c10.3,0,18.6,8.1,18.6,18v30c0-9.9,8.3-18,18.6-18s18.6,8.1,18.6,18v30c0-9.9,8.3-18,18.6-18S336.6,134.2,336.6,144.1L336.6,144.1z
		"/>
	<path class="st1" d="M330.4,413.8h-161l6.2-47.9h148.7L330.4,413.8z"/>
	<path d="M327.4,328.9c1.5-2.5,3-4.8,4.3-7c6.2-10,11.1-17.9,11.1-29.9v-148c0-13.2-11.1-24-24.8-24c-4.4,0-8.6,1.2-12.4,3.4v-9.3
		c0-13.2-11.1-24-24.8-24c-4.4,0-8.6,1.2-12.4,3.4v-9.3c0-13.2-11.1-24-24.8-24s-24.8,10.7-24.8,24v9.3c-3.7-2.2-8-3.3-12.4-3.4
		c-13.7,0-24.8,10.7-24.8,24v133.3L145,204.8c-10.1-11.8-27.8-14.3-40.9-5.8l-8.7,5.6C87,210,84.6,220.8,89.9,229
		c0.1,0.2,0.2,0.3,0.4,0.5l91.5,114.4v15.9h-6.2c-3.1,0-5.8,2.3-6.1,5.3l-6.2,47.9c-0.2,1.7,0.3,3.4,1.5,4.7c1.2,1.3,2.9,2.1,4.6,2
		h161c1.8,0,3.5-0.7,4.6-2c1.2-1.3,1.7-3,1.5-4.7l-6.2-47.9c-0.4-3-3-5.3-6.1-5.3H318v-16.2L327.4,328.9z M318.8,371.9l4.6,36h-147
		l4.6-36H318.8z M316.9,322.8l-10.3,15.9c-0.6,1-0.9,2.1-0.9,3.2v18H194.2v-18c0-1.3-0.4-2.6-1.3-3.7l-92.6-115.7
		c-1.6-2.7-0.7-6.2,2-7.9l8.7-5.6c7.9-5.1,18.5-3.7,24.6,3.4l47.7,55.4l0.1-0.1c1.2,1.4,2.9,2.2,4.7,2.2h18.6
		c13.7,0,24.8,10.7,24.8,24v24h12.4v-24c0-19.9-16.6-36-37.2-36h-12.4V114.1c0-6.6,5.5-12,12.4-12s12.4,5.4,12.4,12V234h12.4V84.2
		c0-6.6,5.5-12,12.4-12c6.8,0,12.4,5.4,12.4,12V234h12.4V114.1c0-6.6,5.5-12,12.4-12s12.4,5.4,12.4,12V228h12.4v-83.9
		c0-6.6,5.5-12,12.4-12s12.4,5.4,12.4,12v148c0,8.7-3.5,14.4-9.3,23.7C319.8,318,318.3,320.4,316.9,322.8z"/>
	<path d="M299.4,383.8h12.4v12h-12.4V383.8z"/>
	<path d="M274.7,383.8h12.4v12h-12.4V383.8z"/>
</g>
</svg>
