<?xml version="1.0" encoding="utf-8"?>
<!-- Generator: Adobe Illustrator 23.0.3, SVG Export Plug-In . SVG Version: 6.00 Build 0)  -->
<svg version="1.1" id="Слой_1" xmlns="http://www.w3.org/2000/svg" xmlns:xlink="http://www.w3.org/1999/xlink" x="0px" y="0px"
	 viewBox="0 0 480 480" style="enable-background:new 0 0 480 480;" xml:space="preserve">
<style type="text/css">
	.st0{fill:#FFFFFF;}
	.st1{fill:#FFDF2B;}
</style>
<path class="st0" d="M472,240c0,128.1-103.9,232-232,232S8,368.1,8,240S111.9,8,240,8S472,111.9,472,240z"/>
<path class="st0" d="M264,112v48h-40v8h-40v24h-32v89l8,31h144V112H264z"/>
<path class="st0" d="M304,208v104l32-40v-72h-32V208z"/>
<path class="st1" d="M144,312v56h184v-56H144z"/>
<path d="M240,0C107.5,0,0,107.5,0,240s107.5,240,240,240s240-107.5,240-240C479.9,107.5,372.5,0.1,240,0z M240,464
	C116.3,464,16,363.7,16,240S116.3,16,240,16s224,100.3,224,224C463.9,363.7,363.7,463.9,240,464z"/>
<path d="M336,192h-24v-80c0-4.4-3.6-8-8-8h-40c-4.4,0-8,3.6-8,8v40h-32c-4.4,0-8,3.6-8,8h-32c-4.4,0-8,3.6-8,8v16h-24
	c-4.4,0-8,3.6-8,8v89c0,0.7,0.1,1.3,0.2,2l5.4,21H144c-4.4,0-8,3.6-8,8v56c0,4.4,3.6,8,8,8h184c4.4,0,8-3.6,8-8v-56c0-4.4-3.6-8-8-8
	h-7.4l21.6-27c1.1-1.4,1.8-3.2,1.8-5v-72C344,195.6,340.4,192,336,192z M160,280v-80h16v16h16v-40h24v40h16v-48h24v48h16v-96h24v184
	H166.2L160,280z M320,360H152v-40h168V360z M328,269.2l-16,20V208h16V269.2z"/>
</svg>
