<?xml version="1.0" encoding="utf-8"?>
<!-- Generator: Adobe Illustrator 23.0.3, SVG Export Plug-In . SVG Version: 6.00 Build 0)  -->
<svg version="1.1" id="Capa_1" xmlns="http://www.w3.org/2000/svg" xmlns:xlink="http://www.w3.org/1999/xlink" x="0px" y="0px"
	 viewBox="0 0 512 512" style="enable-background:new 0 0 512 512;" xml:space="preserve">
<style type="text/css">
	.st0{stroke:#000000;stroke-width:12;stroke-miterlimit:10;}
</style>
<g>
	<g>
		<path d="M256,171.7c-47.1,0-85.3,38.3-85.3,85.3s38.3,85.3,85.3,85.3s85.3-38.3,85.3-85.3S303.1,171.7,256,171.7z M256,321
			c-35.3,0-64-28.7-64-64s28.7-64,64-64s64,28.7,64,64S291.3,321,256,321z"/>
	</g>
</g>
<g>
	<g>
		<path class="st0" d="M256,218.8c-20.5,0-37.2,17.1-37.2,38.2s16.7,38.2,37.2,38.2s37.2-17.1,37.2-38.2S276.5,218.8,256,218.8z
			 M256,285.6c-15.4,0-27.9-12.8-27.9-28.6s12.5-28.6,27.9-28.6s27.9,12.8,27.9,28.6S271.4,285.6,256,285.6z"/>
	</g>
</g>
<g>
	<g>
		<g>
			<path d="M316.3,196.7c-4.2-4.2-10.9-4.2-15.1,0s-4.2,10.9,0,15.1c12.1,12.1,18.8,28.1,18.8,45.2c0,35.3-28.7,64-64,64
				c-17.1,0-33.2-6.7-45.2-18.8c-4.2-4.2-10.9-4.2-15.1,0c-4.2,4.1-4.2,10.9,0,15.1c16.1,16.1,37.5,25,60.3,25
				c47.1,0,85.3-38.3,85.3-85.3C341.3,234.2,332.5,212.7,316.3,196.7z"/>
		</g>
	</g>
	<g>
		<g>
			<path d="M270.9,173.1c-4.8-0.9-9.8-1.5-14.9-1.5c-47.1,0-85.3,38.3-85.3,85.3c0,5.1,0.6,10,1.5,14.9c0.9,5.2,5.4,8.8,10.5,8.8
				c0.6,0,1.2,0,1.9-0.2c5.8-1,9.7-6.6,8.6-12.4c-0.7-3.6-1.2-7.3-1.2-11.2c0-35.3,28.7-64,64-64c3.8,0,7.5,0.5,11.2,1.1
				c5.7,1.2,11.3-2.9,12.4-8.6C280.5,179.7,276.7,174.2,270.9,173.1z"/>
		</g>
	</g>
	<g>
		<g>
			<path d="M509.5,250.1c-2.4-2.9-60.1-70.2-139.7-111.4c-5.2-2.7-11.7-0.7-14.4,4.6c-2.7,5.2-0.7,11.7,4.6,14.4
				c61.3,31.7,110.3,81.3,127,99.4c-25.4,27.5-125.5,128-231,128c-35.8,0-71.9-8.6-107.3-25.7c-5.2-2.6-11.7-0.3-14.2,5
				c-2.6,5.3-0.3,11.7,5,14.2C177.8,397,217,406.3,256,406.3c131.4,0,248.6-136.6,253.5-142.4C512.9,259.9,512.8,254.1,509.5,250.1z
				"/>
		</g>
	</g>
	<g>
		<g>
			<path d="M326,119.9c-24.3-8.2-47.8-12.3-70-12.3C124.6,107.7,7.4,244.3,2.5,250.1c-3.1,3.7-3.4,9-0.6,13
				c1.5,2.1,36.7,52.2,97.9,92.8c1.8,1.2,3.8,1.8,5.9,1.8c3.4,0,6.8-1.7,8.9-4.8c3.3-4.9,1.9-11.5-3-14.8
				c-44.9-29.8-75.6-65.9-87.1-80.5C49,230.9,149.7,129,256,129c19.9,0,41.1,3.8,63.2,11.2c5.6,2,11.6-1.1,13.5-6.7
				C334.6,127.9,331.6,121.8,326,119.9z"/>
		</g>
	</g>
	<g>
		<g>
			<path d="M444.9,68.1c-4.2-4.2-10.9-4.2-15.1,0L67.1,430.8c-4.2,4.2-4.2,10.9,0,15.1c2.1,2.1,4.8,3.1,7.6,3.1s5.5-1,7.5-3.1
				L444.9,83.2C449,79.1,449,72.3,444.9,68.1z"/>
		</g>
	</g>
</g>
</svg>
