<?xml version="1.0" encoding="utf-8"?>
<!-- Generator: Adobe Illustrator 23.0.3, SVG Export Plug-In . SVG Version: 6.00 Build 0)  -->
<svg version="1.1" id="Capa_1" xmlns="http://www.w3.org/2000/svg" xmlns:xlink="http://www.w3.org/1999/xlink" x="0px" y="0px"
	 viewBox="0 0 512 512" style="enable-background:new 0 0 512 512;" xml:space="preserve">
<style type="text/css">
	.st0{fill:#FFFFFF;}
	.st1{fill:none;}
	.st2{fill:#FFDF2B;stroke:#000000;stroke-width:18;stroke-miterlimit:10;}
</style>
<g>
	<g>
		<path class="st0" d="M503.5,256c0,65.6-26.1,128.6-72.5,175s-109.4,72.5-175,72.5c-4.3,0-8.5-0.1-12.7-0.3h-0.2
			C111.6,496.3,8.5,387.7,8.5,256S111.6,15.7,243.1,8.9h0.2c4.2-0.3,8.4-0.3,12.7-0.3c65.6,0,128.6,26.1,175,72.5
			S503.5,190.4,503.5,256z"/>
		<path class="st0" d="M477.9,256c0,131.7-103.1,240.3-234.6,247.1h-0.2C111.6,496.3,8.5,387.7,8.5,256S111.6,15.7,243.1,8.9h0.2
			C374.8,15.7,477.9,124.3,477.9,256z"/>
		<path d="M256,0C114.6,0,0,114.6,0,256s114.6,256,256,256s256-114.6,256-256C511.8,114.7,397.3,0.2,256,0z M256,494.9
			C124,494.9,17.1,388,17.1,256S124,17.1,256,17.1S494.9,124,494.9,256C494.8,387.9,387.9,494.8,256,494.9z"/>
	</g>
	<rect x="115" y="73.9" class="st1" width="268" height="347.1"/>
	<ellipse class="st2" cx="264" cy="392" rx="30.4" ry="29"/>
	<path class="st2" d="M260.4,73.9c-52.1,0-94.4,49.2-94.4,109.6v10.5h72.6v-10.5c0-13.9,9.8-25.3,21.8-25.3s21.8,11.3,21.8,25.3
		c0,7.4-2.8,14.5-7.7,19.3l-50.4,49.7v75.7h72.6v-36.7l24.8-24.5c21.2-20.9,33.3-51.3,33.3-83.5C354.8,123.1,312.5,73.9,260.4,73.9z
		"/>
</g>
</svg>
