<?xml version="1.0" encoding="utf-8"?>
<!-- Generator: Adobe Illustrator 23.0.3, SVG Export Plug-In . SVG Version: 6.00 Build 0)  -->
<svg version="1.1" id="Capa_1" xmlns="http://www.w3.org/2000/svg" xmlns:xlink="http://www.w3.org/1999/xlink" x="0px" y="0px"
	 viewBox="0 0 512 512" style="enable-background:new 0 0 512 512;" xml:space="preserve">
<style type="text/css">
	.st0{fill:#FFDF2B;}
	.st1{fill:#FFFFFF;}
</style>
<polygon class="st0" points="256,332.7 162.1,294.5 68.1,333 256,409.3 443.9,333 349.9,294.5 "/>
<polygon class="st1" points="256,256 162.1,217.9 68.1,256.4 256,332.7 443.9,256.4 349.9,217.9 "/>
<polygon class="st0" points="443.9,179.7 256,256 68.1,179.7 256,102.7 "/>
<polygon points="256,274 372,226.9 349.9,217.9 256,256 162.1,217.9 140,226.9 "/>
<polygon points="256,350.7 372,303.6 349.9,294.5 256,332.7 162.1,294.5 140,303.6 "/>
<path d="M392.6,277.2c1.2,2.8,4.6,4,7.4,2.9l46-18.7c2.1-0.8,3.4-2.8,3.5-5c0-2.2-1.3-4.1-3.4-5l-81.7-33.5l81.7-33.2
	c2.1-0.8,3.4-2.8,3.5-5c0-2.2-1.3-4.1-3.4-5l-187.9-77c-1.4-0.6-3-0.6-4.5,0l-117.3,48.1c-2.9,1.2-4.2,4.4-3,7.1
	c1.2,2.7,4.6,4,7.5,2.8l115-47.1l173.4,71.1l-81.7,33.2l0,0L256,250.1l-91.7-37.2l0,0l-81.7-33.2l37.4-15.3c2.9-1.2,4.2-4.4,3-7.1
	c-1.2-2.7-4.6-4-7.5-2.8L66,174.8c-2.1,0.9-3.4,2.8-3.4,5s1.4,4.1,3.5,5l81.7,33.2l-81.7,33.5c-2.1,0.9-3.4,2.8-3.4,5
	c0,2.2,1.4,4.1,3.5,5l81.7,33.2l-81.7,33.5c-2.1,0.9-3.4,2.8-3.4,5s1.4,4.1,3.5,5l187.9,76.3c0.7,0.3,1.5,0.4,2.2,0.4
	c0.8,0,1.5-0.1,2.2-0.4l28.7-11.7c2.9-1.2,4.2-4.3,3-7.1c-1.2-2.8-4.6-4-7.4-2.9L256,403.5L82.6,333l79.5-32.6l91.7,37.2
	c0.7,0.3,1.5,0.4,2.2,0.4c0.8,0,1.5-0.1,2.2-0.4l91.7-37.2l79.5,32.6l-125.9,51.1c-2.9,1.2-4.2,4.3-3,7.1c1.2,2.8,4.6,4,7.4,2.9
	L446.1,338c2.1-0.8,3.4-2.8,3.5-5c0-2.2-1.3-4.1-3.4-5l-81.7-33.5l14.7-6c2.9-1.2,4.2-4.3,3-7.1c-1.2-2.8-4.6-4-7.4-2.9l-26.9,10.9
	l0,0L256,326.8l-91.7-37.2l0,0l-81.7-33.2l79.5-32.6l91.7,37.2c0.7,0.3,1.5,0.4,2.2,0.4c0.8,0,1.5-0.1,2.2-0.4l91.7-37.2l79.5,32.6
	l-33.8,13.7C392.7,271.3,391.4,274.4,392.6,277.2z"/>
</svg>
