<?xml version="1.0" encoding="utf-8"?>
<!-- Generator: Adobe Illustrator 23.0.3, SVG Export Plug-In . SVG Version: 6.00 Build 0)  -->
<svg version="1.1" id="Capa_1" xmlns="http://www.w3.org/2000/svg" xmlns:xlink="http://www.w3.org/1999/xlink" x="0px" y="0px"
	 viewBox="0 0 512 512" style="enable-background:new 0 0 512 512;" xml:space="preserve">
<style type="text/css">
	.st0{fill:#FFFFFF;}
	.st1{fill:#FFDF2B;}
</style>
<circle class="st0" cx="256" cy="256" r="247.5"/>
<ellipse class="st0" cx="243.2" cy="256" rx="234.7" ry="247.5"/>
<g>
	<circle class="st1" cx="153.6" cy="358.4" r="25.6"/>
	<circle class="st1" cx="358.4" cy="153.6" r="25.6"/>
</g>
<g>
	<path d="M256,0C114.6,0,0,114.6,0,256s114.6,256,256,256s256-114.6,256-256C511.8,114.7,397.3,0.2,256,0z M256,494.9
		C124,494.9,17.1,388,17.1,256S124,17.1,256,17.1S494.9,124,494.9,256C494.8,387.9,387.9,494.8,256,494.9z"/>
	<path d="M358.4,119.5c-18.8,0-34.1,15.3-34.1,34.1c0,6.1,1.7,12,4.8,17.2L170.8,329.1c-5.2-3.1-11.2-4.8-17.2-4.8
		c-18.9,0-34.1,15.3-34.1,34.1c0,18.9,15.3,34.1,34.1,34.1s34.1-15.3,34.1-34.1c0-6.1-1.7-12-4.8-17.2l158.3-158.3
		c5.2,3.1,11.2,4.8,17.2,4.8c18.9,0,34.1-15.3,34.1-34.1S377.3,119.5,358.4,119.5z M153.6,375.5c-7.7,0-14.5-5.2-16.5-12.6
		c-2-7.5,1.3-15.3,7.9-19.2c6.7-3.9,15.1-2.8,20.6,2.7l0,0l0,0c4.9,4.9,6.3,12.2,3.7,18.6C166.7,371.3,160.5,375.5,153.6,375.5
		L153.6,375.5z M358.4,170.7c-4.5,0-8.9-1.8-12-5l0,0l0,0c-5.7-5.8-6.6-14.8-2.1-21.5s13.2-9.4,20.7-6.3s11.8,11.1,10.2,19.1
		C373.5,164.9,366.5,170.7,358.4,170.7L358.4,170.7z"/>
</g>
</svg>
