<?xml version="1.0" encoding="utf-8"?>
<!-- Generator: Adobe Illustrator 23.0.3, SVG Export Plug-In . SVG Version: 6.00 Build 0)  -->
<svg version="1.1" id="Capa_1" xmlns="http://www.w3.org/2000/svg" xmlns:xlink="http://www.w3.org/1999/xlink" x="0px" y="0px"
	 viewBox="0 0 512 512" style="enable-background:new 0 0 512 512;" xml:space="preserve">
<g>
	<g>
		<path d="M384,214.3H128c-29.4,0-53.3,23.9-53.3,53.3v192c0,29.4,23.9,53.3,53.3,53.3h256c29.4,0,53.3-23.9,53.3-53.3v-192
			C437.3,238.3,413.4,214.3,384,214.3z M416,459.7c0,17.6-14.4,32-32,32H128c-17.6,0-32-14.4-32-32v-192c0-17.6,14.4-32,32-32h256
			c17.6,0,32,14.4,32,32V459.7z"/>
	</g>
</g>
<g>
	<g>
		<path d="M256,1c-76.5,0-138.7,62.2-138.7,138.7V225c0,5.9,4.8,10.7,10.7,10.7h256c5.9,0,10.7-4.8,10.7-10.7v-85.3
			C394.7,63.2,332.5,1,256,1z M373.3,214.3H138.7v-74.7C138.7,75,191.3,22.3,256,22.3S373.3,75,373.3,139.7V214.3z"/>
	</g>
</g>
<g>
	<g>
		<path d="M256,363.7c-5.9,0-10.7,4.8-10.7,10.7v64c0,5.9,4.8,10.7,10.7,10.7c5.9,0,10.7-4.8,10.7-10.7v-64
			C266.7,368.4,261.9,363.7,256,363.7z"/>
	</g>
</g>
<g>
	<g>
		<path d="M256,278.3c-29.4,0-53.3,23.9-53.3,53.3S226.6,385,256,385s53.3-23.9,53.3-53.3S285.4,278.3,256,278.3z M256,363.7
			c-17.6,0-32-14.4-32-32s14.4-32,32-32s32,14.4,32,32C288,349.3,273.6,363.7,256,363.7z"/>
	</g>
</g>
</svg>
