<?xml version="1.0" encoding="utf-8"?>
<!-- Generator: Adobe Illustrator 23.0.3, SVG Export Plug-In . SVG Version: 6.00 Build 0)  -->
<svg version="1.1" id="Capa_1" xmlns="http://www.w3.org/2000/svg" xmlns:xlink="http://www.w3.org/1999/xlink" x="0px" y="0px"
	 viewBox="0 0 512 512" style="enable-background:new 0 0 512 512;" xml:space="preserve">
<g>
	<g>
		<path d="M65,199c-35.3,0-64,28.7-64,64s28.7,64,64,64s64-28.7,64-64S100.3,199,65,199z M65,305.7c-23.5,0-42.7-19.1-42.7-42.7
			s19.1-42.7,42.7-42.7s42.7,19.1,42.7,42.7S88.5,305.7,65,305.7z"/>
	</g>
</g>
<g>
	<g>
		<path d="M257,199c-35.3,0-64,28.7-64,64s28.7,64,64,64s64-28.7,64-64S292.3,199,257,199z M257,305.7c-23.5,0-42.7-19.1-42.7-42.7
			s19.1-42.7,42.7-42.7s42.7,19.1,42.7,42.7S280.5,305.7,257,305.7z"/>
	</g>
</g>
<g>
	<g>
		<path d="M449,199c-35.3,0-64,28.7-64,64s28.7,64,64,64s64-28.7,64-64S484.3,199,449,199z M449,305.7c-23.5,0-42.7-19.1-42.7-42.7
			s19.1-42.7,42.7-42.7s42.7,19.1,42.7,42.7S472.5,305.7,449,305.7z"/>
	</g>
</g>
</svg>
