<?xml version="1.0" encoding="utf-8"?>
<!-- Generator: Adobe Illustrator 23.0.3, SVG Export Plug-In . SVG Version: 6.00 Build 0)  -->
<svg version="1.1" id="Capa_1" xmlns="http://www.w3.org/2000/svg" xmlns:xlink="http://www.w3.org/1999/xlink" x="0px" y="0px"
	 viewBox="0 0 512 512" style="enable-background:new 0 0 512 512;" xml:space="preserve">
<style type="text/css">
	.st0{fill:#FFFFFF;}
	.st1{fill:#FFDF2B;}
</style>
<path class="st0" d="M34.1,7.5h443.7c14.1,0,25.6,11.5,25.6,25.6v443.7c0,14.1-11.5,25.6-25.6,25.6H34.1C20,502.5,8.5,491,8.5,476.9
	V33.1C8.5,19,20,7.5,34.1,7.5z"/>
<path class="st0" d="M34.1,7.5h418.1c14.1,0,25.6,11.5,25.6,25.6v443.7c0,14.1-11.5,25.6-25.6,25.6H34.1C20,502.5,8.5,491,8.5,476.9
	V33.1C8.5,19,20,7.5,34.1,7.5z"/>
<rect x="162.1" y="306.2" width="187.7" height="196.3"/>
<rect x="162.1" y="306.2" class="st1" width="162.1" height="196.3"/>
<path class="st0" d="M247.5,50.2h17.1c9.4,0,17.1,7.6,17.1,17.1v25.6h-51.2V67.3C230.4,57.8,238,50.2,247.5,50.2z"/>
<rect x="358.4" y="348.9" class="st0" width="59.7" height="34.1"/>
<path class="st1" d="M426.7,280.6L426.7,280.6c9.4,0,17.1,7.6,17.1,17.1v136.5c0,9.4-7.6,17.1-17.1,17.1l0,0
	c-9.4,0-17.1-7.6-17.1-17.1V297.7C409.6,288.2,417.2,280.6,426.7,280.6z"/>
<path d="M162.1,314.7h187.7c9.4,0,17.1,7.6,17.1,17.1v59.7c0,9.4-7.6,17.1-17.1,17.1H162.1c-9.4,0-17.1-7.6-17.1-17.1v-59.7
	C145.1,322.4,152.7,314.7,162.1,314.7z"/>
<path class="st0" d="M162.1,314.7h162.1c9.4,0,17.1,7.6,17.1,17.1v59.7c0,9.4-7.6,17.1-17.1,17.1H162.1c-9.4,0-17.1-7.6-17.1-17.1
	v-59.7C145.1,322.4,152.7,314.7,162.1,314.7z"/>
<path d="M349.9,314.7c-1.3-76.9-20-152.5-54.8-221.2c-2.9-5.7-8.8-9.2-15.2-9.2h-47.9c-6.4,0-12.2,3.6-15.2,9.2
	c-34.7,68.6-53.4,144.3-54.8,221.2H349.9z"/>
<path class="st1" d="M324.3,314.7c-0.9-76.1-17-151.3-47.3-221.2c-2.1-5.4-7.3-9-13.1-9.2h-41.3c-5.8,0.2-11,3.8-13.1,9.2
	c-30.3,69.8-46.4,145-47.3,221.2H324.3z"/>
<path d="M477.9-1H34.1C15.3-1,0,14.3,0,33.1v443.7C0,495.7,15.3,511,34.1,511h443.7c18.8,0,34.1-15.3,34.1-34.1V33.1
	C512,14.3,496.7-1,477.9-1z M273.1,75.8h-34.1v-8.5c0-4.7,3.8-8.5,8.5-8.5h17.1c4.7,0,8.5,3.8,8.5,8.5V75.8z M224.5,97.5
	c1.5-2.8,4.4-4.6,7.6-4.6h47.9c3.2,0,6.1,1.8,7.6,4.6c32.7,64.9,51,136.1,53.7,208.7H170.8C173.5,233.6,191.8,162.4,224.5,97.5z
	 M418.1,383v-85.3c0-4.7,3.8-8.5,8.5-8.5s8.5,3.8,8.5,8.5v136.5c0,4.7-3.8,8.5-8.5,8.5s-8.5-3.8-8.5-8.5V383z M401.1,374.5h-25.6
	v-17.1h25.6V374.5z M162.1,323.3h187.7c4.7,0,8.5,3.8,8.5,8.5v59.7c0,4.7-3.8,8.5-8.5,8.5H162.1c-4.7,0-8.5-3.8-8.5-8.5v-59.7
	C153.6,327.1,157.4,323.3,162.1,323.3z M170.7,493.9v-76.8h170.7v76.8L170.7,493.9L170.7,493.9z M494.9,476.9
	c0,9.4-7.6,17.1-17.1,17.1H358.4v-78.4c10.2-3.6,17-13.2,17.1-24h25.6v42.7c0,14.1,11.5,25.6,25.6,25.6s25.6-11.5,25.6-25.6V297.7
	c0-14.1-11.5-25.6-25.6-25.6s-25.6,11.5-25.6,25.6v42.7h-25.6v-8.5c0-10.9-6.9-20.5-17.2-24.1C356,231.8,337,157.4,302.7,89.7
	c-2.7-5.3-7.1-9.4-12.6-11.8V67.3c0-14.1-11.5-25.6-25.6-25.6h-17.1c-14.1,0-25.6,11.5-25.6,25.6v10.6c-5.4,2.3-9.9,6.5-12.6,11.8
	C175,157.4,156,231.8,153.8,307.7c-10.3,3.5-17.2,13.2-17.2,24.1v59.7c0,10.8,6.9,20.4,17.1,24v78.4H34.1c-9.4,0-17.1-7.6-17.1-17.1
	V33.1c0-9.4,7.6-17.1,17.1-17.1h443.7c9.4,0,17.1,7.6,17.1,17.1L494.9,476.9L494.9,476.9z"/>
</svg>
