<?xml version="1.0" encoding="utf-8"?>
<!-- Generator: Adobe Illustrator 23.0.3, SVG Export Plug-In . SVG Version: 6.00 Build 0)  -->
<svg version="1.1" id="Capa_1" xmlns="http://www.w3.org/2000/svg" xmlns:xlink="http://www.w3.org/1999/xlink" x="0px" y="0px"
	 viewBox="0 0 512 512" style="enable-background:new 0 0 512 512;" xml:space="preserve">
<style type="text/css">
	.st0{fill:#FFDF2B;}
	.st1{fill:#FFFFFF;}
</style>
<g>
	<path class="st0" d="M145.4,318.2c0,0,45.5,51.8,46.2,52.4c0.7,0.6-37.2,55.6-37.2,55.6S90.1,365,86.8,361.4
		C83.5,357.8,145.4,318.2,145.4,318.2z"/>
	<path class="st0" d="M213.4,237.2L371.1,107c0,0,22.4-6.8,27-8.8c4.6-2,25.3-8.6,25.3-8.6l-20.2,57.8L286.4,318.2L213.4,237.2z"/>
	<path class="st1" d="M197.3,240.9l-21.5,43.7l-21.4,20.5c0,0-17,8.3-15.2,8.3c1.8,0,58.2,58.8,58.2,58.8l27.2-6.4l20.1-34.7
		c0,0,35.9-19.4,34-21.5c-1.8-2-69.8-62.3-69.8-62.3L197.3,240.9z"/>
	<g>
		<path d="M426.8,84c-11.1-11.3-28.9-12.5-41.4-2.9L196.8,227l-21,36.9L76.8,364.6l74.4,75.8l98.9-100.8l36.2-21.4l143.3-192
			C439.1,113.4,437.9,95.3,426.8,84L426.8,84z M197.3,268.7l9.7-17l55.1,56.1l-16.7,9.9L197.3,268.7z M184.1,285.6l44.7,45.5
			L199,361.4l-44.7-45.5L184.1,285.6z M151.2,410.1l-44.7-45.5l32.9-33.6l44.7,45.5L151.2,410.1z M412.9,113.2L278.2,293.7
			l-57.4-58.4L398.1,98.2c4.2-3.2,10.1-2.8,13.8,1C415.6,102.9,416,108.9,412.9,113.2L412.9,113.2z"/>
	</g>
</g>
</svg>
