<?xml version="1.0" encoding="utf-8"?>
<!-- Generator: Adobe Illustrator 23.0.3, SVG Export Plug-In . SVG Version: 6.00 Build 0)  -->
<svg version="1.1" id="Capa_1" xmlns="http://www.w3.org/2000/svg" xmlns:xlink="http://www.w3.org/1999/xlink" x="0px" y="0px"
	 viewBox="0 0 512 512" style="enable-background:new 0 0 512 512;" xml:space="preserve">
<style type="text/css">
	.st0{fill:#FFDF2B;}
	.st1{fill:#FFFFFF;}
</style>
<g>
	<path class="st0" d="M210.8,185l63.1-18.1l35.4,9L367.6,88l28.2-13.4l28.2,28.1l11.7,14.4c0,0-9.7,27.9-13.6,27.9
		c-3.9,0-76.8,74.5-76.8,74.5l-10.7,92l-15.5,1.2L202.9,195.8L210.8,185z"/>
	<path class="st0" d="M173.1,234.5L288.6,344c0,0-78.7,105.7-83.8,90.7c-5.2-15-111.5-123.2-111.5-123.2L173.1,234.5z"/>
	<polygon class="st1" points="202.9,200 173.1,234.5 288.6,344 306,319.2 312.5,312.8 	"/>
	<g>
		<path d="M421.7,88.7c-8.9-9.1-20.8-14.1-33.5-14.1c-12.6,0-24.5,5-33.5,14.1c-1.1,1.2-2.2,2.4-3.2,3.6L291.7,167h-59
			c-14.1,0-27.3,5.6-37.2,15.7L76.4,304l134,136.4l119.1-121.3c9.9-10.1,15.4-23.6,15.4-37.9v-60.1l73.3-61c1.2-1,2.4-2.1,3.6-3.3
			c8.9-9.1,13.9-21.2,13.9-34.1S430.7,97.8,421.7,88.7z M210.3,288.8l-59.5,60.6l-14.9-15.2l59.5-60.6L210.3,288.8z M225.2,304
			l14.9,15.2l-59.5,60.6l-14.9-15.2L225.2,304z M180.6,228.2l14.9-15.2l104.2,106.1l-14.9,15.2L180.6,228.2z M165.7,243.4l14.9,15.2
			L121,319.2L106.2,304L165.7,243.4z M195.5,394.9l59.5-60.6l14.9,15.2l-59.5,60.6L195.5,394.9z M406.9,141.8
			c-0.6,0.6-1.3,1.3-2,1.8L323.8,211v70.2c0,8.6-3.3,16.7-9.2,22.7L210.3,197.9c6-6.1,13.9-9.4,22.3-9.4h69l66.2-82.6
			c0.6-0.7,1.2-1.4,1.8-2c5-5.1,11.6-7.8,18.6-7.8c7,0,13.6,2.8,18.6,7.8c5,5.1,7.7,11.8,7.7,18.9
			C414.6,130,411.8,136.7,406.9,141.8L406.9,141.8z"/>
	</g>
</g>
</svg>
