<?xml version="1.0" encoding="utf-8"?>
<!-- Generator: Adobe Illustrator 23.0.3, SVG Export Plug-In . SVG Version: 6.00 Build 0)  -->
<svg version="1.1" id="Capa_1" xmlns="http://www.w3.org/2000/svg" xmlns:xlink="http://www.w3.org/1999/xlink" x="0px" y="0px"
	 viewBox="0 0 512 512" style="enable-background:new 0 0 512 512;" xml:space="preserve">
<style type="text/css">
	.st0{fill:#FFDF2B;}
	.st1{fill:#FFFFFF;}
	.st2{fill:#FFDD09;}
</style>
<g>
	<polyline class="st0" points="91.1,190.9 91.1,340.4 301.9,340.4 301.9,112.7 91.1,112.7 91.1,176.9 	"/>
	<path d="M301.6,108.4H90.9c-2.2,0-4,1.9-4,4.3v64.2c0,2.4,1.8,4.3,4,4.3s4-1.9,4-4.3v-22.1l21.5,23.2l-21.5,23.2v-10.3
		c0-2.4-1.8-4.3-4-4.3s-4,1.9-4,4.3v149.6c0,2.4,1.8,4.3,4,4.3h210.7c2.2,0,4-1.9,4-4.3V112.7C305.5,110.3,303.8,108.4,301.6,108.4z
		 M276.2,275.1l21.5-23.2v46.4L276.2,275.1z M297.6,239.8L297.6,239.8l-27,29.2l-24.2-26.2l51.3-55.4L297.6,239.8L297.6,239.8
		L297.6,239.8z M156.9,275.1l24.2-26.2l54.4,58.8l-24.2,26.2L156.9,275.1z M97.3,145.4l24.2-26.2l54.4,58.8l-24.2,26.2L97.3,145.4z
		 M217.2,158.1c1.5,1.7,4,1.7,5.6,0c1.5-1.7,1.5-4.4,0-6l-6.2-6.7l24.2-26.2l54.4,58.8L271,204.2l-39.2-42.4c-1.5-1.7-4-1.7-5.6,0
		c-1.5,1.7-1.5,4.4,0,6l9.4,10.2l-24.2,26.2L157,145.4l24.2-26.2L217.2,158.1z M151.3,269l-24.2-26.2l54.4-58.8l24.2,26.2L151.3,269
		z M97.3,275.1l24.2-26.2l54.4,58.8l-24.2,26.2L97.3,275.1z M297.6,168.6l-21.5-23.2l21.5-23.2V168.6z M270.6,139.3l-20.7-22.4h41.4
		L270.6,139.3z M210.9,139.3l-20.7-22.4h41.4L210.9,139.3z M151.3,139.3l-20.7-22.4H172L151.3,139.3z M121.9,184l24.2,26.2
		l-51.3,55.4v-52.4l0,0L121.9,184z M94.8,284.5l21.5,23.2l-21.5,23.2C94.8,330.9,94.8,284.5,94.8,284.5z M121.9,313.8l20.7,22.4
		h-41.4L121.9,313.8z M181.5,313.8l20.7,22.4h-41.4L181.5,313.8z M241.1,313.8l20.7,22.4h-41.4L241.1,313.8z M216.5,275.1l8-8.7
		c1.5-1.7,1.5-4.4,0-6s-4-1.7-5.6,0l-8,8.7l-24.2-26.2l54.4-58.8l24.2,26.2l-38.5,41.6c-1.5,1.7-1.5,4.4,0,6s4,1.7,5.6,0l8.3-8.9
		l54.4,58.8L270.9,334L216.5,275.1z M112.4,116.9l-17.6,19v-19C94.8,116.9,112.4,116.9,112.4,116.9z M280.1,336.1l17.6-19v19H280.1z
		"/>
</g>
<g transform="translate(1 1)">
	<g>
		<path class="st0" d="M273.9,303.5L194.1,234l24.7-21.2l79.8,69.5L273.9,303.5z"/>
		<path class="st0" d="M273.9,260.8l79.8-69.5l24.3,21.5l-79.3,69.5L273.9,260.8z"/>
	</g>
	<g>
		<path class="st1" d="M273.9,346.2l-79.8-69.5l24.7-21.5l79.8,69.5L273.9,346.2z"/>
		<path class="st1" d="M273.9,303.5l79.8-69.5l24.7,21.5L298.6,325L273.9,303.5z"/>
	</g>
	<g>
		<path class="st0" d="M273.9,388.9l-79.8-69.1l24.7-21.5l79.8,69.5L273.9,388.9z"/>
		<path class="st0" d="M273.9,346.2l79.8-69.5l24.7,21.5l-79.8,69.5L273.9,346.2z"/>
		<path class="st0" d="M218.8,383.6L198,401.7h41.6L218.8,383.6z"/>
	</g>
	<path class="st1" d="M218.8,340.9l-24.7,21.5l45.1,39.3h49.4L218.8,340.9z"/>
	<g>
		<path class="st2" d="M308.2,401.7h49l20.8-18.1l-24.3-21.2L308.2,401.7z"/>
		<path class="st2" d="M398.8,401.7L378,383.6l-20.4,18.1H398.8z"/>
	</g>
	<g>
		<path class="st1" d="M314.7,182.6l-40.8,35.5l24.7,21.5l65-56.7h-49L314.7,182.6L314.7,182.6z"/>
		<path class="st1" d="M194.1,191.3l79.8,69.5l24.7-21.5l-65-56.7h-29.5L194.1,191.3z"/>
		<path class="st1" d="M273.9,388.9l14.7,12.8h19.9l69.8-60.8l-24.7-21.2L273.9,388.9z"/>
	</g>
	<g>
		<path class="st0" d="M275.6,216.6l39-34h-81.5l39,34H275.6z"/>
		<path class="st0" d="M194.1,191.3l10-8.7h-32.5V211L194.1,191.3z"/>
	</g>
	<path class="st1" d="M171.6,253.7l47.3-40.8l-24.7-21.5L171.6,211V253.7z"/>
	<path class="st0" d="M171.6,296.3l47.3-41.2l-24.7-21.5l-22.5,20v42.7H171.6z"/>
	<path class="st1" d="M171.6,339.4l47.3-41.2l-24.7-21.5l-22.5,19.6v43.1H171.6z"/>
	<path class="st2" d="M171.6,382.1l47.3-41.2l-24.7-21.5l-22.5,20v42.7H171.6z"/>
	<g>
		<path class="st1" d="M194.1,362.4L171.6,382v19.6H198l20.8-18.1L194.1,362.4z"/>
		<path class="st1" d="M423.1,209.1l-30.4-26.4h-29.1l-10,8.7l69.4,60.4v-42.7H423.1z"/>
	</g>
	<path class="st0" d="M423.1,252.1L378,212.9L353.7,234l69.4,60.4V252.1z"/>
	<path class="st1" d="M423.1,294.8L378,255.5l-24.3,21.2l69.4,60.4V294.8z"/>
	<path class="st0" d="M423.1,337.5L378,298.2l-24.3,21.5l69.4,60.4V337.5z"/>
	<path class="st1" d="M378,340.9l-24.3,21.5l45.1,39.3h24.3v-21.5L378,340.9z"/>
	<path class="st0" d="M392.7,182.6l30.4,26.4v-26.4H392.7z"/>
	<path d="M273.9,307.3c-1.3,0-2.2-0.4-3-1.1l-79.8-69.5c-0.9-0.8-1.3-1.5-1.3-2.6s0.4-1.9,1.3-2.6l24.7-21.5c1.7-1.5,4.3-1.5,6.1,0
		l79.8,69.9c1.7,1.5,1.7,3.8,0,5.3L277,306.7C276.1,306.9,275.2,307.3,273.9,307.3z M200.2,234l73.7,64.2l18.2-15.9l-73.7-64.2
		L200.2,234z"/>
	<path d="M298.6,286.1c-1.3,0-2.2-0.4-3-1.1l-24.7-21.5c-1.7-1.5-1.7-3.8,0-5.3l79.8-69.5c0.9-0.8,1.7-1.1,3-1.1l0,0
		c1.3,0,2.2,0.4,3,1.1l24.7,21.5c1.7,1.5,1.7,3.8,0,5.3L301.7,285C300.8,285.8,299.5,286.1,298.6,286.1z M280,260.8l18.2,15.9
		l73.7-64.2l-18.2-15.9L280,260.8z"/>
	<path d="M273.9,350c-1.3,0-2.2-0.4-3-1.1l-79.8-69.1c-0.9-0.8-1.3-1.5-1.3-2.6s0.4-1.9,1.3-2.6l24.7-21.5c1.7-1.5,4.3-1.5,6.1,0
		l79.8,69.5c0.9,0.8,1.3,1.5,1.3,2.6s-0.4,1.9-1.3,2.6L277,349C276.1,349.6,275.2,350,273.9,350z M200.2,276.7l73.7,64.2l18.2-15.9
		l-73.7-64.2L200.2,276.7z"/>
	<path d="M298.6,328.8c-1.3,0-2.2-0.4-3-1.1l-24.7-21.5c-1.7-1.5-1.7-3.8,0-5.3l79.8-69.5c1.7-1.5,4.3-1.5,6.1,0l24.7,21.5
		c1.7,1.5,1.7,3.8,0,5.3l-79.8,69.5C300.8,328.4,299.5,328.8,298.6,328.8z M280,303.5l18.2,15.9l73.7-64.2l-18.2-15.9L280,303.5z"/>
	<path d="M273.9,392.7c-1.3,0-2.2-0.4-3-1.1l-79.8-69.1c-0.9-0.8-1.3-1.5-1.3-2.6s0.4-1.9,1.3-2.6l24.7-21.5c1.7-1.5,4.3-1.5,6.1,0
		l79.8,69.5c1.7,1.5,1.7,3.8,0,5.3L277,392.1C276.1,392.3,275.2,392.7,273.9,392.7z M200.2,319.8l73.7,64.2l18.2-15.9l-73.7-64.2
		L200.2,319.8z"/>
	<path d="M298.6,371.5c-1.3,0-2.2-0.4-3-1.1l-24.7-21.5c-1.7-1.5-1.7-3.8,0-5.3l79.8-69.5c0.9-0.8,1.7-1.1,3-1.1l0,0
		c1.3,0,2.2,0.4,3,1.1l24.7,21.5c1.7,1.5,1.7,3.8,0,5.3l-79.8,69.5C300.8,371.1,299.5,371.5,298.6,371.5z M280,346.2l18.2,15.9
		l73.7-64.2l-18.2-15.5L280,346.2z"/>
	<path d="M239.2,405.5H198c-1.7,0-3.5-0.8-3.9-2.3s-0.4-3,0.9-4.2l20.8-18.1c1.7-1.5,4.3-1.5,6.1,0l20.8,18.1
		c1.3,1.1,1.7,2.6,0.9,4.2C242.7,404.7,241,405.5,239.2,405.5z M208.4,397.9h20.4l-10.4-9.1L208.4,397.9z"/>
	<path d="M288.7,405.5h-49.4c-1.3,0-2.2-0.4-3-1.1l-45.1-39.3c-0.9-0.8-1.3-1.5-1.3-2.6s0.4-1.9,1.3-2.6l24.7-21.5
		c1.7-1.5,4.3-1.5,6.1,0l69.8,60.8c1.3,1.1,1.7,2.6,0.9,4.2C291.7,404.7,290.4,405.5,288.7,405.5z M241.4,397.9h36.9l-59.4-51.7
		l-18.2,15.9L241.4,397.9z"/>
	<path d="M357.6,405.5h-49.4c-1.7,0-3.5-0.8-3.9-2.3c-0.9-1.5-0.4-3,0.9-4.2l45.1-39.3c1.7-1.5,4.3-1.5,6.1,0l24.7,21.5
		c1.7,1.5,1.7,3.8,0,5.3l-20.8,18.1C359.8,405.1,358.5,405.5,357.6,405.5z M319,397.9h36.9l16.5-14.4l-18.6-15.9L319,397.9z"/>
	<path d="M398.8,405.5h-41.2c-1.7,0-3.5-0.8-3.9-2.3s-0.4-3,0.9-4.2l20.8-18.1c1.7-1.5,4.3-1.5,6.1,0l20.8,18.1
		c1.3,1.1,1.7,2.6,0.9,4.2C402.3,404.7,400.5,405.5,398.8,405.5z M368,397.9h20.4l-10.4-9.1L368,397.9z"/>
	<path d="M298.6,243.1c-1.3,0-2.2-0.4-3-1.1l-24.7-21.5c-1.7-1.5-1.7-3.8,0-5.3l40.8-35.5c0.9-0.4,1.7-0.8,3-0.8h49
		c1.7,0,3.5,0.8,3.9,2.3c0.9,1.5,0.4,3-0.9,4.2l-65,56.7C300.8,242.7,299.5,243.1,298.6,243.1z M280,218.2l18.2,15.9l55.1-47.6
		h-36.9L280,218.2z"/>
	<path d="M273.9,264.6c-1.3,0-2.2-0.4-3-1.1L191.1,194c-0.9-0.8-1.3-1.5-1.3-2.6s0.4-1.9,1.3-2.6l10-8.7c0.9-0.8,2.2-1.1,3-1.1h29.1
		c1.3,0,2.2,0.4,3,1.1l65,56.7c0.9,0.8,1.3,1.5,1.3,2.6s-0.4,1.9-1.3,2.6l-24.7,21.5C276.1,264.2,275.2,264.6,273.9,264.6z
		 M200.2,191.3l73.7,64.2l18.2-15.9l-60.7-52.9h-25.6L200.2,191.3z"/>
	<path d="M308.2,405.5h-19.5c-1.3,0-2.2-0.4-3-1.1L271,391.6c-0.9-0.8-1.3-1.5-1.3-2.6s0.4-1.9,1.3-2.6l79.8-69.5
		c0.9-0.8,1.7-1.1,3-1.1l0,0c1.3,0,2.2,0.4,3,1.1l24.7,21.5c1.7,1.5,1.7,3.8,0,5.3l-69.8,60.8C310.8,405.1,309.5,405.5,308.2,405.5z
		 M290.4,397.9h16.5l65.5-57L353.7,325L280,389.3L290.4,397.9z"/>
	<path d="M275.6,220.4h-3.5c-1.3,0-2.2-0.4-3-1.1l-39-34c-1.3-1.1-1.7-2.6-0.9-4.2c0.4-1.5,2.2-2.3,3.9-2.3h81.5
		c1.7,0,3.5,0.8,3.9,2.3c0.9,1.5,0.4,3-0.9,4.2l-39,34C277.8,220,276.5,220.4,275.6,220.4z M243.6,186.4l30.4,26.4l30.4-26.4
		C304.3,186.4,243.6,186.4,243.6,186.4z"/>
	<path d="M171.6,214.8c-0.4,0-1.3,0-1.7-0.4c-1.3-0.4-2.6-1.9-2.6-3.4v-28.3c0-2.3,1.7-3.8,4.3-3.8h32.5c1.7,0,3.5,0.8,3.9,2.3
		c0.9,1.5,0.4,3-0.9,4.2l-32.5,28.3C173.8,214.4,172.9,214.8,171.6,214.8z M175.9,186.4v15.5l15.2-13.2l0,0l2.6-2.3H175.9z"/>
	<path d="M171.6,257.4c-0.4,0-1.3,0-1.7-0.4c-1.3-0.4-2.6-1.9-2.6-3.4V211c0-1.1,0.4-1.9,1.3-2.6l22.5-19.6c1.7-1.5,4.3-1.5,6.1,0
		l24.7,21.5c0.9,0.8,1.3,1.5,1.3,2.6s-0.4,1.9-1.3,2.6l-47.3,40.8C173.8,257.1,172.9,257.4,171.6,257.4z M175.9,212.5v32.1
		l36.9-31.7l-18.6-16.2L175.9,212.5z"/>
	<path d="M171.6,300.1c-0.4,0-1.3,0-1.7-0.4c-1.3-0.4-2.6-1.9-2.6-3.4v-42.7c0-1.1,0.4-1.9,1.3-2.6l22.5-19.6c1.7-1.5,4.3-1.5,6.1,0
		l24.7,21.5c0.9,0.8,1.3,1.5,1.3,2.6c0,1.1-0.4,1.9-1.3,2.6L174.6,299C173.8,299.7,172.9,300.1,171.6,300.1z M175.9,255.2v32.1
		l36.4-31.7l-18.2-16.2L175.9,255.2z"/>
	<path d="M171.6,343.2c-0.4,0-1.3,0-1.7-0.4c-1.3-0.8-2.6-1.9-2.6-3.4v-43.1c0-1.1,0.4-1.9,1.3-2.6l22.5-19.6c1.7-1.5,4.3-1.5,6.1,0
		l24.7,21.5c0.9,0.8,1.3,1.5,1.3,2.6s-0.4,1.9-1.3,2.6L174.6,342C173.8,342.4,172.9,343.2,171.6,343.2z M175.9,298.2V330l36.4-31.7
		l-18.2-15.9L175.9,298.2z"/>
	<path d="M171.6,385.9c-0.4,0-1.3,0-1.7-0.4c-1.3-0.8-2.6-1.9-2.6-3.4v-42.7c0-1.1,0.4-1.9,1.3-2.6l22.5-19.6c1.7-1.5,4.3-1.5,6.1,0
		l24.7,21.5c0.9,0.8,1.3,1.5,1.3,2.6s-0.4,1.9-1.3,2.6l-47.3,40.8C173.8,385.5,172.9,385.9,171.6,385.9z M175.9,340.9V373l36.4-31.7
		l-18.2-15.9L175.9,340.9z"/>
	<path d="M198,405.5h-26.4c-2.6,0-4.3-1.5-4.3-3.8v-19.6c0-1.1,0.4-1.9,1.3-2.6l22.5-19.6c1.7-1.5,4.3-1.5,6.1,0l24.7,21.5
		c0.9,0.8,1.3,1.5,1.3,2.6s-0.4,1.9-1.3,2.6l-20.8,18.1C200.2,405.1,199.3,405.5,198,405.5z M175.9,397.9h20.4l16.5-14.4l-18.6-15.9
		L176,383.5C175.9,383.6,175.9,397.9,175.9,397.9z"/>
	<path d="M423.1,255.9c-1.3,0-2.2-0.4-3-1.1l-69.4-60.4c-1.7-1.5-1.7-3.8,0-5.3l10-8.7c0.9-1.1,1.7-1.5,3-1.5h29.1
		c1.3,0,2.2,0.4,3,1.1l30.4,26.4c0.9,0.8,1.3,1.9,1.3,2.6v42.7c0,1.5-0.9,3-2.6,3.4C424.4,255.5,423.5,255.9,423.1,255.9z
		 M359.8,191.3l59,51.4V211L391,186.4h-25.6L359.8,191.3z"/>
	<path d="M423.1,298.6c-1.3,0-2.2-0.4-3-1.1L350.7,237c-1.7-1.5-1.7-3.8,0-5.3l24.3-21.5c0.9-0.8,2.2-1.1,3-1.1l0,0
		c1.3,0,2.2,0.4,3,1.1l45.1,39.3c0.9,0.8,1.3,1.5,1.3,2.6v42.7c0,1.5-0.9,3-2.6,3.4C424.4,298.2,423.5,298.6,423.1,298.6z
		 M359.8,234l59,51.7v-32.1L378,218.2L359.8,234z"/>
	<path d="M423.1,341.3c-1.3,0-2.2-0.4-3-1.1l-69.4-60.4c-1.7-1.5-1.7-3.8,0-5.3L375,253c0.9-0.8,1.7-1.1,3-1.1l0,0
		c1.3,0,2.2,0.4,3,1.1l45.1,39.3c0.9,0.8,1.3,1.5,1.3,2.6v42.7c0,1.5-0.9,3-2.6,3.4C424.4,341.3,423.5,341.3,423.1,341.3z
		 M359.8,276.7l59,51.7v-32.1L378,260.8L359.8,276.7z"/>
	<path d="M423.1,384c-1.3,0-2.2-0.4-3-1.1l-69.4-60.4c-1.7-1.5-1.7-3.8,0-5.3l24.3-21.5c0.9-0.8,1.7-1.1,3-1.1l0,0
		c1.3,0,2.2,0.4,3,1.1l45.1,39.3c0.9,0.8,1.3,1.5,1.3,2.6v42.7c0,1.5-0.9,3-2.6,3.4C424.4,384,423.5,384,423.1,384z M359.8,319.8
		l59,51.4V339L378,303.5L359.8,319.8z"/>
	<path d="M423.1,405.5h-24.3c-1.3,0-2.2-0.4-3-1.1l-45.1-39.3c-1.7-1.5-1.7-3.8,0-5.3l24.3-21.5c0.9-0.8,1.7-1.1,3-1.1l0,0
		c1.3,0,2.2,0.4,3,1.1l45.1,39.3c0.9,0.8,1.3,1.5,1.3,2.6v21.5C427.4,404,425.7,405.5,423.1,405.5z M400.5,397.9h18.2v-16.2
		L378,346.2l-18.2,16.2L400.5,397.9z"/>
	<path d="M423.1,212.9c-1.3,0-2.2-0.4-3-1.1l-30.4-26.4c-1.3-1.1-1.7-2.6-0.9-4.2c0.4-1.5,2.2-2.3,3.9-2.3h30.4
		c2.6,0,4.3,1.5,4.3,3.8v26.4c0,1.5-0.9,3-2.6,3.4C424.4,212.9,423.5,212.9,423.1,212.9z M403.1,186.4l15.6,13.6v-13.6H403.1z"/>
</g>
</svg>
