<?xml version="1.0" encoding="utf-8"?>
<!-- Generator: Adobe Illustrator 23.0.3, SVG Export Plug-In . SVG Version: 6.00 Build 0)  -->
<svg version="1.1" id="Capa_1" xmlns="http://www.w3.org/2000/svg" xmlns:xlink="http://www.w3.org/1999/xlink" x="0px" y="0px"
	 viewBox="0 0 512 512" style="enable-background:new 0 0 512 512;" xml:space="preserve">
<style type="text/css">
	.st0{fill:#FFFFFF;}
	.st1{fill:#FFDF2B;}
	.st2{fill:#FDDC42;}
	.st3{fill:#FFEB49;}
</style>
<path class="st0" d="M34.1,8.5h443.7c14.1,0,25.6,11.5,25.6,25.6v443.7c0,14.1-11.5,25.6-25.6,25.6H34.1C20,503.5,8.5,492,8.5,477.9
	V34.1C8.5,20,20,8.5,34.1,8.5z"/>
<path class="st0" d="M34.1,8.5h418.1c14.1,0,25.6,11.5,25.6,25.6v443.7c0,14.1-11.5,25.6-25.6,25.6H34.1C20,503.5,8.5,492,8.5,477.9
	V34.1C8.5,20,20,8.5,34.1,8.5z"/>
<g>
	<path d="M230.4,358.4c4.4,0,8.6,0,12.8,0.1c-22.4,0.3-41.9,1.3-55,2.8h-0.1l-0.3-2C200.4,358.7,214.9,358.4,230.4,358.4z"/>
	<path d="M401.1,114v99.3c0,76.8-76.8,145.1-76.8,145.1l-0.3,2.9h-0.1c-6.8-0.8-15.4-1.5-25.3-2l0.1-0.9c0,0,76.8-68.3,76.8-145.1
		V114c0.1-10.8-5-21-13.7-27.4c-6.4-4.6-13.3-8.7-20.4-12.1c-2.7-1.5-5.6-2.7-8.5-4c-2.7-1.2-5.6-2.4-8.5-3.4
		c-5.5-2.1-11.1-4-17.1-5.7c-2.8-0.8-5.6-1.5-8.5-2.2c-2.8-0.7-5.6-1.4-8.5-2c-5.5-1.1-11.3-2.1-17.1-2.9c-2.8-0.4-5.6-0.8-8.5-1.1
		c-2.8-0.3-5.6-0.6-8.5-0.9c-4.3-0.4-8.6-0.7-13.1-0.9c1.5-0.1,3-0.1,4.5-0.2c2.8-0.1,5.6-0.1,8.5-0.1c2.9,0,5.7,0,8.5,0.1
		c5.8,0.2,11.5,0.5,17.1,1c2.9,0.3,5.7,0.5,8.5,0.9c2.9,0.3,5.7,0.7,8.5,1.1c5.8,0.8,11.5,1.8,17.1,2.9c2.9,0.6,5.7,1.3,8.5,2
		c2.9,0.7,5.7,1.5,8.5,2.2c6,1.7,11.6,3.6,17.1,5.7c2.9,1,5.8,2.2,8.5,3.4c2.9,1.3,5.8,2.6,8.5,4c7.1,3.5,13.9,7.5,20.4,12.1
		C396.1,93,401.2,103.2,401.1,114L401.1,114z"/>
</g>
<g>
	<path class="st1" d="M375.5,114v99.3c0,76.8-76.8,145.1-76.8,145.1l-0.1,0.9c-12.5-0.6-27-0.9-42.6-0.9c-4.4,0-8.6,0-12.8,0.1
		c-4.2-0.1-8.4-0.1-12.8-0.1c-15.5,0-30,0.3-42.6,0.9l-0.1-0.9c0,0-76.8-68.3-76.8-145.1V114c-0.1-10.8,5-21,13.7-27.4
		c6.4-4.6,13.3-8.7,20.4-12.1c2.7-1.5,5.6-2.7,8.5-4c2.7-1.2,5.6-2.4,8.5-3.4c8.4-3.2,16.9-5.8,25.6-7.9v171.3l36.9-177.6
		c6-0.7,12-1.1,18.3-1.4c4.4,0.2,8.8,0.4,13.1,0.9c2.9,0.3,5.7,0.5,8.5,0.9c2.9,0.3,5.7,0.7,8.5,1.1c5.8,0.8,11.5,1.8,17.1,2.9
		c2.9,0.6,5.7,1.3,8.5,2c2.9,0.7,5.7,1.5,8.5,2.2c6,1.7,11.6,3.6,17.1,5.7c2.9,1,5.8,2.2,8.5,3.4c2.9,1.3,5.8,2.6,8.5,4
		c7.1,3.5,13.9,7.5,20.4,12.1C370.5,93,375.6,103.2,375.5,114z"/>
	<path class="st1" d="M298.6,359.3l-0.3,2h-0.1c-13.1-1.5-32.7-2.6-55-2.8c4.2-0.1,8.4-0.1,12.8-0.1
		C271.5,358.4,286,358.7,298.6,359.3z"/>
</g>
<path class="st2" d="M223.3,372.6c5.6,0,11.1,0,16.4,0.2c-20.9,0.3-39.1,1.3-51.5,2.7l-0.1-2.2C198.8,372.7,210.8,372.6,223.3,372.6
	z"/>
<path class="st3" d="M291.2,373.2l-0.1,2.2c-12.5-1.5-30.6-2.4-51.5-2.7c5.3-0.2,10.8-0.2,16.3-0.2
	C268.5,372.6,280.5,372.7,291.2,373.2z"/>
<rect x="179.2" y="443.7" width="153.6" height="59.7"/>
<rect x="179.2" y="443.7" class="st1" width="128" height="59.7"/>
<path d="M341.3,365.7v87.7c0,1.2-3.3,2.3-9.3,3.3c-25.2,3.1-50.6,4.4-76,4c-25.4,0.4-50.8-0.9-76-4c-6-1-9.3-2.1-9.3-3.3v-87.7
	c0-1.9,8.4-3.6,22.2-4.9c15.6-1.5,38.1-2.4,63.1-2.4c25,0,47.5,0.9,63.1,2.4C333,362.2,341.3,363.9,341.3,365.7z"/>
<path class="st0" d="M315.7,365.7v87.7c0,1.2-2.8,2.3-7.9,3.3c-21.4,3.1-43,4.4-64.6,4c-21.6,0.4-43.2-0.9-64.6-4
	c-5.1-1-7.9-2.1-7.9-3.3v-87.7c0-1.9,7.1-3.6,18.9-4.9c17.8-1.7,35.8-2.5,53.7-2.4c17.9-0.1,35.8,0.7,53.7,2.4
	C308.6,362.2,315.7,363.9,315.7,365.7z"/>
<circle class="st1" cx="290.1" cy="409.6" r="17.1"/>
<path d="M477.9,0H34.1C15.3,0,0,15.3,0,34.1v443.7C0,496.7,15.3,512,34.1,512h443.7c18.8,0,34.1-15.3,34.1-34.1V34.1
	C512,15.3,496.7,0,477.9,0z M187.7,494.9v-28.4c22.7,2.2,45.5,3.2,68.3,2.8c22.8,0.4,45.6-0.6,68.3-2.8v28.4H187.7z M153.6,187.7
	c2.3,0,4.4-0.9,6-2.5c1.6-1.6,2.5-3.8,2.5-6V76.3c5.4-2.2,11.1-4.1,17.1-5.9v160c0,4.4,3.3,8,7.7,8.5c0.3,0,0.6,0,0.9,0
	c4,0,7.5-2.8,8.4-6.8l35.6-171.3c5.1-0.4,10.3-0.7,15.7-0.9v93.6c0,4.7,3.8,8.5,8.5,8.5c4.7,0,8.5-3.8,8.5-8.5V60
	c5.7,0.2,11.4,0.5,17.1,1v135.3c0,4.7,3.8,8.5,8.5,8.5c4.7,0,8.5-3.8,8.5-8.5V63c5.8,0.8,11.4,1.9,17.1,3.1v164.3
	c0,4.7,3.8,8.5,8.5,8.5s8.5-3.8,8.5-8.5v-160c5.9,1.8,11.6,3.7,17.1,5.9v119.9c0,4.7,3.8,8.5,8.5,8.5s8.5-3.8,8.5-8.5V84.2
	c5.3,2.8,10.5,5.9,15.4,9.4c6.5,4.8,10.3,12.4,10.2,20.5v99.3c0,72-73.2,138-73.9,138.7l-0.2,0.1l-0.2,0c-0.7-0.1-1.5-0.1-2.3-0.2
	c-1.5-0.1-3-0.3-4.6-0.4c-0.9-0.1-1.8-0.1-2.7-0.2c-1.6-0.1-3.2-0.2-4.8-0.3c-1-0.1-2-0.1-3-0.2c-1.7-0.1-3.3-0.2-5.1-0.2
	c-1,0-2.1-0.1-3.2-0.1c-1.8-0.1-3.6-0.1-5.4-0.2c-1.1,0-2.2-0.1-3.2-0.1c-1.9-0.1-3.9-0.1-5.8-0.1c-1.1,0-2.1-0.1-3.2-0.1
	c-2.1,0-4.3-0.1-6.4-0.1c-1,0-1.9,0-2.9,0c-3.1,0-6.3,0-9.6,0c-3.2,0-6.4,0-9.6,0c-1,0-2,0-3,0c-2.1,0-4.2,0.1-6.3,0.1
	c-1.2,0-2.4,0.1-3.5,0.1c-1.9,0-3.7,0.1-5.5,0.1c-1.2,0-2.3,0.1-3.4,0.1c-1.8,0.1-3.5,0.1-5.2,0.2c-1.1,0-2.3,0.1-3.4,0.1
	c-1.7,0.1-3.3,0.2-4.9,0.2c-1,0.1-2,0.1-3,0.2c-1.6,0.1-3.2,0.2-4.8,0.3c-0.9,0.1-1.8,0.1-2.7,0.2c-1.8,0.1-3.5,0.3-5.2,0.4
	c-0.5,0-1.1,0.1-1.6,0.1l-0.3,0l-0.2-0.1c-0.7-0.7-73.9-66.6-73.9-138.7V114c-0.1-8.1,3.7-15.7,10.2-20.5c4.9-3.5,10.1-6.6,15.4-9.4
	v95c0,2.3,0.9,4.4,2.5,6C149.2,186.8,151.3,187.7,153.6,187.7z M179.2,448v-76.8c1.9-0.4,4.8-0.9,9-1.3c0.3,0,0.7,0,1-0.1
	c22.2-2.1,44.5-3.1,66.9-2.8c22.3-0.2,44.6,0.7,66.9,2.8l0.4,0c4.5,0.5,7.5,1,9.5,1.4V448c-25.5,3.4-51.1,4.8-76.8,4.3
	C230.3,452.8,204.7,451.4,179.2,448L179.2,448z M494.9,477.9c0,9.4-7.6,17.1-17.1,17.1H341.3v-31.9c8.5-2.9,8.5-6.4,8.5-9.6v-87.7
	c0-5.8-4.2-8.7-10.1-10.5c21.4-21.8,69.9-78.4,69.9-142V114c0.1-13.5-6.3-26.3-17.3-34.3c-9.5-6.8-19.7-12.5-30.5-17l-0.1,0l-0.1,0
	c-11.4-4.9-23.3-8.9-35.4-11.8C314.7,48,303,46,291.1,44.7c-11.6-1.3-23.3-2-35-2l-0.1,0c-0.1,0-0.1,0-0.1,0
	c-10.7,0-21.4,0.5-32.1,1.6c-0.1,0-0.2,0.1-0.3,0.1c-0.7,0.1-1.3,0.3-1.9,0.6c-0.4,0.1-0.8,0.3-1.1,0.5c-0.6,0.4-1.1,0.8-1.5,1.3
	c-0.3,0.3-0.6,0.6-0.9,0.9c-0.3,0.5-0.6,1-0.8,1.5c-0.3,0.5-0.5,1-0.7,1.5c0,0.1-0.1,0.2-0.1,0.3l-20.1,96.4V59.1
	c0-0.3-0.1-0.7-0.2-1c0-0.3,0-0.7,0-1c-0.1-0.2-0.2-0.4-0.3-0.6c-0.4-1-0.9-2-1.6-2.9c-1.5-1.6-3.5-2.7-5.7-2.9
	c-0.2,0-0.4-0.1-0.7-0.1c-0.3,0-0.7,0.1-1,0.2c-0.3,0-0.7,0-1,0c-12.1,2.9-24,6.8-35.4,11.8l0,0l0,0c-10.8,4.6-21,10.3-30.5,17
	c-10.9,8-17.4,20.8-17.3,34.3v99.3c0,63.5,48.5,120.1,69.9,142c-5.9,1.7-10.1,4.6-10.1,10.5v87.7c0,3.2,0,6.7,8.5,9.6v31.9H34.1
	c-9.4,0-17.1-7.6-17.1-17.1V34.1c0-9.4,7.6-17.1,17.1-17.1h443.7c9.4,0,17.1,7.6,17.1,17.1L494.9,477.9L494.9,477.9z"/>
<path d="M281.6,384c-14.1,0-25.6,11.5-25.6,25.6c0,14.1,11.5,25.6,25.6,25.6c14.1,0,25.6-11.5,25.6-25.6S295.7,384,281.6,384z
	 M281.6,418.1c-4.7,0-8.5-3.8-8.5-8.5c0-4.7,3.8-8.5,8.5-8.5c4.7,0,8.5,3.8,8.5,8.5C290.1,414.3,286.3,418.1,281.6,418.1z"/>
</svg>
