<?xml version="1.0" encoding="utf-8"?>
<!-- Generator: Adobe Illustrator 23.0.3, SVG Export Plug-In . SVG Version: 6.00 Build 0)  -->
<svg version="1.1" id="Capa_1" xmlns="http://www.w3.org/2000/svg" xmlns:xlink="http://www.w3.org/1999/xlink" x="0px" y="0px"
	 viewBox="0 0 512 512" style="enable-background:new 0 0 512 512;" xml:space="preserve">
<style type="text/css">
	.st0{fill:#FFFFFF;}
	.st1{fill:#FFDF2B;}
	.st2{fill:#F6F6F6;}
</style>
<g>
	<circle class="st0" cx="256" cy="256" r="247.5"/>
	<ellipse class="st0" cx="243.2" cy="256" rx="234.7" ry="247.5"/>
	<path class="st1" d="M206.2,369.7c0.9-1.9,11.4-24.6-0.1-36.1c-6-5-14.2-6.8-21.8-4.8c-2.7,0.5-5.5-0.4-7.4-2.3s-2.8-4.7-2.3-7.4
		c2-7.6,0.3-15.7-4.8-21.8c-11.5-11.5-34.2-0.9-36.1-0.1l181-180.9l72.4,72.4L206.2,369.7z"/>
	<path d="M149.7,388.6l-36.1,11.9c-3,1-6.4,0.3-8.7-2c-2.3-2.3-3-5.6-2-8.7l11.9-36.1h0.1c9.3-0.2,18.2,3.4,24.8,10
		C146.3,370.4,149.9,379.3,149.7,388.6L149.7,388.6z"/>
	<path class="st0" d="M206.2,369.7L206.2,369.7l-56.5,18.9c0.2-9.3-3.4-18.2-10-24.8s-15.5-10.2-24.8-10l18.7-56.4l0.1-0.1
		c1.9-0.9,24.6-11.4,36.1,0.1c5,6,6.8,14.2,4.8,21.8c-0.5,2.7,0.4,5.5,2.3,7.4s4.7,2.8,7.4,2.3c7.6-2,15.7-0.3,21.8,4.8
		C217.6,345.2,207,367.9,206.2,369.7z"/>
	<path class="st1" d="M387.1,188.8l-72.4-72.4l24.1-24.1c6.7-6.7,17.5-6.7,24.1,0l48.3,48.3c6.7,6.7,6.7,17.5,0,24.1L387.1,188.8z"
		/>
	
		<rect x="307.2" y="119.5" transform="matrix(0.7071 -0.7071 0.7071 0.7071 -23.2535 285.3153)" class="st2" width="51.2" height="102.4"/>
	<path d="M256,0C114.6,0,0,114.6,0,256s114.6,256,256,256s256-114.6,256-256C511.8,114.7,397.3,0.2,256,0z M256,494.9
		C124,494.9,17.1,388,17.1,256S124,17.1,256,17.1S494.9,124,494.9,256C494.8,387.9,387.9,494.8,256,494.9z"/>
	<path d="M369,86.2L369,86.2c-10-10-26.2-10-36.2,0l-24.1,24.1l-36.2,36.2L127.6,291.4c-0.1,0.1-0.1,0.2-0.2,0.2
		c-0.3,0.3-0.5,0.7-0.7,1c-0.4,0.5-0.7,1.1-1,1.7c-0.1,0.1-0.2,0.2-0.2,0.4l-30.7,92.4c-1.8,5.2-0.9,10.9,2.2,15.4
		c3.2,4.5,8.3,7.1,13.8,7.2l0.1,0l0,0h179.2c4.7,0,8.5-3.8,8.5-8.5s-3.8-8.5-8.5-8.5H164.8l43.9-14.6c0.1,0,0.1-0.1,0.2-0.1
		c1-0.5,2-1.1,2.9-1.8c0.1-0.1,0.2-0.1,0.2-0.1L356.9,231l36.2-36.2l24.1-24.1c10-10,10-26.2,0-36.2L369,86.2z M170.9,332.6
		c3.9,3.9,9.5,5.7,15,4.7c4.8-1.4,10-0.6,14.2,2.3c5.2,5.3,2.2,16.8-0.3,23.3l-43.1,14.4c-3.6-15.1-15.4-26.9-30.5-30.5l14.3-43
		c6.2-2.4,18-5.6,23.3-0.3c2.9,4.1,3.8,9.3,2.3,14.2C165.2,323.1,166.9,328.7,170.9,332.6z M111,392.5L111,392.5l9.8-29.6
		c9.9,2,17.7,9.8,19.7,19.7L111,392.5z M212.1,327.6c-5.5-5.3-12.9-8.1-20.5-7.8c-2.9,0-5.8,0.3-8.6,0.8c2.8-10.3,0.2-21.4-7.1-29.2
		c-4.4-4.4-10.3-7.1-16.5-7.7l119-119l60.3,60.3l-119,119C219.2,337.8,216.5,332,212.1,327.6z M350.9,212.9l-60.3-60.3l24.1-24.1
		l60.3,60.3L350.9,212.9z M405.2,158.6l-18.1,18.1l-60.3-60.3l18.1-18.1c1.6-1.6,3.8-2.5,6-2.5s4.4,0.9,6,2.5l48.3,48.3
		C408.5,149.9,408.5,155.3,405.2,158.6L405.2,158.6z"/>
	<path d="M302.6,200.9c-1.6-1.6-3.8-2.5-6-2.5s-4.4,0.9-6,2.5l-84.5,84.5c-2.2,2.2-3,5.3-2.2,8.2c0.8,2.9,3.1,5.2,6,6
		s6.1-0.1,8.2-2.2l84.5-84.5c1.6-1.6,2.5-3.8,2.5-6C305.1,204.6,304.2,202.5,302.6,200.9L302.6,200.9z"/>
</g>
</svg>
