<?xml version="1.0" encoding="utf-8"?>
<!-- Generator: Adobe Illustrator 23.0.3, SVG Export Plug-In . SVG Version: 6.00 Build 0)  -->
<svg version="1.1" id="Capa_1" xmlns="http://www.w3.org/2000/svg" xmlns:xlink="http://www.w3.org/1999/xlink" x="0px" y="0px"
	 viewBox="0 0 512 512" style="enable-background:new 0 0 512 512;" xml:space="preserve">
<style type="text/css">
	.st0{fill:#FFFFFF;}
	.st1{fill:#F6F6F6;}
	.st2{fill:#FFDF2B;stroke:#000000;stroke-width:13;stroke-miterlimit:10;}
	.st3{fill:#FFDF2B;}
</style>
<circle class="st0" cx="256" cy="256" r="247.5"/>
<ellipse class="st0" cx="243.2" cy="256" rx="234.7" ry="247.5"/>
<path d="M102.4,307.2h307.2c4.7,0,8.5,3.8,8.5,8.5v17.1c0,4.7-3.8,8.5-8.5,8.5H102.4c-4.7,0-8.5-3.8-8.5-8.5v-17.1
	C93.9,311,97.7,307.2,102.4,307.2z"/>
<path class="st0" d="M102.4,307.2H384c4.7,0,8.5,3.8,8.5,8.5v17.1c0,4.7-3.8,8.5-8.5,8.5H102.4c-4.7,0-8.5-3.8-8.5-8.5v-17.1
	C93.9,311,97.7,307.2,102.4,307.2z"/>
<path class="st0" d="M128,119.5h256c9.4,0,17.1,7.6,17.1,17.1v170.7H110.9V136.5C110.9,127.1,118.6,119.5,128,119.5z"/>
<path class="st1" d="M128,119.5h230.4c9.4,0,17.1,7.6,17.1,17.1v170.7H110.9V136.5C110.9,127.1,118.6,119.5,128,119.5z"/>
<polygon class="st2" points="128,307.2 177,193.8 216,274.5 243.2,230.1 326.4,307.2 "/>
<g>
	<path class="st3" d="M221.9,119.5c0-18.9,15.3-34.1,34.1-34.1s34.1,15.3,34.1,34.1H221.9z"/>
	<path class="st3" d="M201.7,341.3l-25.2,69.3c-1.5,4.2-4.7,7.7-8.8,9.6s-8.8,2.1-13,0.6l0,0c-8.8-3.2-13.4-13-10.2-21.8l21-57.7"/>
	<path class="st3" d="M340.1,341.3l21,57.6c1.5,4.2,1.3,8.9-0.6,13s-5.4,7.3-9.6,8.8l0,0c-4.2,1.5-8.9,1.3-13-0.6s-7.3-5.4-8.8-9.6
		l-25.2-69.3"/>
	<path class="st3" d="M273.1,341.3V384c0,9.4-7.6,17-17,17H256c-9.4,0-17-7.6-17-17v-42.7"/>
</g>
<g>
	<path d="M409.6,298.7V136.5c0-14.1-11.5-25.6-25.6-25.6h-86.2C293.7,91,276.3,76.8,256,76.8s-37.7,14.3-41.8,34.1H128
		c-14.1,0-25.6,11.5-25.6,25.6v162.1c-9.4,0-17.1,7.6-17.1,17.1v17.1c0,9.4,7.6,17.1,17.1,17.1h50.9l-16.8,46.2
		c-3.1,8.6-1.4,18.2,4.4,25.2s15,10.3,24,8.7s16.5-7.9,19.6-16.4l23.2-63.7h22.7V384c0,14.1,11.5,25.6,25.6,25.6
		s25.6-11.5,25.6-25.6v-34.2h16.3l23.1,63.7c3.7,10.1,13.3,16.8,24,16.9c3,0,6-0.5,8.8-1.6c6.4-2.3,11.6-7.1,14.4-13.2
		c2.9-6.1,3.2-13.2,0.8-19.6l-16.9-46.2h57.4c9.4,0,17.1-7.6,17.1-17.1v-17.1C426.7,306.3,419,298.7,409.6,298.7z M256,93.9
		c10.8,0,20.5,6.8,24.1,17.1h-48.3C235.5,100.7,245.2,93.9,256,93.9z M119.5,136.5c0-4.7,3.8-8.5,8.5-8.5h256c4.7,0,8.5,3.8,8.5,8.5
		v162.1h-273V136.5z M168.5,407.7c-0.8,2.1-2.4,3.8-4.4,4.8s-4.4,1.1-6.5,0.3c-4.4-1.6-6.7-6.5-5.1-10.9l18.9-52h18.1L168.5,407.7z
		 M264.5,384c0,4.7-3.8,8.5-8.5,8.5c-4.7,0-8.5-3.8-8.5-8.5v-34.2h17.1L264.5,384L264.5,384z M353.1,401.9c1.6,4.4-0.7,9.3-5.1,10.9
		s-9.3-0.7-10.9-5.1l-21-57.9h18L353.1,401.9z M102.4,332.8v-17.1h307.2v17.1H102.4z"/>
</g>
<circle class="st2" cx="326.4" cy="185.3" r="36.3"/>
</svg>
