<?xml version="1.0" encoding="utf-8"?>
<!-- Generator: Adobe Illustrator 23.0.3, SVG Export Plug-In . SVG Version: 6.00 Build 0)  -->
<svg version="1.1" id="Capa_1" xmlns="http://www.w3.org/2000/svg" xmlns:xlink="http://www.w3.org/1999/xlink" x="0px" y="0px"
	 viewBox="0 0 512 512" style="enable-background:new 0 0 512 512;" xml:space="preserve">
<style type="text/css">
	.st0{fill:#FFDF2B;}
	.st1{fill:#FFFFFF;}
</style>
<g>
	<g>
		<polygon class="st0" points="292,116.4 377.3,220.5 276.4,343.6 191.1,239.5 		"/>
		<polygon class="st1" points="119.6,326.8 166.9,384.5 242.9,384.5 264.3,358.4 179,254.3 		"/>
		<path d="M389.4,384.5H267.1l128.4-156.6c3.3-4.1,3.3-10.7,0-14.8L298.1,94.2c-1.6-2-3.8-3.1-6.1-3.1c-2.3,0-4.5,1.1-6.1,3.1
			L101.4,319.4c-3.3,4.1-3.3,10.7,0,14.8l55.9,68.2c1.6,2,3.8,3.1,6.1,3.1h226.1c4.7,0,8.6-4.7,8.6-10.5
			C398,389.2,394.2,384.5,389.4,384.5z M292,116.4l85.3,104.1L276.4,343.6l-85.3-104.1L292,116.4z M242.9,384.5h-76l-47.3-57.7
			l59.4-72.5l85.3,104.1L242.9,384.5z"/>
	</g>
</g>
</svg>
