<?xml version="1.0" encoding="utf-8"?>
<!-- Generator: Adobe Illustrator 23.0.3, SVG Export Plug-In . SVG Version: 6.00 Build 0)  -->
<svg version="1.1" id="Capa_1" xmlns="http://www.w3.org/2000/svg" xmlns:xlink="http://www.w3.org/1999/xlink" x="0px" y="0px"
	 viewBox="0 0 512 512" style="enable-background:new 0 0 512 512;" xml:space="preserve">
<style type="text/css">
	.st0{fill:#FFFFFF;}
	.st1{fill:#FFDF2B;}
	.st2{fill:none;stroke:#000000;stroke-width:16;stroke-miterlimit:10;}
</style>
<path d="M221.9,494.9v-25.6c0-4.7,3.8-8.5,8.5-8.5h51.2c4.7,0,8.5,3.8,8.5,8.5v25.6H221.9z"/>
<path d="M477.9,0H34.1C15.3,0,0,15.3,0,34.1v443.7C0,496.7,15.3,512,34.1,512h443.7c18.8,0,34.1-15.3,34.1-34.1V34.1
	C512,15.3,496.7,0,477.9,0z"/>
<path class="st0" d="M462.6,17.7H49.4c-17.5,0-31.8,14.2-31.8,31.8v413.1c0,17.5,14.2,31.8,31.8,31.8h413.1
	c17.5,0,31.8-14.2,31.8-31.8V49.4C494.3,31.9,480.1,17.7,462.6,17.7z"/>
<polygon class="st1" points="360.9,278.9 360.9,183.1 277.6,183.1 277.6,108.4 55.8,108.4 55.8,233.1 139.1,233.1 139.1,308 
	234.4,308 234.4,403.6 456.2,403.6 456.2,278.9 "/>
<g>
	<rect x="55.8" y="115.6" class="st2" width="221.8" height="124.8"/>
	<rect x="139.1" y="190.4" class="st2" width="221.8" height="124.8"/>
	<rect x="234.4" y="286.1" class="st2" width="221.8" height="124.8"/>
</g>
</svg>
