<?xml version="1.0" encoding="utf-8"?>
<!-- Generator: Adobe Illustrator 23.0.3, SVG Export Plug-In . SVG Version: 6.00 Build 0)  -->
<svg version="1.1" id="Capa_1" xmlns="http://www.w3.org/2000/svg" xmlns:xlink="http://www.w3.org/1999/xlink" x="0px" y="0px"
	 viewBox="0 0 512 512" style="enable-background:new 0 0 512 512;" xml:space="preserve">
<style type="text/css">
	.st0{fill:#FFFFFF;}
	.st1{fill:#FFDF2B;}
</style>
<g>
	<circle class="st0" cx="256" cy="256" r="247.5"/>
	<ellipse class="st0" cx="243.2" cy="256" rx="234.7" ry="247.5"/>
	<g>
		<g>
			
				<ellipse transform="matrix(0.6948 -0.7192 0.7192 0.6948 -57.6548 139.216)" class="st1" cx="135.2" cy="137.5" rx="21.5" ry="21.2"/>
			
				<ellipse transform="matrix(0.6948 -0.7192 0.7192 0.6948 20.2378 311.1673)" class="st1" cx="376.8" cy="131.7" rx="21.5" ry="21.2"/>
		</g>
		<path d="M396.6,111.1c-11.2-10.8-29.2-10.4-40.2,1c-3.6,3.7-6,8.2-7.2,13.2l-186.7,4.5c-1.3-4.9-3.9-9.3-7.4-12.8
			c-11.3-10.9-29.2-10.4-40.2,1s-10.8,29.4,0.4,40.2s29.2,10.4,40.2-1c3.6-3.7,6-8.2,7.2-13.2l186.7-4.5c1.3,4.9,3.9,9.3,7.4,12.8
			c11.3,10.9,29.2,10.4,40.2-1S407.9,121.9,396.6,111.1z M125.3,147.8c-4.6-4.4-5.6-11.5-2.5-17.1c3.2-5.7,9.7-8.5,15.9-7.1
			c6.3,1.5,10.6,7,10.7,13.5l0,0l0,0c0.1,5.8-3.4,11-8.6,13.4C135.5,152.8,129.4,151.8,125.3,147.8L125.3,147.8z M366.8,142
			c-2.7-2.6-4.3-6.2-4.2-9.9l0,0l0,0c0-6.8,4.7-12.7,11.3-14.2c6.6-1.5,13.3,1.9,16,8.1c2.7,6.2,0.6,13.5-5.1,17.4
			C379.2,147.2,371.6,146.6,366.8,142L366.8,142z"/>
	</g>
	<g>
		<g>
			
				<ellipse transform="matrix(0.7078 -0.7064 0.7064 0.7078 -58.7394 135.5964)" class="st1" cx="134.5" cy="138.8" rx="21.2" ry="21.5"/>
			
				<ellipse transform="matrix(0.7078 -0.7064 0.7064 0.7078 -228.906 207.1612)" class="st1" cx="136" cy="380.3" rx="21.2" ry="21.5"/>
		</g>
		<path d="M156.2,400.6c11-11,10.9-29-0.2-40.2c-3.6-3.6-8.1-6.1-13-7.4l-1.1-186.7c4.9-1.2,9.4-3.7,12.9-7.2
			c11.1-11.1,10.9-29-0.2-40.2c-11.2-11.2-29.2-11.3-40.2-0.3s-10.9,29,0.2,40.2c3.6,3.6,8.1,6.1,13,7.4l1.1,186.7
			c-4.9,1.2-9.4,3.7-12.9,7.2c-11.1,11.1-10.9,29,0.2,40.2C127.1,411.5,145.1,411.7,156.2,400.6z M124.4,128.6
			c4.5-4.5,11.6-5.4,17.1-2.2c5.6,3.3,8.3,9.9,6.8,16c-1.6,6.2-7.2,10.5-13.7,10.4l0,0l0,0c-5.8,0-10.9-3.6-13.2-8.9
			C119.2,138.7,120.3,132.6,124.4,128.6L124.4,128.6z M125.8,370.2c2.6-2.6,6.3-4.1,10-4l0,0l0,0c6.8,0.1,12.7,4.9,14,11.6
			c1.3,6.6-2.2,13.3-8.4,15.9c-6.2,2.5-13.5,0.3-17.3-5.4C120.4,382.4,121.1,374.9,125.8,370.2L125.8,370.2z"/>
	</g>
	<g>
		<g>
			
				<ellipse transform="matrix(0.6948 -0.7192 0.7192 0.6948 -232.2918 213.3078)" class="st1" cx="135.2" cy="380.4" rx="21.5" ry="21.2"/>
			
				<ellipse transform="matrix(0.6948 -0.7192 0.7192 0.6948 -154.3992 385.2592)" class="st1" cx="376.7" cy="374.6" rx="21.5" ry="21.2"/>
		</g>
		<path d="M396.6,353.9c-11.2-10.8-29.2-10.4-40.2,1c-3.6,3.7-6,8.2-7.2,13.2l-186.7,4.5c-1.3-4.9-3.9-9.3-7.4-12.8
			c-11.3-10.9-29.2-10.4-40.2,1s-10.8,29.4,0.4,40.2c11.2,10.8,29.2,10.4,40.2-1c3.6-3.7,6-8.2,7.2-13.2l186.7-4.5
			c1.3,4.9,3.9,9.3,7.4,12.8c11.3,10.9,29.2,10.4,40.2-1S407.9,364.8,396.6,353.9z M125.3,390.7c-4.6-4.4-5.6-11.5-2.5-17.1
			c3.2-5.7,9.7-8.5,15.9-7.1c6.3,1.5,10.6,7,10.7,13.5l0,0l0,0c0.1,5.8-3.4,11-8.6,13.4C135.5,395.7,129.4,394.6,125.3,390.7
			L125.3,390.7z M366.8,384.8c-2.7-2.6-4.3-6.2-4.2-9.9l0,0l0,0c0-6.8,4.7-12.7,11.3-14.2c6.6-1.5,13.3,1.9,16,8.1
			s0.6,13.5-5.1,17.4C379.2,390,371.6,389.5,366.8,384.8L366.8,384.8z"/>
	</g>
	<g>
		<g>
			
				<ellipse transform="matrix(0.7078 -0.7064 0.7064 0.7078 16.8196 304.1205)" class="st1" cx="376" cy="131.7" rx="21.2" ry="21.5"/>
			
				<ellipse transform="matrix(0.7078 -0.7064 0.7064 0.7078 -153.347 375.6853)" class="st1" cx="377.5" cy="373.2" rx="21.2" ry="21.5"/>
		</g>
		<path d="M397.7,393.5c11-11,10.9-29-0.2-40.2c-3.6-3.6-8.1-6.1-13-7.4l-1.1-186.7c4.9-1.2,9.4-3.7,12.9-7.2
			c11.1-11.1,10.9-29-0.2-40.2c-11.2-11.2-29.2-11.3-40.2-0.3s-10.9,29,0.2,40.2c3.6,3.6,8.1,6.1,13,7.4l1.1,186.7
			c-4.9,1.2-9.4,3.7-12.9,7.2c-11.1,11.1-10.9,29,0.2,40.2C368.6,404.4,386.6,404.6,397.7,393.5z M365.9,121.5
			c4.5-4.5,11.6-5.4,17.1-2.2c5.6,3.3,8.3,9.9,6.8,16c-1.6,6.2-7.2,10.5-13.7,10.4l0,0l0,0c-5.8,0-10.9-3.6-13.2-8.9
			C360.7,131.7,361.9,125.5,365.9,121.5L365.9,121.5z M367.3,363.1c2.6-2.6,6.3-4.1,10-4l0,0l0,0c6.8,0.1,12.7,4.9,14,11.6
			c1.3,6.6-2.2,13.3-8.4,15.9c-6.2,2.5-13.5,0.3-17.3-5.4C361.9,375.4,362.6,367.8,367.3,363.1L367.3,363.1z"/>
	</g>
</g>
</svg>
