<?xml version="1.0" encoding="utf-8"?>
<!-- Generator: Adobe Illustrator 23.0.3, SVG Export Plug-In . SVG Version: 6.00 Build 0)  -->
<svg version="1.1" id="Слой_1" xmlns="http://www.w3.org/2000/svg" xmlns:xlink="http://www.w3.org/1999/xlink" x="0px" y="0px"
	 viewBox="0 0 480 480" style="enable-background:new 0 0 480 480;" xml:space="preserve">
<style type="text/css">
	.st0{fill:#FFFFFF;}
	.st1{fill:#FFDF2B;}
	.st2{fill:#231F20;}
</style>
<path class="st0" d="M240,472C111.9,472,8,368.1,8,240S111.9,8,240,8s232,103.9,232,232S368.1,472,240,472z"/>
<path class="st1" d="M184,120l4.8,72H104v96h84.8l-4.8,72l208-120L184,120z"/>
<g>
	<path class="st2" d="M480,240C480,107.5,372.5,0,240,0S0,107.5,0,240s107.5,240,240,240C372.5,479.9,479.9,372.5,480,240z M16,240
		C16,116.3,116.3,16,240,16s224,100.3,224,224S363.7,464,240,464C116.3,463.9,16.1,363.7,16,240z"/>
	<path class="st2" d="M175,105.6l5.2,78.4H96v112h84.2l-5.2,78.4L408,240L175,105.6z M197.4,280H112v-80h85.4l-4.4-65.6L376,240
		L193,345.6L197.4,280z"/>
</g>
</svg>
