<?xml version="1.0" encoding="utf-8"?>
<!-- Generator: Adobe Illustrator 23.0.3, SVG Export Plug-In . SVG Version: 6.00 Build 0)  -->
<svg version="1.1" id="Слой_1" xmlns="http://www.w3.org/2000/svg" xmlns:xlink="http://www.w3.org/1999/xlink" x="0px" y="0px"
	 viewBox="0 0 480 480" style="enable-background:new 0 0 480 480;" xml:space="preserve">
<style type="text/css">
	.st0{fill:#FFFFFF;}
	.st1{fill:#231F20;}
	.st2{fill:#FFDF2B;}
</style>
<path class="st0" d="M471,239c0,128.1-103.9,232-232,232S7,367.1,7,239S110.9,7,239,7S471,110.9,471,239z"/>
<g>
	<path class="st1" d="M239-1C106.5-1-1,106.5-1,239s107.5,240,240,240s240-107.5,240-240C478.9,106.5,371.5-0.9,239-1z M239,15
		c123.7,0,224,100.3,224,224S362.7,463,239,463S15,362.7,15,239C15.1,115.3,115.3,15.1,239,15z"/>
</g>
<g>
	<polygon class="st2" points="295.8,113.8 399.1,195.5 295.8,295.1 284.4,244.4 151.9,274.9 83.5,338.2 103.6,268 151.9,204.7 
		241.3,167.3 278,170.2 288,162.7 	"/>
	<g>
		<g>
			<path d="M73,357.7c0,4.8,4.3,8.9,10.2,9.7c0.6,0.1,1.3,0.1,2,0.1c5.2,0,9.9-2.7,11.5-6.7c27-65.5,86.9-98.7,183-101.2v48.9
				c0,2.9,1.6,5.7,4.5,7.6c5.2,3.4,12.9,2.8,17.1-1.4l109.4-108.1c3.8-3.8,3.6-9.2-0.4-12.8L300.8,95.7c-2.3-2.1-5.6-3.2-9-3.2
				c-6.7,0-12.2,4.4-12.2,9.8v49.4C159.1,157,73,242,73,357.7z M103.6,306c21.1-81.5,92.6-134.9,188.1-134.9
				c6.7,0,12.2-4.4,12.2-9.8v-33.3l81.2,72.9l-81.2,80.2v-31.4c0-5.4-5.4-9.8-12.2-9.8C205.8,239.8,142.8,262,103.6,306z"/>
		</g>
	</g>
</g>
</svg>
