<?xml version="1.0" encoding="utf-8"?>
<!-- Generator: Adobe Illustrator 23.0.3, SVG Export Plug-In . SVG Version: 6.00 Build 0)  -->
<svg version="1.1" id="Capa_1" xmlns="http://www.w3.org/2000/svg" xmlns:xlink="http://www.w3.org/1999/xlink" x="0px" y="0px"
	 viewBox="0 0 512 512" style="enable-background:new 0 0 512 512;" xml:space="preserve">
<style type="text/css">
	.st0{fill:#FFFFFF;}
	.st1{fill:#FFDF2B;}
</style>
<g>
	<g>
		<circle class="st0" cx="256" cy="256" r="247.5"/>
		<ellipse class="st0" cx="243.2" cy="256" rx="234.7" ry="247.5"/>
		<ellipse class="st0" cx="273.2" cy="218.5" rx="17.1" ry="17.1"/>
		<g>
			<path d="M256,0C114.6,0,0,114.6,0,256s114.6,256,256,256s256-114.6,256-256C511.8,114.7,397.3,0.2,256,0z M256,494.9
				C124,494.9,17.1,388,17.1,256S124,17.1,256,17.1S494.9,124,494.9,256C494.8,387.9,387.9,494.8,256,494.9z"/>
		</g>
	</g>
	<g>
		<g>
			<polygon class="st1" points="405.9,352.9 405.9,399.4 357.3,399.4 357.3,376.1 357.3,352.9 381.6,352.9 			"/>
			<polygon class="st1" points="154.9,376.1 154.9,399.4 106.3,399.4 106.3,352.9 130.6,352.9 154.9,352.9 			"/>
			<polygon class="st1" points="405.9,112.6 405.9,159.1 381.6,159.1 357.3,159.1 357.3,135.9 357.3,112.6 			"/>
			<polygon class="st1" points="154.9,135.9 154.9,159.1 130.6,159.1 106.3,159.1 106.3,112.6 154.9,112.6 			"/>
		</g>
		<path d="M405.9,166.9c4.5,0,8.1-3.5,8.1-7.8v-46.5c0-4.3-3.6-7.8-8.1-7.8h-48.6c-4.5,0-8.1,3.5-8.1,7.8v15.5H163v-15.5
			c0-4.3-3.6-7.8-8.1-7.8h-48.6c-4.5,0-8.1,3.5-8.1,7.8v46.5c0,4.3,3.6,7.8,8.1,7.8h16.2v178.3h-16.2c-4.5,0-8.1,3.5-8.1,7.8v46.5
			c0,4.3,3.6,7.8,8.1,7.8h48.6c4.5,0,8.1-3.5,8.1-7.8v-15.5h186.3v15.5c0,4.3,3.6,7.8,8.1,7.8h48.6c4.5,0,8.1-3.5,8.1-7.8v-46.5
			c0-4.3-3.6-7.8-8.1-7.8h-16.2V166.9H405.9z M365.4,120.4h32.4v31h-32.4V120.4z M114.4,120.4h32.4v31h-32.4V120.4z M146.8,391.6
			h-32.4v-31h32.4V391.6z M397.8,391.6h-32.4v-31h32.4V391.6z M373.5,345.1h-16.2c-4.5,0-8.1,3.5-8.1,7.8v15.5H163v-15.5
			c0-4.3-3.6-7.8-8.1-7.8h-16.2V166.9h16.2c4.5,0,8.1-3.5,8.1-7.8v-15.5h186.3v15.5c0,4.3,3.6,7.8,8.1,7.8h16.2L373.5,345.1
			L373.5,345.1z"/>
	</g>
	<rect x="228" y="96" class="st0" width="68" height="320"/>
	<rect x="222" y="96" transform="matrix(4.494011e-11 -1 1 4.494011e-11 -1.426382e-06 512)" class="st0" width="68" height="320"/>
</g>
</svg>
