<?xml version="1.0" encoding="utf-8"?>
<!-- Generator: Adobe Illustrator 23.0.3, SVG Export Plug-In . SVG Version: 6.00 Build 0)  -->
<svg version="1.1" id="Capa_1" xmlns="http://www.w3.org/2000/svg" xmlns:xlink="http://www.w3.org/1999/xlink" x="0px" y="0px"
	 viewBox="0 0 512 512" style="enable-background:new 0 0 512 512;" xml:space="preserve">
<style type="text/css">
	.st0{fill:#FFDF2B;}
</style>
<g>
	<g>
		<g>
			<polygon class="st0" points="405.9,352.9 405.9,399.4 357.3,399.4 357.3,376.1 357.3,352.9 381.6,352.9 			"/>
			<polygon class="st0" points="154.9,376.1 154.9,399.4 106.3,399.4 106.3,352.9 130.6,352.9 154.9,352.9 			"/>
			<polygon class="st0" points="405.9,112.6 405.9,159.1 381.6,159.1 357.3,159.1 357.3,135.9 357.3,112.6 			"/>
			<polygon class="st0" points="154.9,135.9 154.9,159.1 130.6,159.1 106.3,159.1 106.3,112.6 154.9,112.6 			"/>
		</g>
		<path d="M406,345.2h-16.2V266h-16.3l0,79.1h-16.2c-4.5,0-8.1,3.5-8.1,7.8v15.5H272V384h77.3v15.5c0,4.3,3.6,7.8,8.1,7.8H406
			c4.5,0,8.1-3.5,8.1-7.8V353C414.1,348.7,410.5,345.2,406,345.2z M397.8,391.6h-32.4v-31h32.4V391.6z"/>
		<path d="M389.8,166.9h16.1c4.5,0,8.1-3.5,8.1-7.8v-46.5c0-4.3-3.6-7.8-8.1-7.8h-48.6c-4.5,0-8.1,3.5-8.1,7.8v15.5H272v15.5h77.3
			v15.5c0,4.3,3.6,7.8,8.1,7.8h16.2l0,80.1h16.2V166.9z M365.4,151.4v-31h32.4v31H365.4z"/>
		<path d="M163,352.9c0-4.3-3.6-7.8-8.1-7.8h-16.2V266h-16.2v79.2h-16.2c-4.5,0-8.1,3.5-8.1,7.8v46.5c0,4.3,3.6,7.8,8.1,7.8h48.6
			c4.5,0,8.1-3.5,8.1-7.8V384h79v-15.6h-79V352.9z M146.8,391.6h-32.4v-31h32.4V391.6z"/>
		<path d="M138.7,166.9h16.2c4.5,0,8.1-3.5,8.1-7.8v-15.5h79v-15.5h-79v-15.5c0-4.3-3.6-7.8-8.1-7.8h-48.6c-4.5,0-8.1,3.5-8.1,7.8
			v46.5c0,4.3,3.6,7.8,8.1,7.8h16.2V247h16.2V166.9z M114.4,151.4v-31h32.4v31H114.4z"/>
	</g>
</g>
</svg>
