<?xml version="1.0" encoding="utf-8"?>
<!-- Generator: Adobe Illustrator 23.0.3, SVG Export Plug-In . SVG Version: 6.00 Build 0)  -->
<svg version="1.1" id="Слой_1" xmlns="http://www.w3.org/2000/svg" xmlns:xlink="http://www.w3.org/1999/xlink" x="0px" y="0px"
	 viewBox="0 0 480 480" style="enable-background:new 0 0 480 480;" xml:space="preserve">
<style type="text/css">
	.st0{fill:#FFDF2B;}
	.st1{fill:#231F20;}
</style>
<path class="st0" d="M144,112v112h120v88h120V112H144z"/>
<path class="st0" d="M144,224h120v88H144V224z"/>
<g>
	<path class="st1" d="M136,216H80v152h192v-48h120V104H136V216z M256,352H96V232h40v88h120V352z M256,304H152v-72h104V304z M376,120
		v184H272v-88H152v-96H376z"/>
	<path class="st1" d="M293.7,213.7l32.9-32.9l16.9,16.9L360,136l-61.6,16.5l16.9,16.9l-32.9,32.9L293.7,213.7z"/>
</g>
</svg>
