<?xml version="1.0" encoding="utf-8"?>
<!-- Generator: Adobe Illustrator 23.0.3, SVG Export Plug-In . SVG Version: 6.00 Build 0)  -->
<svg version="1.1" id="Capa_1" xmlns="http://www.w3.org/2000/svg" xmlns:xlink="http://www.w3.org/1999/xlink" x="0px" y="0px"
	 viewBox="0 0 512 512" style="enable-background:new 0 0 512 512;" xml:space="preserve">
<style type="text/css">
	.st0{stroke:#000000;stroke-width:12;stroke-miterlimit:10;}
</style>
<g>
	<g>
		<path d="M510.1,250.9c-4-5.9-100.9-143.3-254.1-143.3C124.6,107.7,7.4,244.3,2.5,250.1c-3.3,4-3.3,9.8,0,13.8
			c4.9,5.8,122,142.4,253.5,142.4s248.6-136.6,253.5-142.4C512.6,260.2,512.8,254.9,510.1,250.9z M256,385
			C150.6,385,50.4,284.5,25,257c25.4-27.5,125.5-128,231-128c123.3,0,210.3,100.3,231.6,127.4C463,283.1,362.3,385,256,385z"/>
	</g>
</g>
<g>
	<g>
		<path d="M256,171.7c-47.1,0-85.3,38.3-85.3,85.3s38.3,85.3,85.3,85.3s85.3-38.3,85.3-85.3S303.1,171.7,256,171.7z M256,321
			c-35.3,0-64-28.7-64-64s28.7-64,64-64s64,28.7,64,64S291.3,321,256,321z"/>
	</g>
</g>
<g>
	<g>
		<path class="st0" d="M256,218.8c-20.5,0-37.2,17.1-37.2,38.2s16.7,38.2,37.2,38.2s37.2-17.1,37.2-38.2S276.5,218.8,256,218.8z
			 M256,285.6c-15.4,0-27.9-12.8-27.9-28.6s12.5-28.6,27.9-28.6s27.9,12.8,27.9,28.6S271.4,285.6,256,285.6z"/>
	</g>
</g>
</svg>
