<?xml version="1.0" encoding="utf-8"?>
<!-- Generator: Adobe Illustrator 23.0.3, SVG Export Plug-In . SVG Version: 6.00 Build 0)  -->
<svg version="1.1" id="Capa_1" xmlns="http://www.w3.org/2000/svg" xmlns:xlink="http://www.w3.org/1999/xlink" x="0px" y="0px"
	 viewBox="0 0 512 512" style="enable-background:new 0 0 512 512;" xml:space="preserve">
<style type="text/css">
	.st0{fill:#FFDF2B;}
	.st1{fill:#FFFFFF;}
</style>
<g>
	<polygon class="st0" points="210.4,216.1 395,85.9 428.9,111.1 292.3,303.7 256,285.6 205.1,234.5 	"/>
	<path class="st1" d="M198.6,237.2l72.5,71.7l-41.8,37.3l-19.6,21.2l-55-63.8c0,0,36.7-36.2,36.7-38.9c0-2.8,13.8-30.3,13.8-30.3
		L198.6,237.2z"/>
	<path class="st0" d="M144.6,307.7c0,0,64.2,50.6,64.2,46.9s-53.2,80.7-64.2,78c-11-2.8-55-9.2-55-9.2s-1.5-53.2-7.3-56
		C76.4,364.6,144.6,307.7,144.6,307.7z"/>
	<g>
		<path d="M426.4,84c-11.1-11.3-28.9-12.5-41.4-2.9L196.4,227l-21,36.9l-99,100.8v75.8l74.4,0l99-100.8l36.2-21.4l143.3-192.1
			C438.7,113.4,437.5,95.3,426.4,84L426.4,84z M196.9,268.7l9.7-17l55.1,56.1l-16.7,9.9L196.9,268.7z M183.7,285.6l44.7,45.5
			l-14.9,15.2l-44.7-45.5L183.7,285.6z M142.1,419l-29.8,0l56.5-57.6L154,346.2l-56.5,57.6v-30.3l56.5-57.6l44.7,45.5L142.1,419z
			 M412.5,113.2L277.8,293.8l-57.4-58.4L397.7,98.2c4.2-3.2,10.1-2.8,13.8,1C415.2,102.9,415.6,108.9,412.5,113.2L412.5,113.2z"/>
	</g>
</g>
</svg>
