<?xml version="1.0" encoding="utf-8"?>
<!-- Generator: Adobe Illustrator 23.0.3, SVG Export Plug-In . SVG Version: 6.00 Build 0)  -->
<svg version="1.1" id="Capa_1" xmlns="http://www.w3.org/2000/svg" xmlns:xlink="http://www.w3.org/1999/xlink" x="0px" y="0px"
	 viewBox="0 0 512 512" style="enable-background:new 0 0 512 512;" xml:space="preserve">
<style type="text/css">
	.st0{fill:#FFFFFF;}
	.st1{fill:#FFDF2B;}
	.st2{fill:#D7DEE2;}
	.st3{fill:#F6F6F6;}
</style>
<g>
	<path class="st0" d="M34.1,8.5h443.7c14.1,0,25.6,11.5,25.6,25.6v443.7c0,14.1-11.5,25.6-25.6,25.6H34.1
		C20,503.5,8.5,492,8.5,477.9V34.1C8.5,20,20,8.5,34.1,8.5z"/>
	<path class="st0" d="M34.1,8.5h418.1c14.1,0,25.6,11.5,25.6,25.6v443.7c0,14.1-11.5,25.6-25.6,25.6H34.1
		C20,503.5,8.5,492,8.5,477.9V34.1C8.5,20,20,8.5,34.1,8.5z"/>
	<rect x="128" y="435.2" width="256" height="68.3"/>
	<g>
		<rect x="128" y="435.2" class="st1" width="230.4" height="68.3"/>
		<rect x="238.9" y="76.8" class="st1" width="34.1" height="102.4"/>
	</g>
	<path class="st2" d="M221.9,170.7h68.3c4.7,0,8.5,3.8,8.5,8.5v34.1h-85.3v-34.1C213.3,174.5,217.2,170.7,221.9,170.7z"/>
	<path class="st3" d="M221.9,170.7h42.7c4.7,0,8.5,3.8,8.5,8.5v34.1h-59.7v-34.1C213.3,174.5,217.2,170.7,221.9,170.7z"/>
	<path d="M317.1,204.8H194.9c-4.3,0.1-7.8,3.3-8.4,7.5l-24.4,146.1h187.7l-24.4-146.1C324.9,208.1,321.4,204.9,317.1,204.8z"/>
	<path class="st0" d="M296,204.8H190.4c-3.9,0.3-7,3.5-7.3,7.5l-21,146.1h162.1l-21-146.1C303,208.3,299.9,205.1,296,204.8z"/>
	<path d="M360.5,349.9h-209c-4,0.2-7.4,3.1-8.2,7.1L128,418.1h256l-15.3-61.2C367.9,353,364.5,350.1,360.5,349.9L360.5,349.9z"/>
	<g>
		<path class="st0" d="M337.2,349.9H149.2c-3.8,0.3-6.9,3.3-7.4,7.1L128,418.1h230.4l-13.8-61.2
			C344.1,353.1,341.1,350.2,337.2,349.9L337.2,349.9z"/>
		<path class="st0" d="M128,409.6h256c9.4,0,17.1,7.6,17.1,17.1v8.5c0,9.4-7.6,17.1-17.1,17.1H128c-9.4,0-17.1-7.6-17.1-17.1v-8.5
			C110.9,417.2,118.6,409.6,128,409.6z"/>
	</g>
	<path class="st0" d="M128,409.6h230.4c9.4,0,17.1,7.6,17.1,17.1v8.5c0,9.4-7.6,17.1-17.1,17.1H128c-9.4,0-17.1-7.6-17.1-17.1v-8.5
		C110.9,417.2,118.6,409.6,128,409.6z"/>
	<path d="M477.9,0H34.1C15.3,0,0,15.3,0,34.1v443.7C0,496.7,15.3,512,34.1,512h443.7c18.8,0,34.1-15.3,34.1-34.1V34.1
		C512,15.3,496.7,0,477.9,0z M128,418.1h256c4.7,0,8.5,3.8,8.5,8.5v8.5c0,4.7-3.8,8.5-8.5,8.5H128c-4.7,0-8.5-3.8-8.5-8.5v-8.5
		C119.5,422,123.3,418.1,128,418.1L128,418.1z M264.5,85.3v76.8h-17.1V85.3C247.5,85.3,264.5,85.3,264.5,85.3z M238.9,179.2h51.2
		v17.1h-68.3v-17.1H238.9z M213.3,213.3h103.8l22.6,128H172.3l22.6-128L213.3,213.3L213.3,213.3z M162.1,358.4h198.4l12.2,42.7
		H139.3l12.2-42.7H162.1z M136.5,494.9v-34.1h238.9v34.1L136.5,494.9L136.5,494.9z M494.9,477.9c0,9.4-7.6,17.1-17.1,17.1h-85.3
		v-35.7c10.2-3.6,17-13.2,17.1-24v-8.5c0-11.5-7.8-21.6-18.9-24.6l-13.8-48.4c-2.1-7.3-8.8-12.4-16.4-12.4H357l-23.1-131
		c-1.4-8.2-8.5-14.1-16.8-14.1h-9.9v-17.1c0-9.4-7.6-17.1-17.1-17.1h-8.5V76.8c0-4.7-3.8-8.5-8.5-8.5h-8.5V51.2
		c0-4.7-3.8-8.5-8.5-8.5c-4.7,0-8.5,3.8-8.5,8.5v17.1h-8.5c-4.7,0-8.5,3.8-8.5,8.5v85.3h-8.5c-9.4,0-17.1,7.6-17.1,17.1v17.1h-9.9
		c-8.3,0-15.4,5.9-16.8,14.1l-23.1,131h-3.5c-7.6,0-14.3,5.1-16.4,12.4l-13.8,48.4c-11.1,3-18.8,13.1-18.9,24.6v8.5
		c0,10.8,6.9,20.4,17.1,24v35.7H34.1c-9.4,0-17.1-7.6-17.1-17.1V34.1c0-9.4,7.6-17.1,17.1-17.1h443.7c9.4,0,17.1,7.6,17.1,17.1
		L494.9,477.9L494.9,477.9z"/>
</g>
</svg>
