<?xml version="1.0" encoding="utf-8"?>
<!-- Generator: Adobe Illustrator 23.0.3, SVG Export Plug-In . SVG Version: 6.00 Build 0)  -->
<svg version="1.1" id="Capa_1" xmlns="http://www.w3.org/2000/svg" xmlns:xlink="http://www.w3.org/1999/xlink" x="0px" y="0px"
	 viewBox="0 0 512 512" style="enable-background:new 0 0 512 512;" xml:space="preserve">
<style type="text/css">
	.st0{fill:#FFFFFF;}
	.st1{fill:#FFDF2B;}
</style>
<path class="st0" d="M34.1,8.5h443.7c14.1,0,25.6,11.5,25.6,25.6v443.7c0,14.1-11.5,25.6-25.6,25.6H34.1C20,503.5,8.5,492,8.5,477.9
	V34.1C8.5,20,20,8.5,34.1,8.5z"/>
<path class="st0" d="M34.1,8.5h418.1c14.1,0,25.6,11.5,25.6,25.6v443.7c0,14.1-11.5,25.6-25.6,25.6H34.1C20,503.5,8.5,492,8.5,477.9
	V34.1C8.5,20,20,8.5,34.1,8.5z"/>
<g>
	<path class="st0" d="M153.6,187.7c1.9,3.5,4.3,6.7,7.1,9.5c-0.3,1.5-0.7,3-1,4.5c-2.6-6.3-4.9-11.4-6.2-14.3
		C153.5,187.6,153.6,187.6,153.6,187.7z"/>
	<path class="st0" d="M170.8,119.6c5.3,3.8,10.8,7.1,16.6,10c-0.8,1.3-2,2.3-3.3,3c-0.1,0-0.1,0-0.1,0.1h-0.1
		c-1.7,0.8-3.6,1.3-5.5,1.3h-0.1C176.1,129.1,173.6,124.3,170.8,119.6z"/>
	<path class="st0" d="M212.4,84.1c-3-16.1-6.9-30.5-7.5-32.6c1.2,1.6,7.5,10.9,15.7,21.2C218.2,75.9,215.4,79.7,212.4,84.1z"/>
	<path class="st0" d="M231,373.1c4.3,0,8.4,0,12.5,0.1c-20,0.3-37.6,1.1-50.6,2.3c-0.2-0.5-0.3-1-0.4-1.5
		C204,373.3,217.1,373.1,231,373.1z"/>
</g>
<g>
	<path class="st1" d="M299.6,129.5c-6.4,4-14.3,5.1-21.6,3.1c0,0,0,0,0-0.1s0,0-0.1,0c-1.9-1-3.4-2.6-4.3-4.5
		c-1.1-2.4-1.8-5.1-2-7.8l-0.1-0.1c-0.6-12.1,0.4-24.3,3-36.2c0.9,1.5,2,2.8,3,4.4c10.9-11.6,20.8-24,29.6-37.1
		c0,0-13.2,46.2-10.6,68.9l0.1,0.1c0.2,2.7,0.8,5.3,2,7.8C298.9,128.6,299.2,129.1,299.6,129.5z"/>
	<path class="st1" d="M294.8,174.2c3-13.9,7.7-27.4,13.8-40.3c13.2,0.2,32.7-14.4,32.7-14.4c-10.1,17-17.3,35.4-21.5,54.7v0.1
		c2.5,7.4,4.6,15.1,6.5,23c-6.6,6.4-13.8,12-21.7,16.7C302.4,200.5,299.1,187.2,294.8,174.2L294.8,174.2z"/>
	<path class="st1" d="M358.4,187.7c-4.9,11-24.1,53.8-25.5,74.6h-0.3c0,0.7,0,1.5-0.1,2.2c-0.6,37.3-5.1,74.5-13.4,110.9
		c-6.9-0.7-15.3-1.2-24.6-1.5c8-35.9,12.3-72.6,13-109.4c0.1-0.7,0.1-1.5,0.1-2.2h0.3c1-15.4,11.9-43.1,19.4-60.8
		c0.9,4,1.7,8.2,2.4,12.4C341.2,207.6,351,198.6,358.4,187.7L358.4,187.7z"/>
</g>
<path class="st1" d="M327.3,201.6c-7.5,17.7-18.3,45.3-19.4,60.8h-0.3c0,0.7,0,1.5-0.1,2.2c-0.6,36.8-5,73.5-13,109.4
	c-11.6-0.6-24.7-0.9-38.6-0.9c-4.3,0-8.4,0-12.5,0.1c-4.1-0.1-8.2-0.1-12.5-0.1c-13.9,0-27,0.3-38.6,0.9c-8-35.9-12.3-72.6-13-109.4
	h-0.3c0-14.9-11.5-44.3-19.5-62.8c0.3-1.5,0.7-3.1,1-4.5c6.6,6.4,13.8,12,21.7,16.7c2.2-13.5,5.5-26.7,9.8-39.7v-0.1
	c-3.1-13.9-7.7-27.4-13.7-40.3c1.9,0,3.8-0.5,5.5-1.3h0.1c0-0.1,0-0.1,0.1-0.1c1.3-0.7,2.5-1.7,3.3-3c6.4,4,14.2,5.1,21.5,3.1h0.1
	c0-0.1,0-0.1,0.1-0.1c1.9-1,3.4-2.6,4.3-4.5c1.1-2.4,1.8-5,2-7.7v-0.1l0.1-0.1c0.6-12.1-0.4-24.3-3-36.1c3-4.4,5.8-8.2,8.2-11.4
	c4.3,5.3,9,10.9,13.8,15.8c3.2-4.9,6.3-9.2,9.1-12.9C251,65.4,256,59.7,256,59.7s4.1,4.6,10.4,13c2.4,3.2,5.1,6.9,8.2,11.3
	c-2.6,11.9-3.6,24-3,36.2l0.1,0.1c0.2,2.7,0.8,5.3,2,7.8c0.9,1.9,2.4,3.5,4.3,4.5c0,0,0,0,0.1,0s0,0,0,0.1
	c7.3,2.1,15.1,0.9,21.6-3.1c0.8,1.3,2,2.3,3.3,3c0,0,0,0,0.1,0s0,0,0,0.1c1.7,0.9,3.7,1.3,5.6,1.3c-6.1,12.9-10.8,26.4-13.8,40.3
	v0.1c4.3,13,7.6,26.2,9.8,39.7c7.8-4.7,15.1-10.3,21.7-16.7C326.7,198.7,327,200.1,327.3,201.6z"/>
<g>
	<path class="st0" d="M256,373.1c13.9,0,27,0.3,38.6,0.9c-0.2,0.5-0.3,1-0.4,1.5c-13-1.2-30.7-2-50.7-2.3
		C247.6,373.1,251.7,373.1,256,373.1z"/>
	<path class="st0" d="M333.4,187.7c-1.3,2.8-3.5,7.8-6.1,13.8c-0.3-1.5-0.6-2.9-0.9-4.4C329.1,194.4,331.5,191.2,333.4,187.7z"/>
</g>
<rect x="179.2" y="443.7" width="153.6" height="59.7"/>
<rect x="179.2" y="443.7" width="128" height="59.7"/>
<path class="st0" d="M341.3,365.7v87.7c0,1.2-3.3,2.3-9.3,3.3c-25.2,3.1-50.6,4.4-76,4c-25.4,0.4-50.8-0.9-76-4
	c-6-1-9.3-2.1-9.3-3.3v-87.7c0-1.9,8.4-3.6,22.2-4.9c15.6-1.5,38.1-2.4,63.1-2.4c25,0,47.5,0.9,63.1,2.4
	C333,362.2,341.3,363.9,341.3,365.7z"/>
<path class="st0" d="M315.7,365.7v87.7c0,1.2-2.8,2.3-7.9,3.3c-21.4,3.1-43,4.4-64.6,4c-21.6,0.4-43.2-0.9-64.6-4
	c-5.1-1-7.9-2.1-7.9-3.3v-87.7c0-1.9,7.1-3.6,18.9-4.9c17.8-1.7,35.8-2.5,53.7-2.4c17.9-0.1,35.8,0.7,53.7,2.4
	C308.6,362.2,315.7,363.9,315.7,365.7z"/>
<circle class="st0" cx="290.1" cy="409.6" r="17.1"/>
<g>
	<path d="M477.9,0H34.1C15.3,0,0,15.3,0,34.1v443.7C0,496.7,15.3,512,34.1,512h443.7c18.8,0,34.1-15.3,34.1-34.1V34.1
		C512,15.3,496.7,0,477.9,0z M187.7,494.9v-28.4c22.7,2.2,45.5,3.2,68.3,2.8c22.8,0.4,45.6-0.6,68.3-2.8v28.4H187.7z M200.5,172.3
		c-2.4-11-5.8-21.8-10-32.3c6.8,2.9,14.5,3.1,21.4,0.6c0.2-0.1,0.4-0.2,0.6-0.3l0.1,0c0.1,0,0.2-0.1,0.2-0.2c0.4-0.2,0.7-0.3,1-0.5
		c3.1-1.8,5.5-4.5,7.1-7.8c1.4-3,2.3-6.2,2.7-9.4c0.1-0.4,0.2-0.8,0.2-1.3c0.7-11.4,0-22.8-2.2-33.9c2.2,2.5,4.4,4.9,6.7,7.2
		c1.8,1.8,4.3,2.7,6.9,2.5c2.5-0.2,4.9-1.6,6.3-3.7c5.7-8.5,10.8-15.3,14.5-20c3.7,4.7,8.8,11.5,14.5,20c1.4,2.1,3.7,3.5,6.3,3.7
		c2.6,0.3,5.1-0.7,6.9-2.5c2.3-2.3,4.5-4.7,6.7-7.2c-2.2,11.2-2.9,22.6-2.2,33.9c0,0.3,0.1,0.6,0.2,0.9c0.3,3.3,1.2,6.6,2.7,9.6
		c1.6,3.3,4,6,7.1,7.9c0.3,0.2,0.7,0.4,1,0.6c7.2,3,15.3,3,22.5-0.1c-4.3,10.4-7.6,21.2-10,32.3c-0.1,0.6-0.2,1.3-0.2,1.9
		c0,0.9,0.1,1.8,0.4,2.7c4.1,12.5,7.3,25.4,9.5,38.4c0.5,2.8,2.3,5.2,4.9,6.4s5.6,1,8-0.5c0.5-0.3,1-0.6,1.4-0.9
		c-5.2,12.6-8.9,25.8-11,39.3c-0.3,0.9-0.5,1.8-0.5,2.8c0,0.7,0,1.3-0.1,2c-0.5,29.4-4.3,58.7-11.3,87.4c-0.8-0.1-1.7-0.1-2.5-0.2
		c-2.1-0.1-4.3-0.3-6.6-0.4c-28.5-1.6-67-1.6-95.5,0c-2.2,0.1-4.2,0.2-6.3,0.4c-0.9,0.1-1.8,0.1-2.7,0.2
		c-7-28.6-10.7-57.9-11.3-87.4c0-0.7-0.1-1.4-0.3-2.1c-1.8-14.5-5.6-28.6-11.3-42c0.5,0.3,1,0.6,1.5,0.9c2.4,1.5,5.4,1.7,8,0.5
		c2.6-1.2,4.4-3.6,4.9-6.4c2.2-13,5.4-25.9,9.5-38.4c0.3-0.9,0.4-1.8,0.4-2.8C200.7,173.5,200.6,172.9,200.5,172.3z M193.6,369.3
		c41.5-3,83.2-3,124.7,0c7.4,0.7,11.8,1.4,14.5,2V448c-25.5,3.4-51.1,4.8-76.8,4.3c-25.7,0.5-51.3-0.9-76.8-4.3v-76.8
		C181.8,370.7,186.3,370,193.6,369.3z M494.9,477.9c0,9.4-7.6,17.1-17.1,17.1H341.3v-31.9c8.5-2.9,8.5-6.4,8.5-9.6v-87.7
		c0-7.9-7.5-10.6-20.2-12.3c6.8-28.6,10.6-57.8,11.3-87.1c0.2-0.6,0.3-1.2,0.4-1.8c0-0.4,0-0.9,0-1.3c0,0,0-0.1,0-0.1
		c0-0.1,0-0.2,0-0.3c0.5-7.2,4.3-26.1,24.7-71.6l0.1-0.1c0.2-0.3,0.4-0.6,0.5-0.9l0.3-0.6l0-0.1c0,0,0.4-0.8,0.4-0.8
		c1-2,1.1-4.3,0.3-6.4c-0.8-2.1-2.3-3.8-4.3-4.7c-4.3-2-9.4-0.2-11.6,4.1c-0.2,0.4-0.4,0.9-0.7,1.5c-0.1,0.2-0.2,0.4-0.3,0.6l0,0
		c-3.9,6.2-9.1,11.5-15.2,15.7c-1.9-8.7-4.2-17.3-6.9-25.7c4-17.6,10.8-34.4,20-49.9c2.1-3.5,1.4-8-1.6-10.7s-7.6-2.9-10.8-0.5
		c-9.8,7.4-24.3,14.3-29,12.5L307,125l0,0c-0.3-0.2-0.6-0.5-0.7-0.9c-0.7-1.5-1-3.1-1.1-4.7c0-0.4-0.1-0.8-0.2-1.2
		c-1.6-17.6,6.9-52.6,10.4-64.7c1.2-4-0.8-8.3-4.6-10.1c-3.8-1.8-8.4-0.5-10.7,3c-6.7,9.8-13.9,19.3-21.6,28.3
		c-9.3-13-15.8-20.4-16.2-20.7c-1.7-1.7-4-2.7-6.4-2.7c-2.4,0-4.7,1-6.4,2.7c-0.3,0.4-6.9,7.8-16.2,20.7
		c-7.3-8.6-14.2-17.6-20.6-26.9l-0.8-1.2c-2-3.3-5.9-4.8-9.6-3.8c-3.7,1-6.2,4.4-6.2,8.2c0,0.9,0.2,1.9,0.5,2.7c0,0.1,0,0.2,0,0.3
		c6.5,20.8,9.9,42.4,10.2,64.1c-0.1,0.4-0.2,0.8-0.2,1.2c-0.1,1.6-0.5,3.2-1.2,4.7c-0.1,0.3-0.4,0.6-0.6,0.7
		c-3.9,1.9-18.1-4.1-29.2-12.4c-3.3-2.4-7.8-2.2-10.8,0.5c-3,2.7-3.7,7.2-1.6,10.7c9.2,15.5,16,32.4,20,49.9
		c-2.7,8.5-5,17.1-6.9,25.7c-6-4.1-11.1-9.3-15-15.3c-0.2-0.6-0.5-1.1-0.8-1.6l0-0.1c-0.2-0.4-0.4-0.9-0.7-1.3l0,0
		c-2.1-4.2-7.2-6-11.4-3.9c-4.2,2.1-6,7.2-3.9,11.4c0,0,0.4,0.8,0.4,0.8c0.1,0.1,0.1,0.2,0.2,0.4l0,0l0,0l0,0.1l0,0l0.6,1.3
		c21.7,48.1,24.9,66.5,24.9,73.3c0,0.8,0.1,1.5,0.3,2.2c0.7,29.2,4.5,58.2,11.3,86.6c-12.7,1.7-20.2,4.4-20.2,12.3v87.7
		c0,3.2,0,6.7,8.5,9.6v31.9H34.1c-9.4,0-17.1-7.6-17.1-17.1V34.1c0-9.4,7.6-17.1,17.1-17.1h443.7c9.4,0,17.1,7.6,17.1,17.1
		L494.9,477.9L494.9,477.9z"/>
	<path d="M290.1,435.2c14.1,0,25.6-11.5,25.6-25.6S304.3,384,290.1,384s-25.6,11.5-25.6,25.6C264.5,423.7,276,435.2,290.1,435.2z
		 M290.1,401.1c4.7,0,8.5,3.8,8.5,8.5c0,4.7-3.8,8.5-8.5,8.5c-4.7,0-8.5-3.8-8.5-8.5C281.6,404.9,285.4,401.1,290.1,401.1z"/>
</g>
</svg>
