<?xml version="1.0" encoding="utf-8"?>
<!-- Generator: Adobe Illustrator 23.0.3, SVG Export Plug-In . SVG Version: 6.00 Build 0)  -->
<svg version="1.1" id="Capa_1" xmlns="http://www.w3.org/2000/svg" xmlns:xlink="http://www.w3.org/1999/xlink" x="0px" y="0px"
	 viewBox="0 0 512 512" style="enable-background:new 0 0 512 512;" xml:space="preserve">
<style type="text/css">
	.st0{fill:#FFFFFF;}
	.st1{fill:#FFDF2B;}
	.st2{fill:#66993E;}
</style>
<g>
	<path class="st0" d="M33.1,7.5h443.7c14.1,0,25.6,11.5,25.6,25.6v443.7c0,14.1-11.5,25.6-25.6,25.6H33.1
		C19,502.5,7.5,491,7.5,476.9V33.1C7.5,19,19,7.5,33.1,7.5z"/>
	<path class="st0" d="M33.1,7.5h418.1c14.1,0,25.6,11.5,25.6,25.6v443.7c0,14.1-11.5,25.6-25.6,25.6H33.1
		C19,502.5,7.5,491,7.5,476.9V33.1C7.5,19,19,7.5,33.1,7.5z"/>
	<polygon class="st1" points="220.9,144.1 220.9,75.8 289.1,50.2 289.1,144.1 	"/>
	<path class="st0" d="M408.6,383v-25.6c0-4.7-3.8-8.5-8.5-8.5h-8.5v-37.1c0-3.8-2.6-7.2-6.3-8.2c-18.2-4.8-35.1-7.9-49.4-21.1
		c-12.3-12-21.5-26.8-26.8-43.1c-2.6-7.6-4.6-15.5-6-23.4c-3.8-23.8-5.6-47.9-5.4-72c0-4.7-3.8-8.5-8.5-8.5h-68.4
		c-4.7,0-8.5,3.8-8.5,8.5c0.2,24.1-1.7,48.2-5.4,72c-1.4,7.9-3.4,15.8-6,23.4c-5.3,16.3-14.5,31.1-26.8,43.1
		c-14.3,13.2-31.1,16.3-49.4,21.1c-3.7,1-6.3,4.4-6.3,8.2v37.1h-8.5c-4.7,0-8.5,3.8-8.5,8.5V383c9.4,0,17.1,7.6,17.1,17.1
		s-7.6,17.1-17.1,17.1v85.3h307.2v-85.3c-9.4,0-17.1-7.6-17.1-17.1S399.2,383,408.6,383z"/>
	<rect x="101.4" y="417.1" class="st2" width="307.2" height="85.3"/>
	<rect x="101.4" y="417.1" class="st1" width="281.6" height="85.3"/>
	<path class="st0" d="M383,357.4V383H101.4v-25.6c0-4.7,3.8-8.5,8.5-8.5h264.5C379.2,348.9,383,352.7,383,357.4L383,357.4z"/>
	<path d="M408.6,357.4V383H383v-25.6c0-4.7-3.8-8.5-8.5-8.5h25.6C404.8,348.9,408.6,352.7,408.6,357.4L408.6,357.4z"/>
	<g>
		<path d="M365.9,311.7c0-3.8-2.5-7.2-6.2-8.2c-18.3-4.8-35.1-7.9-49.4-21.1c-12.3-12-21.4-26.8-26.7-43.1
			c-2.7-7.6-4.7-15.4-6.1-23.4c-3.7-23.8-5.6-47.9-5.5-72c0-2.2-0.9-4.4-2.5-6s-3.7-2.5-6-2.5h25.6c2.2,0,4.4,0.9,6,2.5
			s2.5,3.7,2.5,6c-0.1,24.1,1.7,48.2,5.5,72c1.4,7.9,3.4,15.8,6.1,23.4c5.3,16.3,14.4,31.1,26.7,43.1c14.3,13.2,31.1,16.3,49.4,21.1
			c3.7,1,6.2,4.4,6.2,8.2v37.1h-25.6V311.7L365.9,311.7z"/>
		<path d="M408.6,417.1v85.3H383v-85.3c-9.4,0-17.1-7.6-17.1-17.1s7.7-17,17.1-17h25.4c-9.4,0.1-16.9,7.8-16.9,17.2
			C391.6,409.5,399.2,417.1,408.6,417.1L408.6,417.1z"/>
	</g>
	<path d="M476.9-1H33.1C14.3-1-1,14.3-1,33.1v443.7c0,18.9,15.3,34.2,34.1,34.2h443.7c18.8,0,34.1-15.3,34.1-34.1V33.1
		C511,14.3,495.7-1,476.9-1z M109.9,493.9v-68.3H400v68.3L109.9,493.9L109.9,493.9z M280.6,127h-51.2V81.7l51.2-19.2V127z
		 M215.3,217.4c3.8-24.3,5.7-48.8,5.6-73.4h68.3c-0.1,24.6,1.7,49.1,5.6,73.4c1.4,8.4,3.6,16.7,6.4,24.7c5.7,17.7,15.7,33.7,29,46.5
		c13.5,11.2,29.7,18.6,47,21.6l5.8,1.5v28.6H127v-28.5l5.8-1.5c17.3-2.9,33.5-10.4,47-21.6c13.4-12.9,23.3-28.9,29-46.5
		C211.7,234.1,213.8,225.8,215.3,217.4z M118.5,357.4L118.5,357.4h273.1h0.1h8.5v17.1H109.9v-17.1H118.5z M125.5,391.5h258.9
		c-2,5.5-2,11.5,0,17.1H125.5C127.5,403.1,127.5,397.1,125.5,391.5z M493.9,476.9c0,9.4-7.6,17.1-17.1,17.1h-59.7v-76.8
		c0-4.7-3.8-8.5-8.5-8.5s-8.5-3.8-8.5-8.5s3.8-8.5,8.5-8.5s8.5-3.8,8.5-8.5v-25.6c0-9.4-7.6-17.1-17.1-17.1v-28.6
		c0-7.8-5.3-14.5-12.8-16.5l-5.9-1.5c-14.5-2.3-28.2-8.4-39.7-17.6c-11.3-11-19.7-24.6-24.5-39.6c-2.5-7.2-4.4-14.6-5.7-22.1
		c-4-26.1-5.8-52.5-5.4-79c0-4.7-3.8-8.5-8.5-8.5V50.2c0-2.8-1.4-5.4-3.7-7c-2.3-1.6-5.2-2-7.9-1l-68.3,25.6c-3.3,1.3-5.5,4.4-5.5,8
		V127c-4.7,0-8.5,3.8-8.5,8.5c0.5,26.4-1.3,52.9-5.4,79c-1.3,7.5-3.2,14.9-5.7,22.1c-4.8,15-13.2,28.6-24.5,39.6
		c-11.5,9.2-25.1,15.3-39.7,17.6l-5.9,1.5c-7.5,2-12.7,8.7-12.7,16.5v28.6c-9.4,0-17.1,7.6-17.1,17.1V383c0,4.7,3.8,8.5,8.5,8.5
		s8.5,3.8,8.5,8.5s-3.8,8.5-8.5,8.5s-8.5,3.8-8.5,8.5v76.8H33.1c-9.4,0-17.1-7.6-17.1-17.1V33.1C16,23.7,23.6,16,33.1,16h443.7
		c9.4,0,17.1,7.6,17.1,17.1L493.9,476.9L493.9,476.9z"/>
</g>
</svg>
