<?xml version="1.0" encoding="utf-8"?>
<!-- Generator: Adobe Illustrator 23.0.3, SVG Export Plug-In . SVG Version: 6.00 Build 0)  -->
<svg version="1.1" id="Capa_1" xmlns="http://www.w3.org/2000/svg" xmlns:xlink="http://www.w3.org/1999/xlink" x="0px" y="0px"
	 viewBox="0 0 512 512" style="enable-background:new 0 0 512 512;" xml:space="preserve">
<style type="text/css">
	.st0{fill:#FFDF2B;}
	.st1{fill:#FFFFFF;}
</style>
<g>
	<path class="st0" d="M243.6,220.9L343.6,86h54.1h24.8c0,0-8.5,82.5-7.9,79.8c0.6-2.8-136.1,103.1-136.1,103.1L243.6,220.9z"/>
	<polygon class="st0" points="137.3,317 188.6,297.8 216.5,332.6 196,385.5 108.8,434.4 89.6,414.2 133.6,321.5 	"/>
	<path class="st1" d="M188.6,289.5c2.8,0,55-54.1,55-54.1l30.3,37.1c0,0-46.8,46.2-50.4,49c-3.7,2.9-34.9-23.8-34.9-23.8l-16.5,1.9
		L188.6,289.5z"/>
	<g>
		<path d="M431.5,86.5l-1.5-6.2l-6.1-1.6c-40.9-10.4-80.8-0.9-106.7,25.6c-3.9,3.9-7.4,8.3-10.6,13l-98.1,143.3l-27.2,27.7
			l-54.4,16.3l-46.6,88.4c-6.6,12.4-4.4,28.1,5.4,38.1c6,6.2,14.2,9.4,22.4,9.4c5.1,0,10.3-1.3,14.9-3.8l86.9-47.5l16-55.4L253,306
			l140.7-99.9c4.6-3.3,8.9-6.9,12.7-10.8C432.4,168.8,441.8,128.2,431.5,86.5L431.5,86.5z M230.1,266.2l12.2-17.9l22.6,23
			l-17.5,12.5L230.1,266.2z M112.9,417.7c-4.1,2.2-9.2,1.5-12.5-1.8c-3.3-3.3-4-8.6-1.8-12.7l42.5-80.5l42.5-12.7l20.9,21.3
			l-12.5,43.3L112.9,417.7z M216.5,312.9l-14.9-15.2l14.9-15.2l14.9,15.2L216.5,312.9z M391.6,180.1c-3,3-6.3,5.9-9.9,8.4
			l-99.2,70.4l-27.9-28.4l69.2-101c2.5-3.6,5.3-7,8.3-10.1c19.4-19.7,49.1-27.5,80.5-21.3C418.6,130.1,411,160.3,391.6,180.1z"/>
	</g>
</g>
</svg>
