<?xml version="1.0" encoding="utf-8"?>
<!-- Generator: Adobe Illustrator 23.0.3, SVG Export Plug-In . SVG Version: 6.00 Build 0)  -->
<svg version="1.1" id="Capa_1" xmlns="http://www.w3.org/2000/svg" xmlns:xlink="http://www.w3.org/1999/xlink" x="0px" y="0px"
	 viewBox="0 0 512 512" style="enable-background:new 0 0 512 512;" xml:space="preserve">
<style type="text/css">
	.st0{fill:#FFFFFF;}
	.st1{fill:#F6F6F6;}
	.st2{fill:#FFDF2B;}
</style>
<circle class="st0" cx="256" cy="256" r="247.5"/>
<ellipse class="st0" cx="243.2" cy="256" rx="234.7" ry="247.5"/>
<path d="M145.1,358.4h221.9c4.7,0,8.5,3.8,8.5,8.5V384c0,4.7-3.8,8.5-8.5,8.5H145.1c-4.7,0-8.5-3.8-8.5-8.5v-17.1
	C136.5,362.2,140.4,358.4,145.1,358.4z"/>
<path class="st1" d="M145.1,358.4h196.3c4.7,0,8.5,3.8,8.5,8.5V384c0,4.7-3.8,8.5-8.5,8.5H145.1c-4.7,0-8.5-3.8-8.5-8.5v-17.1
	C136.5,362.2,140.4,358.4,145.1,358.4z"/>
<path d="M162.1,324.3h187.7c9.4,0,17.1,7.6,17.1,17.1v17.1H145.1v-17.1C145.1,331.9,152.7,324.3,162.1,324.3z"/>
<path class="st2" d="M162.1,324.3h162.1c9.4,0,17.1,7.6,17.1,17.1v17.1H145.1v-17.1C145.1,331.9,152.7,324.3,162.1,324.3z"/>
<g>
	<path d="M298.7,290.1v34.1h-85.3v-34.1c0-4.7,3.8-8.5,8.5-8.5h68.3C294.8,281.6,298.7,285.4,298.7,290.1z"/>
	<path d="M315.7,145.1c0,59.7-34.1,59.7-34.1,136.5h-51.2c0-76.8-34.1-76.8-34.1-136.5c-1.8-28.6,18.5-53.8,46.8-58.1h0.1
		c4.2-0.9,8.5-1.5,12.8-1.6C256,85.3,315.7,85.3,315.7,145.1z"/>
</g>
<g>
	<path class="st0" d="M273.1,290.1v34.1h-59.7v-34.1c0-4.7,3.8-8.5,8.5-8.5h42.7C269.2,281.6,273.1,285.4,273.1,290.1z"/>
	<path class="st0" d="M290.1,145.1c0,59.7-34.1,59.7-34.1,136.5h-25.6c0-76.8-34.1-76.8-34.1-136.5c-1.8-28.6,18.5-53.8,46.8-58.1
		h0.1C271.6,91.2,292,116.4,290.1,145.1z"/>
</g>
<g>
	<path d="M256,0C114.6,0,0,114.6,0,256s114.6,256,256,256s256-114.6,256-256C511.8,114.7,397.3,0.2,256,0z M256,494.9
		C124,494.9,17.1,388,17.1,256S124,17.1,256,17.1S494.9,124,494.9,256C494.8,387.9,387.9,494.8,256,494.9z"/>
	<path d="M375.5,352.2v-10.9c0-14.1-11.5-25.6-25.6-25.6h-42.7v-25.6c0-9.4-7.5-17-16.9-17c0.3-23,6.4-45.5,17.6-65.5
		c10.9-19,16.6-40.6,16.4-62.5c0-54-44.7-68.3-68.3-68.3c-23.6,0-68.3,14.3-68.3,68.3c-0.2,21.9,5.4,43.5,16.4,62.5
		c11.2,20,17.3,42.5,17.6,65.5c-9.4,0.1-16.9,7.7-16.9,17v25.6h-42.7c-14.1,0-25.6,11.5-25.6,25.6v10.9c-5.3,3-8.5,8.6-8.5,14.7V384
		c0,9.4,7.6,17.1,17.1,17.1c0,4.7,3.8,8.5,8.5,8.5s8.5-3.8,8.5-8.5h17.1c0,4.7,3.8,8.5,8.5,8.5c4.7,0,8.5-3.8,8.5-8.5h17.1
		c0,4.7,3.8,8.5,8.5,8.5c4.7,0,8.5-3.8,8.5-8.5h17.1c0,4.7,3.8,8.5,8.5,8.5c4.7,0,8.5-3.8,8.5-8.5h17.1c0,4.7,3.8,8.5,8.5,8.5
		c4.7,0,8.5-3.8,8.5-8.5h17.1c0,4.7,3.8,8.5,8.5,8.5s8.5-3.8,8.5-8.5h17.1c0,4.7,3.8,8.5,8.5,8.5s8.5-3.8,8.5-8.5
		c9.4,0,17.1-7.6,17.1-17.1v-17.1C384,360.9,380.7,355.3,375.5,352.2L375.5,352.2z M204.8,145.1c0-49.4,45.8-51.2,51.2-51.2
		c5.3,0,51.2,1.8,51.2,51.2c0.2,19.3-4.8,38.2-14.5,54.8c-12.5,22.4-19.1,47.5-19.4,73.2h-34.4c-0.3-25.6-7-50.8-19.4-73.2
		C209.6,183.3,204.6,164.3,204.8,145.1L204.8,145.1z M221.9,290.1h68.3v25.6h-68.3V290.1z M153.6,341.3c0-4.7,3.8-8.5,8.5-8.5h187.7
		c4.7,0,8.5,3.8,8.5,8.5v8.5H153.6V341.3z M145.1,384v-17.1h221.9l0,17.1H145.1z"/>
</g>
</svg>
