<?xml version="1.0" encoding="utf-8"?>
<!-- Generator: Adobe Illustrator 23.0.3, SVG Export Plug-In . SVG Version: 6.00 Build 0)  -->
<svg version="1.1" id="Capa_1" xmlns="http://www.w3.org/2000/svg" xmlns:xlink="http://www.w3.org/1999/xlink" x="0px" y="0px"
	 viewBox="0 0 512 512" style="enable-background:new 0 0 512 512;" xml:space="preserve">
<style type="text/css">
	.st0{fill:#FFFFFF;}
	.st1{fill:#FFDF2B;}
</style>
<path class="st0" d="M503.5,256c0,65.6-26.1,128.6-72.5,175s-109.4,72.5-175,72.5c-4.3,0-8.5-0.1-12.7-0.3h-0.2
	C111.6,496.3,8.5,387.7,8.5,256S111.6,15.7,243.1,8.9h0.2c4.2-0.3,8.4-0.3,12.7-0.3c65.6,0,128.6,26.1,175,72.5
	S503.5,190.4,503.5,256z"/>
<path class="st0" d="M477.9,256c0,131.7-103.1,240.3-234.6,247.1h-0.2C111.6,496.3,8.5,387.7,8.5,256S111.6,15.7,243.1,8.9h0.2
	C374.8,15.7,477.9,124.3,477.9,256z"/>
<path class="st1" d="M278.6,319.8c6-11,13.6-21.2,22.6-30c12.7-10.6,24.3-22.6,34.5-35.6c18.3-28.6,19.4-64.8,2.9-94.5
	c-16.5-29.6-48-48-82.2-47.9h-0.6c-24.7,0-48.4,9.8-65.7,27.3c-30.5,30.9-35.7,78.5-12.5,115.1c10,13,21.4,25,34,35.6
	c8.9,8.9,16.4,19,22.4,30H278.6L278.6,319.8z"/>
<path class="st1" d="M233.1,319.8h46.6c6.4,0,11.7,5.2,11.7,11.6V366c0,6.4-5.2,11.6-11.7,11.6h-46.6c-6.4,0-11.7-5.2-11.7-11.6
	v-34.7C221.4,325,226.7,319.8,233.1,319.8z"/>
<path d="M193.7,288.7c3.3,3,6.6,6,9.6,9.1c5.1,5.2,9.7,10.8,13.8,16.8c-4.7,4.3-7.3,10.4-7.4,16.8V366c0,12.8,10.4,23.1,23.3,23.1
	h46.6c12.9,0,23.3-10.4,23.3-23.1v-34.7c0-6.6-2.9-12.8-7.9-17.2c4.1-5.8,8.6-11.2,13.6-16.2c3.2-3.2,6.6-6.2,10-9.3
	c9.9-8.3,18.6-17.8,26.1-28.2c28.1-43.6,19.7-101-19.7-134.9c-39.5-33.9-98-33.9-137.5-0.1s-47.9,91.3-19.8,134.9
	C175.2,270.9,183.8,280.4,193.7,288.7z M233.1,366v-34.7h46.6V366H233.1z M198.4,147.2c15.2-15.3,35.9-23.9,57.5-23.9
	c29.9-0.1,57.4,15.9,71.9,41.8s13.6,57.6-2.4,82.6c-6.5,8.8-14,16.8-22.4,23.8c-3.6,3.2-7.1,6.5-10.7,10c-8,8-15.1,17-21,26.6h-30.5
	c-5.9-9.6-12.9-18.6-20.8-26.7c-3.4-3.4-6.9-6.6-10.4-9.8c-8.3-7-15.8-15-22.1-23.9C167.3,215.8,171.8,174.3,198.4,147.2z"/>
<path d="M244.8,400.7c-6.4,0-11.7,5.2-11.7,11.6s5.2,11.6,11.7,11.6h23.3c6.4,0,11.7-5.2,11.7-11.6s-5.2-11.6-11.7-11.6H244.8z"/>
</svg>
