<?xml version="1.0" encoding="utf-8"?>
<!-- Generator: Adobe Illustrator 23.0.3, SVG Export Plug-In . SVG Version: 6.00 Build 0)  -->
<svg version="1.1" id="Слой_1" xmlns="http://www.w3.org/2000/svg" xmlns:xlink="http://www.w3.org/1999/xlink" x="0px" y="0px"
	 viewBox="0 0 480 480" style="enable-background:new 0 0 480 480;" xml:space="preserve">
<style type="text/css">
	.st0{fill:#FFFFFF;}
	.st1{fill:#FFDF2B;}
	.st2{fill:#231F20;}
</style>
<path class="st0" d="M472,240c0,128.1-103.9,232-232,232S8,368.1,8,240S111.9,8,240,8S472,111.9,472,240z"/>
<path class="st1" d="M330.4,272c-1.1,3.2-2.4,6.3-3.8,9.3l37.9,37.9l-45.3,45.3l-37.9-37.9c-3,1.5-6.1,2.7-9.3,3.8V384h-64v-53.6
	c-3.2-1.1-6.3-2.4-9.3-3.8l-37.9,37.9l-45.3-45.3l37.9-37.9c-1.5-3-2.7-6.1-3.8-9.3H96v-64h53.6c1.1-3.2,2.4-6.3,3.8-9.3l-37.9-37.9
	l45.3-45.3l37.9,37.9c3-1.5,6.1-2.7,9.3-3.8V96h64v53.6c3.2,1.1,6.3,2.4,9.3,3.8l37.9-37.9l45.3,45.3l-37.9,37.9
	c1.5,3,2.7,6.1,3.8,9.3H384v64H330.4z"/>
<path class="st0" d="M296,240c0,30.9-25.1,56-56,56s-56-25.1-56-56s25.1-56,56-56S296,209.1,296,240z"/>
<g>
	<path class="st2" d="M375.8,160.8l-56.6-56.6L280,143.4V88h-80v55.4l-39.2-39.2l-56.6,56.6l39.2,39.2H88v80h55.4l-39.2,39.2
		l56.6,56.6l39.2-39.2V392h80v-55.4l39.2,39.2l56.6-56.6L336.6,280H392v-80h-55.4L375.8,160.8z M376,216v48h-51.2l-1.9,5.3
		c-1,2.9-2.2,5.7-3.5,8.5L317,283l36.2,36.2l-34,34L283,316.9l-5.1,2.4c-2.8,1.3-5.6,2.5-8.5,3.5l-5.3,1.9V376h-48v-51.2l-5.3-1.9
		c-2.9-1-5.8-2.2-8.5-3.5L197,317l-36.2,36.2l-33.9-33.9l36.2-36.2l-2.4-5.1c-1.3-2.8-2.5-5.6-3.5-8.5l-1.9-5.3H104v-48h51.2
		l1.9-5.3c1-2.9,2.2-5.7,3.5-8.5l2.4-5.1l-36.2-36.2l33.9-33.9l36.2,36.2l5.1-2.4c2.8-1.3,5.6-2.5,8.5-3.5l5.3-1.9V104h48v51.2
		l5.3,1.9c2.9,1,5.8,2.2,8.5,3.5l5.1,2.4l36.2-36.2l33.9,33.9L316.9,197l2.4,5.1c1.3,2.8,2.5,5.6,3.5,8.5l2,5.3L376,216L376,216z"/>
	<path class="st2" d="M240,176c-35.3,0-64,28.7-64,64s28.7,64,64,64s64-28.7,64-64S275.3,176,240,176z M240,288
		c-26.5,0-48-21.5-48-48s21.5-48,48-48s48,21.5,48,48S266.5,288,240,288z"/>
</g>
</svg>
