<?xml version="1.0" encoding="utf-8"?>
<!-- Generator: Adobe Illustrator 23.0.3, SVG Export Plug-In . SVG Version: 6.00 Build 0)  -->
<svg version="1.1" id="Capa_1" xmlns="http://www.w3.org/2000/svg" xmlns:xlink="http://www.w3.org/1999/xlink" x="0px" y="0px"
	 viewBox="0 0 512 512" style="enable-background:new 0 0 512 512;" xml:space="preserve">
<style type="text/css">
	.st0{fill:#FFFFFF;stroke:#000000;stroke-width:16;stroke-miterlimit:10;}
	.st1{fill:#FFDF2B;}
</style>
<path class="st0" d="M160,117.7c78.1,78.4,156.2,156.8,234.3,235.2"/>
<g>
	<g>
		
			<ellipse transform="matrix(0.7374 -0.6754 0.6754 0.7374 -37.4726 138.9721)" class="st1" cx="160" cy="117.7" rx="21.2" ry="21.5"/>
		
			<ellipse transform="matrix(0.7374 -0.6754 0.6754 0.7374 -202.8165 196.2422)" class="st1" cx="151" cy="359" rx="21.2" ry="21.5"/>
	</g>
	<path d="M170.3,380.2c11.5-10.5,12.1-28.5,1.5-40.1c-3.4-3.7-7.8-6.4-12.7-7.9l6.9-186.5c4.9-1,9.6-3.3,13.2-6.7
		c11.6-10.7,12.1-28.5,1.5-40.1c-10.7-11.7-28.7-12.6-40.2-2c-11.5,10.5-12.1,28.5-1.5,40.1c3.4,3.7,7.8,6.4,12.7,7.9l-6.9,186.5
		c-4.9,1-9.6,3.3-13.2,6.7c-11.6,10.7-12.1,28.5-1.5,40.1C140.8,389.9,158.8,390.8,170.3,380.2z M150.3,107.1
		c4.6-4.3,11.8-4.9,17.2-1.5c5.5,3.6,7.9,10.2,6.1,16.3c-1.9,6.2-7.7,10.2-14.2,9.8l0,0l0,0c-5.8-0.3-10.7-4.1-12.8-9.5
		C144.6,117,146,111,150.3,107.1L150.3,107.1z M141.3,348.5c2.7-2.5,6.5-3.8,10.2-3.6l0,0l0,0c6.8,0.4,12.5,5.4,13.4,12.2
		c1,6.7-2.7,13.1-9.1,15.5c-6.3,2.2-13.5-0.3-17.1-6.1C135.4,360.5,136.5,353.1,141.3,348.5L141.3,348.5z"/>
</g>
<g>
	<g>
		
			<ellipse transform="matrix(0.6948 -0.7192 0.7192 0.6948 -212.1858 218.194)" class="st1" cx="151" cy="359.1" rx="21.5" ry="21.2"/>
		
			<ellipse transform="matrix(0.6948 -0.7192 0.7192 0.6948 -134.1832 390.1567)" class="st1" cx="392.6" cy="353.2" rx="21.5" ry="21.2"/>
	</g>
	<path d="M412.4,332.7c-11.2-10.8-29.2-10.4-40.2,1c-3.6,3.7-6,8.2-7.2,13.2l-186.7,4.5c-1.3-4.9-3.9-9.3-7.4-12.8
		c-11.3-10.9-29.2-10.4-40.2,1s-10.8,29.4,0.4,40.2c11.2,10.8,29.2,10.4,40.2-1c3.6-3.7,6-8.2,7.2-13.2l186.7-4.5
		c1.3,4.9,3.9,9.3,7.4,12.8c11.3,10.9,29.2,10.4,40.2-1S423.7,343.6,412.4,332.7z M141.1,369.5c-4.6-4.4-5.6-11.5-2.5-17.1
		c3.2-5.7,9.7-8.5,15.9-7.1c6.3,1.5,10.6,7,10.7,13.5l0,0l0,0c0.1,5.8-3.4,11-8.6,13.4C151.3,374.5,145.2,373.4,141.1,369.5
		L141.1,369.5z M382.6,363.6c-2.7-2.6-4.3-6.2-4.2-9.9l0,0l0,0c0-6.8,4.7-12.7,11.3-14.2c6.6-1.5,13.3,1.9,16,8.1s0.6,13.5-5.1,17.4
		C395,368.8,387.4,368.3,382.6,363.6L382.6,363.6z"/>
</g>
</svg>
