<?xml version="1.0" encoding="utf-8"?>
<!-- Generator: Adobe Illustrator 23.0.3, SVG Export Plug-In . SVG Version: 6.00 Build 0)  -->
<svg version="1.1" id="Capa_1" xmlns="http://www.w3.org/2000/svg" xmlns:xlink="http://www.w3.org/1999/xlink" x="0px" y="0px"
	 viewBox="0 0 512 512" style="enable-background:new 0 0 512 512;" xml:space="preserve">
<style type="text/css">
	.st0{fill:#FFDF2B;}
</style>
<g>
	<g>
		<g>
			
				<ellipse transform="matrix(0.9659 -0.2588 0.2588 0.9659 -27.2462 70.4365)" class="st0" cx="253.9" cy="138.7" rx="21.2" ry="21.5"/>
			
				<ellipse transform="matrix(0.9659 -0.2588 0.2588 0.9659 -85.6319 46.7116)" class="st0" cx="134.6" cy="348.6" rx="21.2" ry="21.5"/>
		</g>
		<path d="M141.9,376.3c15-4,23.9-19.7,19.9-34.9c-1.3-4.9-4-9.3-7.6-12.9l92.2-162.3c4.8,1.4,10,1.5,14.8,0.2
			c15.2-4.1,23.9-19.7,19.9-34.9c-4.1-15.3-19.7-24.4-34.7-20.3c-15,4-23.9,19.7-19.9,34.9c1.3,4.9,4,9.3,7.6,12.9l-92.2,162.3
			c-4.8-1.4-10-1.5-14.8-0.2c-15.2,4.1-23.9,19.7-19.9,34.9C111.3,371.3,126.8,380.4,141.9,376.3z M250.2,124.8
			c6.1-1.7,12.7,1.1,15.9,6.6c3.2,5.7,2.3,12.7-2.1,17.3c-4.5,4.6-11.5,5.5-17.1,2.2l0,0l0,0c-5-2.9-7.6-8.6-7-14.3
			C240.6,130.9,244.6,126.2,250.2,124.8L250.2,124.8z M130.8,334.8c3.6-1,7.5-0.4,10.7,1.5l0,0l0,0c5.8,3.5,8.6,10.6,6.3,17
			c-2.2,6.4-8.5,10.4-15.2,9.6c-6.6-0.9-11.8-6.5-12.3-13.3C120,342.7,124.4,336.6,130.8,334.8L130.8,334.8z"/>
	</g>
	<g>
		<g>
			
				<ellipse transform="matrix(0.6948 -0.7192 0.7192 0.6948 -210.0592 205.153)" class="st0" cx="136.7" cy="350.1" rx="21.5" ry="21.2"/>
			
				<ellipse transform="matrix(0.6948 -0.7192 0.7192 0.6948 -132.152 377.1606)" class="st0" cx="378.3" cy="344.3" rx="21.5" ry="21.2"/>
		</g>
		<path d="M398.1,323.7c-11.2-10.8-29.2-10.4-40.2,1c-3.6,3.7-6,8.2-7.2,13.2L164,342.4c-1.3-4.9-3.9-9.3-7.4-12.8
			c-11.3-10.9-29.2-10.4-40.2,1s-10.8,29.4,0.4,40.2c11.2,10.8,29.2,10.4,40.2-1c3.6-3.7,6-8.2,7.2-13.2l186.7-4.5
			c1.3,4.9,3.9,9.3,7.4,12.8c11.3,10.9,29.2,10.4,40.2-1S409.4,334.6,398.1,323.7z M126.8,360.5c-4.6-4.4-5.6-11.5-2.5-17.1
			c3.2-5.7,9.7-8.5,15.9-7.1c6.3,1.5,10.6,7,10.7,13.5l0,0l0,0c0.1,5.8-3.4,11-8.6,13.4C137,365.5,130.9,364.4,126.8,360.5
			L126.8,360.5z M368.3,354.6c-2.7-2.6-4.3-6.2-4.2-9.9l0,0l0,0c0-6.8,4.7-12.7,11.3-14.2c6.6-1.5,13.3,1.9,16,8.1
			s0.6,13.5-5.1,17.4C380.7,359.8,373.1,359.3,368.3,354.6L368.3,354.6z"/>
	</g>
	<g>
		<g>
			
				<ellipse transform="matrix(0.238 -0.9713 0.9713 0.238 61.4797 355.0203)" class="st0" cx="257" cy="138.3" rx="21.2" ry="21.5"/>
			
				<ellipse transform="matrix(0.238 -0.9713 0.9713 0.238 -41.7717 634.7985)" class="st0" cx="383.7" cy="344" rx="21.2" ry="21.5"/>
		</g>
		<path d="M411.5,350.9c3.7-15.1-5.7-30.4-21-34.3c-4.9-1.2-10.1-1-15,0.4l-97.9-159c3.6-3.6,6.1-8,7.3-12.9
			c3.7-15.3-5.7-30.4-21-34.2c-15.4-3.8-30.8,5.5-34.5,20.6s5.7,30.4,21,34.2c4.9,1.2,10.1,1,15-0.4l97.9,159
			c-3.6,3.6-6.1,8-7.3,12.9c-3.7,15.3,5.7,30.4,21,34.2S407.7,366.1,411.5,350.9z M243,135c1.5-6.2,7.1-10.6,13.5-10.8
			c6.5-0.1,12.2,4.1,14.1,10.1c1.9,6.1-0.7,12.7-6.3,16l0,0l0,0c-5,3-11.2,2.6-15.9-0.8C243.9,146.4,241.7,140.5,243,135L243,135z
			 M369.7,340.7c0.9-3.6,3.3-6.8,6.5-8.6l0,0l0,0c5.9-3.4,13.4-2.4,18,2.6c4.5,5,5,12.5,1.1,18c-4,5.4-11.4,7.3-17.6,4.4
			C371.5,354,368.1,347.2,369.7,340.7L369.7,340.7z"/>
	</g>
</g>
</svg>
