<?xml version="1.0" encoding="utf-8"?>
<!-- Generator: Adobe Illustrator 23.0.3, SVG Export Plug-In . SVG Version: 6.00 Build 0)  -->
<svg version="1.1" id="Слой_1" xmlns="http://www.w3.org/2000/svg" xmlns:xlink="http://www.w3.org/1999/xlink" x="0px" y="0px"
	 viewBox="0 0 480 480" style="enable-background:new 0 0 480 480;" xml:space="preserve">
<style type="text/css">
	.st0{fill:#FFFFFF;}
	.st1{fill:#FFDF2B;}
</style>
<path class="st0" d="M240,8c128.1,0,232,103.9,232,232S368.1,472,240,472S8,368.1,8,240S111.9,8,240,8z"/>
<g>
</g>
<g>
	<polygon class="st1" points="183.2,114.8 79.9,196.5 183.2,296.1 194.6,245.4 327.1,275.9 395.5,339.2 375.4,269 327.1,205.7 
		237.7,168.3 201,171.2 191,163.7 	"/>
	<g>
		<g>
			<path d="M199.4,152.7v-49.4c0-5.4-5.4-9.8-12.2-9.8c-3.4,0-6.7,1.2-9,3.2L68.8,195c-4,3.6-4.2,9-0.4,12.8l109.4,108.1
				c4.3,4.2,11.9,4.8,17.1,1.4c2.8-1.9,4.5-4.6,4.5-7.6v-48.9c96,2.5,156,35.7,183,101.2c1.7,4,6.3,6.7,11.5,6.7c0.7,0,1.3,0,2-0.1
				c5.9-0.8,10.2-4.9,10.2-9.7C406,243,319.9,158,199.4,152.7z M187.2,240.8c-6.7,0-12.2,4.4-12.2,9.8V282l-81.2-80.2l81.2-72.9
				v33.3c0,5.4,5.4,9.8,12.2,9.8c95.5,0,167,53.4,188.1,134.9C336.2,263,273.2,240.8,187.2,240.8z"/>
		</g>
	</g>
</g>
</svg>
