<?xml version="1.0" encoding="utf-8"?>
<!-- Generator: Adobe Illustrator 23.0.3, SVG Export Plug-In . SVG Version: 6.00 Build 0)  -->
<svg version="1.1" id="Слой_1" xmlns="http://www.w3.org/2000/svg" xmlns:xlink="http://www.w3.org/1999/xlink" x="0px" y="0px"
	 viewBox="0 0 480 480" style="enable-background:new 0 0 480 480;" xml:space="preserve">
<style type="text/css">
	.st0{fill:none;stroke:#000000;stroke-width:32;stroke-miterlimit:10;}
	.st1{fill:#FFDF2B;}
</style>
<g>
	<ellipse class="st0" cx="247" cy="240" rx="138.3" ry="138.2"/>
</g>
<g>
	<ellipse class="st1" cx="247" cy="240" rx="138.3" ry="138.2"/>
	<g>
		<path d="M247,302.8c6.9,0,12.6-5.6,12.6-12.6v-37.7h37.7c6.9,0,12.6-5.6,12.6-12.6s-5.6-12.6-12.6-12.6h-37.7v-37.7
			c0-6.9-5.6-12.6-12.6-12.6s-12.6,5.6-12.6,12.6v37.7h-37.7c-6.9,0-12.6,5.6-12.6,12.6s5.6,12.6,12.6,12.6h37.7v37.7
			C234.4,297.2,240.1,302.8,247,302.8z"/>
	</g>
</g>
</svg>
