<?xml version="1.0" encoding="utf-8"?>
<!-- Generator: Adobe Illustrator 23.0.3, SVG Export Plug-In . SVG Version: 6.00 Build 0)  -->
<svg version="1.1" id="Слой_1" xmlns="http://www.w3.org/2000/svg" xmlns:xlink="http://www.w3.org/1999/xlink" x="0px" y="0px"
	 viewBox="0 0 480 480" style="enable-background:new 0 0 480 480;" xml:space="preserve">
<style type="text/css">
	.st0{fill:#FFFFFF;}
	.st1{fill:#FFDF2B;}
	.st2{fill:#231F20;}
</style>
<path class="st0" d="M472,240c0,128.1-103.9,232-232,232S8,368.1,8,240S111.9,8,240,8S472,111.9,472,240z"/>
<path class="st1" d="M384,192c0,53-43,96-96,96s-96-43-96-96s43-96,96-96S384,139,384,192z"/>
<g>
	<path class="st2" d="M240,0C107.5,0,0,107.5,0,240s107.5,240,240,240s240-107.5,240-240C479.9,107.5,372.5,0.1,240,0z M240,464
		C116.3,464,16,363.7,16,240S116.3,16,240,16s224,100.3,224,224C463.9,363.7,363.7,463.9,240,464z"/>
	<path class="st2" d="M288,88c-40.6-0.1-77.5,23.6-94.5,60.5c-17,36.9-10.9,80.3,15.6,111.1L90.3,378.3l11.3,11.3l118.8-118.8
		c35,30,85.5,33.3,124.2,8.3c38.7-25.1,56.2-72.6,43.1-116.7C374.7,118.3,334.1,88,288,88z M288,280c-48.6,0-88-39.4-88-88
		s39.4-88,88-88s88,39.4,88,88C375.9,240.6,336.6,279.9,288,280z"/>
	<path class="st2" d="M288,112v16c35.3,0,64,28.7,64,64h16C368,147.8,332.2,112,288,112z"/>
</g>
</svg>
