<?xml version="1.0" encoding="utf-8"?>
<!-- Generator: Adobe Illustrator 23.0.3, SVG Export Plug-In . SVG Version: 6.00 Build 0)  -->
<svg version="1.1" id="Capa_1" xmlns="http://www.w3.org/2000/svg" xmlns:xlink="http://www.w3.org/1999/xlink" x="0px" y="0px"
	 viewBox="0 0 512 512" style="enable-background:new 0 0 512 512;" xml:space="preserve">
<style type="text/css">
	.st0{fill:#FFFFFF;}
	.st1{fill-rule:evenodd;clip-rule:evenodd;fill:#FFFFFF;}
	.st2{fill-rule:evenodd;clip-rule:evenodd;fill:#FF0A0A;}
	.st3{fill-rule:evenodd;clip-rule:evenodd;fill:#144FFF;}
	.st4{fill-rule:evenodd;clip-rule:evenodd;fill:#8BF614;}
	.st5{fill-rule:evenodd;clip-rule:evenodd;fill:#2200FF;}
	.st6{fill-rule:evenodd;clip-rule:evenodd;fill:#FF0000;}
	.st7{fill-rule:evenodd;clip-rule:evenodd;fill:#0040FF;}
</style>
<circle class="st0" cx="256" cy="256" r="247.5"/>
<ellipse class="st0" cx="243.2" cy="256" rx="234.7" ry="247.5"/>
<g>
	<path d="M256,0C114.6,0,0,114.6,0,256s114.6,256,256,256s256-114.6,256-256C511.8,114.7,397.3,0.2,256,0z M256,494.9
		C124,494.9,17.1,388,17.1,256S124,17.1,256,17.1S494.9,124,494.9,256C494.8,387.9,387.9,494.8,256,494.9z"/>
</g>
<g>
	<g>
		<path class="st1" d="M193.7,432.2c12-42-22-118.6-105.3-126.7c-1.7-0.2-3.4-0.3-5.1-0.4c-3.3-0.2-5.1,1.8-2.1,4.7
			c1.1,1,2.1,2,3.2,3c41.3,39.8,61,69.4,66.9,105.1c0.4,2.4,0.7,4.8,1,7.2c0.5,5.2,3.9,7.1,8,7.1L193.7,432.2z"/>
		<path class="st1" d="M333.9,432.2c-12-42,22-118.6,105.3-126.7c1.7-0.2,3.4-0.3,5.1-0.4c3.3-0.2,5.1,1.8,2.1,4.7
			c-1.1,1-2.1,2-3.2,3c-41.3,39.8-61,69.4-66.9,105.1c-0.4,2.4-0.8,4.8-1,7.2c-0.5,5.2-3.9,7.1-8,7.1L333.9,432.2z"/>
		<path class="st1" d="M240.4,432.2c13.4-48.6,6.8-148.3-118.8-185.9c-2-0.6-3.8-1.1-5.8-1.7c-3.3-0.9-4.9,1.1-2.9,4
			c1.5,2.1,2.8,3.9,4.2,5.9c61.8,87,65.5,113,76.6,177.7H240.4z"/>
		<path class="st1" d="M287.2,432.2c-13.4-48.6-6.7-148.3,118.8-185.9c2-0.6,3.8-1.1,5.8-1.7c3.3-0.9,4.9,1.1,2.9,4
			c-1.5,2.1-2.8,3.9-4.2,5.9c-61.9,87-65.5,113-76.6,177.7H287.2z"/>
		<path class="st2" d="M381.9,200.5c3.4,8,1.7,17.4-4.9,23.9c-8.9,8.6-23.2,8.6-32.1,0c-3.2-3.2-5.3-7-6.2-11
			c-15.4,1.2-38.4-6.5-38.4-24.3c0-20.3,30.5-24.3,52.7-16.5L381.9,200.5z"/>
		<path class="st3" d="M168.6,157.9c3.8,9,1.9,19.8-5.6,27.1c-10.1,9.8-26.4,9.8-36.4,0c-3.7-3.6-6-8-7-12.5
			C102,173.8,76,165.1,76,144.9c0-23.1,34.6-27.6,59.9-18.7L168.6,157.9z"/>
		<path class="st2" d="M381.9,200.5c8.2,3.3,18,1.7,24.6-4.8c8.9-8.6,8.9-22.5,0-31.1c-3.2-3.1-7.2-5.1-11.4-6
			c1.2-14.9-6.7-37.2-25-37.2c-20.9,0-25,29.5-17,51.1L381.9,200.5z"/>
		<path class="st3" d="M168.6,157.9c9.3,3.7,20.4,1.9,28-5.5c10-9.7,10-25.6,0-35.3c-3.7-3.6-8.2-5.8-13-6.8
			c1.4-17-7.6-42.2-28.5-42.2c-23.8,0-28.4,33.5-19.3,58L168.6,157.9z"/>
		<path class="st4" d="M240.4,432.2c-7.1-25.9-11.1-55.4-11.1-86.8c0-41.9,7.5-96.3,30.9-136c2.2-3.7,5.7-2.9,7.3,0
			c23.3,42.2,30.9,91.7,30.9,136c0,31.4-4,60.9-11.1,86.8H240.4z"/>
		<path class="st1" d="M424.8,312.8c-41.3,39.8-61,69.4-66.9,105.1c-0.4,2.4-0.8,4.8-1,7.2c-0.5,5.2-3.9,7.1-8,7.1h18.3
			c4.1,0,7.5-1.9,8-7.1c0.2-2.4,0.6-4.8,1-7.2c5.9-35.7,25.6-65.3,66.9-105.1c1-1,2.1-2,3.2-3c3.1-2.9,1.3-4.8-2.1-4.7
			c-1.7,0.1-3.4,0.2-5.1,0.4c-3.3,0.3-6.5,0.7-9.6,1.3c0.2,0.8-0.3,1.8-1.6,3C426.9,310.8,425.9,311.8,424.8,312.8L424.8,312.8z"/>
		<path class="st5" d="M352.3,354c9.9-26.1,26.4-54.7,58.2-99.6c1.4-2,2.7-3.9,4.2-5.9c2.1-2.8,0.5-4.9-2.9-4
			c-2,0.5-3.9,1.1-5.8,1.7c-3.6,1.1-7,2.2-10.4,3.4c-1.2,1.6-2.3,3.2-3.4,4.9c-61.9,87-65.5,113-76.6,177.7h18.3
			C339.3,400.8,342.9,378.6,352.3,354z"/>
		<path class="st1" d="M287.2,432.2c7.1-25.9,11.1-55.4,11.1-86.8c0-5.8-0.1-11.6-0.4-17.6c-1.8-39.5-10.2-81.7-30.5-118.4
			c-1.6-2.9-5.1-3.7-7.3,0c-2,3.4-3.9,6.9-5.6,10.5c19.1,39.8,25.5,84.8,25.5,125.5c0,31.4-4,60.9-11.1,86.8H287.2L287.2,432.2z"/>
		<path class="st5" d="M240.4,432.2c-7.1-25.9-11.1-55.4-11.1-86.8c0-5.6,0.1-11.5,0.4-17.5c-4.3-8.5-9.7-16.8-16.3-24.8
			c-1.7,14.8-2.5,29.2-2.5,42.4c0,31.4,4,60.9,11.1,86.8h18.4V432.2z"/>
		<path class="st1" d="M193.7,432.2c-5.4-31.3-9-53.6-18.4-78.1c-8.3-11.5-19-22.1-32.4-30.4c20.8,39,24.9,65,32.4,108.6
			L193.7,432.2L193.7,432.2z"/>
		<path class="st6" d="M388.2,164.6c8.9,8.6,8.9,22.5,0,31.1c-0.6,0.6-1.2,1.1-1.9,1.6c1,1.3,1.3,3,0.9,4.6c6.8,1,14.1-1.1,19.3-6.2
			c8.9-8.6,8.9-22.5,0-31.1c-3.2-3.1-7.2-5.1-11.4-6c1.2-14.9-6.7-37.2-25-37.2c-3.4,0-6.4,0.8-9,2.2c9.6,4.9,14.7,17.2,15.6,28.1
			c0.4,4.6,0,6.2,4.9,8.3C384,161.2,386.2,162.7,388.2,164.6L388.2,164.6z"/>
		<path class="st7" d="M178.2,117.2c10,9.7,10,25.6,0,35.3c-1.4,1.4-2.9,2.5-4.5,3.5c0.4,1.1,0.5,2.3,0.2,3.4c8,1.4,16.5-1,22.7-6.9
			c10-9.7,10-25.6,0-35.3c-3.7-3.6-8.2-5.8-13-6.8c1.4-17-7.6-42.2-28.5-42.2c-3.4,0-6.4,0.7-9,1.9c12.1,5.3,18.3,20.6,19.2,33.7
			c0.4,6.5,0.2,6.1,6,8.6C173.9,113.5,176.1,115.2,178.2,117.2L178.2,117.2z"/>
	</g>
	<path d="M248.7,250.4c-0.9,2.9-4.1,4.5-7,3.6c-3-0.9-4.7-4-3.7-6.9c2.8-8.8,6-17.2,9.5-25c3.6-7.9,7.4-15.2,11.5-21.8
		c1.6-2.6,5.1-3.4,7.8-1.9c0.9,0.5,1.5,1.2,2,2c11,17.7,20,39.9,26.1,65.2c3.4,13.8,5.9,28.6,7.4,44c2.6-3.8,5.4-7.5,8.5-11.1
		c6.7-8.1,14.7-15.8,23.9-22.9c2.4-1.9,6-1.5,7.9,0.8c2,2.3,1.6,5.8-0.9,7.7c-8.6,6.7-16,13.9-22.2,21.3
		c-6.4,7.6-11.6,15.5-15.8,23.6c0.2,5.4,0.4,10.9,0.4,16.4c0,15.7-1,30.9-2.9,45.4c-1.6,12.5-3.8,24.4-6.7,35.8h34.7
		c10.6-62,15.6-89.3,76.1-174.5c-5.5,1.7-10.9,3.6-15.9,5.5c-9.8,3.8-18.8,8.1-27.1,12.7c-2.7,1.5-6.2,0.6-7.7-2
		c-1.6-2.6-0.7-6,2-7.5c8.6-4.8,18.1-9.3,28.6-13.4c9.9-3.8,20.7-7.3,32.5-10.2c3-0.7,6.1,1,6.9,3.9c0.4,1.6,0.1,3.2-0.9,4.5
		c-24.7,34.1-41,59.2-52.3,80.4c6.3-5,13.3-9.4,21-13.2c16.6-8.2,36.4-13.3,59.3-13.7c3.1,0,5.7,2.4,5.7,5.4c0,1.5-0.6,3-1.7,4
		c-26.1,24.3-44.3,44.6-56.3,64.2c-11.8,19.3-17.6,38.1-19,59.6c-0.2,2.9-2.7,5.1-5.7,5.1c-73.9,0-147.8,0-221.7,0
		c-3,0-5.5-2.2-5.6-5.1c-1.4-21.5-7.2-40.3-19-59.6c-14.4-23.6-35.9-45.2-56.3-64.2c-1.1-1-1.8-2.4-1.7-4c0-3,2.6-5.4,5.7-5.4
		c22.9,0.3,42.7,5.4,59.3,13.7c7.7,3.8,14.7,8.3,21,13.3c-3.8-7.2-8.3-14.9-13.4-23.3c-1.6-2.6-0.7-6,2-7.5c2.7-1.6,6.1-0.7,7.7,1.9
		c32.5,52.5,37.4,79.9,45.9,129.3h34.7c-2.8-11.4-5.1-23.4-6.7-35.8c-1.9-14.6-2.9-29.8-2.9-45.4c0-5.5,0.1-11,0.4-16.4
		c-9.3-17.7-23.4-34.9-44.1-49.4c-15.3-10.8-34.3-20.2-57.5-27.4c1.5,2.2,3.1,4.3,4.6,6.5c4.4,6.2,8.4,12,11.9,17.4
		c1.7,2.6,1,5.9-1.7,7.6c-2.6,1.7-6.1,0.9-7.8-1.6c-3.8-5.6-7.7-11.3-11.8-17.2c-4.5-6.4-9-12.7-13.6-19c-0.9-1.2-1.3-2.9-0.8-4.5
		c0.8-2.9,3.8-4.7,6.9-3.9c31.8,8,56.9,19.6,76.4,33.3c16.6,11.7,29.3,25,38.9,38.9c0.1-0.6,0.1-1.2,0.2-1.8
		c1.3-12.5,3.3-24.6,5.8-36c0.7-3,3.7-4.9,6.7-4.2c3,0.6,5,3.6,4.3,6.5c-2.4,11.1-4.3,22.8-5.6,34.8c-1.2,11.7-1.9,23.9-1.9,36.5
		c0,15.2,1,30,2.8,44.1c1.7,13,4.1,25.5,7.1,37.2h38c3-11.7,5.4-24.1,7.1-37.2c1.8-14.1,2.8-28.9,2.8-44.1c0-27.7-3.2-53.8-8.8-77.2
		c-4.9-20.3-11.8-38.5-20-53.7c-2.1,3.9-4.1,8-6,12.2C254.5,234,251.4,242,248.7,250.4L248.7,250.4z M104.1,85.2
		c0-3,2.5-5.5,5.7-5.5c3.1,0,5.7,2.4,5.7,5.5v13.5l10.7,10.4c-0.2-2.4-0.4-4.8-0.4-7.2c0-8.2,1.5-16.2,4.5-22.7
		c3.3-7.1,8.5-12.5,15.7-15.1c6.5-2.3,13.8-1.9,20.1,0.6c2.9,1.2,4.2,4.4,3,7.2c-1.2,2.8-4.5,4.1-7.4,2.9c-3.6-1.4-8.3-1.7-11.9-0.4
		c-4.1,1.4-7.2,4.8-9.3,9.3c-2.4,5-3.5,11.4-3.5,18.2c0,7.1,1.2,14.6,3.6,21.3l31.1,30.1c3.4,1.1,7,1.3,10.6,0.7
		c3.7-0.7,7.3-2.5,10.2-5.3c3.9-3.8,5.9-8.8,5.9-13.8s-2-10-5.9-13.8c-1.4-1.4-3-2.5-4.6-3.4c-1.7-0.9-3.6-1.6-5.5-1.9
		c-2.8-0.6-4.7-3.1-4.5-5.8c0.3-3,0.1-6.4-0.4-9.8c-0.5-3.3-1.4-6.7-2.6-9.8c-1.1-2.8,0.4-6,3.3-7c2.9-1.1,6.2,0.4,7.3,3.2
		c1.5,3.9,2.6,8,3.2,12c0.4,2.6,0.6,5.2,0.6,7.7c1.3,0.5,2.6,1,3.9,1.7c2.7,1.4,5.1,3.1,7.3,5.3c6.1,6,9.2,13.7,9.2,21.5
		s-3.1,15.6-9.2,21.5c-4.5,4.4-10.1,7.2-16,8.3c-2.8,0.5-5.7,0.7-8.5,0.5c0.2,2.7,0,5.5-0.5,8.2c-1.2,5.7-4,11.1-8.6,15.5
		c-6.1,5.9-14.2,8.9-22.2,8.9s-16.1-3-22.2-8.9c-2.2-2.1-4-4.5-5.4-7.1c-0.7-1.2-1.3-2.4-1.8-3.7c-9.1-0.1-19.5-2.4-27.9-7.1
		c-9.2-5.1-16.2-13-17.1-23.9c-0.3-3.8,0.1-7.5,1.5-11.1c2.6-7,8.2-12.1,15.5-15.3c6.7-3,14.9-4.4,23.4-4.4c2.4,0,4.9,0.1,7.4,0.3
		l-10.7-10.4H93.5c-3.1,0-5.7-2.4-5.7-5.5c0-3,2.5-5.5,5.7-5.5h10.6V85.2z M324.5,136.4c0-3,2.5-5.5,5.7-5.5s5.7,2.4,5.7,5.5V148
		l7.9,7.7c-0.1-1.5-0.2-3.1-0.2-4.6c0-7.3,1.3-14.4,4-20.2c3-6.4,7.7-11.3,14.3-13.6c3.3-1.2,6.8-1.6,10.3-1.3
		c10.1,0.8,17.5,6.9,22.2,14.9c4.2,7.1,6.3,15.9,6.5,23.6c3.6,1.4,6.9,3.5,9.6,6.1c5.5,5.4,8.3,12.4,8.3,19.4s-2.8,14.1-8.3,19.4
		c-4.1,3.9-9.1,6.4-14.4,7.5c-2.3,0.5-4.6,0.6-6.9,0.5c0.1,2.2-0.1,4.5-0.5,6.7c-1.1,5.1-3.7,10-7.7,14c-5.5,5.4-12.8,8-20,8
		c-7.3,0-14.5-2.7-20.1-8c-2.7-2.7-4.9-5.9-6.3-9.3c-8-0.1-17-2.2-24.4-6.3c-8.3-4.6-14.6-11.7-15.4-21.5c-0.3-3.4,0.1-6.8,1.3-10
		c2.4-6.4,7.4-10.9,14-13.8c6-2.6,13.3-3.9,20.9-3.9c1.6,0,3.1,0.1,4.7,0.2l-7.9-7.7h-12c-3.1,0-5.6-2.4-5.6-5.5
		c0-3,2.5-5.5,5.6-5.5h8.7L324.5,136.4z M377.1,203.5L350,177.2c-6-1.9-12.6-2.9-18.9-2.9c-6.1,0-11.7,0.9-16.2,2.9
		c-3.9,1.7-6.8,4.2-8,7.5c-0.6,1.7-0.8,3.7-0.7,5.5c0.5,5.6,4.4,9.9,9.7,12.8c5.9,3.3,13.3,4.9,19.8,4.9c1,0,1.9,0,2.7-0.1
		c2.8-0.2,5.4,1.6,6,4.4c0.7,3.2,2.3,6,4.6,8.3c3.3,3.2,7.7,4.8,12,4.8s8.7-1.6,12-4.8c2.5-2.4,4-5.3,4.7-8.4
		C378.2,209.2,378,206.3,377.1,203.5z M385.1,195.8c2.8,0.9,5.9,1.1,8.8,0.5c3.1-0.6,6.1-2.1,8.6-4.5c3.3-3.2,5-7.4,5-11.7
		c0-4.2-1.7-8.4-5-11.6c-2.4-2.3-5.3-3.8-8.5-4.5c-2.8-0.6-4.7-3.1-4.5-5.8l0,0c0.1-0.8,0.1-1.7,0.1-2.6c0-6.3-1.7-13.5-5-19.2
		c-3-5.1-7.4-8.9-13.2-9.4c-1.9-0.1-3.9,0-5.7,0.6c-3.4,1.2-6,4-7.8,7.8c-2,4.3-3,9.9-3,15.7c0,6.1,1,12.5,3,18.4L385.1,195.8z
		 M164.5,171.3c0.7-3.4,0.5-6.9-0.7-10.2l-31-30.1c-6.9-2.3-14.6-3.4-21.9-3.4c-7,0-13.6,1.1-18.8,3.4c-4.6,2-8.1,5-9.5,8.9
		c-0.8,2-1,4.4-0.8,6.5c0.5,6.7,5.2,11.7,11.4,15.2c6.8,3.8,15.4,5.6,22.9,5.6c1,0,2.1,0,3.1-0.1c2.8-0.2,5.4,1.6,6,4.4
		c0.4,1.8,1,3.6,2,5.3c0.9,1.6,2,3.1,3.5,4.5c3.9,3.8,9.1,5.7,14.2,5.7c5.1,0,10.3-1.9,14.2-5.7
		C161.9,178.3,163.7,174.9,164.5,171.3z M357.4,356.5c-8.4,22.3-12.1,42.8-16.8,70.2h28.9c2.1-21.2,8.3-40,20.1-59.4
		c10.8-17.6,26.2-35.6,47.2-56.1c-14.8,1.8-27.9,5.8-39.4,11.5C380.5,331.1,367.2,343.1,357.4,356.5z M187,426.7
		c-4.7-27.4-8.4-47.9-16.8-70.1c-9.8-13.4-23.1-25.4-40.1-33.8c-11.4-5.7-24.6-9.7-39.4-11.5c21.1,20.5,36.5,38.5,47.2,56.1
		c11.8,19.3,18,38.2,20.1,59.4h29V426.7z"/>
</g>
</svg>
