<?xml version="1.0" encoding="utf-8"?>
<!-- Generator: Adobe Illustrator 23.0.3, SVG Export Plug-In . SVG Version: 6.00 Build 0)  -->
<svg version="1.1" id="Capa_1" xmlns="http://www.w3.org/2000/svg" xmlns:xlink="http://www.w3.org/1999/xlink" x="0px" y="0px"
	 viewBox="0 0 490.7 490.7" style="enable-background:new 0 0 490.7 490.7;" xml:space="preserve">
<style type="text/css">
	.st0{fill:#FFFFFF;}
</style>
<ellipse class="st0" cx="243" cy="246.3" rx="236" ry="231.7"/>
<g>
	<g>
		<path d="M245.3,0C110.1,0,0,110.1,0,245.3s110.1,245.3,245.3,245.3s245.3-110.1,245.3-245.3S380.6,0,245.3,0z M245.3,469.3
			c-123.5,0-224-100.5-224-224s100.5-224,224-224s224,100.5,224,224S368.9,469.3,245.3,469.3z"/>
	</g>
</g>
<g>
	<g>
		<g>
			<path d="M365.2,371.1c-2.9,3.2-2.9,8.4,0,11.5c1.4,1.6,3.3,2.4,5.2,2.4s3.8-0.8,5.2-2.4l44.1-48.9c2.9-3.2,2.9-8.4,0-11.5
				l-44.1-48.9c-2.9-3.2-7.5-3.2-10.4,0c-2.9,3.2-2.9,8.4,0,11.5l38.9,43.2L365.2,371.1z"/>
		</g>
	</g>
	<g>
		<g>
			<path d="M68.8,221.9c0,63,46.2,114.2,103,114.2h242.7c4.1,0,7.4-3.7,7.4-8.2s-3.3-8.2-7.4-8.2H171.8c-48.7,0-88.3-43.9-88.3-97.9
				s39.6-97.9,88.3-97.9h169.1c4.1,0,7.4-3.7,7.4-8.2s-3.3-8.2-7.4-8.2H171.8C115,107.7,68.8,158.9,68.8,221.9z"/>
		</g>
	</g>
</g>
</svg>
