<?xml version="1.0" encoding="utf-8"?>
<!-- Generator: Adobe Illustrator 23.0.3, SVG Export Plug-In . SVG Version: 6.00 Build 0)  -->
<svg version="1.1" id="Capa_1" xmlns="http://www.w3.org/2000/svg" xmlns:xlink="http://www.w3.org/1999/xlink" x="0px" y="0px"
	 viewBox="0 0 490.7 490.7" style="enable-background:new 0 0 490.7 490.7;" xml:space="preserve">
<style type="text/css">
	.st0{fill:#FFFFFF;}
</style>
<ellipse class="st0" cx="243" cy="246.3" rx="236" ry="231.7"/>
<g>
	<g>
		<path d="M245.3,0C110.1,0,0,110.1,0,245.3s110.1,245.3,245.3,245.3s245.3-110.1,245.3-245.3S380.6,0,245.3,0z M245.3,469.3
			c-123.5,0-224-100.5-224-224s100.5-224,224-224s224,100.5,224,224S368.9,469.3,245.3,469.3z"/>
	</g>
</g>
<g>
	<g>
		<path d="M348.9,333.8l-192-192c-4.2-4.2-10.9-4.2-15.1,0s-4.2,10.9,0,15.1l192,192c2.1,2.1,4.8,3.1,7.6,3.1s5.5-1,7.5-3.1
			C353,344.7,353,338,348.9,333.8z"/>
	</g>
</g>
<g>
	<g>
		<path d="M348.9,141.8c-4.2-4.2-10.9-4.2-15.1,0l-192,192c-4.2,4.2-4.2,10.9,0,15.1c2.1,2.1,4.8,3.1,7.6,3.1s5.5-1,7.5-3.1l192-192
			C353,152.7,353,146,348.9,141.8z"/>
	</g>
</g>
</svg>
