<?xml version="1.0" encoding="iso-8859-1"?>
<!-- Generator: Adobe Illustrator 19.0.0, SVG Export Plug-In . SVG Version: 6.00 Build 0)  -->
<svg version="1.1" id="Layer_1" xmlns="http://www.w3.org/2000/svg" xmlns:xlink="http://www.w3.org/1999/xlink" x="0px" y="0px"
	 viewBox="0 0 512 512" style="enable-background:new 0 0 512 512;" xml:space="preserve">
<g>
	<g>
		<g>
			<path d="M356.771,150.458c-3.604-1.771-7.927-1.417-11.167,1.01l-128,96c-2.688,2.01-4.271,5.177-4.271,8.531
				s1.583,6.521,4.271,8.531l128,96c1.875,1.417,4.125,2.135,6.396,2.135c1.625,0,3.26-0.375,4.771-1.125
				c3.615-1.813,5.896-5.5,5.896-9.542V160C362.667,155.958,360.385,152.271,356.771,150.458z M341.333,330.667L241.781,256
				l99.552-74.667V330.667z"/>
			<path d="M294.396,343.469L177.781,256l116.615-87.469c4.719-3.531,5.677-10.219,2.135-14.927
				c-3.552-4.729-10.219-5.688-14.927-2.135l-128,96c-2.688,2.01-4.271,5.177-4.271,8.531s1.583,6.521,4.271,8.531l128,96
				c1.917,1.438,4.156,2.135,6.385,2.135c3.25,0,6.448-1.469,8.542-4.271C300.073,353.688,299.115,347,294.396,343.469z"/>
			<path d="M256,0C114.844,0,0,114.844,0,256s114.844,256,256,256s256-114.844,256-256S397.156,0,256,0z M256,490.667
				C126.604,490.667,21.333,385.396,21.333,256S126.604,21.333,256,21.333S490.667,126.604,490.667,256S385.396,490.667,256,490.667
				z"/>
		</g>
	</g>
</g>
<g>
</g>
<g>
</g>
<g>
</g>
<g>
</g>
<g>
</g>
<g>
</g>
<g>
</g>
<g>
</g>
<g>
</g>
<g>
</g>
<g>
</g>
<g>
</g>
<g>
</g>
<g>
</g>
<g>
</g>
</svg>
