<?xml version="1.0" encoding="utf-8"?>
<!-- Generator: Adobe Illustrator 23.0.3, SVG Export Plug-In . SVG Version: 6.00 Build 0)  -->
<svg version="1.1" id="Capa_1" xmlns="http://www.w3.org/2000/svg" xmlns:xlink="http://www.w3.org/1999/xlink" x="0px" y="0px"
	 viewBox="0 0 490.7 490.7" style="enable-background:new 0 0 490.7 490.7;" xml:space="preserve">
<style type="text/css">
	.st0{fill:#FFFFFF;}
</style>
<ellipse class="st0" cx="243" cy="246.3" rx="236" ry="231.7"/>
<g>
	<g>
		<path d="M245.3,0C110.1,0,0,110.1,0,245.3s110.1,245.3,245.3,245.3s245.3-110.1,245.3-245.3S380.6,0,245.3,0z M245.3,469.3
			c-123.5,0-224-100.5-224-224s100.5-224,224-224s224,100.5,224,224S368.9,469.3,245.3,469.3z"/>
	</g>
</g>
<g>
	<g>
		<path d="M395.7,103.9c-2.5-3.5-6.6-3.5-9.1,0L197.9,369.5L99.4,230.8c-2.5-3.5-6.6-3.5-9.1,0s-2.5,9.3,0,12.8l103.1,145.1
			c1.3,1.8,2.9,2.6,4.6,2.6c1.6,0,3.3-0.9,4.5-2.7l193.2-272C398.2,113.2,398.2,107.4,395.7,103.9z"/>
	</g>
</g>
</svg>
