<?xml version="1.0" encoding="utf-8"?>
<!-- Generator: Adobe Illustrator 23.0.3, SVG Export Plug-In . SVG Version: 6.00 Build 0)  -->
<svg version="1.1" id="Capa_1" xmlns="http://www.w3.org/2000/svg" xmlns:xlink="http://www.w3.org/1999/xlink" x="0px" y="0px"
	 viewBox="0 0 512 512" style="enable-background:new 0 0 512 512;" xml:space="preserve">
<style type="text/css">
	.st0{fill:#FFFFFF;}
	.st1{fill-rule:evenodd;clip-rule:evenodd;fill:#66B394;}
	.st2{fill-rule:evenodd;clip-rule:evenodd;fill:#B3E59F;}
	.st3{fill-rule:evenodd;clip-rule:evenodd;fill:#62D9FA;}
	.st4{fill-rule:evenodd;clip-rule:evenodd;fill:#FD91BA;}
	.st5{fill-rule:evenodd;clip-rule:evenodd;fill:#D6F6B2;}
	.st6{fill-rule:evenodd;clip-rule:evenodd;fill:#5AA687;}
	.st7{fill-rule:evenodd;clip-rule:evenodd;fill:#95D6A4;}
	.st8{fill-rule:evenodd;clip-rule:evenodd;fill:#57D0F2;}
	.st9{fill-rule:evenodd;clip-rule:evenodd;fill:#F585B0;}
</style>
<circle class="st0" cx="256" cy="256" r="247.5"/>
<ellipse class="st0" cx="243.2" cy="256" rx="234.7" ry="247.5"/>
<g>
	<path d="M256,0C114.6,0,0,114.6,0,256s114.6,256,256,256s256-114.6,256-256C511.8,114.7,397.3,0.2,256,0z M256,494.9
		C124,494.9,17.1,388,17.1,256S124,17.1,256,17.1S494.9,124,494.9,256C494.8,387.9,387.9,494.8,256,494.9z"/>
</g>
<g>
	<g>
		<path class="st1" d="M160.3,67.8c-4.1,0-7.5,1.9-8,7.1c-0.3,2.4-0.6,4.8-1,7.2c-5.9,35.7-25.6,65.3-66.9,105.1c-1.1,1-2.1,2-3.2,3
			c-3,2.9-1.2,4.9,2.1,4.7c1.7-0.1,3.4-0.2,5.1-0.4c83.3-8.1,117.3-84.7,105.3-126.7L160.3,67.8z"/>
		<path class="st1" d="M367.3,67.8c4.1,0,7.5,1.9,8,7.1c0.2,2.4,0.6,4.8,1,7.2c5.9,35.7,25.6,65.3,66.9,105.1c1.1,1,2.1,2,3.2,3
			c3,2.9,1.2,4.9-2.1,4.7c-1.7-0.1-3.4-0.2-5.1-0.4c-83.3-8.1-117.3-84.7-105.3-126.7L367.3,67.8z"/>
		<path class="st2" d="M193.7,67.8c-11.1,64.7-14.8,90.7-76.6,177.7c-1.4,2-2.7,3.8-4.2,5.9c-2,2.9-0.4,4.9,2.9,4
			c2-0.6,3.8-1.1,5.8-1.7c125.6-37.6,132.2-137.3,118.8-185.9H193.7z"/>
		<path class="st2" d="M333.9,67.8c11.1,64.7,14.7,90.7,76.6,177.7c1.4,2,2.7,3.8,4.2,5.9c2,2.9,0.4,4.9-2.9,4
			c-2-0.6-3.8-1.1-5.8-1.7C280.5,216.1,273.8,116.4,287.2,67.8H333.9z"/>
		<path class="st3" d="M353,327.4c-22.2,7.8-52.7,3.8-52.7-16.5c0-17.8,23-25.5,38.4-24.3c0.9-4,3-7.8,6.2-11
			c8.9-8.6,23.2-8.6,32.1,0c6.6,6.5,8.3,15.9,4.9,23.9L353,327.4z"/>
		<path class="st4" d="M135.9,373.8c-25.3,8.9-59.9,4.4-59.9-18.7c0-20.2,26-28.9,43.6-27.6c1-4.5,3.3-8.9,7-12.5
			c10-9.8,26.3-9.8,36.4,0c7.5,7.3,9.4,18.1,5.6,27.1L135.9,373.8z"/>
		<path class="st3" d="M353.1,327.5c-8,21.6-3.9,51.1,17,51.1c18.3,0,26.2-22.3,25-37.2c4.2-0.9,8.2-2.9,11.4-6
			c8.9-8.6,8.9-22.5,0-31.1c-6.6-6.5-16.4-8.1-24.6-4.8L353.1,327.5z"/>
		<path class="st4" d="M135.8,373.9c-9.1,24.5-4.5,58,19.3,58c20.9,0,29.9-25.2,28.5-42.2c4.8-1,9.3-3.2,13-6.8
			c10-9.7,10-25.6,0-35.3c-7.6-7.4-18.7-9.2-28-5.5L135.8,373.9z"/>
		<path class="st5" d="M287.3,67.8c7.1,25.9,11.1,55.4,11.1,86.8c0,44.3-7.6,93.8-30.9,136c-1.6,2.9-5.1,3.7-7.3,0
			c-23.4-39.7-30.9-94.1-30.9-136c0-31.4,4-60.9,11.1-86.8H287.3z"/>
		<path class="st6" d="M424.8,187.2c1.1,1,2.1,2,3.1,3c1.3,1.2,1.8,2.2,1.6,3c3.1,0.6,6.3,1,9.6,1.3c1.7,0.2,3.4,0.3,5.1,0.4
			c3.4,0.1,5.2-1.8,2.1-4.7c-1.1-1-2.2-2-3.2-3c-41.3-39.8-61-69.4-66.9-105.1c-0.4-2.4-0.8-4.8-1-7.2c-0.5-5.2-3.9-7.1-8-7.1h-18.3
			c4.1,0,7.5,1.9,8,7.1c0.2,2.4,0.6,4.8,1,7.2C363.8,117.8,383.5,147.4,424.8,187.2L424.8,187.2z"/>
		<path class="st7" d="M333.9,67.8h-18.3c11.1,64.7,14.7,90.7,76.6,177.7c1.1,1.7,2.2,3.3,3.4,4.9c3.4,1.2,6.8,2.3,10.4,3.4
			c1.9,0.6,3.8,1.2,5.8,1.7c3.4,0.9,5-1.2,2.9-4c-1.5-2-2.8-3.9-4.2-5.9c-31.8-44.9-48.3-73.5-58.2-99.6
			C342.9,121.4,339.3,99.2,333.9,67.8z"/>
		<path class="st2" d="M287.2,67.8h-18.3c7.1,25.9,11.1,55.4,11.1,86.8c0,40.7-6.4,85.7-25.5,125.5c1.7,3.6,3.6,7.1,5.6,10.5
			c2.2,3.7,5.7,2.9,7.3,0c20.3-36.7,28.7-78.9,30.5-118.4c0.3-6,0.4-11.8,0.4-17.6C298.3,123.2,294.3,93.7,287.2,67.8L287.2,67.8z"
			/>
		<path class="st7" d="M240.4,67.7H222c-7.1,25.9-11.1,55.4-11.1,86.8c0,13.2,0.8,27.6,2.5,42.4c6.6-8,12-16.3,16.3-24.8
			c-0.3-6-0.4-11.9-0.4-17.5c0-31.4,4-60.9,11.1-86.8V67.7z"/>
		<path class="st6" d="M193.7,67.8l-18.4-0.1c-7.5,43.6-11.6,69.6-32.4,108.6c13.4-8.3,24.1-18.9,32.4-30.4
			C184.7,121.4,188.3,99.1,193.7,67.8L193.7,67.8z"/>
		<path class="st8" d="M388.2,335.4c-2,1.9-4.2,3.4-6.6,4.6c-4.9,2.1-4.5,3.7-4.9,8.3c-0.9,10.9-6,23.2-15.6,28.1
			c2.6,1.4,5.6,2.2,9,2.2c18.3,0,26.2-22.3,25-37.2c4.2-0.9,8.2-2.9,11.4-6c8.9-8.6,8.9-22.5,0-31.1c-5.2-5.1-12.5-7.2-19.3-6.2
			c0.4,1.6,0.1,3.3-0.9,4.6c0.7,0.5,1.3,1,1.9,1.6C397.1,312.9,397.1,326.8,388.2,335.4L388.2,335.4z"/>
		<path class="st9" d="M178.2,382.8c-2.1,2-4.3,3.7-6.9,4.8c-5.8,2.5-5.6,2.1-6,8.6c-0.9,13.1-7.1,28.4-19.2,33.7
			c2.6,1.2,5.6,1.9,9,1.9c20.9,0,29.9-25.2,28.5-42.2c4.8-1,9.3-3.2,13-6.8c10-9.7,10-25.6,0-35.3c-6.2-5.9-14.7-8.3-22.7-6.9
			c0.3,1.1,0.2,2.3-0.2,3.4c1.6,1,3.1,2.1,4.5,3.5C188.2,357.2,188.2,373.1,178.2,382.8L178.2,382.8z"/>
	</g>
	<path d="M248.7,249.6c2.7,8.4,5.8,16.4,9.3,23.7c1.9,4.2,3.9,8.3,6,12.2c8.2-15.2,15.1-33.4,20-53.7c5.6-23.4,8.8-49.5,8.8-77.2
		c0-15.2-1-30-2.8-44.1c-1.7-13.1-4.1-25.5-7.1-37.2h-38c-3,11.7-5.4,24.2-7.1,37.2c-1.8,14.1-2.8,28.9-2.8,44.1
		c0,12.6,0.7,24.8,1.9,36.5c1.3,12,3.2,23.7,5.6,34.8c0.7,2.9-1.3,5.9-4.3,6.5c-3,0.7-6-1.2-6.7-4.2c-2.5-11.4-4.5-23.5-5.8-36
		c-0.1-0.6-0.1-1.2-0.2-1.8c-9.6,13.9-22.3,27.2-38.9,38.9c-19.5,13.7-44.6,25.3-76.4,33.3c-3.1,0.8-6.1-1-6.9-3.9
		c-0.5-1.6-0.1-3.3,0.8-4.5c4.6-6.3,9.1-12.6,13.6-19c4.1-5.9,8-11.6,11.8-17.2c1.7-2.5,5.2-3.3,7.8-1.6c2.7,1.7,3.4,5,1.7,7.6
		c-3.5,5.4-7.5,11.2-11.9,17.4c-1.5,2.2-3.1,4.3-4.6,6.5c23.2-7.2,42.2-16.6,57.5-27.4c20.7-14.5,34.8-31.7,44.1-49.4
		c-0.3-5.4-0.4-10.9-0.4-16.4c0-15.6,1-30.8,2.9-45.4c1.6-12.4,3.9-24.4,6.7-35.8h-34.7c-8.5,49.4-13.4,76.8-45.9,129.3
		c-1.6,2.6-5,3.5-7.7,1.9c-2.7-1.5-3.6-4.9-2-7.5c5.1-8.4,9.6-16.1,13.4-23.3c-6.3,5-13.3,9.5-21,13.3
		c-16.6,8.3-36.4,13.4-59.3,13.7c-3.1,0-5.7-2.4-5.7-5.4c-0.1-1.6,0.6-3,1.7-4c20.4-19,41.9-40.6,56.3-64.2
		c11.8-19.3,17.6-38.1,19-59.6c0.1-2.9,2.6-5.1,5.6-5.1c73.9,0,147.8,0,221.7,0c3,0,5.5,2.2,5.7,5.1c1.4,21.5,7.2,40.3,19,59.6
		c12,19.6,30.2,39.9,56.3,64.2c1.1,1,1.7,2.5,1.7,4c0,3-2.6,5.4-5.7,5.4c-22.9-0.4-42.7-5.5-59.3-13.7c-7.7-3.8-14.7-8.2-21-13.2
		c11.3,21.2,27.6,46.3,52.3,80.4c1,1.3,1.3,2.9,0.9,4.5c-0.8,2.9-3.9,4.6-6.9,3.9c-11.8-2.9-22.6-6.4-32.5-10.2
		c-10.5-4.1-20-8.6-28.6-13.4c-2.7-1.5-3.6-4.9-2-7.5c1.5-2.6,5-3.5,7.7-2c8.3,4.6,17.3,8.9,27.1,12.7c5,1.9,10.4,3.8,15.9,5.5
		c-60.5-85.2-65.5-112.5-76.1-174.5h-34.7c2.9,11.4,5.1,23.3,6.7,35.8c1.9,14.5,2.9,29.7,2.9,45.4c0,5.5-0.2,11-0.4,16.4
		c4.2,8.1,9.4,16,15.8,23.6c6.2,7.4,13.6,14.6,22.2,21.3c2.5,1.9,2.9,5.4,0.9,7.7c-1.9,2.3-5.5,2.7-7.9,0.8
		c-9.2-7.1-17.2-14.8-23.9-22.9c-3.1-3.6-5.9-7.3-8.5-11.1c-1.5,15.4-4,30.2-7.4,44c-6.1,25.3-15.1,47.5-26.1,65.2
		c-0.5,0.8-1.1,1.5-2,2c-2.7,1.5-6.2,0.7-7.8-1.9c-4.1-6.6-7.9-13.9-11.5-21.8c-3.5-7.8-6.7-16.2-9.5-25c-1-2.9,0.7-6,3.7-6.9
		C244.6,245.1,247.8,246.7,248.7,249.6L248.7,249.6z M104.1,404.9H93.5c-3.2,0-5.7-2.5-5.7-5.5c0-3.1,2.6-5.5,5.7-5.5h13.9
		l10.7-10.4c-2.5,0.2-5,0.3-7.4,0.3c-8.5,0-16.7-1.4-23.4-4.4c-7.3-3.2-12.9-8.3-15.5-15.3c-1.4-3.6-1.8-7.3-1.5-11.1
		c0.9-10.9,7.9-18.8,17.1-23.9c8.4-4.7,18.8-7,27.9-7.1c0.5-1.3,1.1-2.5,1.8-3.7c1.4-2.6,3.2-5,5.4-7.1c6.1-5.9,14.2-8.9,22.2-8.9
		s16.1,3,22.2,8.9c4.6,4.4,7.4,9.8,8.6,15.5c0.5,2.7,0.7,5.5,0.5,8.2c2.8-0.2,5.7,0,8.5,0.5c5.9,1.1,11.5,3.9,16,8.3
		c6.1,5.9,9.2,13.7,9.2,21.5c0,7.8-3.1,15.5-9.2,21.5c-2.2,2.2-4.6,3.9-7.3,5.3c-1.3,0.7-2.6,1.2-3.9,1.7c0,2.5-0.2,5.1-0.6,7.7
		c-0.6,4-1.7,8.1-3.2,12c-1.1,2.8-4.4,4.3-7.3,3.2c-2.9-1-4.4-4.2-3.3-7c1.2-3.1,2.1-6.5,2.6-9.8c0.5-3.4,0.7-6.8,0.4-9.8
		c-0.2-2.7,1.7-5.2,4.5-5.8c1.9-0.3,3.8-1,5.5-1.9c1.6-0.9,3.2-2,4.6-3.4c3.9-3.8,5.9-8.8,5.9-13.8s-2-10-5.9-13.8
		c-2.9-2.8-6.5-4.6-10.2-5.3c-3.6-0.6-7.2-0.4-10.6,0.7l-31.1,30.1c-2.4,6.7-3.6,14.2-3.6,21.3c0,6.8,1.1,13.2,3.5,18.2
		c2.1,4.5,5.2,7.9,9.3,9.3c3.6,1.3,8.3,1,11.9-0.4c2.9-1.2,6.2,0.1,7.4,2.9c1.2,2.8-0.1,6-3,7.2c-6.3,2.5-13.6,2.9-20.1,0.6
		c-7.2-2.6-12.4-8-15.7-15.1c-3-6.5-4.5-14.5-4.5-22.7c0-2.4,0.2-4.8,0.4-7.2l-10.7,10.4v13.5c0,3.1-2.6,5.5-5.7,5.5
		c-3.2,0-5.7-2.5-5.7-5.5V404.9z M324.5,355.2h-8.7c-3.1,0-5.6-2.5-5.6-5.5c0-3.1,2.5-5.5,5.6-5.5h12l7.9-7.7
		c-1.6,0.1-3.1,0.2-4.7,0.2c-7.6,0-14.9-1.3-20.9-3.9c-6.6-2.9-11.6-7.4-14-13.8c-1.2-3.2-1.6-6.6-1.3-10
		c0.8-9.8,7.1-16.9,15.4-21.5c7.4-4.1,16.4-6.2,24.4-6.3c1.4-3.4,3.6-6.6,6.3-9.3c5.6-5.3,12.8-8,20.1-8c7.2,0,14.5,2.6,20,8
		c4,4,6.6,8.9,7.7,14c0.4,2.2,0.6,4.5,0.5,6.7c2.3-0.1,4.6,0,6.9,0.5c5.3,1.1,10.3,3.6,14.4,7.5c5.5,5.3,8.3,12.4,8.3,19.4
		s-2.8,14-8.3,19.4c-2.7,2.6-6,4.7-9.6,6.1c-0.2,7.7-2.3,16.5-6.5,23.6c-4.7,8-12.1,14.1-22.2,14.9c-3.5,0.3-7-0.1-10.3-1.3
		c-6.6-2.3-11.3-7.2-14.3-13.6c-2.7-5.8-4-12.9-4-20.2c0-1.5,0.1-3.1,0.2-4.6l-7.9,7.7v11.6c0,3.1-2.5,5.5-5.7,5.5s-5.7-2.5-5.7-5.5
		L324.5,355.2z M377.7,287.9c-0.7-3.1-2.2-6-4.7-8.4c-3.3-3.2-7.7-4.8-12-4.8s-8.7,1.6-12,4.8c-2.3,2.3-3.9,5.1-4.6,8.3
		c-0.6,2.8-3.2,4.6-6,4.4c-0.8-0.1-1.7-0.1-2.7-0.1c-6.5,0-13.9,1.6-19.8,4.9c-5.3,2.9-9.2,7.2-9.7,12.8c-0.1,1.8,0.1,3.8,0.7,5.5
		c1.2,3.3,4.1,5.8,8,7.5c4.5,2,10.1,2.9,16.2,2.9c6.3,0,12.9-1,18.9-2.9l27.1-26.3C378,293.7,378.2,290.8,377.7,287.9z M357.9,330.5
		c-2,5.9-3,12.3-3,18.4c0,5.8,1,11.4,3,15.7c1.8,3.8,4.4,6.6,7.8,7.8c1.8,0.6,3.8,0.7,5.7,0.6c5.8-0.5,10.2-4.3,13.2-9.4
		c3.3-5.7,5-12.9,5-19.2c0-0.9,0-1.8-0.1-2.6l0,0c-0.2-2.7,1.7-5.2,4.5-5.8c3.2-0.7,6.1-2.2,8.5-4.5c3.3-3.2,5-7.4,5-11.6
		c0-4.3-1.7-8.5-5-11.7c-2.5-2.4-5.5-3.9-8.6-4.5c-2.9-0.6-6-0.4-8.8,0.5L357.9,330.5z M159.1,318.7c-3.9-3.8-9.1-5.7-14.2-5.7
		c-5.1,0-10.3,1.9-14.2,5.7c-1.5,1.4-2.6,2.9-3.5,4.5c-1,1.7-1.6,3.5-2,5.3c-0.6,2.8-3.2,4.6-6,4.4c-1-0.1-2.1-0.1-3.1-0.1
		c-7.5,0-16.1,1.8-22.9,5.6c-6.2,3.5-10.9,8.5-11.4,15.2c-0.2,2.1,0,4.5,0.8,6.5c1.4,3.9,4.9,6.9,9.5,8.9c5.2,2.3,11.8,3.4,18.8,3.4
		c7.3,0,15-1.1,21.9-3.4l31-30.1c1.2-3.3,1.4-6.8,0.7-10.2C163.7,325.1,161.9,321.7,159.1,318.7z M397.4,177.3
		c11.5,5.7,24.6,9.7,39.4,11.5c-21-20.5-36.4-38.5-47.2-56.1c-11.8-19.4-18-38.2-20.1-59.4h-28.9c4.7,27.4,8.4,47.9,16.8,70.2
		C367.2,156.9,380.5,168.9,397.4,177.3z M187,73.2h-29c-2.1,21.2-8.3,40.1-20.1,59.4c-10.7,17.6-26.1,35.6-47.2,56.1
		c14.8-1.8,28-5.8,39.4-11.5c17-8.4,30.3-20.4,40.1-33.8c8.4-22.2,12.1-42.7,16.8-70.1V73.2z"/>
</g>
</svg>
