<?xml version="1.0" encoding="utf-8"?>
<!-- Generator: Adobe Illustrator 23.0.3, SVG Export Plug-In . SVG Version: 6.00 Build 0)  -->
<svg version="1.1" id="Capa_1" xmlns="http://www.w3.org/2000/svg" xmlns:xlink="http://www.w3.org/1999/xlink" x="0px" y="0px"
	 viewBox="0 0 512 512" style="enable-background:new 0 0 512 512;" xml:space="preserve">
<style type="text/css">
	.st0{fill:#FFFFFF;}
	.st1{fill-rule:evenodd;clip-rule:evenodd;fill:#66B394;}
	.st2{fill-rule:evenodd;clip-rule:evenodd;fill:#B3E59F;}
	.st3{fill-rule:evenodd;clip-rule:evenodd;fill:#62D9FA;}
	.st4{fill-rule:evenodd;clip-rule:evenodd;fill:#FD91BA;}
	.st5{fill-rule:evenodd;clip-rule:evenodd;fill:#D6F6B2;}
	.st6{fill-rule:evenodd;clip-rule:evenodd;fill:#5AA687;}
	.st7{fill-rule:evenodd;clip-rule:evenodd;fill:#95D6A4;}
	.st8{fill-rule:evenodd;clip-rule:evenodd;fill:#57D0F2;}
	.st9{fill-rule:evenodd;clip-rule:evenodd;fill:#F585B0;}
</style>
<circle class="st0" cx="256" cy="256" r="247.5"/>
<ellipse class="st0" cx="243.2" cy="256" rx="234.7" ry="247.5"/>
<g>
	<path d="M256,0C114.6,0,0,114.6,0,256s114.6,256,256,256s256-114.6,256-256C511.8,114.7,397.3,0.2,256,0z M256,494.9
		C124,494.9,17.1,388,17.1,256S124,17.1,256,17.1S494.9,124,494.9,256C494.8,387.9,387.9,494.8,256,494.9z"/>
</g>
<g>
	<g>
		<path class="st1" d="M359.5,432.2c4.1,0,7.5-1.9,8-7.1c0.3-2.4,0.6-4.8,1-7.2c5.9-35.7,25.6-65.3,66.9-105.1c1.1-1,2.1-2,3.2-3
			c3-2.9,1.2-4.9-2.1-4.7c-1.7,0.1-3.4,0.2-5.1,0.4c-83.3,8.1-117.3,84.7-105.3,126.7L359.5,432.2z"/>
		<path class="st1" d="M152.5,432.2c-4.1,0-7.5-1.9-8-7.1c-0.2-2.4-0.6-4.8-1-7.2c-5.9-35.7-25.6-65.3-66.9-105.1
			c-1.1-1-2.1-2-3.2-3c-3-2.9-1.2-4.9,2.1-4.7c1.7,0.1,3.4,0.2,5.1,0.4c83.3,8.1,117.3,84.7,105.3,126.7L152.5,432.2z"/>
		<path class="st2" d="M326.1,432.2c11.1-64.7,14.8-90.7,76.6-177.7c1.4-2,2.7-3.8,4.2-5.9c2-2.9,0.4-4.9-2.9-4
			c-2,0.6-3.8,1.1-5.8,1.7C272.6,283.9,266,383.6,279.4,432.2H326.1z"/>
		<path class="st2" d="M185.9,432.2c-11.1-64.7-14.7-90.7-76.6-177.7c-1.4-2-2.7-3.8-4.2-5.9c-2-2.9-0.4-4.9,2.9-4
			c2,0.6,3.8,1.1,5.8,1.7C239.3,283.9,246,383.6,232.6,432.2H185.9z"/>
		<path class="st3" d="M166.8,172.6c22.2-7.8,52.7-3.8,52.7,16.5c0,17.8-23,25.5-38.4,24.3c-0.9,4-3,7.8-6.2,11
			c-8.9,8.6-23.2,8.6-32.1,0c-6.6-6.5-8.3-15.9-4.9-23.9L166.8,172.6z"/>
		<path class="st4" d="M383.9,126.2c25.3-8.9,59.9-4.4,59.9,18.7c0,20.2-26,28.9-43.6,27.6c-1,4.5-3.3,8.9-7,12.5
			c-10,9.8-26.3,9.8-36.4,0c-7.5-7.3-9.4-18.1-5.6-27.1L383.9,126.2z"/>
		<path class="st3" d="M166.7,172.5c8-21.6,3.9-51.1-17-51.1c-18.3,0-26.2,22.3-25,37.2c-4.2,0.9-8.2,2.9-11.4,6
			c-8.9,8.6-8.9,22.5,0,31.1c6.6,6.5,16.4,8.1,24.6,4.8L166.7,172.5z"/>
		<path class="st4" d="M384,126.1c9.1-24.5,4.5-58-19.3-58c-20.9,0-29.9,25.2-28.5,42.2c-4.8,1-9.3,3.2-13,6.8
			c-10,9.7-10,25.6,0,35.3c7.6,7.4,18.7,9.2,28,5.5L384,126.1z"/>
		<path class="st5" d="M232.5,432.2c-7.1-25.9-11.1-55.4-11.1-86.8c0-44.3,7.6-93.8,30.9-136c1.6-2.9,5.1-3.7,7.3,0
			c23.4,39.7,30.9,94.1,30.9,136c0,31.4-4,60.9-11.1,86.8H232.5z"/>
		<path class="st6" d="M95,312.8c-1.1-1-2.1-2-3.1-3c-1.3-1.2-1.8-2.2-1.6-3c-3.1-0.6-6.3-1-9.6-1.3c-1.7-0.2-3.4-0.3-5.1-0.4
			c-3.4-0.1-5.2,1.8-2.1,4.7c1.1,1,2.2,2,3.2,3c41.3,39.8,61,69.4,66.9,105.1c0.4,2.4,0.8,4.8,1,7.2c0.5,5.2,3.9,7.1,8,7.1h18.3
			c-4.1,0-7.5-1.9-8-7.1c-0.2-2.4-0.6-4.8-1-7.2C156,382.2,136.3,352.6,95,312.8L95,312.8z"/>
		<path class="st7" d="M185.9,432.2h18.3c-11.1-64.7-14.7-90.7-76.6-177.7c-1.1-1.7-2.2-3.3-3.4-4.9c-3.4-1.2-6.8-2.3-10.4-3.4
			c-1.9-0.6-3.8-1.2-5.8-1.7c-3.4-0.9-5,1.2-2.9,4c1.5,2,2.8,3.9,4.2,5.9c31.8,44.9,48.3,73.5,58.2,99.6
			C176.9,378.6,180.5,400.8,185.9,432.2z"/>
		<path class="st2" d="M232.6,432.2h18.3c-7.1-25.9-11.1-55.4-11.1-86.8c0-40.7,6.4-85.7,25.5-125.5c-1.7-3.6-3.6-7.1-5.6-10.5
			c-2.2-3.7-5.7-2.9-7.3,0c-20.3,36.7-28.7,78.9-30.5,118.4c-0.3,6-0.4,11.8-0.4,17.6C221.5,376.8,225.5,406.3,232.6,432.2
			L232.6,432.2z"/>
		<path class="st7" d="M279.4,432.3h18.4c7.1-25.9,11.1-55.4,11.1-86.8c0-13.2-0.8-27.6-2.5-42.4c-6.6,8-12,16.3-16.3,24.8
			c0.3,6,0.4,11.9,0.4,17.5c0,31.4-4,60.9-11.1,86.8V432.3z"/>
		<path class="st6" d="M326.1,432.2l18.4,0.1c7.5-43.6,11.6-69.6,32.4-108.6c-13.4,8.3-24.1,18.9-32.4,30.4
			C335.1,378.6,331.5,400.9,326.1,432.2L326.1,432.2z"/>
		<path class="st8" d="M131.6,164.6c2-1.9,4.2-3.4,6.6-4.6c4.9-2.1,4.5-3.7,4.9-8.3c0.9-10.9,6-23.2,15.6-28.1
			c-2.6-1.4-5.6-2.2-9-2.2c-18.3,0-26.2,22.3-25,37.2c-4.2,0.9-8.2,2.9-11.4,6c-8.9,8.6-8.9,22.5,0,31.1c5.2,5.1,12.5,7.2,19.3,6.2
			c-0.4-1.6-0.1-3.3,0.9-4.6c-0.7-0.5-1.3-1-1.9-1.6C122.7,187.1,122.7,173.2,131.6,164.6L131.6,164.6z"/>
		<path class="st9" d="M341.6,117.2c2.1-2,4.3-3.7,6.9-4.8c5.8-2.5,5.6-2.1,6-8.6c0.9-13.1,7.1-28.4,19.2-33.7
			c-2.6-1.2-5.6-1.9-9-1.9c-20.9,0-29.9,25.2-28.5,42.2c-4.8,1-9.3,3.2-13,6.8c-10,9.7-10,25.6,0,35.3c6.2,5.9,14.7,8.3,22.7,6.9
			c-0.3-1.1-0.2-2.3,0.2-3.4c-1.6-1-3.1-2.1-4.5-3.5C331.6,142.8,331.6,126.9,341.6,117.2L341.6,117.2z"/>
	</g>
	<path d="M271.1,250.4c-2.7-8.4-5.8-16.4-9.3-23.7c-1.9-4.2-3.9-8.3-6-12.2c-8.2,15.2-15.1,33.4-20,53.7
		c-5.6,23.4-8.8,49.5-8.8,77.2c0,15.2,1,30,2.8,44.1c1.7,13.1,4.1,25.5,7.1,37.2h38c3-11.7,5.4-24.2,7.1-37.2
		c1.8-14.1,2.8-28.9,2.8-44.1c0-12.6-0.7-24.8-1.9-36.5c-1.3-12-3.2-23.7-5.6-34.8c-0.7-2.9,1.3-5.9,4.3-6.5c3-0.7,6,1.2,6.7,4.2
		c2.5,11.4,4.5,23.5,5.8,36c0.1,0.6,0.1,1.2,0.2,1.8c9.6-13.9,22.3-27.2,38.9-38.9c19.5-13.7,44.6-25.3,76.4-33.3
		c3.1-0.8,6.1,1,6.9,3.9c0.5,1.6,0.1,3.3-0.8,4.5c-4.6,6.3-9.1,12.6-13.6,19c-4.1,5.9-8,11.6-11.8,17.2c-1.7,2.5-5.2,3.3-7.8,1.6
		c-2.7-1.7-3.4-5-1.7-7.6c3.5-5.4,7.5-11.2,11.9-17.4c1.5-2.2,3.1-4.3,4.6-6.5c-23.2,7.2-42.2,16.6-57.5,27.4
		c-20.7,14.5-34.8,31.7-44.1,49.4c0.3,5.4,0.4,10.9,0.4,16.4c0,15.6-1,30.8-2.9,45.4c-1.6,12.4-3.9,24.4-6.7,35.8h34.7
		c8.5-49.4,13.4-76.8,45.9-129.3c1.6-2.6,5-3.5,7.7-1.9c2.7,1.5,3.6,4.9,2,7.5c-5.1,8.4-9.6,16.1-13.4,23.3c6.3-5,13.3-9.5,21-13.3
		c16.6-8.3,36.4-13.4,59.3-13.7c3.1,0,5.7,2.4,5.7,5.4c0.1,1.6-0.6,3-1.7,4c-20.4,19-41.9,40.6-56.3,64.2
		c-11.8,19.3-17.6,38.1-19,59.6c-0.1,2.9-2.6,5.1-5.6,5.1c-73.9,0-147.8,0-221.7,0c-3,0-5.5-2.2-5.7-5.1c-1.4-21.5-7.2-40.3-19-59.6
		c-12-19.6-30.2-39.9-56.3-64.2c-1.1-1-1.7-2.5-1.7-4c0-3,2.6-5.4,5.7-5.4c22.9,0.4,42.7,5.5,59.3,13.7c7.7,3.8,14.7,8.2,21,13.2
		c-11.3-21.2-27.6-46.3-52.3-80.4c-1-1.3-1.3-2.9-0.9-4.5c0.8-2.9,3.9-4.6,6.9-3.9c11.8,2.9,22.6,6.4,32.5,10.2
		c10.5,4.1,20,8.6,28.6,13.4c2.7,1.5,3.6,4.9,2,7.5c-1.5,2.6-5,3.5-7.7,2c-8.3-4.6-17.3-8.9-27.1-12.7c-5-1.9-10.4-3.8-15.9-5.5
		c60.5,85.2,65.5,112.5,76.1,174.5h34.7c-2.9-11.4-5.1-23.3-6.7-35.8c-1.9-14.5-2.9-29.7-2.9-45.4c0-5.5,0.2-11,0.4-16.4
		c-4.2-8.1-9.4-16-15.8-23.6c-6.2-7.4-13.6-14.6-22.2-21.3c-2.5-1.9-2.9-5.4-0.9-7.7c1.9-2.3,5.5-2.7,7.9-0.8
		c9.2,7.1,17.2,14.8,23.9,22.9c3.1,3.6,5.9,7.3,8.5,11.1c1.5-15.4,4-30.2,7.4-44c6.1-25.3,15.1-47.5,26.1-65.2c0.5-0.8,1.1-1.5,2-2
		c2.7-1.5,6.2-0.7,7.8,1.9c4.1,6.6,7.9,13.9,11.5,21.8c3.5,7.8,6.7,16.2,9.5,25c1,2.9-0.7,6-3.7,6.9
		C275.2,254.9,272,253.3,271.1,250.4L271.1,250.4z M415.7,95.1h10.6c3.2,0,5.7,2.5,5.7,5.5c0,3.1-2.6,5.5-5.7,5.5h-13.9l-10.7,10.4
		c2.5-0.2,5-0.3,7.4-0.3c8.5,0,16.7,1.4,23.4,4.4c7.3,3.2,12.9,8.3,15.5,15.3c1.4,3.6,1.8,7.3,1.5,11.1
		c-0.9,10.9-7.9,18.8-17.1,23.9c-8.4,4.7-18.8,7-27.9,7.1c-0.5,1.3-1.1,2.5-1.8,3.7c-1.4,2.6-3.2,5-5.4,7.1
		c-6.1,5.9-14.2,8.9-22.2,8.9s-16.1-3-22.2-8.9c-4.6-4.4-7.4-9.8-8.6-15.5c-0.5-2.7-0.7-5.5-0.5-8.2c-2.8,0.2-5.7,0-8.5-0.5
		c-5.9-1.1-11.5-3.9-16-8.3c-6.1-5.9-9.2-13.7-9.2-21.5s3.1-15.5,9.2-21.5c2.2-2.2,4.6-3.9,7.3-5.3c1.3-0.7,2.6-1.2,3.9-1.7
		c0-2.5,0.2-5.1,0.6-7.7c0.6-4,1.7-8.1,3.2-12c1.1-2.8,4.4-4.3,7.3-3.2c2.9,1,4.4,4.2,3.3,7c-1.2,3.1-2.1,6.5-2.6,9.8
		c-0.5,3.4-0.7,6.8-0.4,9.8c0.2,2.7-1.7,5.2-4.5,5.8c-1.9,0.3-3.8,1-5.5,1.9c-1.6,0.9-3.2,2-4.6,3.4c-3.9,3.8-5.9,8.8-5.9,13.8
		s2,10,5.9,13.8c2.9,2.8,6.5,4.6,10.2,5.3c3.6,0.6,7.2,0.4,10.6-0.7l31.1-30.1c2.4-6.7,3.6-14.2,3.6-21.3c0-6.8-1.1-13.2-3.5-18.2
		c-2.1-4.5-5.2-7.9-9.3-9.3c-3.6-1.3-8.3-1-11.9,0.4c-2.9,1.2-6.2-0.1-7.4-2.9c-1.2-2.8,0.1-6,3-7.2c6.3-2.5,13.6-2.9,20.1-0.6
		c7.2,2.6,12.4,8,15.7,15.1c3,6.5,4.5,14.5,4.5,22.7c0,2.4-0.2,4.8-0.4,7.2l10.7-10.4V85.2c0-3.1,2.6-5.5,5.7-5.5
		c3.2,0,5.7,2.5,5.7,5.5V95.1z M195.3,144.8h8.7c3.1,0,5.6,2.5,5.6,5.5c0,3.1-2.5,5.5-5.6,5.5h-12l-7.9,7.7c1.6-0.1,3.1-0.2,4.7-0.2
		c7.6,0,14.9,1.3,20.9,3.9c6.6,2.9,11.6,7.4,14,13.8c1.2,3.2,1.6,6.6,1.3,10c-0.8,9.8-7.1,16.9-15.4,21.5
		c-7.4,4.1-16.4,6.2-24.4,6.3c-1.4,3.4-3.6,6.6-6.3,9.3c-5.6,5.3-12.8,8-20.1,8c-7.2,0-14.5-2.6-20-8c-4-4-6.6-8.9-7.7-14
		c-0.4-2.2-0.6-4.5-0.5-6.7c-2.3,0.1-4.6,0-6.9-0.5c-5.3-1.1-10.3-3.6-14.4-7.5c-5.5-5.3-8.3-12.4-8.3-19.4s2.8-14,8.3-19.4
		c2.7-2.6,6-4.7,9.6-6.1c0.2-7.7,2.3-16.5,6.5-23.6c4.7-8,12.1-14.1,22.2-14.9c3.5-0.3,7,0.1,10.3,1.3c6.6,2.3,11.3,7.2,14.3,13.6
		c2.7,5.8,4,12.9,4,20.2c0,1.5-0.1,3.1-0.2,4.6l7.9-7.7v-11.6c0-3.1,2.5-5.5,5.7-5.5s5.7,2.5,5.7,5.5L195.3,144.8z M142.1,212.1
		c0.7,3.1,2.2,6,4.7,8.4c3.3,3.2,7.7,4.8,12,4.8s8.7-1.6,12-4.8c2.3-2.3,3.9-5.1,4.6-8.3c0.6-2.8,3.2-4.6,6-4.4
		c0.8,0.1,1.7,0.1,2.7,0.1c6.5,0,13.9-1.6,19.8-4.9c5.3-2.9,9.2-7.2,9.7-12.8c0.1-1.8-0.1-3.8-0.7-5.5c-1.2-3.3-4.1-5.8-8-7.5
		c-4.5-2-10.1-2.9-16.2-2.9c-6.3,0-12.9,1-18.9,2.9l-27.1,26.3C141.8,206.3,141.6,209.2,142.1,212.1z M161.9,169.5
		c2-5.9,3-12.3,3-18.4c0-5.8-1-11.4-3-15.7c-1.8-3.8-4.4-6.6-7.8-7.8c-1.8-0.6-3.8-0.7-5.7-0.6c-5.8,0.5-10.2,4.3-13.2,9.4
		c-3.3,5.7-5,12.9-5,19.2c0,0.9,0,1.8,0.1,2.6l0,0c0.2,2.7-1.7,5.2-4.5,5.8c-3.2,0.7-6.1,2.2-8.5,4.5c-3.3,3.2-5,7.4-5,11.6
		c0,4.3,1.7,8.5,5,11.7c2.5,2.4,5.5,3.9,8.6,4.5c2.9,0.6,6,0.4,8.8-0.5L161.9,169.5z M360.7,181.3c3.9,3.8,9.1,5.7,14.2,5.7
		c5.1,0,10.3-1.9,14.2-5.7c1.5-1.4,2.6-2.9,3.5-4.5c1-1.7,1.6-3.5,2-5.3c0.6-2.8,3.2-4.6,6-4.4c1,0.1,2.1,0.1,3.1,0.1
		c7.5,0,16.1-1.8,22.9-5.6c6.2-3.5,10.9-8.5,11.4-15.2c0.2-2.1,0-4.5-0.8-6.5c-1.4-3.9-4.9-6.9-9.5-8.9c-5.2-2.3-11.8-3.4-18.8-3.4
		c-7.3,0-15,1.1-21.9,3.4l-31,30.1c-1.2,3.3-1.4,6.8-0.7,10.2C356.1,174.9,357.9,178.3,360.7,181.3z M122.4,322.7
		C110.9,317,97.8,313,83,311.2c21,20.5,36.4,38.5,47.2,56.1c11.8,19.4,18,38.2,20.1,59.4h28.9c-4.7-27.4-8.4-47.9-16.8-70.2
		C152.6,343.1,139.3,331.1,122.4,322.7z M332.8,426.8h29c2.1-21.2,8.3-40.1,20.1-59.4c10.7-17.6,26.1-35.6,47.2-56.1
		c-14.8,1.8-28,5.8-39.4,11.5c-17,8.4-30.3,20.4-40.1,33.8c-8.4,22.2-12.1,42.7-16.8,70.1V426.8z"/>
</g>
</svg>
