<?xml version="1.0" encoding="utf-8"?>
<!-- Generator: Adobe Illustrator 23.0.3, SVG Export Plug-In . SVG Version: 6.00 Build 0)  -->
<svg version="1.1" id="Capa_1" xmlns="http://www.w3.org/2000/svg" xmlns:xlink="http://www.w3.org/1999/xlink" x="0px" y="0px"
	 viewBox="0 0 512 512" style="enable-background:new 0 0 512 512;" xml:space="preserve">
<style type="text/css">
	.st0{fill:#FFDF2B;}
	.st1{fill:#FFFFFF;}
	.st2{fill:none;stroke:#000000;stroke-width:10;stroke-miterlimit:10;}
</style>
<g>
	<path class="st0" d="M376,51.9L42.7,367c10.1,19.8,23.2,38.5,39.2,55.5L429.2,94.2C413.1,77.3,395.2,63.2,376,51.9z"/>
	<path class="st1" d="M429.2,94.2L82,422.5c16.1,17,34,31.1,53.2,42.3l333.2-315C458.3,130,445.2,111.2,429.2,94.2z"/>
	<path class="st0" d="M419.7,432c41.6-39.4,65.9-90.1,72.7-142.8L277.3,496.3C328.8,491.6,379.2,470.3,419.7,432z"/>
	<path class="st1" d="M91.5,84.8C51,123,26.8,172.1,19.2,223.2L238.2,20.1C185.2,23.9,133.1,45.4,91.5,84.8z"/>
	<path class="st0" d="M238.2,20.1L19.2,223.2c-4,26.7-3.4,54,1.8,80.6L309.8,25.6C286.3,20.2,262.1,18.3,238.2,20.1z"/>
	<path class="st1" d="M309.8,25.6L21,303.9c4.2,21.7,11.4,42.9,21.7,63.1L376,51.9C355.1,39.8,332.8,31,309.8,25.6z"/>
	<path class="st1" d="M277.3,496.3l215.1-207.1c3.1-23.8,2.6-48-1.5-71.7L197,490C223.2,496.6,250.4,498.8,277.3,496.3z"/>
	<path class="st0" d="M490.9,217.5c-4-23.3-11.5-46.1-22.5-67.7l-333.2,315c19.5,11.4,40.3,19.8,61.8,25.2L490.9,217.5z"/>
	<path d="M79.7,72.3C-23,169.5-27.6,331.5,69.6,434.2s259.1,107.3,361.9,10.2s107.3-259.1,10.2-361.9C344.4-20,182.6-24.6,79.7,72.3
		z M499,282.8l0.3-0.3L499,282.8c-7.2,54.4-32.4,106.7-75.3,147.3c-41.8,39.5-93.7,61.6-146.8,66.6L265.2,508l11.8-11.3
		c-27.1,2.5-54.5,0.6-81-5.7l-5.4,5l5.4-5c-21.7-5.2-42.8-13.3-62.7-24.4l-0.7,0.6l0.7-0.6c-21.5-12-41.6-27.4-59.5-46.3
		c-93.9-99.3-89.5-256,9.8-349.9s256-89.5,349.9,9.8C486.9,136.6,508.5,211.5,499,282.8z"/>
	<path d="M83.7,70.4c-99.3,93.9-103.7,250.5-9.8,349.9c17.8,18.9,37.9,34.3,59.5,46.3l1.9-1.8C116,453.6,98,439.5,82,422.5
		c-16.1-17-29.1-35.7-39.2-55.5l0,0l0,0c-10.3-20.1-17.5-41.4-21.7-63.1l-3.8,3.7l3.8-3.7c-5.1-26.6-5.7-53.9-1.8-80.6l-9.8,9.1
		l9.8-9.1C26.8,172.1,51,123,91.5,84.8c41.7-39.4,93.7-60.8,146.7-64.7l9.5-8.8l-9.5,8.8c24-1.7,48.1,0.1,71.6,5.6l7-6.8l-7,6.8
		c23,5.3,45.4,14.1,66.2,26.3l3.1-3l-3.1,3c19.2,11.2,37.2,25.3,53.2,42.3l6.1-5.8l-6.1,5.8c16,17,29.1,35.7,39.2,55.6l0.6-0.6
		l-0.6,0.6c11,21.5,18.5,44.4,22.5,67.7l4.7-4.4l-4.7,4.4c4.1,23.7,4.6,47.9,1.5,71.7l6.6-6.4c9.4-71.4-12.2-146.2-65.5-202.6
		C339.7-19.1,183-23.5,83.7,70.4z"/>
	<path d="M197,490l-1,0.9c26.5,6.3,53.9,8.3,81,5.7l0.4-0.3C250.4,498.8,223.2,496.6,197,490z"/>
	<path d="M419.7,432c-40.5,38.3-90.9,59.7-142.4,64.3l-0.4,0.3c53.1-5,105-27.1,146.8-66.6c43-40.6,68.1-92.9,75.3-147.3l-6.6,6.4
		C485.6,341.9,461.3,392.6,419.7,432z"/>
	<path d="M135.2,464.8l-1.9,1.8c19.9,11.1,41,19.2,62.7,24.4l1-0.9C175.5,484.6,154.7,476.2,135.2,464.8z"/>
</g>
<g>
	<path d="M79.2,69.8C-23.6,166.9-28.1,328.9,69,431.7S328.2,539,430.9,441.9S538.2,182.7,441.1,80C343.9-22.6,182-27.1,79.2,69.8z
		 M419.2,429.4c-95.9,90.7-247,86.4-337.7-9.5S-5,172.9,90.9,82.2s247-86.4,337.7,9.5C519.2,187.6,515,338.8,419.2,429.4z"/>
</g>
<line class="st2" x1="8.9" y1="229.8" x2="247.2" y2="8.7"/>
<line class="st2" x1="16.7" y1="305" x2="316.3" y2="16.3"/>
<line class="st2" x1="42.2" y1="364.4" x2="378.6" y2="46.5"/>
<line class="st2" x1="81.5" y1="420" x2="434.8" y2="86"/>
<line class="st2" x1="264.7" y1="505.5" x2="498.8" y2="280"/>
<line class="st2" x1="190" y1="493.5" x2="495.1" y2="210.6"/>
<line class="st2" x1="132.1" y1="464.7" x2="468.5" y2="146.7"/>
</svg>
