<?xml version="1.0" encoding="utf-8"?>
<!-- Generator: Adobe Illustrator 23.0.3, SVG Export Plug-In . SVG Version: 6.00 Build 0)  -->
<svg version="1.1" id="Capa_1" xmlns="http://www.w3.org/2000/svg" xmlns:xlink="http://www.w3.org/1999/xlink" x="0px" y="0px"
	 viewBox="0 0 512 512" style="enable-background:new 0 0 512 512;" xml:space="preserve">
<style type="text/css">
	.st0{fill:#FFDF2B;}
	.st1{fill:#FFFFFF;}
	.st2{fill:none;stroke:#000000;stroke-width:10;stroke-miterlimit:10;}
</style>
<g>
	<rect x="356.1" y="83.9" transform="matrix(0.796 -0.6053 0.6053 0.796 7.9293 258.5675)" class="st0" width="63" height="67.3"/>
	
		<rect x="396.8" y="137.4" transform="matrix(0.796 -0.6053 0.6053 0.796 -16.1921 294.1552)" class="st1" width="63" height="67.3"/>
	
		<rect x="291.6" y="126.8" transform="matrix(0.796 -0.6053 0.6053 0.796 -29.608 233.1246)" class="st1" width="79" height="67.3"/>
	<polygon class="st0" points="279.3,157.6 342.2,109.8 303.3,58.7 240.9,107.1 	"/>
	<polygon class="st1" points="399.2,315.3 462.5,268.1 423.6,217 360.8,264.8 	"/>
	
		<rect x="332.3" y="180.4" transform="matrix(0.796 -0.6053 0.6053 0.796 -53.7294 268.7124)" class="st0" width="79" height="67.3"/>
	<polygon class="st0" points="240.9,107.1 207.6,63.3 147.6,108 181.8,153 	"/>
	<path class="st0" d="M122.3,199l-35-46.1l-58.9,43.9c-0.6,2.3-1.1,4.7-1.6,7l33.1,43.5L122.3,199z"/>
	<path class="st1" d="M62.5,120.3c-16,23.6-27.3,49.6-34,76.6L87.3,153L62.5,120.3z"/>
	<path class="st1" d="M26.8,203.9c-5.1,23.8-6.6,48.2-4.3,72.6l37.4-29L26.8,203.9z"/>
	<path class="st0" d="M147.6,108l-32.8-43.2c-20.8,16-38.3,34.8-52.3,55.4L87.3,153L147.6,108z"/>
	<polygon class="st1" points="303.3,58.7 270.9,16.1 207.6,63.3 240.9,107.1 	"/>
	<polygon class="st1" points="373.3,404.9 432.4,359.1 399.2,315.3 339.2,360 	"/>
	<polygon class="st1" points="122.3,199 181.8,153 147.6,108 87.3,153 	"/>
	<polygon class="st1" points="122.3,199 59.9,247.5 97,296.2 159.9,248.4 	"/>
	<polygon class="st1" points="279.3,157.6 240.9,107.1 181.8,153 219.7,202.9 	"/>
	
		<rect x="232.5" y="173.4" transform="matrix(0.796 -0.6053 0.6053 0.796 -70.2702 205.5637)" class="st0" width="74.8" height="67.3"/>
	<polygon class="st0" points="219.7,202.9 181.8,153 122.3,199 159.9,248.4 	"/>
	
		<rect x="213.3" y="272.4" transform="matrix(0.796 -0.6053 0.6053 0.796 -134.0437 214.2752)" class="st0" width="75.2" height="67.3"/>
	
		<rect x="172.6" y="218.8" transform="matrix(0.796 -0.6053 0.6053 0.796 -109.9223 178.6875)" class="st1" width="75.2" height="67.3"/>
	<path class="st0" d="M97,296.2l-37.1-48.7l-37.4,29c1.3,14.5,4,28.9,8,43l13.1,17.3L97,296.2z"/>
	
		<rect x="273.2" y="227" transform="matrix(0.796 -0.6053 0.6053 0.796 -94.3916 241.1514)" class="st1" width="74.8" height="67.3"/>
	<rect x="150" y="319" transform="matrix(0.796 -0.6053 0.6053 0.796 -174.8005 186.6502)" class="st1" width="79" height="67.3"/>
	<polygon class="st0" points="278.9,404.9 313.9,450.9 373.3,404.9 339.2,360 	"/>
	
		<rect x="109.3" y="265.4" transform="matrix(0.796 -0.6053 0.6053 0.796 -150.679 151.0625)" class="st0" width="79" height="67.3"/>
	<polygon class="st1" points="301.2,310.1 241.3,355.6 278.9,404.9 339.2,360 	"/>
	<polygon class="st0" points="178.5,403.4 215.5,452.1 278.9,404.9 241.3,355.6 	"/>
	
		<rect x="57.2" y="309.6" transform="matrix(0.796 -0.6053 0.6053 0.796 -189.2737 124.9029)" class="st1" width="67" height="67.3"/>
	
		<rect x="97.9" y="363.2" transform="matrix(0.796 -0.6053 0.6053 0.796 -213.3952 160.4906)" class="st0" width="67" height="67.3"/>
	<polygon class="st0" points="301.2,310.1 339.2,360 399.2,315.3 360.8,264.8 	"/>
	<path class="st0" d="M473.8,178.8l7.2-5.5L473.8,178.8l20.6,27c-6.9-33.4-21-65.7-42.7-94.8l-18.6,14.2L473.8,178.8z"/>
	<g>
		<path class="st1" d="M402.3,64l-10,7.6l40.7,53.6l18.6-14.2c-0.4-0.5-0.7-1-1.1-1.5c-22.4-29.5-50.3-52.3-81.2-68.1l22.9,30.1
			L402.3,64z"/>
	</g>
	<path class="st0" d="M423.6,217l38.9,51.1l36.4-27.1c-0.6-11.8-2.1-23.5-4.5-35.1l-20.6-27L423.6,217z"/>
	<path class="st1" d="M342.2,109.8l50.2-38.1l-22.9-30.1c-9.2-4.7-18.6-8.8-28.2-12.2l-37.9,29.4L342.2,109.8z"/>
	<path class="st1" d="M493,308.2c5.1-22,7.1-44.6,5.9-67.2l-36.4,27.1L493,308.2z"/>
	<path class="st1" d="M271.6,15.5c-0.4,0-0.8,0-1.2-0.1l0.5,0.6L271.6,15.5z"/>
	<path class="st0" d="M303.3,58.7l37.9-29.4c-22.4-8-45.9-12.7-69.6-13.8l-0.7,0.5L303.3,58.7z"/>
	<path class="st1" d="M30.5,319.5c2.1,7.3,4.5,14.5,7.3,21.7l5.8-4.4L30.5,319.5z"/>
	<path class="st0" d="M270.9,16.1l-0.5-0.6c-29.9-1.3-60.2,3.1-89.2,13.2l26.3,34.6L270.9,16.1z"/>
	<path class="st0" d="M399.2,315.3l33.3,43.8l59.4-46.1c0.4-1.6,0.8-3.2,1.2-4.8l-30.5-40.1L399.2,315.3z"/>
	<path class="st1" d="M114.7,64.8l32.8,43.2l60-44.7l-26.3-34.6c-22.9,8.1-45.1,19.8-65.5,35.3C115.4,64.3,115.1,64.6,114.7,64.8z"
		/>
	<path class="st0" d="M120.2,447.7c5.2,3.7,10.4,7.3,15.8,10.5l-10.9-14.3L120.2,447.7z"/>
	<path class="st1" d="M178.5,403.4l-53.3,40.6l10.9,14.3c13.8,8.4,28.4,15.4,43.5,20.8l36-26.9L178.5,403.4z"/>
	<path class="st0" d="M179.5,479c21.6,7.7,44.1,12.3,66.9,13.7l-30.8-40.5L179.5,479z"/>
	<path class="st0" d="M43.6,336.8l-5.8,4.4c7.9,20.1,18.7,39.5,32.4,57.6c0.4,0.5,0.8,1,1.1,1.5l13-9.9L43.6,336.8z"/>
	<path class="st1" d="M84.4,390.3l-13,9.9c14.3,18.5,30.8,34.4,48.8,47.4l4.9-3.8L84.4,390.3z"/>
	<path class="st1" d="M456.5,390.7c16.6-23.8,28.4-50.2,35.4-77.7l-59.4,46.1L456.5,390.7z"/>
	<path class="st1" d="M278.9,404.9l-63.3,47.2l30.8,40.5c4.4,0.3,8.7,0.4,13.1,0.4l54.4-42.2L278.9,404.9z"/>
	<path class="st0" d="M373.3,404.9l30.6,40.3c0.4-0.3,0.7-0.5,1.1-0.8c20.4-15.5,37.6-33.7,51.5-53.7l-24-31.6L373.3,404.9z"/>
	<path class="st0" d="M259.5,493.1c25.9,0.1,52-4,77-12.4l-22.6-29.8L259.5,493.1z"/>
	<path class="st1" d="M313.9,450.9l22.6,29.8c23.6-7.9,46.4-19.8,67.4-35.6l-30.6-40.3L313.9,450.9z"/>
	<path d="M246.4,492.7l5,6.6L246.4,492.7c-22.8-1.3-45.3-5.9-66.9-13.7l-8.2,6.1c24.8,9.6,51,15,77.5,16.3l10.7-8.3
		C255.1,493.1,250.7,493,246.4,492.7z"/>
	<path d="M175.8,21.5l5.5,7.2c28.9-10.2,59.2-14.5,89.2-13.2L265,8.3l5.5,7.2c0.4,0,0.8,0,1.2,0.1l4.1-3l-4.1,3
		c23.7,1.1,47.2,5.8,69.6,13.8l2.4-1.9l-2.4,1.9c9.6,3.4,19,7.5,28.2,12.2l-8.3-11l8.3,11c30.9,15.8,58.8,38.6,81.2,68.1
		c0.4,0.5,0.7,1,1.1,1.5l2.3-1.7l-2.3,1.7c21.7,29,35.8,61.4,42.7,94.8l8.2,10.8l-8.2-10.8c2.4,11.6,3.9,23.4,4.5,35.1l1.7-1.3
		l-1.7,1.3c1.2,22.6-0.8,45.2-5.9,67.2l1.8,2.4l-1.8-2.4c-0.4,1.6-0.8,3.2-1.2,4.8l5-3.9l-5,3.9c-7,27.5-18.8,53.9-35.4,77.7
		l0.9,1.2l-0.9-1.2c-13.9,20-31.1,38.2-51.5,53.7c-0.4,0.3-0.7,0.5-1.1,0.8l2,2.6l-2-2.6c-21,15.8-43.8,27.6-67.4,35.6l3.2,4.2
		l-3.2-4.2c-25.1,8.4-51.1,12.5-77,12.4l-10.7,8.3c56,2.7,113.3-13.6,161.4-50.2c108.8-82.7,130-238,47.2-346.8
		C390.2,15.9,275-14.6,175.8,21.5z"/>
	<path d="M136,458.2l12.9,17c7.3,3.7,14.8,7,22.4,9.9l8.2-6.1C164.4,473.6,149.8,466.7,136,458.2z"/>
	<path d="M24,200.2l2.8,3.7c0.5-2.4,1.1-4.7,1.6-7L24,200.2z"/>
	<path d="M21.5,197l2.5,3.3l4.5-3.3c6.7-27.1,18.1-53,34-76.6l-5.5-7.2c-19.4,27.9-32.5,59.2-39.1,91.7l6.1-4.6L21.5,197z"/>
	<path d="M114.7,64.8l-2-2.6L114.7,64.8c0.4-0.3,0.7-0.6,1.1-0.8c20.4-15.5,42.5-27.2,65.5-35.3l-5.5-7.2
		C153,29.8,131,41.7,110.6,57.2C89.3,73.3,71.4,92.3,57,113.1l5.5,7.2C76.4,99.6,93.9,80.9,114.7,64.8z"/>
	<path d="M120.2,447.7l-7.1,5.4c11.4,8.4,23.4,15.8,35.8,22.1l-12.9-17C130.6,454.9,125.3,451.4,120.2,447.7z"/>
	<path d="M22.5,276.5l-7.6,5.9L22.5,276.5c-2.3-24.3-0.8-48.8,4.3-72.6l-2.8-3.7l-6.1,4.6c-6.5,32.1-6.7,65.3-0.3,97.8l12.9,17
		C26.5,305.4,23.8,291,22.5,276.5z"/>
	<polygon class="st1" points="494.4,205.9 493.2,181.8 484.6,170.6 473.8,178.8 	"/>
	<path d="M71.4,400.2l-4.4,3.4L71.4,400.2c-0.4-0.5-0.8-1-1.1-1.5c-13.7-18.1-24.5-37.5-32.4-57.6l-4,3l4-3
		c-2.8-7.1-5.2-14.4-7.3-21.7l-12.9-17C24.7,338.3,39.8,373,63.4,404c14.5,19.1,31.3,35.5,49.7,49.1l7.1-5.4
		C102.2,434.6,85.7,418.8,71.4,400.2z"/>
	<path class="st0" d="M369.4,41.5c0,0,23.8,10.1,24.5,11c0.7,0.9,10.4,10,10.4,10l-12,9.1L369.4,41.5z"/>
</g>
<g>
	<g>
		<path d="M101.6,52.2C-11,137.8-32.8,298.4,52.7,410.9s246.2,134.4,358.7,48.8s134.4-246.2,48.8-358.7
			C374.6-11.3,214.2-33.1,101.6,52.2z M401.1,446.2C296,526.1,146.3,505.7,66.4,400.6S6.9,145.7,111.9,65.8s254.9-59.5,334.8,45.6
			C526.5,216.5,506.1,366.3,401.1,446.2z"/>
	</g>
	<line class="st2" x1="14.6" y1="203.8" x2="275.1" y2="9.5"/>
	<line class="st2" x1="14.3" y1="279.4" x2="343" y2="24.4"/>
	<line class="st2" x1="33.3" y1="341.2" x2="401.7" y2="61"/>
	<line class="st2" x1="66.4" y1="400.6" x2="453.4" y2="106.3"/>
	<line class="st2" x1="239.4" y1="505.2" x2="496.3" y2="306.1"/>
	<line class="st2" x1="166.4" y1="485.3" x2="500" y2="236.7"/>
	<line class="st2" x1="112" y1="450.5" x2="480.4" y2="170.3"/>
	<line class="st2" x1="20.9" y1="194" x2="250.8" y2="496.3"/>
	<line class="st2" x1="55.6" y1="109.1" x2="339.1" y2="481.9"/>
	<line class="st2" x1="112.2" y1="59.2" x2="405.3" y2="444.8"/>
	<line class="st2" x1="264.4" y1="5.3" x2="494.3" y2="307.6"/>
	<line class="st2" x1="173.3" y1="16.1" x2="456.8" y2="388.8"/>
	<line class="st2" x1="13.6" y1="295" x2="155.1" y2="481.1"/>
	<line class="st2" x1="360.4" y1="27.5" x2="501.9" y2="213.6"/>
</g>
</svg>
