<?xml version="1.0" encoding="utf-8"?>
<!-- Generator: Adobe Illustrator 23.0.3, SVG Export Plug-In . SVG Version: 6.00 Build 0)  -->
<svg version="1.1" id="Capa_1" xmlns="http://www.w3.org/2000/svg" xmlns:xlink="http://www.w3.org/1999/xlink" x="0px" y="0px"
	 viewBox="0 0 512 512" style="enable-background:new 0 0 512 512;" xml:space="preserve">
<style type="text/css">
	.st0{fill:#FFDF2B;}
	.st1{fill:#FFFFFF;}
	.st2{fill:none;stroke:#000000;stroke-width:10;stroke-miterlimit:10;}
</style>
<g>
	<path class="st0" d="M483.9,190.9H25.4c-6.2,21.3-9.6,43.9-9.6,67.3h477.8C493.6,234.8,490.2,212.2,483.9,190.9z"/>
	<path class="st1" d="M493.6,258.2H15.7c0,23.4,3.4,46,9.6,67.3h458.5C490.1,304.2,493.5,281.6,493.6,258.2z"/>
	<path class="st0" d="M254.7,497.1c57.3,0,109.8-20.2,150.9-53.8L107,446C147.6,478,198.9,497.1,254.7,497.1z"/>
	<path class="st1" d="M254.7,19.3c-55.7,0-107,19.1-147.6,51l298.7,2.8C364.5,39.5,312,19.3,254.7,19.3z"/>
	<path class="st0" d="M405.7,73.1L107,70.3C85.8,87,67.5,107.3,52.9,130.1l401-3.9C440.6,106.2,424.3,88.3,405.7,73.1z"/>
	<path class="st1" d="M453.9,126.3l-401,3.9c-11.9,18.7-21.2,39.1-27.5,60.8h458.6C477.1,167.7,466.9,146,453.9,126.3z"/>
	<path class="st1" d="M107,446l298.6-2.8c18.6-15.2,34.8-33.1,48.2-53.2l-400.8-3.9C67.5,409.1,85.8,429.4,107,446z"/>
	<path class="st0" d="M453.7,390.1c13.1-19.7,23.3-41.4,30.1-64.6H25.4c6.4,21.7,15.7,42.1,27.6,60.8L453.7,390.1z"/>
	<path d="M254.7,2.2c-141.4,0-256,114.6-256,256s114.6,256,256,256s256-114.6,256-256C510.5,116.9,395.9,2.4,254.7,2.2z
		 M414.8,443.2l0.4,0L414.8,443.2c-42.6,34.6-96.8,55.3-155.9,55.3c-57.5,0-110.4-19.6-152.4-52.5l-16.3,0.2l16.3-0.2
		c-21.4-16.8-40-37-54.9-59.8l-7.4-0.1l7.4,0.1c-12.2-18.7-22-39.1-28.8-60.8h-0.9h0.9C15.4,302,11.4,277,11.4,251
		C11.4,114.3,122.2,3.5,258.9,3.5S506.3,114.3,506.3,251C506.3,328.6,470.6,397.8,414.8,443.2z"/>
	<path d="M258.9,3.5C122.2,3.5,11.4,114.3,11.4,251c0,26,4,51,11.4,74.5h2.6c-6.2-21.3-9.6-43.9-9.6-67.3s3.4-46,9.6-67.3h0h0
		c6.4-21.7,15.7-42.1,27.5-60.8l-5.3,0.1l5.3-0.1C67.5,107.3,85.8,87,107,70.3l-13.4-0.1l13.4,0.1c40.6-32,91.9-51,147.6-51
		c57.3,0,109.9,20.2,151.1,53.8l12.9,0.1l-12.9-0.1c18.6,15.2,34.9,33.1,48.2,53.2l9.8-0.1l-9.8,0.1c13.1,19.7,23.3,41.4,30.1,64.6
		h4.3h-4.3c6.2,21.3,9.6,43.9,9.6,67.3h8.4h-8.4c0,23.4-3.4,46-9.7,67.3h0.9h-0.9c-6.8,23.2-17.1,44.9-30.1,64.6l6.4,0.1l-6.4-0.1
		c-13.3,20-29.6,38-48.2,53.2l9.2-0.1c55.9-45.4,91.6-114.6,91.6-192.2C506.3,114.3,395.5,3.5,258.9,3.5z"/>
	<path d="M52.9,386.3l-1.4,0c14.9,22.8,33.5,43,54.9,59.8l0.5,0C85.8,429.4,67.5,409.1,52.9,386.3z"/>
	<path d="M254.7,497.1c-55.8,0-107-19.1-147.7-51.1l-0.5,0c42,32.9,94.9,52.5,152.4,52.5c59.1,0,113.4-20.7,155.9-55.3l-9.2,0.1
		C364.4,476.9,311.9,497.1,254.7,497.1z"/>
	<path d="M25.4,325.5h-2.6c6.8,21.7,16.6,42.1,28.8,60.8l1.4,0C41.1,367.6,31.7,347.2,25.4,325.5z"/>
</g>
<g>
	<path d="M256,0C114.6,0,0,114.6,0,256s114.6,256,256,256s256-114.6,256-256C511.8,114.7,397.3,0.2,256,0z M256,494.9
		C124,494.9,17.1,388,17.1,256S124,17.1,256,17.1S494.9,124,494.9,256C494.8,387.9,387.9,494.8,256,494.9z"/>
</g>
<line class="st2" x1="95" y1="68" x2="420" y2="71"/>
<line class="st2" x1="49" y1="128" x2="465" y2="124"/>
<line class="st2" x1="26.7" y1="188.7" x2="489.6" y2="188.7"/>
<line class="st2" x1="17.1" y1="256" x2="503.3" y2="256"/>
<line class="st2" x1="91.5" y1="444" x2="416.5" y2="441"/>
<line class="st2" x1="45.5" y1="384" x2="461.5" y2="388"/>
<line class="st2" x1="23.2" y1="323.3" x2="486.1" y2="323.3"/>
</svg>
