<?xml version="1.0" encoding="utf-8"?>
<!-- Generator: Adobe Illustrator 23.0.3, SVG Export Plug-In . SVG Version: 6.00 Build 0)  -->
<svg version="1.1" id="Capa_1" xmlns="http://www.w3.org/2000/svg" xmlns:xlink="http://www.w3.org/1999/xlink" x="0px" y="0px"
	 viewBox="0 0 512 512" style="enable-background:new 0 0 512 512;" xml:space="preserve">
<style type="text/css">
	.st0{fill:none;}
	.st1{fill:#FFFFFF;}
	.st2{fill:#FFDF2B;}
	.st3{fill:none;stroke:#000000;stroke-width:10;stroke-miterlimit:10;}
</style>
<g>
	<path class="st0" d="M494.3,240.4c0,0.8,0.1,1.7,0.1,2.5C494.4,242.1,494.3,241.3,494.3,240.4z"/>
	<path class="st0" d="M494.7,251.8c0.1,6.1,0.1,12.1-0.2,18C494.9,263.8,495,257.8,494.7,251.8z"/>
	<path class="st0" d="M494.6,246c0.1,1.6,0.2,3.2,0.1,4.8C494.7,249.2,494.6,247.6,494.6,246z"/>
	<path class="st0" d="M493.8,235.2C493.8,235.3,493.8,235.3,493.8,235.2C493.8,235.3,493.8,235.3,493.8,235.2z"/>
	<path class="st0" d="M494.3,274.2c-0.1,0.4-0.1,0.9-0.1,1.3C494.2,275.1,494.3,274.6,494.3,274.2z"/>
	<path class="st1" d="M340,270.9c6.7,50.4,31.3,75.7,28,124.9c-2.6,38-20.3,68-37.3,89.1c29.1-9.6,56.8-24.8,81.2-45.9
		c10.3-15.2,18.8-33.7,20.6-55.1c3.5-41.4-20.1-62.6-26.3-104.9c-8.4-58,43.4-76.5,40.4-135c-0.8-16.5-5.1-31-10.4-43
		c-4.8-5.5-9.8-10.7-15-15.8c-17.8-17-37.4-30.6-58.2-41c8.2,16.6,16.3,39.3,17.7,66.4C384.3,180.3,330.8,201.8,340,270.9z"/>
	<path class="st2" d="M52.1,260.4c-5.3-44,23.2-57.4,20.9-101.7c-0.9-17.1-5.3-31.5-9.8-42.1C4.6,196.6,2.1,304.1,54.4,386.3
		c6.7-12.3,12.4-27.8,13.3-46.2C69.3,308.7,56,292.5,52.1,260.4z"/>
	<path class="st2" d="M218.6,385.8c4.5-49.2-24.9-74.3-32.5-124.6c-10.3-69,54.3-91.1,50.8-160.7c-1.7-33.5-16-60.1-27.4-76.9
		c-28.6,5.7-56.3,16.6-81.7,32.7c7.5,14.5,15.5,35.5,16.8,60.9c3,59.5-41.4,77.8-33.7,136.9c5.6,43.1,26.1,64.8,23.5,106.7
		c-2.2,34.3-18.5,60.9-33.4,79c20.4,17.4,42.9,30.7,66.7,40.2C190.1,458.6,214.9,426.7,218.6,385.8z"/>
	<path class="st2" d="M261,268.9c7.6,52.8,36.9,79.1,32.5,130.7c-3.5,41.8-26.9,74.6-48.4,97c28.9,1.3,57.9-2.6,85.6-11.7
		c17-21.1,34.7-51.1,37.3-89.1c3.3-49.2-21.3-74.5-28-124.9c-9.1-69.1,44.2-90.6,40.7-160.3c-1.4-27.1-9.5-49.7-17.7-66.4
		c-25.1-12.5-51.9-20.4-79.1-23.6c11.2,17.8,25,45.4,26.8,79.9C314.5,173.6,250.5,196.5,261,268.9z"/>
	<path class="st2" d="M406.1,279.1c6.2,42.3,29.8,63.5,26.3,104.9c-1.8,21.4-10.2,40-20.6,55.1c5.9-5,11.5-10.4,17-16.1
		c24.9-26.1,42.7-56.4,53.6-88.4c-3.5-17.5-12.7-31.2-15.6-53.1c-4.5-32.5,16.4-46.8,23.1-72.9c-8.2-38.9-26.1-76.1-53.7-107.7
		c5.2,12,9.6,26.5,10.4,43C449.5,202.6,397.7,221,406.1,279.1z"/>
	<path class="st1" d="M293.5,399.6c4.3-51.6-24.9-77.9-32.5-130.7c-10.4-72.4,53.5-95.4,49.8-168.4C309,65.9,295.2,38.3,284,20.6
		c-24.8-2.9-49.9-2-74.3,2.9c11.4,16.9,25.7,43.5,27.4,77c3.6,69.6-61.1,91.7-50.8,160.7c7.6,50.3,37,75.4,32.5,124.6
		c-3.7,40.9-28.6,72.8-50.8,94.2c24.8,9.8,50.9,15.3,77.1,16.6C266.5,474.2,290,441.4,293.5,399.6z"/>
	<path class="st1" d="M111.1,254.1c-7.7-59,36.7-77.4,33.7-136.9c-1.3-25.5-9.5-46.4-16.8-60.9c-16,10.1-31,22.4-44.6,36.7
		c-7.2,7.6-13.9,15.5-19.9,23.7c4.4,10.6,8.9,25,9.8,42.1c2.3,44.3-26.2,57.7-20.9,101.7c3.8,32,17.2,48.3,15.7,79.6
		c-0.9,18.6-6.6,34-13.3,46.2c10.1,15.9,22.3,30.8,36.6,44.5c3.3,3.1,6.7,6.2,10.2,9.1c14.9-18.1,31.2-44.7,33.4-79
		C137.3,318.7,116.8,297.1,111.1,254.1z"/>
	<path class="st1" d="M466.6,281.5c3,21.9,12.2,35.5,15.6,53.1c6.4-19.2,10.4-39,11.9-59c0.1-0.4,0.1-0.9,0.1-1.3
		c0.1-1.4,0.2-2.8,0.3-4.3c0.3-6,0.4-12,0.2-18c0-0.3,0-0.7-0.1-1c-0.1-1.6-0.1-3.2-0.1-4.8c-0.1-1-0.1-2-0.2-3
		c0-0.8-0.1-1.7-0.1-2.5c-0.1-1.7-0.3-3.4-0.5-5.1l0-0.1c-0.9-9-2.2-17.8-4.1-26.6C483.1,234.6,462.2,249,466.6,281.5z"/>
	<path d="M432.8,72.8C330.5-24.7,168.7-20.9,70.9,81.1C-14,170.1-22.2,304.3,44.3,401.9c2-2.6,3.9-5.5,6-8.6
		C26.5,358,11.7,315.8,9.4,270.2C6.3,209.8,25.5,153.4,59.9,109c-0.1-0.3-0.3-0.7-0.5-1c0.1,0.3,0.3,0.7,0.5,1
		c17.9-23.1,40-42.9,65-58.4c-0.3-0.5-0.6-1-0.9-1.5c0.3,0.5,0.6,1,0.9,1.5c33.5-20.6,72.5-33.3,114.6-35.5
		c43.7-2.2,85.3,7.3,121.8,25.6c-1.9-3.6-3.7-6.9-5.4-9.8c1.8,2.9,3.5,6.2,5.4,9.8c28,14.1,52.8,33.4,73.3,56.8
		c-3.8-8.1-7.9-15-11.6-20.4c3.7,5.5,7.7,12.3,11.6,20.4c27,30.9,46.5,68.6,55.2,110.6c1.5-5.8,2.2-12.1,1.8-19.4
		c-1-20.3-9-36.2-15-45.8c5.9,9.6,13.9,25.6,15,45.8c0.4,7.3-0.4,13.6-1.8,19.4c1.9,8.8,3.1,17.8,4,26.9l0,0.1
		c0.2,1.7,0.3,3.4,0.5,5.1c0,0.8,0.1,1.7,0.1,2.5c0,0.8,0.1,1.6,0.1,2.4c0,0.2,0,0.4,0,0.6c0.1,1.6,0.2,3.2,0.1,4.8
		c0,0.3,0,0.7,0.1,1c0.1,6,0.1,12-0.2,18c0,1.4-0.2,2.8-0.3,4.3c-0.1,0.4-0.1,0.9-0.1,1.3c-1.5,20.5-5.5,40.4-11.9,59.4
		c1.1,5.7,1.6,11.7,1.1,18.7c-1.8,25.1-15.9,44.3-27.4,56.6c11.6-12.3,25.5-31.3,27.4-56.6c0.5-6.9,0-12.9-1.1-18.7
		c-14.2,42.5-39.9,79.8-73.5,108.4c-6.5,9-13.8,16.8-20.4,23.4c6.7-6.4,13.9-14.3,20.4-23.4c-23.6,20-51.1,35.7-81.4,45.5
		c-1.5,1.8-2.9,3.5-4.3,5c1.4-1.6,2.9-3.3,4.3-5c-20,6.5-41.2,10.6-63.2,11.7c-7.8,0.4-15.4,0.4-23,0.1c-0.7,0.7-1.4,1.4-2.1,2.1
		c0.7-0.6,1.4-1.4,2.1-2.1c-27.2-1.2-53.4-6.9-77.7-16.4l0,0l0,0c-46.2-18.1-85.8-50-113.3-90.8c-2,3.1-4,6-6,8.6
		c10,14.6,21.6,28.4,34.8,41.2c102.2,97.7,264.2,93.9,361.9-8.3C538.8,332.5,535.1,170.4,432.8,72.8z"/>
	<path d="M493.8,235.3c0.2,1.7,0.3,3.4,0.5,5.1C494.1,238.7,494,237,493.8,235.3z"/>
	<path d="M494.5,245.4c0-0.8-0.1-1.6-0.1-2.4c0.1,1,0.1,2,0.2,3C494.5,245.8,494.5,245.6,494.5,245.4z"/>
	<path d="M494.8,250.8c0,0.3,0,0.7,0.1,1C494.7,251.5,494.7,251.1,494.8,250.8z"/>
	<path d="M494.6,269.8c0,1.4-0.2,2.8-0.3,4.3C494.4,272.8,494.5,271.3,494.6,269.8z"/>
	<path d="M209.6,23.6c-0.5-0.8-1.1-1.6-1.6-2.4C208.5,21.9,209.1,22.7,209.6,23.6c24.5-4.9,49.6-5.8,74.3-2.9
		c-0.8-1.2-1.4-2.2-2.1-3.3c0.7,1.1,1.4,2.1,2.1,3.3c27.2,3.2,54,11.1,79.1,23.6c-0.6-1.2-1.1-2.2-1.7-3.4
		c-36.5-18.5-78-27.9-121.8-25.6c-42,2.1-81,14.9-114.6,35.5c1,1.8,2,3.6,3,5.6C153.3,40.1,181,29.2,209.6,23.6z"/>
	<path d="M421,85.2c5.3,5,10.3,10.4,15,15.8c-0.5-1.1-1-2.2-1.5-3.2c-20.5-23.4-45.4-42.7-73.3-56.8c0.6,1.1,1.1,2.2,1.7,3.4
		C383.7,54.6,403.4,68.2,421,85.2z"/>
	<path d="M83.3,92.9C97,78.6,112,66.4,127.9,56.2c-1-2-2-3.8-3-5.6C99.7,66,77.7,85.9,59.9,109c1.1,2.2,2.2,4.8,3.5,7.6
		C69.4,108.4,76.1,100.5,83.3,92.9z"/>
	<path d="M489.7,208.6c0-0.1,0.1-0.2,0.1-0.3c-8.7-42-28.1-79.8-55.2-110.6c0.5,1.1,1,2.2,1.5,3.2
		C463.6,132.5,481.5,169.7,489.7,208.6z"/>
	<path d="M63.4,116.7c-1.1-2.8-2.4-5.4-3.5-7.6C25.5,153.3,6.3,209.8,9.4,270.2c2.3,45.6,17.1,87.7,40.9,123.1
		c1.4-2.2,2.8-4.5,4.1-7C2.1,304.1,4.6,196.6,63.4,116.7z"/>
	<path d="M163.6,484.1c1.4-1.3,2.9-2.6,4.3-4.1c-23.7-9.4-46.3-22.9-66.7-40.2c-1.3,1.6-2.5,3-3.9,4.5c1.2-1.5,2.6-2.9,3.9-4.5
		c-3.5-2.9-6.8-6-10.2-9.1c-14.2-13.6-26.4-28.6-36.6-44.5c-1.4,2.5-2.8,4.8-4.1,7C77.8,434.1,117.4,466,163.6,484.1z"/>
	<path d="M428.8,422.9c-5.4,5.7-11.1,11.1-17,16.1c-0.9,1.3-2,2.8-2.9,4.2c33.6-28.5,59.3-65.9,73.5-108.4c0-0.1,0-0.2,0-0.3
		C471.5,366.5,453.7,396.8,428.8,422.9z"/>
	<path d="M245.1,496.6c-1.2,1.4-2.6,2.6-3.8,3.9c7.6,0.3,15.3,0.3,23-0.1c22.1-1.1,43.2-5.2,63.2-11.7c1-1.3,2.1-2.5,3.1-3.8
		C303,494,273.9,497.9,245.1,496.6z"/>
	<path d="M330.6,484.9c-1,1.3-2.1,2.5-3.1,3.8c30.2-9.9,57.8-25.5,81.4-45.5c0.9-1.3,2-2.7,2.9-4.2
		C387.4,460.1,359.8,475.4,330.6,484.9z"/>
	<path d="M482.4,334.8c6.3-18.8,10.3-38.8,11.9-59.4c-1.5,20-5.5,39.8-11.9,59C482.4,334.5,482.4,334.7,482.4,334.8z"/>
	<path d="M167.9,480.1c-1.4,1.4-2.9,2.7-4.3,4.1c24.3,9.5,50.4,15.1,77.7,16.4c1.2-1.3,2.5-2.5,3.8-3.9
		C218.8,495.4,192.7,489.9,167.9,480.1z"/>
	<path d="M493.8,235.2c-0.9-9.2-2.2-18.1-4-26.9c0,0.1-0.1,0.2-0.1,0.3C491.6,217.4,492.9,226.3,493.8,235.2z"/>
</g>
<g>
	<g>
		<path d="M70.8,79.1c-97.6,102.2-93.9,264.2,8.4,361.9s264.2,93.9,361.9-8.3s93.9-264.3-8.4-361.9C330.4-26.7,168.6-22.9,70.8,79.1
			z M428.7,420.9c-91.1,95.5-242.3,98.9-337.7,7.8S-7.9,186.4,83.2,90.9S325.5-8,420.9,83.2C516.2,174.3,519.7,325.4,428.7,420.9z"
			/>
	</g>
	<path class="st3" d="M97.3,442.3c15.8-18.1,34.8-46.3,37.2-83.6c2.7-42-17.8-63.7-23.5-106.7c-7.7-59,36.7-77.4,33.7-136.9
		c-1.5-30-12.6-53.6-20.7-67.9"/>
	<path class="st3" d="M163.5,482.2c23.1-21.4,51.1-54.8,55.2-98.3c4.5-49.2-24.9-74.3-32.5-124.6c-10.3-69,54.3-91.1,50.8-160.7
		c-1.8-35.1-17.4-62.6-29-79.3"/>
	<path class="st3" d="M239.1,500.6c22.8-22.4,50.4-57.2,54.3-102.9c4.3-51.6-24.9-77.9-32.5-130.7c-10.4-72.4,53.5-95.4,49.8-168.4
		c-1.9-36.8-17.4-65.7-29-83.2"/>
	<path class="st3" d="M323.1,491.8c18.9-21.2,41.9-54.3,44.9-97.9c3.3-49.2-21.3-74.5-28-124.9c-9.1-69.1,44.2-90.6,40.7-160.3
		c-1.8-35.1-15-62.8-24.8-79.5"/>
	<path class="st3" d="M388.4,464.5c18.5-18,40.8-45.9,43.9-82.7c3.5-41.4-20.1-62.6-26.3-104.9c-8.4-58,43.4-76.5,40.4-135
		c-1.5-29.5-14.1-52.7-23.4-66.7"/>
	<path class="st3" d="M44.2,400c10-13.4,22.2-34.3,23.5-62c1.5-31.2-11.8-47.5-15.7-79.6c-5.3-44,23.2-57.4,20.9-101.7
		c-1.1-22.3-8.4-40-13.6-50.7"/>
	<path class="st3" d="M456,408c11.6-12.3,25.5-31.3,27.4-56.6c2.1-28.3-12.8-43-16.8-72c-5.4-39.9,27.1-52.3,25-92.5
		c-1-20.3-9-36.2-15-45.8"/>
</g>
</svg>
