<?xml version="1.0" encoding="utf-8"?>
<!-- Generator: Adobe Illustrator 23.0.3, SVG Export Plug-In . SVG Version: 6.00 Build 0)  -->
<svg version="1.1" id="Capa_1" xmlns="http://www.w3.org/2000/svg" xmlns:xlink="http://www.w3.org/1999/xlink" x="0px" y="0px"
	 viewBox="0 0 512 512" style="enable-background:new 0 0 512 512;" xml:space="preserve">
<style type="text/css">
	.st0{fill:none;}
	.st1{fill:#FFFFFF;}
	.st2{fill:#FFDF2B;}
	.st3{fill:none;stroke:#000000;stroke-width:10;stroke-miterlimit:10;}
</style>
<g>
	<path class="st0" d="M226.9,20c0.8-0.1,1.7-0.2,2.5-0.3C228.6,19.8,227.8,19.9,226.9,20z"/>
	<path class="st0" d="M238.2,18.8c6.1-0.5,12.1-0.7,18.1-0.7C250.3,18.1,244.2,18.4,238.2,18.8z"/>
	<path class="st0" d="M232.4,19.4c1.6-0.2,3.2-0.3,4.8-0.4C235.6,19,234,19.2,232.4,19.4z"/>
	<path class="st0" d="M221.8,20.7C221.8,20.7,221.8,20.7,221.8,20.7C221.8,20.7,221.8,20.7,221.8,20.7z"/>
	<path class="st0" d="M260.6,18.1c0.4,0,0.9,0,1.3,0C261.5,18.1,261,18.1,260.6,18.1z"/>
	<path class="st1" d="M265.5,172.4c50-9.3,74-35.3,123.3-34.6c38.1,0.5,69,16.7,90.9,32.6c-11.1-28.6-27.8-55.4-50.1-78.6
		c-15.8-9.5-34.6-17-56.2-17.6c-41.5-1.3-61.4,23.4-103.3,31.7c-57.5,11.5-78.7-39.2-137-33.2c-16.4,1.7-30.7,6.8-42.4,12.6
		c-5.2,5-10.2,10.3-14.9,15.8c-15.9,18.5-28.5,38.8-37.8,60.1c16.2-9,38.4-18.3,65.3-21.2C172.6,133,197,185.2,265.5,172.4z"/>
	<path class="st2" d="M270.2,460.4c-43.6,7.6-58.5-20.2-102.7-15.6c-17,1.8-31.1,7-41.5,11.9c82.9,54.4,190.4,51.3,269.7-5.3
		c-12.6-6-28.3-10.9-46.9-10.8C317.5,440.7,302,454.9,270.2,460.4z"/>
	<path class="st2" d="M386.6,287.5c-49.4-1.9-72.9,28.8-122.7,39c-68.3,14-93.8-49.5-163.2-42.2c-33.3,3.5-59.1,19.1-75.3,31.4
		c7.1,28.3,19.5,55.4,37,79.9c14.1-8.2,34.6-17.4,60-20.1c59.3-6.2,79.9,37.2,138.5,26.4c42.7-7.9,63.2-29.5,105.3-29
		c34.3,0.4,61.8,15.3,80.7,29.2c16.3-21.3,28.5-44.5,36.6-68.8C460.8,312.2,427.6,289.1,386.6,287.5z"/>
	<path class="st2" d="M267.6,251.4c52.3-10.4,77.1-41,128.8-39.4c42,1.3,75.9,23,99.4,43.2c-0.2-28.9-5.6-57.7-16.2-84.8
		c-22-15.9-52.9-32-90.9-32.6c-49.3-0.7-73.3,25.2-123.3,34.6c-68.5,12.8-92.8-39.4-162.2-32.2c-26.9,2.8-49.2,12.1-65.3,21.2
		c-11.2,25.7-17.7,52.9-19.4,80.2c17.1-12.2,44-27.4,78.4-31C169.6,203,195.9,265.7,267.6,251.4z"/>
	<path class="st2" d="M270.1,105.9c41.9-8.4,61.8-33.1,103.3-31.7c21.5,0.7,40.4,8.1,56.2,17.6c-5.4-5.6-11-11-17-16.1
		C385.2,52.2,354,36,321.4,26.9c-17.3,4.4-30.5,14.3-52.1,18.4c-32.2,6.2-47.6-13.9-74-19.2c-38.4,10.2-74.6,30.1-104.7,59.2
		c11.8-5.9,26-10.9,42.4-12.6C191.4,66.7,212.6,117.4,270.1,105.9z"/>
	<path class="st1" d="M396.4,212.1c-51.7-1.6-76.5,29-128.8,39.4c-71.7,14.2-98-48.5-170.7-40.9c-34.4,3.6-61.3,18.9-78.4,31
		c-1.6,24.9,0.7,49.9,6.8,74.1c16.2-12.3,42-27.9,75.3-31.4c69.4-7.2,94.8,56.2,163.2,42.2c49.8-10.2,73.3-40.9,122.7-39
		c41.1,1.6,74.2,24.7,96.8,45.7c8.5-25.3,12.7-51.7,12.5-77.9C472.3,235,438.4,213.3,396.4,212.1z"/>
	<path class="st1" d="M260.7,401.9c-58.5,10.8-79.2-32.6-138.5-26.4c-25.4,2.6-45.9,11.9-60,20.1c11,15.4,24,29.7,39,42.6
		c8,6.8,16.2,13,24.8,18.7c10.4-5,24.5-10.2,41.5-11.9c44.1-4.6,59,23.1,102.7,15.6c31.8-5.5,47.3-19.7,78.6-19.8
		c18.5-0.1,34.3,4.8,46.9,10.8c15.3-11,29.6-23.9,42.5-38.9c3-3.5,5.8-7,8.6-10.6c-18.9-13.9-46.4-28.8-80.7-29.2
		C323.9,372.3,303.4,394,260.7,401.9z"/>
	<path class="st1" d="M269.3,45.4c21.7-4.1,34.8-14.1,52.1-18.4c-19.5-5.4-39.5-8.4-59.5-8.8c-0.4,0-0.9,0-1.3,0c-1.4,0-2.9,0-4.3,0
		c-6,0-12,0.3-18.1,0.7c-0.3,0-0.7,0.1-1,0.1c-1.6,0.1-3.2,0.3-4.8,0.4c-1,0.1-2,0.2-3,0.3c-0.8,0.1-1.7,0.2-2.5,0.3
		c-1.7,0.2-3.4,0.4-5.1,0.7c0,0-0.1,0-0.1,0c-8.9,1.3-17.7,3.2-26.4,5.5C221.7,31.5,237.1,51.5,269.3,45.4z"/>
	<path d="M62.7,90.1c-91.9,107.3-79.7,268.8,27.4,361c93.3,80.1,227.7,81.3,321.8,9.6c-2.7-1.8-5.7-3.7-8.9-5.5
		c-34.1,25.6-75.3,42.7-120.8,47.4c-60.2,6.3-117.5-10-163.6-42c-0.3,0.2-0.7,0.4-1,0.5c0.3-0.2,0.6-0.4,1-0.5
		c-24-16.7-45-37.6-61.7-61.9c-0.5,0.3-1,0.6-1.4,0.9c0.5-0.3,1-0.6,1.4-0.9c-22.3-32.4-37.1-70.7-41.5-112.6
		c-4.5-43.5,2.7-85.6,19.2-123c-3.5,2-6.7,4-9.5,5.9c2.8-1.9,6-3.9,9.5-5.9c12.6-28.6,30.6-54.5,52.9-76.2
		c-7.9,4.2-14.5,8.7-19.8,12.6C73,95.7,79.6,91.2,87.5,87c29.4-28.6,66.1-50,107.6-60.9c-5.9-1.2-12.2-1.6-19.5-0.8
		c-20.1,2.1-35.7,10.9-45,17.3c9.3-6.4,24.8-15.2,45-17.3c7.2-0.8,13.6-0.3,19.5,0.8c8.7-2.3,17.6-4.1,26.7-5.4c0,0,0.1,0,0.1,0
		c1.7-0.2,3.4-0.5,5.1-0.7c0.8-0.1,1.7-0.2,2.5-0.3c0.8-0.1,1.6-0.2,2.4-0.3c0.2,0,0.4,0,0.6-0.1c1.6-0.2,3.2-0.3,4.8-0.4
		c0.3,0,0.7-0.1,1-0.1c6-0.5,12-0.7,18.1-0.7c1.4,0,2.9,0,4.3,0c0.4,0,0.9,0,1.3,0c20.6,0.4,40.7,3.4,59.9,8.7
		c5.6-1.4,11.6-2.2,18.5-2.1c25.2,0.5,45.1,13.5,57.9,24.4c-12.9-10.9-32.7-23.9-57.9-24.4c-6.9-0.1-12.9,0.7-18.5,2.1
		c43.1,11.9,81.8,35.6,112.1,67.7c9.4,6.1,17.6,12.9,24.4,19.2c-6.8-6.3-15-13.1-24.4-19.2c21.2,22.5,38.3,49.2,49.7,78.9
		c1.8,1.4,3.6,2.8,5.3,4.1c-1.7-1.4-3.4-2.7-5.3-4.1c7.6,19.6,12.7,40.6,15,62.5c0.8,7.7,1.2,15.4,1.3,23c0.7,0.7,1.5,1.3,2.2,2
		c-0.7-0.7-1.4-1.3-2.2-2c0.3,27.3-4,53.7-12.2,78.5c0,0,0,0,0,0c0,0,0,0,0,0c-15.6,47.1-45.4,88.3-84.7,117.9
		c3.2,1.8,6.2,3.7,8.9,5.5c14.1-10.7,27.2-23.1,39.2-37c92.1-107.3,79.9-268.9-27.4-361C316.5-29.4,154.9-17.2,62.7,90.1z"/>
	<path d="M221.8,20.7c1.7-0.3,3.4-0.5,5.1-0.7C225.2,20.2,223.5,20.4,221.8,20.7z"/>
	<path d="M231.8,19.4c-0.8,0.1-1.6,0.2-2.4,0.3c1-0.1,2-0.2,3-0.3C232.2,19.4,232,19.4,231.8,19.4z"/>
	<path d="M237.2,18.9c0.3,0,0.7-0.1,1-0.1C237.9,18.9,237.5,18.9,237.2,18.9z"/>
	<path d="M256.3,18.1c1.4,0,2.9,0,4.3,0C259.1,18.1,257.7,18.1,256.3,18.1z"/>
	<path d="M25.3,315.6c-0.8,0.6-1.6,1.2-2.3,1.8C23.7,316.8,24.5,316.2,25.3,315.6c-6.1-24.2-8.4-49.2-6.8-74.1
		c-1.1,0.8-2.1,1.5-3.1,2.3c1-0.7,2.1-1.5,3.1-2.3c1.7-27.3,8.2-54.5,19.4-80.2c-1.1,0.6-2.2,1.2-3.3,1.9
		c-16.5,37.4-23.7,79.4-19.2,123c4.4,41.9,19.1,80.2,41.5,112.6c1.7-1.1,3.5-2.1,5.4-3.3C44.8,371,32.5,343.9,25.3,315.6z"/>
	<path d="M75.7,101.2c4.8-5.6,9.8-10.8,14.9-15.8c-1.1,0.5-2.1,1.1-3.2,1.6c-22.3,21.7-40.3,47.6-52.9,76.2c1.1-0.6,2.2-1.2,3.3-1.9
		C47.2,140.1,59.8,119.8,75.7,101.2z"/>
	<path d="M101.2,438.1c-15-12.9-28-27.2-39-42.6c-1.9,1.1-3.7,2.2-5.4,3.3c16.7,24.3,37.7,45.2,61.7,61.9c2.2-1.2,4.7-2.5,7.4-3.8
		C117.5,451.2,109.2,445,101.2,438.1z"/>
	<path d="M195.3,26.2c-0.1,0-0.2,0-0.3-0.1C153.6,37,116.8,58.4,87.5,87c1-0.5,2.1-1.1,3.2-1.6C120.7,56.2,156.9,36.4,195.3,26.2z"
		/>
	<path d="M126,456.8c-2.8,1.3-5.2,2.6-7.4,3.8c46.1,32,103.4,48.3,163.6,42c45.5-4.7,86.7-21.7,120.8-47.4c-2.3-1.3-4.7-2.6-7.3-3.8
		C316.4,508.1,208.9,511.2,126,456.8z"/>
	<path d="M487.7,337.3c-1.4-1.4-2.8-2.7-4.3-4.1c-8.2,24.2-20.3,47.5-36.6,68.8c1.6,1.2,3.2,2.4,4.7,3.6c-1.5-1.2-3.1-2.4-4.7-3.6
		c-2.8,3.6-5.6,7.1-8.6,10.6c-12.8,14.9-27.1,27.9-42.5,38.9c2.6,1.2,5,2.5,7.3,3.8C442.3,425.6,472.1,384.4,487.7,337.3z"/>
	<path d="M412.6,75.7c6,5.1,11.7,10.5,17,16.1c1.4,0.9,2.9,1.8,4.3,2.7c-30.2-32.1-68.9-55.7-112.1-67.7c-0.1,0-0.2,0.1-0.3,0.1
		C354,36,385.2,52.2,412.6,75.7z"/>
	<path d="M495.8,255.3c1.4,1.2,2.8,2.4,4.1,3.6c-0.1-7.6-0.5-15.3-1.3-23c-2.3-21.9-7.4-42.9-15-62.5c-1.3-1-2.6-1.9-3.9-2.9
		C490.2,197.6,495.6,226.4,495.8,255.3z"/>
	<path d="M479.7,170.4c1.3,1,2.6,1.9,3.9,2.9c-11.5-29.7-28.5-56.3-49.7-78.9c-1.4-0.9-2.8-1.8-4.3-2.7
		C451.9,115,468.6,141.8,479.7,170.4z"/>
	<path d="M321.8,26.8c-19.2-5.3-39.3-8.3-59.9-8.7c20,0.4,40,3.3,59.5,8.8C321.5,26.9,321.7,26.9,321.8,26.8z"/>
	<path d="M483.4,333.2c1.5,1.4,2.9,2.8,4.3,4.1c8.2-24.8,12.5-51.2,12.2-78.5c-1.3-1.2-2.7-2.4-4.1-3.6
		C496,281.5,491.9,307.9,483.4,333.2z"/>
	<path d="M221.8,20.7c-9.1,1.3-18,3.1-26.7,5.4c0.1,0,0.2,0,0.3,0.1C204,23.8,212.9,22,221.8,20.7z"/>
</g>
<g>
	<g>
		<path d="M88.1,451.3c107.3,92.1,268.9,79.9,361-27.4s79.9-268.9-27.4-361S152.9-17,60.7,90.3C-31.2,197.6-18.9,359.1,88.1,451.3z
			 M410.6,75.9c100.1,86,111.6,236.8,25.5,336.9S199.4,524.3,99.3,438.3S-12.3,201.6,73.7,101.4C159.7,1.5,310.5-10,410.6,75.9z"/>
	</g>
	<path class="st3" d="M449.5,405.8C430.6,391,401.3,373.4,364,373c-42.1-0.5-62.7,21.2-105.3,29c-58.5,10.8-79.2-32.6-138.5-26.4
		c-29.8,3.1-52.9,15.3-66.8,24.2"/>
	<path class="st3" d="M485.7,337.6c-22.6-22-57.4-48.2-101.2-49.8c-49.4-1.9-72.9,28.8-122.7,39c-68.3,14-93.8-49.5-163.2-42.2
		C63.7,288.1,37,305.1,21,317.6"/>
	<path class="st3" d="M500.1,261c-23.5-21.6-59.8-47.4-105.7-48.8c-51.7-1.6-76.5,29-128.8,39.4c-71.7,14.2-98-48.5-170.7-40.9
		c-36.6,3.8-64.7,20.9-81.6,33.3"/>
	<path class="st3" d="M486.9,177.7c-22.2-17.8-56.4-39-100.1-39.6c-49.3-0.7-73.3,25.2-123.3,34.6c-68.5,12.8-92.8-39.4-162.2-32.2
		c-34.9,3.6-61.9,18.3-78.1,28.9"/>
	<path class="st3" d="M456.2,113.9c-18.9-17.5-48-38.3-84.8-39.5C329.9,73,310,97.7,268.1,106.1c-57.5,11.5-78.7-39.2-137-33.2
		C101.7,76,79.2,89.8,65.7,99.8"/>
	<path class="st3" d="M410,461c-13.9-9.3-35.4-20.3-63.2-20.2c-31.3,0.1-46.8,14.3-78.6,19.8c-43.6,7.6-58.5-20.2-102.7-15.6
		c-22.2,2.3-39.5,10.4-49.9,16.3"/>
	<path class="st3" d="M396.2,49.4c-12.9-10.9-32.7-23.9-57.9-24.4c-28.5-0.6-42.2,15.1-71,20.6c-39.5,7.6-53.7-24.3-93.7-20.1
		c-20.1,2.1-35.7,10.9-45,17.3"/>
</g>
</svg>
