<?xml version="1.0" encoding="utf-8"?>
<!-- Generator: Adobe Illustrator 23.0.3, SVG Export Plug-In . SVG Version: 6.00 Build 0)  -->
<svg version="1.1" id="Capa_1" xmlns="http://www.w3.org/2000/svg" xmlns:xlink="http://www.w3.org/1999/xlink" x="0px" y="0px"
	 viewBox="0 0 512 512" style="enable-background:new 0 0 512 512;" xml:space="preserve">
<style type="text/css">
	.st0{fill:#FFDF2B;}
	.st1{fill:#FFFFFF;}
	.st2{fill:none;stroke:#000000;stroke-width:10;stroke-miterlimit:10;}
</style>
<g>
	<rect x="412.7" y="191.4" class="st0" width="63" height="67.3"/>
	<rect x="412.7" y="258.8" class="st1" width="63" height="67.3"/>
	<rect x="333.7" y="191.4" class="st1" width="79" height="67.3"/>
	<polygon class="st0" points="333.7,191.4 412.7,191.4 412.7,127.2 333.7,128 	"/>
	<polygon class="st1" points="333.7,389.5 412.7,390.3 412.7,326.1 333.7,326.1 	"/>
	<rect x="333.7" y="258.8" class="st0" width="79" height="67.3"/>
	<polygon class="st0" points="333.7,128 333.7,73 258.8,72.3 258.8,128.7 	"/>
	<path class="st0" d="M183.7,129.4V71.6l-73.4-0.7c-1.9,1.5-3.7,3-5.6,4.6v54.7L183.7,129.4z"/>
	<path class="st1" d="M183.7,30.5c-27,9.1-51.8,22.9-73.4,40.4l73.4,0.7V30.5z"/>
	<path class="st1" d="M104.7,75.5c-18.4,15.8-34.4,34.4-47.3,55.1l47.3-0.5V75.5z"/>
	<path class="st0" d="M258.8,72.3V18c-26.3,0.1-51.6,4.5-75.2,12.5v41.1L258.8,72.3z"/>
	<polygon class="st1" points="412.7,127.2 412.7,73.7 333.7,73 333.7,128 	"/>
	<polygon class="st1" points="258.8,445.2 333.7,444.5 333.7,389.5 258.8,388.8 	"/>
	<polygon class="st1" points="183.7,129.4 258.8,128.7 258.8,72.3 183.7,71.6 	"/>
	<polygon class="st1" points="183.7,129.4 104.7,130.2 104.7,191.4 183.7,191.4 	"/>
	<polygon class="st1" points="333.7,191.4 333.7,128 258.8,128.7 258.8,191.4 	"/>
	<rect x="258.8" y="191.4" class="st0" width="74.8" height="67.3"/>
	<polygon class="st0" points="258.8,191.4 258.8,128.7 183.7,129.4 183.7,191.4 	"/>
	<rect x="183.7" y="258.8" class="st0" width="75.2" height="67.3"/>
	<rect x="183.7" y="191.4" class="st1" width="75.2" height="67.3"/>
	<path class="st0" d="M104.7,191.4v-61.2l-47.3,0.5C49.6,143,43,156.1,37.7,169.8v21.7H104.7z"/>
	<rect x="258.8" y="258.8" class="st1" width="74.8" height="67.3"/>
	<rect x="104.7" y="258.8" class="st1" width="79" height="67.3"/>
	<polygon class="st0" points="183.7,388.1 183.7,445.9 258.8,445.2 258.8,388.8 	"/>
	<rect x="104.7" y="191.4" class="st0" width="79" height="67.3"/>
	<polygon class="st1" points="258.8,326.1 183.7,326.1 183.7,388.1 258.8,388.8 	"/>
	<polygon class="st0" points="104.7,326.1 104.7,387.3 183.7,388.1 183.7,326.1 	"/>
	<rect x="37.7" y="191.4" class="st1" width="67" height="67.3"/>
	<rect x="37.7" y="258.8" class="st0" width="67" height="67.3"/>
	<polygon class="st0" points="258.8,326.1 258.8,388.8 333.7,389.5 333.7,326.1 	"/>
	<path class="st0" d="M475.7,326.1h9.1H475.7v34c14.7-30.7,23.1-65,23.4-101.3h-23.4V326.1z"/>
	<g>
		<path class="st1" d="M488.2,191.4h-12.6v67.3h23.4c0-0.6,0-1.2,0-1.9c0-37-8.4-72.1-23.4-103.3v37.9H488.2z"/>
	</g>
	<path class="st0" d="M412.7,326.1v64.2l45.4,0.4c6.6-9.7,12.5-20,17.6-30.7v-34H412.7z"/>
	<path class="st1" d="M412.7,191.4h63v-37.9c-4.5-9.3-9.5-18.2-15.1-26.8l-47.9,0.5V191.4z"/>
	<path class="st1" d="M412.7,440.7c17.4-14.4,32.7-31.3,45.4-50l-45.4-0.4V440.7z"/>
	<path class="st1" d="M413.6,73.7c-0.3-0.3-0.6-0.5-0.9-0.8v0.8L413.6,73.7z"/>
	<path class="st0" d="M412.7,127.2l47.9-0.5c-13-20-28.9-37.8-47-53.1l-0.9,0V127.2z"/>
	<path class="st1" d="M37.7,169.8c-2.8,7.1-5.2,14.3-7.3,21.7h7.3V169.8z"/>
	<path class="st0" d="M412.7,73.7v-0.8c-23.1-19.1-49.8-34-79-43.4V73L412.7,73.7z"/>
	<path class="st0" d="M333.7,389.5v55l75.2-0.7c1.3-1,2.6-2.1,3.8-3.1v-50.4L333.7,389.5z"/>
	<path class="st1" d="M258.8,18v54.3l74.8,0.7V29.5C310.5,22,285.8,18,260.2,18C259.7,18,259.3,18,258.8,18z"/>
	<path class="st0" d="M31.5,326.1c1.8,6.1,3.9,12.1,6.2,18v-18H31.5z"/>
	<path class="st1" d="M104.7,326.1h-67v18c5.9,15.1,13.3,29.5,22,42.9l45,0.4V326.1z"/>
	<path class="st0" d="M59.7,386.9c12.5,19.2,27.6,36.5,45,51.4v-50.9L59.7,386.9z"/>
	<path class="st0" d="M37.7,191.4h-7.3c-5.9,20.8-9.1,42.8-9.1,65.5c0,0.6,0,1.2,0,1.9h16.4V191.4z"/>
	<path class="st1" d="M37.7,258.8H21.3c0.2,23.4,3.7,46,10.1,67.3h6.2V258.8z"/>
	<path class="st1" d="M333.7,484.2c27.6-8.9,53-22.7,75.2-40.4l-75.2,0.7V484.2z"/>
	<path class="st1" d="M183.7,388.1l-79-0.8v50.9c3.3,2.8,6.7,5.6,10.2,8.3l68.8-0.6V388.1z"/>
	<path class="st0" d="M258.8,445.2v50.6c0.4,0,0.9,0,1.3,0c25.6,0,50.3-4.1,73.5-11.6v-39.7L258.8,445.2z"/>
	<path class="st0" d="M114.8,446.5c20.6,15.8,43.8,28.3,68.8,36.8v-37.4L114.8,446.5z"/>
	<path class="st1" d="M183.7,445.9v37.4c23.6,8,48.9,12.3,75.2,12.5v-50.6L183.7,445.9z"/>
	<path d="M104.7,438.3v8.3V438.3c-17.3-14.9-32.5-32.2-45-51.4l-10.2-0.1c14,22.6,31.5,42.8,51.8,59.8l13.5-0.1
		C111.4,443.9,108,441.1,104.7,438.3z"/>
	<path d="M333.7,20.5v9c29.2,9.4,55.9,24.3,79,43.4v-9v9c0.3,0.3,0.6,0.5,0.9,0.8l5.1,0l-5.1,0c18.2,15.2,34.1,33.1,47,53.1l3.1,0
		l-3.1,0c5.6,8.6,10.6,17.5,15.1,26.8v-13.8v13.8c15,31.3,23.4,66.3,23.4,103.3c0,0.6,0,1.2,0,1.9h2.9h-2.9
		c-0.3,36.3-8.7,70.6-23.4,101.3v13.5V360c-5.1,10.7-11,21-17.6,30.7l2.2,0l-2.2,0c-12.7,18.7-28,35.6-45.4,50v3v-3
		c-1.3,1-2.5,2.1-3.8,3.1l6.3-0.1l-6.3,0.1c-22.2,17.7-47.6,31.5-75.2,40.4v1.5v-1.5c-23.1,7.5-47.8,11.6-73.5,11.6
		c-0.4,0-0.9,0-1.3,0v3.3v-3.3c-26.3-0.1-51.6-4.5-75.2-12.5v5.2v-5.2c-25.1-8.5-48.3-21-68.8-36.8l-13.5,0.1
		c43,36,98.4,57.7,158.9,57.7c136.7,0,247.5-110.8,247.5-247.5C507.7,145.8,434.5,51.8,333.7,20.5z"/>
	<path d="M37.7,344v21.3c3.6,7.4,7.5,14.5,11.8,21.5l10.2,0.1C51,373.5,43.6,359.1,37.7,344z"/>
	<path d="M104.7,70.9v4.7c1.8-1.6,3.7-3.1,5.6-4.6L104.7,70.9z"/>
	<path d="M104.7,66.8v4.1l5.6,0.1c21.7-17.5,46.5-31.3,73.4-40.4v-9C151.4,32,122,48.9,97,70.8l7.6,0.1V66.8z"/>
	<path d="M258.8,18v-3.3V18c0.4,0,0.9,0,1.3,0c25.6,0,50.3,4.1,73.5,11.5v-9c-23.2-7.2-47.9-11.1-73.5-11.1
		c-26.7,0-52.4,4.2-76.5,12.1v9C207.3,22.5,232.6,18.2,258.8,18z"/>
	<path d="M31.5,326.1h-9c4,13.6,9,26.7,15.2,39.3V344C35.4,338.2,33.3,332.2,31.5,326.1z"/>
	<path d="M57.3,130.7l-9.7,0.1L57.3,130.7c12.9-20.7,28.9-39.3,47.3-55.1v-4.7L97,70.8c-24.6,21.6-44.9,47.9-59.4,77.7v21.3
		C43,156.1,49.6,143,57.3,130.7z"/>
	<polygon class="st1" points="475.7,360 489.3,340.2 489.3,326.1 475.7,326.1 	"/>
	<path d="M21.3,258.8h-5.5H21.3c0-0.6,0-1.2,0-1.9c0-22.7,3.2-44.7,9.1-65.5h-5h5c2.1-7.4,4.5-14.6,7.3-21.7v-21.3
		c-16,32.8-25,69.5-25,108.5c0,24,3.4,47.2,9.8,69.2h9C25,304.7,21.5,282.1,21.3,258.8z"/>
	<path class="st0" d="M475.7,153.6c0,0,12.8,22.4,12.8,23.6c0,1.1,2.2,14.3,2.2,14.3h-15V153.6z"/>
</g>
<g>
	<g>
		<path d="M256,0C114.6,0,0,114.6,0,256s114.6,256,256,256s256-114.6,256-256C511.8,114.7,397.3,0.2,256,0z M256,494.9
			C124,494.9,17.1,388,17.1,256S124,17.1,256,17.1S494.9,124,494.9,256C494.8,387.9,387.9,494.8,256,494.9z"/>
	</g>
	<line class="st2" x1="95" y1="68" x2="420" y2="71"/>
	<line class="st2" x1="49" y1="128" x2="465" y2="124"/>
	<line class="st2" x1="26.7" y1="188.7" x2="489.6" y2="188.7"/>
	<line class="st2" x1="17.1" y1="256" x2="503.3" y2="256"/>
	<line class="st2" x1="91.5" y1="444" x2="416.5" y2="441"/>
	<line class="st2" x1="45.5" y1="384" x2="461.5" y2="388"/>
	<line class="st2" x1="23.2" y1="323.3" x2="486.1" y2="323.3"/>
	<line class="st2" x1="106" y1="64" x2="106" y2="443.8"/>
	<line class="st2" x1="185" y1="17.5" x2="185" y2="485.8"/>
	<line class="st2" x1="260.2" y1="12" x2="260.2" y2="496.3"/>
	<line class="st2" x1="414" y1="61.2" x2="414" y2="441"/>
	<line class="st2" x1="335" y1="14.6" x2="335" y2="482.9"/>
	<line class="st2" x1="39" y1="140" x2="39" y2="373.8"/>
	<line class="st2" x1="477" y1="137" x2="477" y2="370.8"/>
</g>
</svg>
