<?xml version="1.0" encoding="utf-8"?>
<!-- Generator: Adobe Illustrator 23.0.3, SVG Export Plug-In . SVG Version: 6.00 Build 0)  -->
<svg version="1.1" id="Capa_1" xmlns="http://www.w3.org/2000/svg" xmlns:xlink="http://www.w3.org/1999/xlink" x="0px" y="0px"
	 viewBox="0 0 512 512" style="enable-background:new 0 0 512 512;" xml:space="preserve">
<style type="text/css">
	.st0{fill:#FFDF2B;}
	.st1{fill:#FFFFFF;}
	.st2{fill:none;stroke:#000000;stroke-width:10;stroke-miterlimit:10;}
</style>
<g>
	<path class="st0" d="M190.1,27.5v458.6c21.3,6.2,43.9,9.6,67.3,9.6V17.9C234.1,17.9,211.5,21.2,190.1,27.5z"/>
	<path class="st1" d="M257.4,17.9v477.8c23.4,0,46-3.4,67.3-9.6V27.5C303.4,21.3,280.8,17.9,257.4,17.9z"/>
	<path class="st0" d="M496.3,256.8c0-57.3-20.2-109.8-53.8-150.9l2.8,298.6C477.3,363.8,496.3,312.5,496.3,256.8z"/>
	<path class="st1" d="M18.5,256.8c0,55.7,19.1,107,51,147.6l2.8-298.7C38.7,146.9,18.5,199.5,18.5,256.8z"/>
	<path class="st0" d="M72.3,105.7l-2.8,298.7c16.7,21.2,36.9,39.6,59.8,54.1l-3.9-401C105.4,70.9,87.5,87.1,72.3,105.7z"/>
	<path class="st1" d="M125.5,57.5l3.9,401c18.7,11.9,39.1,21.2,60.8,27.5V27.5C166.9,34.3,145.2,44.5,125.5,57.5z"/>
	<path class="st1" d="M445.3,404.4l-2.8-298.6c-15.2-18.6-33.1-34.8-53.2-48.2l-3.9,400.8C408.4,444,428.6,425.7,445.3,404.4z"/>
	<path class="st0" d="M389.4,57.7c-19.7-13.1-41.4-23.3-64.6-30.1v458.5c21.7-6.4,42.1-15.7,60.8-27.6L389.4,57.7z"/>
	<path d="M1.4,256.8c0,141.4,114.6,256,256,256s256-114.6,256-256s-114.6-256-256-256C116.1,1,1.6,115.5,1.4,256.8z M442.4,96.7
		l0-0.4L442.4,96.7c34.6,42.6,55.3,96.8,55.3,155.9c0,57.5-19.6,110.4-52.5,152.4l0.2,16.3l-0.2-16.3c-16.8,21.4-37,40-59.8,54.9
		l-0.1,7.4l0.1-7.4c-18.7,12.2-39.1,22-60.8,28.8v0.9v-0.9c-23.5,7.4-48.5,11.4-74.5,11.4C113.5,500.1,2.7,389.3,2.7,252.6
		S113.5,5.1,250.2,5.1C327.8,5.1,397,40.8,442.4,96.7z"/>
	<path d="M2.7,252.6c0,136.7,110.8,247.5,247.5,247.5c26,0,51-4,74.5-11.4v-2.6c-21.3,6.2-43.9,9.6-67.3,9.6s-46-3.4-67.3-9.6v0v0
		c-21.7-6.4-42.1-15.7-60.8-27.5l0.1,5.3l-0.1-5.3c-22.9-14.5-43.1-32.9-59.8-54.1l-0.1,13.4l0.1-13.4c-32-40.6-51-91.9-51-147.6
		c0-57.3,20.2-109.9,53.8-151.1l0.1-12.9l-0.1,12.9c15.2-18.6,33.1-34.9,53.2-48.2l-0.1-9.8l0.1,9.8c19.7-13.1,41.4-23.3,64.6-30.1
		v-4.3v4.3c21.3-6.2,43.9-9.6,67.3-9.6V9.5v8.4c23.4,0,46,3.4,67.3,9.7v-0.9v0.9c23.2,6.8,44.9,17.1,64.6,30.1l0.1-6.4l-0.1,6.4
		c20,13.3,38,29.6,53.2,48.2l-0.1-9.2C397,40.8,327.8,5.1,250.2,5.1C113.5,5.1,2.7,115.9,2.7,252.6z"/>
	<path d="M385.5,458.5l0,1.4c22.8-14.9,43-33.5,59.8-54.9l0-0.5C428.6,425.7,408.4,444,385.5,458.5z"/>
	<path d="M496.3,256.8c0,55.8-19.1,107-51.1,147.7l0,0.5c32.9-42,52.5-94.9,52.5-152.4c0-59.1-20.7-113.4-55.3-155.9l0.1,9.2
		C476.1,147,496.3,199.5,496.3,256.8z"/>
	<path d="M324.7,486.1v2.6c21.7-6.8,42.1-16.6,60.8-28.8l0-1.4C366.8,470.4,346.4,479.7,324.7,486.1z"/>
</g>
<g>
	<path d="M-0.8,255.4c0,141.4,114.6,256,256,256s256-114.6,256-256s-114.6-256-256-256C113.9-0.4-0.6,114.1-0.8,255.4z M494.1,255.4
		c0,132-106.9,238.9-238.9,238.9S16.3,387.4,16.3,255.4c0-132,106.9-238.9,238.9-238.9C387.1,16.6,494,123.5,494.1,255.4z"/>
</g>
<line class="st2" x1="67.2" y1="416.4" x2="70.2" y2="91.4"/>
<line class="st2" x1="127.2" y1="462.4" x2="123.2" y2="46.4"/>
<line class="st2" x1="187.9" y1="484.7" x2="187.9" y2="21.8"/>
<line class="st2" x1="255.2" y1="494.3" x2="255.2" y2="8.1"/>
<line class="st2" x1="443.2" y1="419.9" x2="440.2" y2="94.9"/>
<line class="st2" x1="383.2" y1="465.9" x2="387.2" y2="49.9"/>
<line class="st2" x1="322.5" y1="488.2" x2="322.5" y2="25.3"/>
</svg>
