<?xml version="1.0" encoding="iso-8859-1"?>
<!-- Generator: Adobe Illustrator 19.0.0, SVG Export Plug-In . SVG Version: 6.00 Build 0)  -->
<svg version="1.1" id="Capa_1" xmlns="http://www.w3.org/2000/svg" xmlns:xlink="http://www.w3.org/1999/xlink" x="0px" y="0px"
	 viewBox="0 0 512 512" style="enable-background:new 0 0 512 512;" xml:space="preserve">
<g>
	<g transform="translate(1 1)">
		<g>
			<circle style="fill:#354AA3;" cx="255" cy="255" r="247.467"/>
			<ellipse style="fill:#5068C1;" cx="242.2" cy="255" rx="234.667" ry="247.467"/>
			<path style="fill:#D7DEE2;" d="M408.6,111.213c0,0-3.157,13.568-9.984,33.451C314.136,179.053,263.533,255,263.533,255
				l-8.448,0.427c-10.988-9.583-24.231-16.219-38.485-19.285c11.802-16.744,25.051-32.421,39.595-46.848
				C311.661,133.827,408.6,111.213,408.6,111.213z"/>
			<path style="fill:#728F9C;" d="M398.616,144.664c-11.52,33.28-33.365,84.224-68.096,118.955
				c-14.442,14.527-30.117,27.775-46.848,39.595c-3.575-16.449-11.845-31.507-23.808-43.349c-1.536-1.536-3.157-2.987-4.779-4.437
				l8.448-0.427C263.533,255,314.136,179.053,398.616,144.664z"/>
			<path style="fill:#F6F6F6;" d="M283.672,303.213c-14.894,10.871-31.238,19.603-48.555,25.941l-44.544-44.288
				c6.348-17.382,15.11-33.784,26.027-48.725c14.255,3.066,27.497,9.702,38.485,19.285c1.621,1.451,3.243,2.901,4.779,4.437
				C271.827,271.706,280.097,286.765,283.672,303.213z"/>
		</g>
		<path style="fill:#FFEB49;" d="M101.4,398.792c51.867-30.085,31.314-71.177,62.021-101.883
			c16.492-16.243,42.998-16.142,59.365,0.226c16.368,16.368,16.468,42.874,0.226,59.365
			C192.306,387.207,147.421,392.431,101.4,398.792z"/>
	</g>
	<g>
		<path d="M256,0C114.615,0,0,114.615,0,256s114.615,256,256,256s256-114.615,256-256C511.84,114.682,397.319,0.16,256,0z
			 M256,494.933C124.041,494.933,17.067,387.959,17.067,256S124.041,17.067,256,17.067S494.933,124.041,494.933,256
			C494.785,387.898,387.898,494.785,256,494.933z"/>
		<path d="M407.667,103.896c-4.058,0.946-99.975,23.804-156.517,80.346c-27.921,26.526-50.234,58.387-65.617,93.695
			c-10.285,1.686-19.779,6.562-27.142,13.938c-11.851,12.915-19.785,28.934-22.875,46.188c-5.267,19.85-10.25,38.6-37.4,54.346
			c-2.808,1.658-4.413,4.783-4.123,8.031c-0.017,0.218-0.127,0.405-0.127,0.627c-0.001,2.263,0.898,4.434,2.499,6.035
			c1.6,1.6,3.771,2.499,6.035,2.499h170.667c4.713,0,8.533-3.821,8.533-8.533s-3.82-8.533-8.533-8.533h-91.094
			c18.022-5.88,34.464-15.799,48.069-29c7.42-7.404,12.308-16.964,13.965-27.313c35.246-15.4,67.056-37.692,93.56-65.566
			c56.542-56.533,79.4-152.454,80.341-156.508c0.67-2.871-0.19-5.884-2.274-7.97C413.55,104.091,410.538,103.229,407.667,103.896
			L407.667,103.896z M263.217,196.308c40.708-40.708,105.733-63.442,134.2-71.912c-1.261,4.245-2.881,9.378-4.789,15.046
			c-52.992,24.205-98.836,61.685-133.091,108.809c-8.32-6.848-17.739-12.236-27.859-15.938
			C241.374,219.619,251.91,207.591,263.217,196.308L263.217,196.308z M229.817,292.1c-7.109-7.141-16.19-11.994-26.077-13.935
			c4.922-10.864,10.776-21.281,17.496-31.134c25.821,7.521,46.011,27.71,53.533,53.53c-9.827,6.697-20.212,12.535-31.041,17.45
			C241.764,308.185,236.922,299.165,229.817,292.1z M131.6,386.971c10.252-13.006,17.249-28.273,20.408-44.529
			c2.382-14.321,8.78-27.672,18.45-38.5c6.205-6.226,14.643-9.71,23.433-9.675h0.133c18.532,0.097,33.53,15.097,33.625,33.629
			c0.071,8.837-3.416,17.332-9.674,23.571C195.875,373.575,165.208,381.592,131.6,386.971z M325.5,258.587
			c-11.282,11.306-23.313,21.84-36.009,31.531c-3.987-10.929-9.933-21.04-17.546-29.836c29.536-40.797,67.954-74.351,112.354-98.129
			C372.062,192.97,352.872,231.218,325.5,258.587z"/>
	</g>
</g>
<g>
</g>
<g>
</g>
<g>
</g>
<g>
</g>
<g>
</g>
<g>
</g>
<g>
</g>
<g>
</g>
<g>
</g>
<g>
</g>
<g>
</g>
<g>
</g>
<g>
</g>
<g>
</g>
<g>
</g>
</svg>
