<?xml version="1.0" encoding="iso-8859-1"?>
<!-- Generator: Adobe Illustrator 19.0.0, SVG Export Plug-In . SVG Version: 6.00 Build 0)  -->
<svg version="1.1" id="Capa_1" xmlns="http://www.w3.org/2000/svg" xmlns:xlink="http://www.w3.org/1999/xlink" x="0px" y="0px"
	 viewBox="0 0 512 512" style="enable-background:new 0 0 512 512;" xml:space="preserve">
<g>
	<g transform="translate(1 1)">
		<circle style="fill:#007B6F;" cx="255" cy="255" r="247.467"/>
		<ellipse style="fill:#00A499;" cx="242.2" cy="255" rx="234.667" ry="247.467"/>
		<path style="fill:#475962;" d="M101.4,306.2h307.2c4.713,0,8.533,3.821,8.533,8.533V331.8c0,4.713-3.821,8.533-8.533,8.533H101.4
			c-4.713,0-8.533-3.82-8.533-8.533v-17.067C92.867,310.021,96.687,306.2,101.4,306.2z"/>
		<path style="fill:#728F9C;" d="M101.4,306.2H383c4.713,0,8.533,3.821,8.533,8.533V331.8c0,4.713-3.82,8.533-8.533,8.533H101.4
			c-4.713,0-8.533-3.82-8.533-8.533v-17.067C92.867,310.021,96.687,306.2,101.4,306.2z"/>
		<path style="fill:#D7DEE2;" d="M127,118.467h256c9.426,0,17.067,7.641,17.067,17.067V306.2H109.933V135.533
			C109.933,126.108,117.574,118.467,127,118.467z"/>
		<path style="fill:#F6F6F6;" d="M127,118.467h230.4c9.426,0,17.067,7.641,17.067,17.067V306.2H109.933V135.533
			C109.933,126.108,117.574,118.467,127,118.467z"/>
		<g>
			<path style="fill:#8B685A;" d="M220.867,118.467c0-18.851,15.282-34.133,34.133-34.133s34.133,15.282,34.133,34.133H220.867z"/>
			<path style="fill:#8B685A;" d="M200.728,340.333L175.5,409.64c-1.547,4.249-4.719,7.709-8.818,9.617
				c-4.099,1.908-8.789,2.109-13.036,0.557l0,0c-8.829-3.225-13.377-12.993-10.163-21.826l20.978-57.655"/>
			<path style="fill:#8B685A;" d="M339.053,340.333l21.036,57.631c1.55,4.246,1.349,8.933-0.559,13.031
				c-1.908,4.097-5.365,7.269-9.612,8.816l-0.045,0.016c-4.248,1.548-8.938,1.344-13.036-0.568c-4.098-1.912-7.267-5.375-8.81-9.625
				l-25.156-69.301"/>
			<path style="fill:#8B685A;" d="M272.067,340.333v42.698c0,9.408-7.627,17.035-17.035,17.035h-0.062
				c-9.408,0-17.035-7.627-17.035-17.035v-42.698"/>
		</g>
	</g>
	<g>
		<path d="M256,0C114.615,0,0,114.615,0,256s114.615,256,256,256s256-114.615,256-256C511.84,114.682,397.319,0.16,256,0z
			 M256,494.933C124.041,494.933,17.067,387.959,17.067,256S124.041,17.067,256,17.067S494.933,124.041,494.933,256
			C494.785,387.898,387.898,494.785,256,494.933z"/>
		<path d="M409.6,298.667V136.533c-0.015-14.132-11.468-25.585-25.6-25.6h-86.196C293.749,91.068,276.275,76.8,256,76.8
			c-20.275,0-37.749,14.268-41.804,34.133H128c-14.132,0.015-25.585,11.468-25.6,25.6v162.133
			c-9.421,0.012-17.054,7.646-17.067,17.067V332.8c0.012,9.421,7.646,17.054,17.067,17.067h50.877l-16.811,46.208
			c-3.123,8.583-1.43,18.181,4.442,25.177c5.872,6.996,15.03,10.329,24.025,8.742c8.995-1.587,16.46-7.852,19.583-16.435
			l23.181-63.691H230.4v34.167c0,14.138,11.462,25.6,25.6,25.6c14.139,0,25.6-11.462,25.6-25.6v-34.167h16.292l23.117,63.683
			c3.677,10.096,13.264,16.825,24.008,16.85c3.008-0.005,5.993-0.538,8.817-1.575c6.376-2.318,11.568-7.076,14.433-13.225
			c2.865-6.149,3.168-13.185,0.841-19.558l-16.858-46.175h57.35c9.421-0.012,17.054-7.646,17.067-17.067v-17.067
			C426.654,306.313,419.021,298.679,409.6,298.667z M256,93.867c10.846,0.013,20.511,6.846,24.142,17.067h-48.283
			C235.489,100.713,245.154,93.88,256,93.867z M119.467,136.533c0.003-4.712,3.822-8.53,8.533-8.533h256
			c4.712,0.003,8.53,3.822,8.533,8.533v162.133H119.467V136.533z M168.483,407.725c-0.773,2.12-2.357,3.845-4.403,4.797
			c-2.046,0.952-4.386,1.052-6.505,0.278c-4.402-1.614-6.671-6.483-5.075-10.892l18.931-52.042h18.11L168.483,407.725z
			 M264.533,384.033c0,4.713-3.821,8.533-8.533,8.533c-4.713,0-8.533-3.82-8.533-8.533v-34.167h17.067V384.033z M353.075,401.892
			c1.604,4.423-0.678,9.31-5.099,10.919c-4.421,1.609-9.311-0.667-10.926-5.086l-20.998-57.858h18.029L353.075,401.892z
			 M102.4,332.8v-17.067h307.2l0.017,17.067H102.4z"/>
	</g>
</g>
<g>
</g>
<g>
</g>
<g>
</g>
<g>
</g>
<g>
</g>
<g>
</g>
<g>
</g>
<g>
</g>
<g>
</g>
<g>
</g>
<g>
</g>
<g>
</g>
<g>
</g>
<g>
</g>
<g>
</g>
</svg>
