<?xml version="1.0" encoding="iso-8859-1"?>
<!-- Generator: Adobe Illustrator 19.0.0, SVG Export Plug-In . SVG Version: 6.00 Build 0)  -->
<svg version="1.1" id="Capa_1" xmlns="http://www.w3.org/2000/svg" xmlns:xlink="http://www.w3.org/1999/xlink" x="0px" y="0px"
	 viewBox="0 0 512 512" style="enable-background:new 0 0 512 512;" xml:space="preserve">
<g>
	<g transform="translate(1 1)">
		<circle style="fill:#007B6F;" cx="255" cy="255" r="247.467"/>
		<ellipse style="fill:#00A499;" cx="242.2" cy="255" rx="234.667" ry="247.467"/>
		<path style="fill:#D13D34;" d="M398.616,206.189l-9.813,9.728L263.192,341.613l-23.808-23.808l-74.496-74.581l125.611-125.611
			l9.813-9.728c6.674-6.656,17.475-6.656,24.149,0l74.155,74.155C405.272,188.714,405.272,199.515,398.616,206.189z"/>
		<path style="fill:#D7DEE2;" d="M263.192,341.613l-53.504,53.419c-3.185,3.235-7.535,5.056-12.075,5.056
			c-4.54,0-8.89-1.821-12.075-5.056l-74.155-74.155c-6.656-6.674-6.656-17.475,0-24.149l53.504-53.504l74.496,74.581
			L263.192,341.613z"/>
		<path style="fill:#F85B44;" d="M374.808,182.381l-9.813,9.728L239.384,317.805l-74.496-74.581l125.611-125.611l9.813-9.728
			c6.674-6.656,17.475-6.656,24.149,0l50.347,50.347C381.464,164.906,381.464,175.708,374.808,182.381z"/>
		<path style="fill:#F6F6F6;" d="M239.384,317.805l-53.504,53.419c-3.185,3.234-7.535,5.056-12.075,5.056s-8.889-1.821-12.075-5.056
			l-50.347-50.347c-6.656-6.674-6.656-17.475,0-24.149l53.504-53.504L239.384,317.805z"/>
	</g>
	<g>
		<path d="M256,0C114.615,0,0,114.615,0,256s114.615,256,256,256s256-114.615,256-256C511.84,114.682,397.319,0.16,256,0z
			 M256,494.933C124.041,494.933,17.067,387.959,17.067,256S124.041,17.067,256,17.067S494.933,124.041,494.933,256
			C494.785,387.898,387.898,494.785,256,494.933z"/>
		<path d="M331.458,102.821c-10.005-9.983-26.203-9.983-36.208,0L106.358,291.713c-9.983,10.003-9.983,26.201,0,36.204
			l74.183,74.183c4.8,4.805,11.317,7.5,18.108,7.488c0.179,0,0.355-0.047,0.534-0.051c0.111,0.004,0.204,0.064,0.316,0.064h153.6
			c4.713,0,8.533-3.82,8.533-8.533s-3.82-8.533-8.533-8.533H226.317l179.325-179.325c9.983-10.003,9.983-26.201,0-36.204
			L331.458,102.821z M313.35,112.392c2.266-0.004,4.439,0.894,6.042,2.496l74.183,74.183c3.325,3.337,3.325,8.734,0,12.071
			l-9.771,9.771l-0.012,0.009l-119.6,119.6l-86.25-86.254l119.6-119.6l0.009-0.013l9.767-9.767
			C308.917,113.287,311.087,112.389,313.35,112.392z M118.425,315.85c-3.325-3.337-3.325-8.734,0-12.071l47.448-47.448
			l86.254,86.258l-47.444,47.443c-3.336,3.331-8.739,3.331-12.075,0L118.425,315.85z"/>
	</g>
</g>
<g>
</g>
<g>
</g>
<g>
</g>
<g>
</g>
<g>
</g>
<g>
</g>
<g>
</g>
<g>
</g>
<g>
</g>
<g>
</g>
<g>
</g>
<g>
</g>
<g>
</g>
<g>
</g>
<g>
</g>
</svg>
