<?xml version="1.0" encoding="iso-8859-1"?>
<!-- Generator: Adobe Illustrator 19.0.0, SVG Export Plug-In . SVG Version: 6.00 Build 0)  -->
<svg version="1.1" id="Capa_1" xmlns="http://www.w3.org/2000/svg" xmlns:xlink="http://www.w3.org/1999/xlink" x="0px" y="0px"
	 viewBox="0 0 512 512" style="enable-background:new 0 0 512 512;" xml:space="preserve">
<g>
	<g transform="translate(1 1)">
		<path style="fill:#607D8B;" d="M502.467,255c0.011,65.636-26.058,128.586-72.469,174.997
			c-46.411,46.411-109.362,72.48-174.997,72.469c-4.267,0-8.533-0.085-12.715-0.341h-0.171C110.629,495.274,7.531,386.664,7.531,255
			S110.629,14.726,242.115,7.875h0.171c4.181-0.256,8.448-0.341,12.715-0.341c65.636-0.011,128.586,26.058,174.997,72.469
			C476.409,126.414,502.478,189.364,502.467,255z"/>
		<path style="fill:#CFD8DC;" d="M476.867,255c0.003,131.665-103.095,240.275-234.581,247.125h-0.171
			C110.629,495.274,7.531,386.664,7.531,255S110.629,14.726,242.115,7.875h0.171C373.771,14.725,476.869,123.336,476.867,255z"/>
		<path style="fill:#CDDC39;" d="M357.4,331.8V383c-0.028,9.414-7.653,17.039-17.067,17.067h-68.267
			c-9.414-0.028-17.039-7.652-17.067-17.067v-51.2H357.4z"/>
		<rect x="255" y="255" style="fill:#00BCD4;" width="102.4" height="76.8"/>
		<rect x="255" y="178.2" style="fill:#E91E63;" width="102.4" height="76.8"/>
		<path style="fill:#FFEB3A;" d="M357.4,118.467V178.2H255v-59.733c0.028-9.414,7.652-17.039,17.067-17.067h68.267
			C349.748,101.428,357.372,109.052,357.4,118.467z"/>
		<path style="fill:#00BCD4;" d="M107.081,145.528c13.33-13.33,34.942-13.33,48.272,0l42.238,42.238l-48.272,48.272L107.081,193.8
			C93.751,180.47,93.751,158.858,107.081,145.528z"/>
		<path style="fill:#F4F4F4;" d="M149.319,236.063l48.272-48.272l84.476,84.476c13.33,13.33,13.33,34.942,0,48.272
			s-34.942,13.33-48.272,0L149.319,236.063z"/>
	</g>
	<g>
		<path d="M256,0C114.615,0,0,114.615,0,256s114.615,256,256,256s256-114.615,256-256C511.84,114.682,397.319,0.16,256,0z
			 M256,494.933C124.041,494.933,17.067,387.959,17.067,256S124.041,17.067,256,17.067S494.933,124.041,494.933,256
			C494.785,387.898,387.898,494.785,256,494.933z"/>
		<path d="M341.333,93.867h-68.267c-14.132,0.015-25.585,11.468-25.6,25.6v106.11l-36.808-36.81l6.033-6.033
			c2.156-2.155,2.997-5.297,2.209-8.242c-0.789-2.944-3.089-5.244-6.033-6.033c-2.944-0.789-6.086,0.053-8.242,2.208l-6.034,6.034
			l-36.208-36.205c-16.663-16.663-43.679-16.663-60.342,0s-16.663,43.679,0,60.342l36.208,36.205l-6.033,6.033
			c-3.332,3.332-3.332,8.735,0,12.067c3.332,3.332,8.735,3.332,12.067,0l6.033-6.033l78.442,78.442
			c5.201,5.134,11.649,8.828,18.709,10.717V384c0.015,14.132,11.468,25.585,25.6,25.6h68.267c14.132-0.015,25.585-11.468,25.6-25.6
			V119.467C366.918,105.335,355.465,93.882,341.333,93.867z M273.067,110.933h68.267c4.711,0.005,8.529,3.822,8.533,8.533v51.2
			h-85.333v-51.2C264.538,114.756,268.356,110.938,273.067,110.933z M264.533,187.733h85.333v59.733h-80.512l-4.822-4.822V187.733z
			 M114.108,152.563c10.007-9.978,26.201-9.978,36.208,0l36.208,36.204l-36.208,36.208l-36.208-36.204
			C104.133,178.762,104.133,162.571,114.108,152.563z M162.383,237.042l36.208-36.208l51.347,51.35l0.064,0.064l9.763,9.764
			l0.039,0.04l17.229,17.229c9.971,10.002,9.975,26.185,0.01,36.193l-0.01,0.008l-0.01,0.013
			c-10.009,9.966-26.193,9.963-36.198-0.009L162.383,237.042z M341.333,392.533h-68.267c-4.711-0.005-8.529-3.822-8.533-8.533
			v-44.51c1.845-0.248,3.672-0.618,5.469-1.107c0.948,5.043,3.399,9.681,7.031,13.305c3.339,3.304,8.72,3.288,12.04-0.034
			c3.32-3.322,3.332-8.703,0.026-12.04c-1.602-1.6-2.501-3.771-2.5-6.035c0.002-2.264,0.904-4.434,2.508-6.032
			c3.375-3.22,8.685-3.218,12.058,0.004c3.334,3.32,8.727,3.314,12.054-0.013c3.327-3.327,3.332-8.72,0.012-12.054
			c-3.648-3.592-8.314-5.973-13.363-6.819c4.137-14.748,0.023-30.582-10.77-41.451l-2.679-2.679h63.446v59.733H332.8
			c-4.713,0-8.533,3.82-8.533,8.533s3.82,8.533,8.533,8.533h17.067V384C349.862,388.711,346.044,392.529,341.333,392.533z"/>
	</g>
</g>
<g>
</g>
<g>
</g>
<g>
</g>
<g>
</g>
<g>
</g>
<g>
</g>
<g>
</g>
<g>
</g>
<g>
</g>
<g>
</g>
<g>
</g>
<g>
</g>
<g>
</g>
<g>
</g>
<g>
</g>
</svg>
