<?xml version="1.0" encoding="iso-8859-1"?>
<!-- Generator: Adobe Illustrator 19.0.0, SVG Export Plug-In . SVG Version: 6.00 Build 0)  -->
<svg version="1.1" id="Capa_1" xmlns="http://www.w3.org/2000/svg" xmlns:xlink="http://www.w3.org/1999/xlink" x="0px" y="0px"
	 viewBox="0 0 512 512" style="enable-background:new 0 0 512 512;" xml:space="preserve">
<g>
	<g transform="translate(1 1)">
		<g>
			<circle style="fill:#354AA3;" cx="255" cy="255" r="247.467"/>
			<ellipse style="fill:#5068C1;" cx="242.2" cy="255" rx="234.667" ry="247.467"/>
		</g>
		<polygon style="fill:#D7DEE2;" points="417.901,164.461 405.869,176.579 405.784,176.579 381.72,200.643 381.72,200.728 
			369.688,212.76 369.603,212.76 357.571,224.792 345.539,236.909 345.453,236.909 333.421,248.941 321.389,261.059 
			321.304,261.059 297.24,285.123 297.24,285.208 285.208,297.24 285.123,297.24 273.091,309.272 261.059,321.389 260.973,321.389 
			248.941,333.421 236.909,345.539 236.824,345.539 212.76,369.603 212.76,369.688 200.728,381.72 200.643,381.72 188.611,393.752 
			176.579,405.869 164.461,417.901 146.627,400.067 110.445,363.885 98.413,351.853 92.099,345.539 104.216,333.507 
			116.248,321.389 128.28,309.357 128.365,309.357 140.397,297.325 140.397,297.24 152.429,285.208 164.547,273.176 
			176.579,261.059 188.696,249.027 200.728,236.909 212.76,224.877 212.845,224.877 224.877,212.845 224.877,212.76 
			236.909,200.728 249.027,188.696 261.059,176.579 273.176,164.547 285.208,152.429 297.24,140.397 297.325,140.397 
			309.357,128.365 321.389,116.248 333.507,104.216 345.539,92.099 		"/>
		<polygon style="fill:#F6F6F6;" points="400.067,146.627 388.035,158.744 387.949,158.744 363.885,182.808 363.885,182.893 
			351.853,194.925 351.768,194.925 339.736,206.957 327.704,219.075 327.619,219.075 315.587,231.107 303.555,243.224 
			303.469,243.224 279.405,267.288 279.405,267.373 267.373,279.405 267.288,279.405 255.256,291.437 243.224,303.555 
			243.139,303.555 231.107,315.587 219.075,327.704 218.989,327.704 194.925,351.768 194.925,351.853 182.893,363.885 
			182.808,363.885 170.776,375.917 158.744,388.035 146.627,400.067 110.445,363.885 98.413,351.853 92.099,345.539 
			104.216,333.507 116.248,321.389 128.28,309.357 128.365,309.357 140.397,297.325 140.397,297.24 152.429,285.208 
			164.547,273.176 176.579,261.059 188.696,249.027 200.728,236.909 212.76,224.877 212.845,224.877 224.877,212.845 
			224.877,212.76 236.909,200.728 249.027,188.696 261.059,176.579 273.176,164.547 285.208,152.429 297.24,140.397 
			297.325,140.397 309.357,128.365 321.389,116.248 333.507,104.216 345.539,92.099 		"/>
	</g>
	<g>
		<path d="M256,0C114.615,0,0,114.615,0,256s114.615,256,256,256s256-114.615,256-256C511.84,114.682,397.319,0.16,256,0z
			 M256,494.933C124.041,494.933,17.067,387.959,17.067,256S124.041,17.067,256,17.067S494.933,124.041,494.933,256
			C494.785,387.898,387.898,494.785,256,494.933z"/>
		<path d="M382.713,117.217l-0.012-0.009L352.542,87.05c-1.6-1.601-3.77-2.5-6.033-2.5s-4.434,0.899-6.033,2.5l-42.225,42.225
			l-0.012,0.009l-0.009,0.013l-72.388,72.387l-0.012,0.009l-0.009,0.013L87.05,340.475c-1.601,1.6-2.5,3.77-2.5,6.033
			s0.899,4.433,2.5,6.033l30.163,30.162l0.009,0.013l0.012,0.009l42.225,42.225c1.6,1.601,3.77,2.5,6.033,2.5
			c2.263,0,4.434-0.899,6.033-2.5l42.225-42.225l0.012-0.009l0.009-0.013l72.388-72.388l0.012-0.009l0.009-0.013l138.771-138.771
			c1.601-1.6,2.5-3.77,2.5-6.033c0-2.263-0.899-4.433-2.5-6.033l-42.23-42.229L382.713,117.217z M111.184,340.474l6.036,6.034
			c3.332,3.332,8.735,3.332,12.067,0c3.332-3.332,3.332-8.735,0-12.067l-6.036-6.034l12.068-12.068l6.035,6.035
			c2.152,2.174,5.302,3.029,8.258,2.243c2.956-0.787,5.264-3.095,6.051-6.051c0.787-2.956-0.069-6.106-2.242-8.258l-6.035-6.035
			l12.073-12.073l6.033,6.033c3.332,3.332,8.735,3.332,12.067,0c3.332-3.332,3.332-8.735,0-12.067l-6.033-6.033l12.067-12.067
			l6.033,6.033c3.332,3.332,8.735,3.332,12.067,0c3.332-3.332,3.332-8.735,0-12.067L195.659,256l12.068-12.069l6.035,6.035
			c3.332,3.332,8.735,3.332,12.067,0c3.332-3.332,3.332-8.735,0-12.067l-6.035-6.035l12.07-12.07l6.036,6.039
			c2.156,2.156,5.297,2.997,8.242,2.209c2.945-0.789,5.245-3.089,6.034-6.033c0.789-2.945-0.053-6.086-2.208-8.242l-6.036-6.039
			l12.07-12.07l6.033,6.033c2.155,2.156,5.297,2.997,8.242,2.208s5.244-3.089,6.033-6.033c0.789-2.944-0.053-6.086-2.208-8.242
			l-6.033-6.033l12.069-12.069l6.035,6.035c2.154,2.162,5.299,3.008,8.247,2.22c2.948-0.788,5.251-3.091,6.039-6.039
			c0.788-2.948-0.058-6.093-2.22-8.247l-6.035-6.035l12.07-12.07l6.036,6.039c2.155,2.156,5.297,2.997,8.242,2.208
			c2.944-0.789,5.244-3.089,6.033-6.033c0.789-2.944-0.053-6.086-2.208-8.242l-6.036-6.039l12.07-12.07l6.033,6.033
			c3.332,3.332,8.735,3.332,12.067,0c3.332-3.332,3.332-8.735,0-12.067l-6.033-6.033l6.033-6.033l18.102,18.102L123.256,364.615
			l-18.106-18.106L111.184,340.474z M400.816,171.526l-6.036-6.034c-3.332-3.332-8.735-3.332-12.067,0
			c-3.332,3.332-3.332,8.735,0,12.067l6.036,6.034l-12.068,12.068l-6.035-6.035c-3.337-3.303-8.716-3.29-12.036,0.03
			c-3.32,3.32-3.334,8.699-0.031,12.036l6.035,6.035L352.542,219.8l-6.033-6.033c-3.332-3.332-8.735-3.332-12.067,0
			c-3.332,3.332-3.332,8.735,0,12.067l6.033,6.033l-12.067,12.067l-6.033-6.033c-3.332-3.332-8.735-3.332-12.067,0
			c-3.332,3.332-3.332,8.735,0,12.067l6.033,6.033l-12.068,12.069l-6.035-6.035c-3.332-3.332-8.735-3.332-12.067,0
			s-3.332,8.735,0,12.067l6.035,6.035l-12.07,12.07l-6.036-6.039c-2.155-2.156-5.297-2.997-8.242-2.208
			c-2.945,0.789-5.244,3.089-6.033,6.033s0.053,6.086,2.208,8.242l6.036,6.039L256,316.342l-6.033-6.033
			c-3.332-3.332-8.735-3.332-12.067,0c-3.332,3.332-3.332,8.735,0,12.067l6.033,6.033l-12.069,12.069l-6.035-6.035
			c-3.334-3.322-8.728-3.318-12.056,0.011c-3.328,3.328-3.333,8.722-0.01,12.056l6.035,6.035l-12.07,12.07l-6.036-6.039
			c-3.332-3.332-8.735-3.332-12.067,0c-3.332,3.332-3.332,8.735,0,12.067l6.036,6.039l-12.07,12.07l-6.033-6.033
			c-2.156-2.156-5.297-2.997-8.242-2.208c-2.944,0.789-5.244,3.089-6.033,6.033c-0.789,2.944,0.053,6.086,2.208,8.242l6.033,6.033
			l-6.033,6.033l-30.169-30.169l241.354-241.362l30.173,30.173L400.816,171.526z"/>
	</g>
</g>
<g>
</g>
<g>
</g>
<g>
</g>
<g>
</g>
<g>
</g>
<g>
</g>
<g>
</g>
<g>
</g>
<g>
</g>
<g>
</g>
<g>
</g>
<g>
</g>
<g>
</g>
<g>
</g>
<g>
</g>
</svg>
