<?xml version="1.0" encoding="iso-8859-1"?>
<!-- Generator: Adobe Illustrator 19.0.0, SVG Export Plug-In . SVG Version: 6.00 Build 0)  -->
<svg version="1.1" id="Capa_1" xmlns="http://www.w3.org/2000/svg" xmlns:xlink="http://www.w3.org/1999/xlink" x="0px" y="0px"
	 viewBox="0 0 512 512" style="enable-background:new 0 0 512 512;" xml:space="preserve">
<g>
	<g transform="translate(1 1)">
		<g>
			<circle style="fill:#BC2B6A;" cx="255" cy="255" r="247.467"/>
			<ellipse style="fill:#EF3A76;" cx="242.2" cy="255" rx="234.667" ry="247.467"/>
			<path style="fill:#00939F;" d="M386.755,271.896l-126.72,126.72c-13.348,13.312-34.951,13.312-48.299,0l-96.512-96.597
				c-2.435-2.43-4.479-5.222-6.059-8.277c-6.98-13.196-4.521-29.404,6.059-39.936l126.72-126.72
				c1.594-1.598,3.759-2.496,6.016-2.496c2.257,0,4.422,0.898,6.016,2.496l114.176,114.091l18.603,18.603
				C390.083,263.132,390.083,268.543,386.755,271.896z"/>
			<path style="fill:#00C6DB;" d="M368.152,241.176c0.534,2.731-0.33,5.548-2.304,7.509l-126.72,126.72
				c-13.315,13.312-34.899,13.312-48.213,0l-81.749-81.664c-6.98-13.196-4.521-29.404,6.059-39.936l126.72-126.72
				c1.594-1.598,3.759-2.496,6.016-2.496c2.257,0,4.422,0.898,6.016,2.496L368.152,241.176z"/>
			<circle style="fill:#3A3E48;" cx="272.152" cy="217.581" r="17.067"/>
		</g>
		<path style="fill:#00C6DB;" d="M389.182,323.18c0,0-19.418,34.254-19.418,48.934c0,10.725,8.694,19.418,19.418,19.418
			c10.725,0,19.418-8.694,19.418-19.418C408.6,357.434,389.182,323.18,389.182,323.18z"/>
	</g>
	<g>
		<path d="M256,0C114.615,0,0,114.615,0,256s114.615,256,256,256s256-114.615,256-256C511.84,114.682,397.319,0.16,256,0z
			 M256,494.933C124.041,494.933,17.067,387.959,17.067,256S124.041,17.067,256,17.067S494.933,124.041,494.933,256
			C494.785,387.898,387.898,494.785,256,494.933z"/>
		<path d="M398.788,266.854c0.012-4.529-1.788-8.874-5-12.067L279.163,140.162l-0.017-0.025l-0.105-0.096l-17.999-17.999
			c-2.568-2.558-5.891-4.222-9.478-4.746c-26.229-17.76-48.555-21.716-59.909-10.341c-10.429,10.429-7.826,30.324,6.495,53.847
			l-87.953,87.953c-8.003,8-12.5,18.853-12.5,30.169s4.497,22.169,12.5,30.169l96.542,96.546c16.671,16.639,43.666,16.639,60.338,0
			l126.709-126.712C396.999,275.733,398.802,271.385,398.788,266.854z M203.721,119.021c2.819-2.825,13.628-1.891,29.336,6.872
			l-22.482,22.482C201.675,132.516,200.869,121.876,203.721,119.021z M255.008,393.571c-10.005,9.979-26.199,9.979-36.204,0
			l-96.542-96.546c-4.802-4.8-7.5-11.312-7.5-18.102s2.698-13.302,7.5-18.102l85.654-85.653
			c5.208,6.794,10.861,13.234,16.922,19.279c7.161,7.187,14.888,13.787,23.105,19.738c-0.269,1.451-0.413,2.923-0.43,4.399
			c-0.092,12.088,8.26,22.603,20.054,25.251c11.795,2.648,23.839-3.289,28.923-14.256c5.084-10.967,1.831-23.995-7.812-31.285
			c-9.643-7.29-23.064-6.867-32.229,1.014c-6.922-5.154-13.454-10.812-19.544-16.928c-6.066-6.047-11.684-12.528-16.809-19.391
			l27.491-27.491c6.907,5.076,13.423,10.663,19.494,16.715l114.641,114.642L255.008,393.571z M267.075,212.55
			c2.44-2.441,6.111-3.172,9.301-1.851c3.189,1.321,5.269,4.433,5.269,7.885s-2.08,6.564-5.269,7.885
			c-3.189,1.321-6.86,0.59-9.301-1.851c-1.605-1.597-2.508-3.769-2.508-6.033S265.47,214.147,267.075,212.55L267.075,212.55z"/>
		<path d="M390.183,315.646c-3.073,0-5.909,1.652-7.425,4.325c-3.425,6.046-20.529,37.029-20.529,53.146
			c0.027,15.418,12.534,27.903,27.952,27.903s27.925-12.485,27.952-27.903c0-16.117-17.1-47.1-20.525-53.146
			C396.092,317.298,393.256,315.647,390.183,315.646L390.183,315.646z M390.183,384c-6.009-0.006-10.879-4.874-10.887-10.883
			c1.943-10.701,5.62-21.013,10.887-30.529c5.264,9.517,8.94,19.828,10.883,30.529C401.059,379.124,396.191,383.992,390.183,384z"/>
	</g>
</g>
<g>
</g>
<g>
</g>
<g>
</g>
<g>
</g>
<g>
</g>
<g>
</g>
<g>
</g>
<g>
</g>
<g>
</g>
<g>
</g>
<g>
</g>
<g>
</g>
<g>
</g>
<g>
</g>
<g>
</g>
</svg>
