<?xml version="1.0" encoding="iso-8859-1"?>
<!-- Generator: Adobe Illustrator 19.0.0, SVG Export Plug-In . SVG Version: 6.00 Build 0)  -->
<svg version="1.1" id="Capa_1" xmlns="http://www.w3.org/2000/svg" xmlns:xlink="http://www.w3.org/1999/xlink" x="0px" y="0px"
	 viewBox="0 0 512 512" style="enable-background:new 0 0 512 512;" xml:space="preserve">
<g>
	<g transform="translate(1 1)">
		<path style="fill:#388C41;" d="M255,7.533C118.328,7.533,7.533,118.328,7.533,255S118.328,502.467,255,502.467
			S502.467,391.672,502.467,255c0.011-65.636-26.058-128.586-72.469-174.997C383.586,33.591,320.636,7.522,255,7.533z"/>
		<path style="fill:#5AB862;" d="M242.2,7.533C112.567,7.533,7.533,118.296,7.533,255S112.567,502.467,242.2,502.467
			S476.867,391.704,476.867,255S371.833,7.533,242.2,7.533z"/>
		<path style="fill:#FFEEBF;" d="M370.115,134.168l-23.125-23.125c-6.409-6.396-15.095-9.987-24.149-9.984h-94.379
			c-7.126-0.031-14.081,2.178-19.883,6.315c-11.179,8.192-22.101,16.896-32.683,25.941c-16.471,12.352-30.236,27.947-40.448,45.824
			c-7.134,12.607-7.36,27.979-0.598,40.789c1.877,3.191,4.205,6.094,6.913,8.619l1.365,0.427c-1.669,4.647-2.053,9.659-1.109,14.507
			c0.085,0.427,0.171,0.768,0.256,1.195c1.7,6.394,5.714,11.929,11.264,15.531c3.093,1.94,6.458,3.407,9.984,4.352
			c-2.882,6.485-4.17,13.566-3.754,20.651c0.033,1.088,0.147,2.172,0.341,3.243c1.215,7.708,5.694,14.518,12.289,18.688
			c2.371,1.621,4.918,2.966,7.594,4.011l-15.445,20.736l-27.478,37.035c-4.031,5.455-4.498,12.764-1.194,18.688
			c5.054,9.552,15.959,14.441,26.453,11.861h0.255c8.522-1.886,16.071-6.798,21.248-13.824l48.555-63.403l0.683-0.853l2.048,1.536
			l6.145,1.792l24.576,6.997c17.908,5.106,37.176,0.11,50.346-13.056l53.931-54.016c6.396-6.409,9.987-15.095,9.983-24.149v-82.176
			C380.102,149.263,376.511,140.577,370.115,134.168z M274.969,280.856c-1.916-0.085-3.826-0.285-5.719-0.597l-2.9-2.219
			l29.611-38.656c1.632,2.719,3.086,5.541,4.352,8.448C306.456,261.571,311.15,284.099,274.969,280.856z"/>
		<path style="fill:#FFE4BE;" d="M380.098,158.317v82.176c0.004,9.055-3.587,17.74-9.983,24.149l-53.931,54.016
			c-12.066,12.058-29.334,17.335-46.079,14.08c9.886-2.061,18.959-6.953,26.113-14.08l53.93-54.016
			c6.397-6.409,9.988-15.095,9.984-24.149v-82.176c0.003-9.055-3.588-17.74-9.984-24.149l-23.126-23.125
			c-6.409-6.396-15.094-9.987-24.149-9.984h19.968c9.055-0.003,17.74,3.588,24.149,9.984l23.125,23.125
			C376.511,140.577,380.101,149.263,380.098,158.317z"/>
	</g>
	<g>
		<path d="M256,0C114.615,0,0,114.615,0,256s114.615,256,256,256s256-114.615,256-256C511.84,114.682,397.319,0.16,256,0z
			 M256,494.933C124.041,494.933,17.067,387.959,17.067,256S124.041,17.067,256,17.067S494.933,124.041,494.933,256
			C494.785,387.898,387.898,494.785,256,494.933z"/>
		<path d="M354.017,106.029c-8.024-7.975-18.87-12.462-30.183-12.488H229.45c-8.942-0.046-17.668,2.743-24.925,7.967
			c-11.067,8.112-22.225,16.971-33.183,26.342c-17.376,13.11-31.87,29.652-42.583,48.6c-10.368,18.204-8.044,40.981,5.787,56.716
			c-0.998,4.932-0.82,10.03,0.521,14.88c2.694,9.898,9.564,18.132,18.819,22.556c-1.836,6.596-2.246,13.507-1.202,20.273
			c1.568,9.883,7.216,18.652,15.567,24.166l-37.075,49.846c-6.023,8.203-6.678,19.175-1.675,28.038
			c5.509,10.381,16.357,16.813,28.109,16.667c0.343,0,0.719-0.094,1.066-0.103c0.193,0.013,0.355,0.111,0.551,0.111h170.667
			c4.713,0,8.533-3.82,8.533-8.533s-3.82-8.533-8.533-8.533H190.979c0.194-0.244,0.43-0.435,0.621-0.683l45.112-58.859l27.779,7.947
			c20.889,5.968,43.371,0.136,58.725-15.233l53.925-54.008c7.972-8.026,12.457-18.871,12.483-30.183v-82.175
			c-0.026-11.312-4.511-22.158-12.483-30.183L354.017,106.029z M372.558,241.513c-0.012,6.791-2.704,13.304-7.492,18.121
			l-53.925,54.008c-10.972,10.977-27.033,15.145-41.958,10.888l-21.313-6.098l21.939-28.623c4.206,0.608,8.449,0.931,12.699,0.967
			c10.608,1.247,21.101-3.119,27.692-11.525c8.029-12.086,1.773-28.692-3.34-38.534c1.481-3.523,0.402-7.602-2.627-9.933
			c-1.802-1.369-4.075-1.964-6.317-1.655s-4.269,1.499-5.633,3.305L178.05,381.475c-3.895,5.356-9.59,9.129-16.042,10.625
			c-6.979,2.021-14.409-1.198-17.708-7.671c-1.659-2.983-1.421-6.66,0.608-9.404l98.042-131.83c1.827-2.444,2.209-5.678,1.003-8.48
			c-1.206-2.803-3.818-4.748-6.848-5.101c-3.031-0.353-6.019,0.939-7.838,3.389l-50.819,68.326
			c-4.787-2.894-8.055-7.751-8.931-13.276c-0.881-6.525,0.11-13.167,2.859-19.15c8.506-16.197,20.568-30.259,35.283-41.13
			c3.811-2.762,4.664-8.088,1.908-11.903c-2.756-3.815-8.081-4.677-11.9-1.926c-14.888,11.1-27.526,24.934-37.238,40.762
			c-8.005-4.134-11.56-13.673-8.212-22.037c6.117-18.475,30.283-38.071,30.525-38.267c3.676-2.95,4.265-8.322,1.314-11.998
			c-2.95-3.676-8.322-4.265-11.998-1.314c-11.596,9.523-21.675,20.756-29.89,33.313c-3.893-9.96-3.18-21.133,1.948-30.517
			c9.778-16.767,22.808-31.41,38.325-43.07c10.625-9.092,21.45-17.683,32.108-25.5c4.346-3.1,9.561-4.748,14.9-4.708h94.383
			c6.789,0.013,13.299,2.704,18.117,7.488l23.125,23.125c4.782,4.818,7.472,11.328,7.484,18.116L372.558,241.513z M296.76,267.724
			c-0.127,0.736-0.39,1.442-0.777,2.081c-0.134,0.188-0.283,0.366-0.445,0.532c-0.103,0.106-0.244,0.224-0.379,0.34
			c-0.108,0.095-0.234,0.193-0.366,0.293c-0.24,0.178-0.491,0.341-0.75,0.491l-0.271,0.144c-1.49,0.743-3.084,1.258-4.727,1.526
			c-0.273,0.052-0.535,0.105-0.831,0.151c-0.567,0.089-1.204,0.156-1.852,0.219c-0.683,0.064-1.413,0.11-2.192,0.14
			c-0.441,0.019-0.869,0.043-1.342,0.05c-0.184,0.001-0.423-0.019-0.612-0.019l13.015-16.989c0.079,0.235,0.133,0.454,0.208,0.687
			c0.331,1.03,0.621,2.033,0.844,2.989c0.1,0.426,0.17,0.827,0.248,1.235c0.149,0.785,0.263,1.539,0.329,2.252
			c0.037,0.385,0.067,0.762,0.079,1.124c0.021,0.646-0.008,1.293-0.085,1.935C296.821,267.175,296.812,267.471,296.76,267.724
			L296.76,267.724z"/>
	</g>
</g>
<g>
</g>
<g>
</g>
<g>
</g>
<g>
</g>
<g>
</g>
<g>
</g>
<g>
</g>
<g>
</g>
<g>
</g>
<g>
</g>
<g>
</g>
<g>
</g>
<g>
</g>
<g>
</g>
<g>
</g>
</svg>
