<svg height="480pt" viewBox="0 0 480 480" width="480pt" xmlns="http://www.w3.org/2000/svg"><path d="m472 240c0 128.128906-103.871094 232-232 232s-232-103.871094-232-232 103.871094-232 232-232 232 103.871094 232 232zm0 0" fill="#806749"/><path d="m240 104c-45.140625-.050781-84.210938 31.375-93.839844 75.476562-9.628906 44.101563 12.785156 88.953126 53.839844 107.722657v16.800781h80v-16.800781c41.054688-18.769531 63.46875-63.621094 53.839844-107.722657-9.628906-44.101562-48.699219-75.527343-93.839844-75.476562zm0 0" fill="#ffeb99"/><path d="m200 368c0 22.089844 17.910156 40 40 40s40-17.910156 40-40v-32h-80zm0 0" fill="#cc7400"/><g fill="#231f20"><path d="m240 0c-132.546875 0-240 107.453125-240 240s107.453125 240 240 240 240-107.453125 240-240c-.148438-132.484375-107.515625-239.851562-240-240zm0 464c-123.710938 0-224-100.289062-224-224s100.289062-224 224-224 224 100.289062 224 224c-.140625 123.652344-100.347656 223.859375-224 224zm0 0"/><path d="m240 96c-47.910156-.023438-89.628906 32.703125-101.015625 79.238281-11.386719 46.539063 10.507813 94.828125 53.015625 116.929688v19.832031h96v-19.832031c42.507812-22.101563 64.402344-70.390625 53.015625-116.929688-11.386719-46.535156-53.105469-79.261719-101.015625-79.238281zm36.65625 183.921875-4.65625 2.132813v13.945312h-64v-13.945312l-4.65625-2.132813c-37.613281-17.234375-58.140625-58.339844-49.320312-98.761719 8.820312-40.421875 44.605468-69.242187 85.976562-69.242187s77.15625 28.820312 85.976562 69.242187c8.820313 40.421875-11.707031 81.527344-49.320312 98.761719zm0 0"/><path d="m192 368c0 26.507812 21.492188 48 48 48s48-21.492188 48-48v-40h-96zm16-24h64v24c0 17.671875-14.328125 32-32 32s-32-14.328125-32-32zm0 0"/><path d="m232 64h16v16h-16zm0 0"/><path d="m138.175781 109.488281 11.316407-11.3125 11.3125 11.316407-11.316407 11.3125zm0 0"/><path d="m104 192h16v16h-16zm0 0"/><path d="m138.175781 290.511719 11.316407-11.3125 11.3125 11.3125-11.3125 11.3125zm0 0"/><path d="m319.199219 290.507812 11.316406-11.3125 11.3125 11.316407-11.316406 11.308593zm0 0"/><path d="m360 192h16v16h-16zm0 0"/><path d="m319.1875 109.492188 11.3125-11.3125 11.3125 11.3125-11.3125 11.316406zm0 0"/></g></svg>