<?xml version="1.0" encoding="iso-8859-1"?>
<!-- Generator: Adobe Illustrator 19.0.0, SVG Export Plug-In . SVG Version: 6.00 Build 0)  -->
<svg version="1.1" id="Capa_1" xmlns="http://www.w3.org/2000/svg" xmlns:xlink="http://www.w3.org/1999/xlink" x="0px" y="0px"
	 viewBox="0 0 512 512" style="enable-background:new 0 0 512 512;" xml:space="preserve">
<g>
	<g transform="translate(1 1)">
		<path style="fill:#E15919;" d="M33.133,7.533h443.733c14.138,0,25.6,11.462,25.6,25.6v443.733c0,14.138-11.462,25.6-25.6,25.6
			H33.133c-14.138,0-25.6-11.462-25.6-25.6V33.133C7.533,18.995,18.995,7.533,33.133,7.533z"/>
		<path style="fill:#FF6E2C;" d="M33.133,7.533h418.133c14.138,0,25.6,11.462,25.6,25.6v443.733c0,14.138-11.462,25.6-25.6,25.6
			H33.133c-14.138,0-25.6-11.462-25.6-25.6V33.133C7.533,18.995,18.995,7.533,33.133,7.533z"/>
		<path style="fill:#475962;" d="M331.629,157.379l-3.243,82.176l-4.864,134.912c-1.707-0.256-3.499-0.427-5.376-0.597
			c-5.973-0.512-12.885-1.024-20.565-1.365c-12.544-0.683-27.051-1.024-42.581-1.024c-4.437,0-8.789,0-13.056,0.085
			c-19.712,0.256-37.291,1.109-50.091,2.304c-1.877,0.171-3.669,0.341-5.291,0.597l-0.085-1.963l-3.157-133.717l-4.693-170.923
			v-1.195c-0.076-3.194,1.631-6.166,4.429-7.709c2.798-1.543,6.222-1.4,8.883,0.37l135.851,90.624
			C330.271,151.595,331.725,154.405,331.629,157.379z"/>
		<path style="fill:#728F9C;" d="M305.603,157.379l-3.243,82.176l-4.779,132.949l-0.085,1.963c-1.707-0.256-3.499-0.427-5.376-0.597
			c-12.885-1.195-30.379-2.048-50.176-2.304c-4.267-0.085-8.533-0.085-12.971-0.085c-15.445,0-29.952,0.341-42.496,1.024
			l-3.157-133.717l-4.693-170.923l123.136,82.091C304.245,151.595,305.698,154.405,305.603,157.379z"/>
		<path style="fill:#00C6DB;" d="M331.629,157.379l-3.243,82.176h-0.085c-10.496,3.755-33.024,14.848-33.024,41.045
			c0,0-9.557-42.667-38.315-42.667S218.648,280.6,218.648,280.6c0-28.331-26.283-38.997-35.328-41.813l-4.693-172.117
			c-0.076-3.194,1.631-6.166,4.429-7.709c2.798-1.543,6.222-1.4,8.883,0.37l135.851,90.624
			C330.271,151.595,331.725,154.405,331.629,157.379z"/>
		<rect x="178.2" y="442.733" style="fill:#61443C;" width="153.6" height="59.733"/>
		<rect x="178.2" y="442.733" style="fill:#8B685A;" width="128" height="59.733"/>
		<path style="fill:#D7DEE2;" d="M340.333,364.739v87.723c0,1.195-3.328,2.304-9.301,3.328c-25.222,3.085-50.626,4.425-76.032,4.011
			c-25.406,0.414-50.811-0.926-76.032-4.011c-5.973-1.024-9.301-2.133-9.301-3.328v-87.723c0-1.621,6.229-3.157,16.896-4.352
			c1.621-0.256,3.413-0.427,5.291-0.597c15.616-1.451,38.144-2.389,63.147-2.389s47.531,0.939,63.147,2.389
			c1.877,0.171,3.669,0.341,5.376,0.597C334.104,361.667,340.333,363.117,340.333,364.739z"/>
		<path style="fill:#F6F6F6;" d="M314.733,364.739v87.723c0,1.195-2.829,2.304-7.906,3.328c-21.398,3.082-43.012,4.423-64.627,4.011
			c-21.615,0.413-43.229-0.929-64.627-4.011c-5.077-1.024-7.906-2.133-7.906-3.328v-87.723c0-1.621,5.295-3.157,14.362-4.352
			c1.378-0.256,2.901-0.427,4.497-0.597c17.839-1.708,35.754-2.506,53.675-2.389c17.921-0.116,35.835,0.681,53.675,2.389
			c1.596,0.171,3.119,0.341,4.57,0.597C309.439,361.667,314.733,363.117,314.733,364.739z"/>
		<circle style="fill:#728F9C;" cx="289.133" cy="408.6" r="17.067"/>
		<path style="fill:#00939F;" d="M331.629,157.379l-3.243,82.176h-0.085c-11.028,3.609-20.582,10.708-27.221,20.224l5.12-119.467
			c0.106-2.694-1.103-5.271-3.243-6.912l24.832,16.555C330.271,151.595,331.725,154.405,331.629,157.379z"/>
	</g>
	<g>
		<path d="M477.867,0H34.133C15.29,0.02,0.02,15.29,0,34.133v443.733C0.02,496.71,15.29,511.98,34.133,512h443.733
			c18.843-0.02,34.113-15.29,34.133-34.133V34.133C511.98,15.29,496.71,0.02,477.867,0z M187.733,494.933v-28.318
			c22.687,2.177,45.478,3.085,68.267,2.718c22.788,0.367,45.58-0.541,68.267-2.718v28.318H187.733z M188.175,67.437l135.908,90.608
			l-3.053,76.679c-10.45,4.403-19.43,11.692-25.889,21.013c-6.74-14.682-21.046-24.432-37.175-25.338
			c-16.129,0.901-30.437,10.651-37.175,25.333c-6.97-9.97-16.768-17.623-28.129-21.97L188.175,67.437z M179.2,448.037v-76.875
			c2.067-0.412,5.048-0.835,8.577-1.25l0.023,0.004l0.064-0.015c22.642-2.214,45.387-3.205,68.136-2.969
			c22.752-0.237,45.499,0.755,68.144,2.97l0.039,0.009l0.047,0.001c3.525,0.415,6.504,0.838,8.569,1.249v76.875
			c-25.453,3.387-51.129,4.801-76.8,4.229C230.329,452.839,204.653,451.425,179.2,448.037L179.2,448.037z M193.181,252.971
			c10.878,5.42,17.805,16.476,17.936,28.629c0.006,4.344,3.273,7.991,7.59,8.472c4.317,0.481,8.307-2.357,9.269-6.593
			c0.083-0.358,8.792-36.012,29.992-36.012c21.192,0,29.9,35.654,29.983,36.012c0.885,3.883,4.334,6.639,8.317,6.646
			c0.32,0.001,0.64-0.017,0.958-0.054c4.317-0.48,7.582-4.128,7.583-8.471c0.027-11.103,5.888-21.376,15.432-27.049l-3.871,97.226
			c-13.731-1.194-33.055-1.91-60.369-1.91c-27.169,0-46.436,0.708-60.154,1.891L193.181,252.971z M494.933,477.867
			c-0.011,9.421-7.645,17.056-17.067,17.067H341.333v-31.692c8.504-2.883,8.533-6.417,8.533-9.754v-87.775
			c0-4.161-0.01-8.632-16.507-11.76l7.774-195.236c0.214-5.935-2.654-11.559-7.583-14.871L197.642,53.238
			c-5.306-3.537-12.142-3.822-17.724-0.738c-5.582,3.084-8.98,9.022-8.81,15.397l7.717,286.019
			c-16.691,3.13-16.692,7.62-16.692,11.798v87.775c0,3.337,0.029,6.87,8.533,9.753v31.693H34.133
			c-9.421-0.011-17.056-7.645-17.067-17.067V34.133c0.011-9.421,7.645-17.056,17.067-17.067h443.733
			c9.421,0.011,17.056,7.645,17.067,17.067V477.867z"/>
		<path d="M290.133,435.2c14.138,0,25.6-11.462,25.6-25.6c0-14.138-11.462-25.6-25.6-25.6c-14.138,0-25.6,11.462-25.6,25.6
			C264.549,423.732,276.001,435.185,290.133,435.2z M290.133,401.067c4.713,0,8.533,3.821,8.533,8.533
			c0,4.713-3.821,8.533-8.533,8.533c-4.713,0-8.533-3.821-8.533-8.533C281.605,404.889,285.422,401.071,290.133,401.067z"/>
	</g>
</g>
<g>
</g>
<g>
</g>
<g>
</g>
<g>
</g>
<g>
</g>
<g>
</g>
<g>
</g>
<g>
</g>
<g>
</g>
<g>
</g>
<g>
</g>
<g>
</g>
<g>
</g>
<g>
</g>
<g>
</g>
</svg>
