<?xml version="1.0" encoding="iso-8859-1"?>
<!-- Generator: Adobe Illustrator 19.0.0, SVG Export Plug-In . SVG Version: 6.00 Build 0)  -->
<svg version="1.1" id="Capa_1" xmlns="http://www.w3.org/2000/svg" xmlns:xlink="http://www.w3.org/1999/xlink" x="0px" y="0px"
	 viewBox="0 0 512 512" style="enable-background:new 0 0 512 512;" xml:space="preserve">
<g>
	<g transform="translate(1 1)">
		<circle style="fill:#E15919;" cx="255" cy="255" r="247.467"/>
		<ellipse style="fill:#FF6E2C;" cx="242.2" cy="255" rx="234.667" ry="247.467"/>
		<path style="fill:#FFEB49;" d="M205.165,368.749c0.853-1.877,11.435-24.576-0.085-36.096c-6.044-5.037-14.161-6.82-21.76-4.779
			c-2.703,0.502-5.48-0.36-7.424-2.304c-1.944-1.944-2.806-4.721-2.304-7.424c2.041-7.599,0.259-15.716-4.779-21.76
			c-11.52-11.52-34.219-0.939-36.096-0.085L313.71,115.395l72.363,72.363L205.165,368.749z"/>
		<path style="fill:#728F9C;" d="M148.675,387.608l-36.096,11.947c-3.033,1.04-6.394,0.262-8.661-2.005
			c-2.267-2.267-3.045-5.628-2.005-8.661l11.947-36.096h0.085c9.277-0.171,18.224,3.445,24.777,10.015
			C145.274,369.376,148.868,378.331,148.675,387.608L148.675,387.608z"/>
		<path style="fill:#FFEEBF;" d="M205.165,368.749l-0.085,0.085l-56.405,18.773c0.193-9.277-3.401-18.232-9.954-24.801
			c-6.553-6.569-15.5-10.185-24.777-10.015l18.688-56.405l0.085-0.085c1.877-0.853,24.576-11.435,36.096,0.085
			c5.037,6.044,6.82,14.161,4.779,21.76c-0.502,2.703,0.36,5.48,2.304,7.424c1.944,1.944,4.721,2.806,7.424,2.304
			c7.599-2.041,15.716-0.258,21.76,4.779C216.6,344.173,206.019,366.872,205.165,368.749z"/>
		<path style="fill:#EF3A76;" d="M386.082,187.832l-72.408-72.408l24.136-24.136c6.665-6.665,17.471-6.665,24.136,0l48.272,48.272
			c6.665,6.665,6.665,17.471,0,24.136L386.082,187.832z"/>
		
			<rect x="280.58" y="144.131" transform="matrix(0.7071 0.7071 -0.7071 0.7071 217.1944 -184.8913)" style="fill:#F6F6F6;" width="102.4" height="51.2"/>
	</g>
	<g>
		<path d="M256,0C114.615,0,0,114.615,0,256s114.615,256,256,256s256-114.615,256-256C511.84,114.682,397.319,0.16,256,0z
			 M256,494.933C124.041,494.933,17.067,387.959,17.067,256S124.041,17.067,256,17.067S494.933,124.041,494.933,256
			C494.785,387.898,387.898,494.785,256,494.933z"/>
		<path d="M368.975,86.221v-0.004c-10.006-9.978-26.2-9.976-36.204,0.004l-24.137,24.138l-36.204,36.204L127.617,291.375
			c-0.068,0.068-0.093,0.159-0.158,0.228c-0.259,0.32-0.494,0.659-0.704,1.013c-0.4,0.538-0.734,1.121-0.995,1.738
			c-0.052,0.132-0.16,0.222-0.205,0.358l-30.746,92.354c-1.775,5.188-0.943,10.913,2.234,15.381
			c3.177,4.468,8.312,7.134,13.795,7.16l0.075-0.013l0.02,0.004h179.2c4.713,0,8.533-3.821,8.533-8.533s-3.821-8.533-8.533-8.533
			H164.836l43.918-14.621c0.09-0.03,0.148-0.103,0.237-0.136c0.998-0.529,1.96-1.123,2.88-1.78c0.066-0.062,0.156-0.082,0.221-0.147
			l144.813-144.812l36.204-36.204l24.142-24.137c9.976-10.007,9.974-26.199-0.004-36.204L368.975,86.221z M170.863,332.604
			c3.931,3.924,9.531,5.682,15,4.708c4.83-1.422,10.044-0.563,14.163,2.333c5.247,5.25,2.225,16.841-0.29,23.285l-43.077,14.372
			c-3.617-15.083-15.378-26.868-30.453-30.516l14.33-43.047c6.163-2.388,17.979-5.614,23.281-0.298
			c2.897,4.114,3.76,9.326,2.342,14.154C165.173,323.067,166.931,328.674,170.863,332.604z M111.008,392.533h-0.033l9.853-29.597
			c9.944,2.018,17.712,9.796,19.717,19.743L111.008,392.533z M212.092,327.575c-5.491-5.294-12.908-8.112-20.529-7.8
			c-2.889,0.015-5.771,0.298-8.608,0.846c2.822-10.315,0.154-21.357-7.067-29.246c-4.438-4.38-10.254-7.091-16.463-7.675
			l119.037-119.037l60.342,60.342L219.767,344.042C219.178,337.833,216.468,332.018,212.092,327.575z M350.871,212.937
			l-60.342-60.342l24.137-24.137l60.342,60.342L350.871,212.937z M405.179,158.629l-18.104,18.104l-60.342-60.342l18.104-18.1
			c1.6-1.603,3.771-2.503,6.035-2.503c2.264,0,4.436,0.901,6.035,2.503l48.267,48.267
			C408.503,149.893,408.505,155.292,405.179,158.629L405.179,158.629z"/>
		<path d="M302.6,200.867c-1.6-1.601-3.77-2.5-6.033-2.5s-4.433,0.899-6.033,2.5l-84.475,84.475
			c-2.156,2.156-2.997,5.297-2.208,8.242c0.789,2.944,3.089,5.244,6.033,6.033c2.944,0.789,6.086-0.053,8.242-2.208l84.475-84.475
			c1.601-1.6,2.5-3.77,2.5-6.033C305.1,204.637,304.201,202.467,302.6,200.867L302.6,200.867z"/>
	</g>
</g>
<g>
</g>
<g>
</g>
<g>
</g>
<g>
</g>
<g>
</g>
<g>
</g>
<g>
</g>
<g>
</g>
<g>
</g>
<g>
</g>
<g>
</g>
<g>
</g>
<g>
</g>
<g>
</g>
<g>
</g>
</svg>
