<svg height="480pt" viewBox="0 0 480 480" width="480pt" xmlns="http://www.w3.org/2000/svg"><path d="m472 240c0 128.128906-103.871094 232-232 232s-232-103.871094-232-232 103.871094-232 232-232 232 103.871094 232 232zm0 0" fill="#006df0"/><path d="m368 160v240h-256v-320h176v80zm0 0" fill="#e6e7e8"/><path d="m288 160h80l-80-80zm0 0" fill="#939598"/><path d="m368 160v80l-80-80zm0 0" fill="#d1d3d4"/><path d="m240 0c-132.546875 0-240 107.453125-240 240s107.453125 240 240 240 240-107.453125 240-240c-.148438-132.484375-107.515625-239.851562-240-240zm0 464c-123.710938 0-224-100.289062-224-224s100.289062-224 224-224 224 100.289062 224 224c-.140625 123.652344-100.347656 223.859375-224 224zm0 0"/><path d="m373.65625 154.34375-80-80c-1.503906-1.484375-3.542969-2.300781-5.65625-2.273438v-.070312h-176c-4.417969 0-8 3.582031-8 8v320c0 4.417969 3.582031 8 8 8h256c4.417969 0 8-3.582031 8-8v-240h-.070312c.015624-2.109375-.800782-4.144531-2.273438-5.65625zm-77.65625-55.03125 52.6875 52.6875h-52.6875zm-176 292.6875v-304h160v72c0 4.417969 3.582031 8 8 8h72v224zm0 0"/></svg>