<svg height="480pt" viewBox="0 0 480 480" width="480pt" xmlns="http://www.w3.org/2000/svg"><path d="m472 240c0 128.128906-103.871094 232-232 232s-232-103.871094-232-232 103.871094-232 232-232 232 103.871094 232 232zm0 0" fill="#a97c50"/><path d="m376 224v32h-25.28125c-2.648438 18.492188-9.910156 36.015625-21.117188 50.960938l17.917969 17.917968-22.640625 22.5625-17.917968-17.839844c-14.945313 11.207032-32.46875 18.46875-50.960938 21.117188v25.28125h-32v-25.28125c-18.492188-2.648438-36.015625-9.910156-50.960938-21.117188l-17.917968 17.839844-22.640625-22.5625 17.917969-17.917968c-11.207032-14.945313-18.46875-32.46875-21.117188-50.960938h-25.28125v-32h25.28125c2.648438-18.492188 9.910156-36.015625 21.117188-50.960938l-17.917969-17.917968 22.640625-22.640625 17.917968 17.917969c14.945313-11.207032 32.46875-18.46875 50.960938-21.117188v-25.28125h32v25.28125c18.492188 2.648438 36.015625 9.910156 50.960938 21.117188l17.917968-17.917969 22.640625 22.640625-17.917969 17.917968c11.207032 14.945313 18.46875 32.46875 21.117188 50.960938zm0 0" fill="#ff5023"/><path d="m296 240c0 30.929688-25.070312 56-56 56s-56-25.070312-56-56 25.070312-56 56-56 56 25.070312 56 56zm0 0" fill="#64c37d"/><path d="m272 240c0 17.671875-14.328125 32-32 32s-32-14.328125-32-32 14.328125-32 32-32 32 14.328125 32 32zm0 0" fill="#58595b"/><g fill="#231f20"><path d="m240 0c-132.546875 0-240 107.453125-240 240s107.453125 240 240 240 240-107.453125 240-240c-.148438-132.484375-107.515625-239.851562-240-240zm0 464c-123.710938 0-224-100.289062-224-224s100.289062-224 224-224 224 100.289062 224 224c-.140625 123.652344-100.347656 223.859375-224 224zm0 0"/><path d="m340 173.910156 18.769531-18.757812-33.921875-33.953125-18.769531 18.800781c-12.777344-8.457031-27.0625-14.382812-42.078125-17.457031v-26.542969h-48v26.542969c-15.015625 3.074219-29.300781 9-42.078125 17.457031l-18.769531-18.800781-33.945313 33.953125 18.792969 18.757812c-8.449219 12.789063-14.375 27.074219-17.457031 42.089844h-26.542969v48h26.542969c3.082031 15.015625 9.007812 29.300781 17.457031 42.089844l-18.800781 18.757812 33.953125 33.945313 18.769531-18.792969c12.777344 8.457031 27.0625 14.382812 42.078125 17.457031v26.542969h48v-26.542969c15.015625-3.074219 29.300781-9 42.078125-17.457031l18.769531 18.769531 33.953125-33.945312-18.800781-18.734375c8.449219-12.789063 14.375-27.074219 17.457031-42.089844h26.542969v-48h-26.542969c-3.082031-15.015625-9.007812-29.300781-17.457031-42.089844zm28 74.089844h-24.207031l-.984375 6.863281c-2.476563 17.164063-9.214844 33.433594-19.601563 47.320313l-4.160156 5.601562 17.121094 17.101563-11.320313 11.320312-17.113281-17.117187-5.550781 4.148437c-13.882813 10.394531-30.15625 17.136719-47.320313 19.609375l-6.863281.945313v24.207031h-16v-24.207031l-6.863281-.984375c-17.164063-2.476563-33.4375-9.21875-47.320313-19.609375l-5.550781-4.152344-17.113281 17.121094-11.320313-11.320313 17.121094-17.105468-4.160156-5.597657c-10.386719-13.886719-17.125-30.15625-19.601563-47.320312l-.984375-6.824219h-24.207031v-16h24.207031l.984375-6.863281c2.476563-17.164063 9.214844-33.433594 19.601563-47.320313l4.160156-5.601562-17.121094-17.101563 11.320313-11.320312 17.113281 17.117187 5.550781-4.148437c13.882813-10.394531 30.15625-17.136719 47.320313-19.609375l6.863281-.945313v-24.207031h16v24.207031l6.863281.984375c17.164063 2.476563 33.4375 9.21875 47.320313 19.609375l5.550781 4.152344 17.113281-17.121094 11.320313 11.320313-17.121094 17.105468 4.160156 5.597657c10.386719 13.886719 17.125 30.15625 19.601563 47.320312l.984375 6.863281h24.207031zm0 0"/><path d="m240 200c-22.089844 0-40 17.910156-40 40s17.910156 40 40 40 40-17.910156 40-40c-.027344-22.082031-17.917969-39.972656-40-40zm0 64c-13.253906 0-24-10.746094-24-24s10.746094-24 24-24 24 10.746094 24 24-10.746094 24-24 24zm0 0"/><path d="m240 176c-35.347656 0-64 28.652344-64 64s28.652344 64 64 64 64-28.652344 64-64c-.039062-35.328125-28.671875-63.960938-64-64zm0 112c-26.507812 0-48-21.492188-48-48s21.492188-48 48-48 48 21.492188 48 48c-.027344 26.5-21.5 47.972656-48 48zm0 0"/></g></svg>