<?xml version="1.0" encoding="iso-8859-1"?>
<!-- Generator: Adobe Illustrator 19.0.0, SVG Export Plug-In . SVG Version: 6.00 Build 0)  -->
<svg version="1.1" id="Capa_1" xmlns="http://www.w3.org/2000/svg" xmlns:xlink="http://www.w3.org/1999/xlink" x="0px" y="0px"
	 viewBox="0 0 512 512" style="enable-background:new 0 0 512 512;" xml:space="preserve">
<g>
	<g transform="translate(0 1)">
		<path style="fill:#354AA3;" d="M477.867,7.533H34.133c-6.792-0.009-13.309,2.685-18.112,7.488s-7.497,11.32-7.488,18.112v443.733
			c-0.009,6.792,2.685,13.309,7.488,18.112c4.803,4.803,11.32,7.497,18.112,7.488h443.733c6.792,0.009,13.309-2.685,18.112-7.488
			c4.803-4.803,7.497-11.32,7.488-18.112V33.133c0.009-6.792-2.685-13.309-7.488-18.112S484.659,7.524,477.867,7.533z"/>
		<path style="fill:#5068C1;" d="M453.591,7.533H32.809c-6.615,0.171-12.891,2.966-17.445,7.768S8.354,26.518,8.533,33.133v443.733
			c-0.18,6.615,2.278,13.03,6.831,17.832c4.553,4.802,10.829,7.596,17.444,7.768h420.782c6.615-0.172,12.891-2.966,17.444-7.768
			c4.553-4.802,7.011-11.217,6.831-17.832V33.133c0.18-6.615-2.278-13.03-6.831-17.832C466.482,10.499,460.206,7.705,453.591,7.533z
			"/>
		<path style="fill:#728F9C;" d="M387.328,85.613C357.973,64.195,310.017,50.2,256,50.2S154.027,64.195,124.672,85.613
			c-8.729,6.381-13.844,16.58-13.739,27.392v99.328c0.234,17.358,3.707,34.52,10.24,50.603
			c15.363,35.781,38.035,67.957,66.56,94.464l0.341,17.067h0.085c22.548-2.138,45.192-3.106,67.84-2.901
			c22.648-0.205,45.292,0.763,67.84,2.901l0.085-14.165l0.341-2.901c28.525-26.507,51.197-58.683,66.56-94.464
			c6.533-16.083,10.006-33.245,10.24-50.603v-99.328C401.172,102.193,396.057,91.994,387.328,85.613z"/>
		<path style="fill:#9ACA5C;" d="M375.467,113.005v99.328c-0.234,17.358-3.707,34.52-10.24,50.603
			c-0.085,0.256-0.171,0.427-0.256,0.683c-23.552,4.779-38.229,21.504-38.229,42.581c0.009-14.755-7.822-28.403-20.565-35.84
			c-6.155-3.621-12.924-6.079-19.968-7.253c-6.639-0.955-13.355-1.269-20.054-0.939c-6.826,0.085-13.483,0-20.308,0
			c-7.132-0.198-14.268,0.202-21.333,1.195c-7.891,1.4-15.378,4.517-21.931,9.131c-10.91,7.752-17.371,20.323-17.323,33.707
			c0-27.989-25.856-48.299-64.085-43.264c-6.533-16.083-10.006-33.245-10.24-50.603v-99.328
			c-0.106-10.812,5.01-21.011,13.739-27.392c27.051-19.712,69.803-33.109,118.528-35.072c48.725,1.963,91.477,15.36,118.528,35.072
			C370.457,91.994,375.572,102.193,375.467,113.005z"/>
		<path style="fill:#66993E;" d="M401.067,113.005v99.328c-0.234,17.358-3.707,34.52-10.24,50.603
			c-8.594-1.25-17.339-1.019-25.856,0.683c0.085-0.256,0.171-0.427,0.256-0.683c6.533-16.083,10.006-33.245,10.24-50.603v-99.328
			c0.106-10.812-5.01-21.011-13.739-27.392C334.677,65.901,291.925,52.504,243.2,50.541c1.792-0.085,3.584-0.171,5.376-0.256
			C251.05,50.2,253.525,50.2,256,50.2c54.017,0,101.973,13.995,131.328,35.413C396.057,91.994,401.172,102.193,401.067,113.005
			L401.067,113.005z"/>
		<path style="fill:#475962;" d="M390.827,262.936c-15.364,35.781-38.035,67.957-66.56,94.464l-0.341,2.901l-0.085,14.165
			c-6.911-0.768-15.616-1.451-25.6-1.963l0.085-12.203l0.341-2.901c28.328-26.357,50.902-58.286,66.304-93.781
			C373.487,261.917,382.233,261.686,390.827,262.936L390.827,262.936z"/>
		<rect x="179.2" y="442.733" style="fill:#61443C;" width="153.6" height="59.733"/>
		<rect x="179.2" y="442.733" style="fill:#8B685A;" width="128" height="59.733"/>
		<path style="fill:#D7DEE2;" d="M341.333,364.739v87.723c0,1.195-3.328,2.304-9.301,3.328c-25.222,3.085-50.626,4.425-76.032,4.011
			c-25.406,0.414-50.81-0.926-76.032-4.011c-5.973-1.024-9.301-2.133-9.301-3.328v-87.723c0-1.621,6.229-3.157,16.896-4.352
			c1.621-0.256,3.413-0.427,5.291-0.597c15.616-1.451,38.144-2.389,63.147-2.389c25.003,0,47.531,0.939,63.147,2.389
			c1.877,0.171,3.669,0.341,5.376,0.597C335.104,361.667,341.333,363.117,341.333,364.739z"/>
		<path style="fill:#F6F6F6;" d="M315.733,364.739v87.723c0,1.195-2.829,2.304-7.906,3.328c-21.398,3.082-43.012,4.423-64.627,4.011
			c-21.615,0.413-43.229-0.929-64.627-4.011c-5.077-1.024-7.906-2.133-7.906-3.328v-87.723c0-1.621,5.295-3.157,14.362-4.352
			c1.378-0.256,2.901-0.427,4.497-0.597c17.839-1.708,35.754-2.506,53.675-2.389c17.921-0.116,35.835,0.681,53.675,2.389
			c1.596,0.171,3.119,0.341,4.57,0.597C310.439,361.667,315.733,363.117,315.733,364.739z"/>
		<circle style="fill:#A5B4B4;" cx="290.133" cy="408.6" r="17.067"/>
	</g>
	<g>
		<path d="M477.867,0H34.133C15.29,0.02,0.02,15.29,0,34.133v443.733C0.02,496.71,15.29,511.98,34.133,512h443.733
			c18.843-0.02,34.113-15.29,34.133-34.133V34.133C511.98,15.29,496.71,0.02,477.867,0z M187.733,494.933v-28.411
			c22.683,2.246,45.476,3.184,68.267,2.811c22.791,0.373,45.584-0.566,68.267-2.811v28.411H187.733z M392.533,213.333
			c-0.185,14.164-2.73,28.198-7.531,41.526c-17.932-1.854-35.868,3.477-49.877,14.825c-3.205,2.797-6.039,5.992-8.433,9.508
			c-4.194-6.15-9.68-11.31-16.075-15.121c-7.073-4.191-14.864-7.031-22.975-8.375c-6.653-1.002-13.386-1.364-20.108-1.079
			l-1.483,0.017c-4.517,0.058-8.933,0.033-13.367,0.021l-6.842-0.021c-7.666-0.213-15.336,0.237-22.925,1.346
			c-9.113,1.638-17.757,5.252-25.325,10.587c-4.803,3.449-8.968,7.709-12.308,12.588c-2.391-3.5-5.216-6.682-8.408-9.471
			c-14.012-11.356-31.958-16.687-49.898-14.822c-4.79-13.33-7.328-27.364-7.51-41.527v-99.358
			c-0.064-8.065,3.718-15.679,10.183-20.5C158.7,72.346,205.933,59.733,256,59.733s97.3,12.612,126.35,33.742
			c6.466,4.821,10.248,12.435,10.183,20.5V213.333z M165.625,282.517c7.175,6.176,11.241,15.217,11.1,24.683
			c0,4.713,3.82,8.533,8.533,8.533c4.713,0,8.533-3.82,8.533-8.533c-0.035-10.65,5.117-20.65,13.808-26.804
			c5.522-3.863,11.822-6.472,18.458-7.642c6.555-0.891,13.171-1.244,19.783-1.054l6.767,0.021c4.542,0.017,9.058,0.037,13.65-0.021
			l1.492-0.021c5.666-0.266,11.345,0.012,16.958,0.829c6.02,0.997,11.807,3.087,17.075,6.167
			c10.143,5.926,16.391,16.778,16.424,28.525c0,4.713,3.82,8.533,8.533,8.533s8.533-3.82,8.533-8.533
			c-0.141-9.466,3.925-18.507,11.1-24.683c8.966-7.224,20.202-11.036,31.713-10.762c-14.944,30.055-35.086,57.23-59.495,80.27
			l-0.158,0.146l-0.167-0.014c-0.729-0.066-1.526-0.125-2.281-0.188c-1.51-0.128-3.029-0.254-4.632-0.37
			c-0.875-0.064-1.797-0.121-2.699-0.181c-1.575-0.106-3.161-0.209-4.813-0.304c-0.981-0.057-1.991-0.108-2.998-0.161
			c-1.655-0.088-3.331-0.171-5.052-0.248c-1.05-0.047-2.111-0.092-3.183-0.134c-1.775-0.072-3.578-0.138-5.409-0.199
			c-1.078-0.036-2.151-0.072-3.247-0.104c-1.915-0.056-3.862-0.104-5.827-0.148c-1.072-0.024-2.131-0.051-3.217-0.071
			c-2.121-0.041-4.276-0.07-6.444-0.096c-0.975-0.012-1.931-0.029-2.914-0.038c-3.148-0.029-6.332-0.045-9.551-0.047
			c-3.223,0-6.408,0.016-9.554,0.047c-1.009,0.01-1.992,0.027-2.992,0.039c-2.104,0.026-4.199,0.055-6.258,0.093
			c-1.196,0.023-2.363,0.051-3.543,0.079c-1.857,0.043-3.699,0.087-5.51,0.14c-1.161,0.034-2.299,0.071-3.441,0.109
			c-1.758,0.059-3.49,0.122-5.196,0.19c-1.132,0.046-2.252,0.093-3.358,0.142c-1.681,0.076-3.319,0.157-4.937,0.242
			c-1.021,0.054-2.044,0.107-3.038,0.164c-1.65,0.095-3.237,0.198-4.813,0.304c-0.894,0.06-1.808,0.116-2.677,0.179
			c-1.806,0.132-3.523,0.273-5.211,0.418c-0.528,0.045-1.097,0.087-1.614,0.133l-0.292,0.024l-0.167-0.15
			c-24.432-23.025-44.583-50.203-59.517-80.27C145.405,271.465,156.654,275.28,165.625,282.517z M179.2,448.004v-76.829
			c1.917-0.392,4.775-0.867,8.958-1.342c0.326,0.001,0.651-0.017,0.975-0.054c22.225-2.101,44.544-3.051,66.867-2.846
			c22.323-0.205,44.642,0.745,66.867,2.846l0.392,0.033c4.525,0.5,7.55,0.988,9.542,1.383v76.809
			c-25.456,3.357-51.129,4.782-76.8,4.262C230.329,452.786,204.656,451.361,179.2,448.004L179.2,448.004z M494.933,477.867
			c-0.011,9.421-7.645,17.056-17.067,17.067H341.333V463.08c8.504-2.919,8.533-6.442,8.533-9.618v-87.725
			c0-5.839-4.241-8.744-10.126-10.451c21.364-21.849,69.859-78.443,69.859-141.954v-99.358c0.059-13.525-6.337-26.266-17.217-34.3
			C360.525,56.5,309.542,42.667,256,42.667S151.475,56.5,119.617,79.675c-10.88,8.034-17.276,20.775-17.217,34.3v99.358
			c0,63.511,48.496,120.104,69.859,141.954c-5.885,1.707-10.126,4.612-10.126,10.451v87.725c0,3.176,0.029,6.699,8.533,9.618v31.853
			H34.133c-9.421-0.011-17.056-7.645-17.067-17.067V34.133c0.011-9.421,7.645-17.056,17.067-17.067h443.733
			c9.421,0.011,17.056,7.645,17.067,17.067V477.867z"/>
		<path d="M290.133,435.2c14.138,0,25.6-11.462,25.6-25.6c0-14.138-11.462-25.6-25.6-25.6c-14.138,0-25.6,11.462-25.6,25.6
			C264.549,423.732,276.001,435.185,290.133,435.2z M290.133,401.067c4.713,0,8.533,3.821,8.533,8.533
			c0,4.713-3.821,8.533-8.533,8.533c-4.713,0-8.533-3.821-8.533-8.533C281.605,404.889,285.422,401.071,290.133,401.067z"/>
	</g>
</g>
<g>
</g>
<g>
</g>
<g>
</g>
<g>
</g>
<g>
</g>
<g>
</g>
<g>
</g>
<g>
</g>
<g>
</g>
<g>
</g>
<g>
</g>
<g>
</g>
<g>
</g>
<g>
</g>
<g>
</g>
</svg>
