<?xml version="1.0" encoding="iso-8859-1"?>
<!-- Generator: Adobe Illustrator 19.0.0, SVG Export Plug-In . SVG Version: 6.00 Build 0)  -->
<svg version="1.1" id="Capa_1" xmlns="http://www.w3.org/2000/svg" xmlns:xlink="http://www.w3.org/1999/xlink" x="0px" y="0px"
	 viewBox="0 0 512 512" style="enable-background:new 0 0 512 512;" xml:space="preserve">
<g>
	<g transform="translate(1 1)">
		<path style="fill:#BC2B6A;" d="M33.133,7.533h443.733c14.138,0,25.6,11.462,25.6,25.6v443.733c0,14.138-11.462,25.6-25.6,25.6
			H33.133c-14.138,0-25.6-11.462-25.6-25.6V33.133C7.533,18.995,18.995,7.533,33.133,7.533z"/>
		<path style="fill:#EF3A76;" d="M33.133,7.533h418.133c14.138,0,25.6,11.462,25.6,25.6v443.733c0,14.138-11.462,25.6-25.6,25.6
			H33.133c-14.138,0-25.6-11.462-25.6-25.6V33.133C7.533,18.995,18.995,7.533,33.133,7.533z"/>
		<path style="fill:#728F9C;" d="M318.147,359.789c9.378-35.583,13.97-72.259,13.653-109.056
			c-0.096-21.605-3.081-43.101-8.875-63.915C309.473,139.85,286.335,96.219,255,58.733c-31.335,37.485-54.473,81.117-67.925,128.085
			c-5.794,20.814-8.778,42.309-8.875,63.915c-0.317,36.797,4.275,73.472,13.653,109.056c-13.824,1.365-22.187,3.072-22.187,4.949
			v87.723c0,1.136,3.093,2.194,8.533,3.176v46.829h153.6v-46.829c5.44-0.982,8.533-2.039,8.533-3.176v-87.723
			C340.333,362.861,331.971,361.155,318.147,359.789z"/>
		<path style="fill:#00C6DB;" d="M300.568,200.301c-7.573,7.765-11.695,18.255-11.435,29.099c0,0-8.533-42.667-34.133-42.667
			S220.867,229.4,220.867,229.4c0-32-30.037-41.472-33.792-42.581c11.52-40.32,30.191-78.242,55.125-111.957
			c24.934,33.715,43.606,71.637,55.125,111.957C298.52,191.256,299.629,195.693,300.568,200.301z"/>
		<path style="fill:#00939F;" d="M322.925,186.819c-8.45,2.582-16.13,7.214-22.357,13.483c-0.939-4.608-2.048-9.045-3.243-13.483
			c-11.52-40.32-30.191-78.242-55.125-111.957c3.328-4.523,6.144-8.107,8.277-10.752c0.939-1.195,1.792-2.133,2.389-2.901
			c1.365-1.621,2.133-2.475,2.133-2.475C286.335,96.219,309.473,139.85,322.925,186.819z"/>
		<path style="fill:#475962;" d="M340.333,364.739v87.723c0,1.109-3.072,2.219-8.533,3.157v46.848h-25.6v-46.848
			c5.461-0.939,8.533-2.048,8.533-3.157v-87.723c0-1.877-8.363-3.584-22.187-4.949c9.378-35.583,13.97-72.259,13.653-109.056
			c-0.021-16.966-1.91-33.879-5.632-50.432c6.227-6.269,13.907-10.9,22.357-13.483c5.794,20.814,8.778,42.309,8.875,63.915
			c0.317,36.797-4.275,73.472-13.653,109.056C331.971,361.155,340.333,362.861,340.333,364.739z"/>
		<rect x="178.2" y="442.733" style="fill:#61443C;" width="153.6" height="59.733"/>
		<rect x="178.2" y="442.733" style="fill:#8B685A;" width="128" height="59.733"/>
		<path style="fill:#D7DEE2;" d="M340.333,364.739v87.723c0,1.195-3.328,2.304-9.301,3.328c-25.222,3.085-50.626,4.425-76.032,4.011
			c-25.406,0.414-50.811-0.926-76.032-4.011c-5.973-1.024-9.301-2.133-9.301-3.328v-87.723c0-1.877,8.363-3.584,22.187-4.949
			c15.616-1.451,38.144-2.389,63.147-2.389s47.531,0.939,63.147,2.389C331.971,361.155,340.333,362.861,340.333,364.739z"/>
		<path style="fill:#F6F6F6;" d="M314.733,364.739v87.723c0,1.195-2.829,2.304-7.906,3.328c-21.398,3.082-43.012,4.423-64.627,4.011
			c-21.615,0.413-43.229-0.929-64.627-4.011c-5.077-1.024-7.906-2.133-7.906-3.328v-87.723c0-1.877,7.108-3.584,18.859-4.949
			c17.839-1.708,35.754-2.506,53.675-2.389c17.921-0.116,35.835,0.681,53.675,2.389
			C307.625,361.155,314.733,362.861,314.733,364.739z"/>
		<circle style="fill:#728F9C;" cx="289.133" cy="408.6" r="17.067"/>
	</g>
	<g>
		<path d="M477.867,0H34.133C15.29,0.02,0.02,15.29,0,34.133v443.733C0.02,496.71,15.29,511.98,34.133,512h443.733
			c18.843-0.02,34.113-15.29,34.133-34.133V34.133C511.98,15.29,496.71,0.02,477.867,0z M187.733,494.933v-28.318
			c22.687,2.177,45.478,3.085,68.267,2.718c22.788,0.367,45.58-0.541,68.267-2.718v28.318H187.733z M187.733,251.733
			c0.103-17.6,2.225-35.129,6.324-52.245c11.853,5.72,19.355,17.751,19.276,30.911c0.004,4.383,3.328,8.05,7.689,8.484
			c4.361,0.434,8.342-2.505,9.211-6.801c1.883-9.292,10.667-35.817,25.767-35.817c15.1,0,23.883,26.525,25.767,35.817
			c0.807,3.977,4.3,6.839,8.358,6.846c4.706-0.015,8.52-3.823,8.542-8.529c-0.079-13.16,7.423-25.191,19.276-30.91
			c4.099,17.115,6.221,34.644,6.324,52.243c0.225,33.596-3.651,67.093-11.542,99.749c-13.454-1.015-31.739-1.616-56.724-1.616
			c-24.986,0-43.27,0.601-56.724,1.616C191.384,318.826,187.508,285.329,187.733,251.733L187.733,251.733z M198.55,182.631
			c12.547-39.58,31.997-76.627,57.45-109.431c25.453,32.804,44.903,69.852,57.45,109.431c-9.876,4.435-18.281,11.599-24.225,20.648
			C282.684,191.125,272.15,179.2,256,179.2s-26.684,11.925-33.225,24.079C216.831,194.23,208.426,187.067,198.55,182.631
			L198.55,182.631z M256,366.933c25.671-0.572,51.347,0.842,76.8,4.229v76.875c-25.453,3.387-51.129,4.801-76.8,4.229
			c-25.671,0.572-51.347-0.842-76.8-4.229v-76.875C204.653,367.775,230.329,366.361,256,366.933L256,366.933z M494.933,477.867
			c-0.011,9.421-7.645,17.056-17.067,17.067H341.333v-31.692c8.504-2.883,8.533-6.417,8.533-9.754v-87.775
			c0-4.436-0.016-9.223-19.999-12.361c7.821-33.301,11.669-67.411,11.466-101.618c-0.134-21.72-3.061-43.333-8.709-64.307
			c0.176-1.322-0.188-2.659-1.01-3.71c-13.831-47.563-37.417-91.725-69.256-129.67c-1.661-1.733-3.958-2.713-6.358-2.713
			c-2.401,0-4.697,0.98-6.358,2.713c-31.859,37.969-55.455,82.163-69.281,129.76c-0.785,1.002-1.132,2.277-0.963,3.539
			c-5.662,20.999-8.596,42.64-8.731,64.389c-0.203,34.207,3.646,68.317,11.466,101.618c-19.983,3.138-19.999,7.925-19.999,12.361
			v87.775c0,3.337,0.029,6.87,8.533,9.753v31.693H34.133c-9.421-0.011-17.056-7.645-17.067-17.067V34.133
			c0.011-9.421,7.645-17.056,17.067-17.067h443.733c9.421,0.011,17.056,7.645,17.067,17.067V477.867z"/>
		<path d="M290.133,435.2c14.138,0,25.6-11.462,25.6-25.6c0-14.138-11.462-25.6-25.6-25.6c-14.138,0-25.6,11.462-25.6,25.6
			C264.549,423.732,276.001,435.185,290.133,435.2z M290.133,401.067c4.713,0,8.533,3.821,8.533,8.533
			c0,4.713-3.821,8.533-8.533,8.533c-4.713,0-8.533-3.821-8.533-8.533C281.605,404.889,285.422,401.071,290.133,401.067z"/>
	</g>
</g>
<g>
</g>
<g>
</g>
<g>
</g>
<g>
</g>
<g>
</g>
<g>
</g>
<g>
</g>
<g>
</g>
<g>
</g>
<g>
</g>
<g>
</g>
<g>
</g>
<g>
</g>
<g>
</g>
<g>
</g>
</svg>
