<?xml version="1.0" encoding="iso-8859-1"?>
<!-- Generator: Adobe Illustrator 19.0.0, SVG Export Plug-In . SVG Version: 6.00 Build 0)  -->
<svg version="1.1" id="Capa_1" xmlns="http://www.w3.org/2000/svg" xmlns:xlink="http://www.w3.org/1999/xlink" x="0px" y="0px"
	 viewBox="0 0 512 512" style="enable-background:new 0 0 512 512;" xml:space="preserve">
<g>
	<g transform="translate(1 1)">
		<circle style="fill:#D13D34;" cx="255" cy="255" r="247.467"/>
		<ellipse style="fill:#F85B44;" cx="242.2" cy="255" rx="234.667" ry="247.467"/>
		<g>
			<circle style="fill:#FFEB49;" cx="152.6" cy="357.4" r="25.6"/>
			<circle style="fill:#FFEB49;" cx="357.4" cy="152.6" r="25.6"/>
		</g>
	</g>
	<g>
		<path d="M256,0C114.615,0,0,114.615,0,256s114.615,256,256,256s256-114.615,256-256C511.84,114.682,397.319,0.16,256,0z
			 M256,494.933C124.041,494.933,17.067,387.959,17.067,256S124.041,17.067,256,17.067S494.933,124.041,494.933,256
			C494.785,387.898,387.898,494.785,256,494.933z"/>
		<path d="M358.4,119.467c-18.842,0.022-34.112,15.291-34.133,34.133c0.032,6.074,1.703,12.026,4.837,17.23L170.83,329.104
			c-5.203-3.134-11.156-4.805-17.23-4.837c-18.851,0-34.133,15.282-34.133,34.133c0,18.851,15.282,34.133,34.133,34.133
			s34.133-15.282,34.133-34.133c-0.032-6.074-1.703-12.026-4.837-17.23L341.17,182.896c5.203,3.134,11.156,4.805,17.23,4.837
			c18.851,0,34.133-15.282,34.133-34.133S377.251,119.467,358.4,119.467z M153.6,375.467c-7.724,0.006-14.49-5.177-16.495-12.637
			c-2.005-7.46,1.251-15.336,7.937-19.203c6.687-3.867,15.137-2.761,20.603,2.697l0.013,0.019l0.019,0.013
			c4.876,4.881,6.331,12.219,3.688,18.591C166.721,371.318,160.499,375.47,153.6,375.467L153.6,375.467z M358.4,170.667
			c-4.519,0.003-8.853-1.793-12.046-4.99l-0.013-0.019l-0.019-0.013c-5.741-5.764-6.612-14.78-2.081-21.537
			s13.203-9.373,20.715-6.25c7.512,3.123,11.773,11.116,10.179,19.094C373.541,164.93,366.535,170.671,358.4,170.667L358.4,170.667z
			"/>
	</g>
</g>
<g>
</g>
<g>
</g>
<g>
</g>
<g>
</g>
<g>
</g>
<g>
</g>
<g>
</g>
<g>
</g>
<g>
</g>
<g>
</g>
<g>
</g>
<g>
</g>
<g>
</g>
<g>
</g>
<g>
</g>
</svg>
