<svg height="480pt" viewBox="0 0 480 480" width="480pt" xmlns="http://www.w3.org/2000/svg"><path d="m472 240c0 128.128906-103.871094 232-232 232s-232-103.871094-232-232 103.871094-232 232-232 232 103.871094 232 232zm0 0" fill="#91dc5a"/><path d="m216 288h48v-96h56v-16l-79-88-81 96v8h56zm0 0" fill="#ffd422"/><path d="m344 320h-208v-88h-40v128h288v-128h-40zm0 0" fill="#ab2300"/><g fill="#231f20"><path d="m240 0c-132.546875 0-240 107.453125-240 240s107.453125 240 240 240 240-107.453125 240-240c-.148438-132.484375-107.515625-239.851562-240-240zm0 464c-123.710938 0-224-100.289062-224-224s100.289062-224 224-224 224 100.289062 224 224c-.140625 123.652344-100.347656 223.859375-224 224zm0 0"/><path d="m208 296h64v-96h56v-24l-88-96-88 96v24h56zm-37.527344-112 69.527344-80 72 80h-56v96h-32v-96zm0 0"/><path d="m336 312h-192v-88h-56v144h304v-144h-56zm16-72h24v112h-272v-112h24v88h224zm0 0"/></g></svg>