<?xml version="1.0" encoding="iso-8859-1"?>
<!-- Generator: Adobe Illustrator 19.0.0, SVG Export Plug-In . SVG Version: 6.00 Build 0)  -->
<svg version="1.1" id="Capa_1" xmlns="http://www.w3.org/2000/svg" xmlns:xlink="http://www.w3.org/1999/xlink" x="0px" y="0px"
	 viewBox="0 0 512 512" style="enable-background:new 0 0 512 512;" xml:space="preserve">
<g>
	<g transform="translate(1 1)">
		<path style="fill:#607D8B;" d="M502.467,255c0.011,65.636-26.058,128.586-72.469,174.997
			c-46.411,46.411-109.362,72.48-174.997,72.469c-4.267,0-8.533-0.085-12.715-0.341h-0.171C110.629,495.274,7.531,386.664,7.531,255
			S110.629,14.726,242.115,7.875h0.171c4.181-0.256,8.448-0.341,12.715-0.341c65.636-0.011,128.586,26.058,174.997,72.469
			C476.409,126.414,502.478,189.364,502.467,255z"/>
		<path style="fill:#CFD8DC;" d="M476.867,255c0.003,131.665-103.095,240.275-234.581,247.125h-0.171
			C110.629,495.274,7.531,386.664,7.531,255S110.629,14.726,242.115,7.875h0.171C373.771,14.725,476.869,123.336,476.867,255z"/>
		<path style="fill:#1566C0;" d="M144.067,178.2h221.867c9.426,0,17.067,7.641,17.067,17.067v119.467
			c0,9.426-7.641,17.067-17.067,17.067H144.067c-9.426,0-17.067-7.641-17.067-17.067V195.267
			C127,185.841,134.641,178.2,144.067,178.2z"/>
		<path style="fill:#2296F3;" d="M144.067,178.2h196.267c9.426,0,17.067,7.641,17.067,17.067v119.467
			c0,9.426-7.641,17.067-17.067,17.067H144.067c-9.426,0-17.067-7.641-17.067-17.067V195.267
			C127,185.841,134.641,178.2,144.067,178.2z"/>
		<g>
			<polygon style="fill:#3F51B5;" points="297.667,178.2 212.333,178.2 220.867,144.067 289.133,144.067 			"/>
			<circle style="fill:#3F51B5;" cx="255" cy="255" r="42.667"/>
		</g>
	</g>
	<g>
		<path d="M256,0C114.615,0,0,114.615,0,256s114.615,256,256,256s256-114.615,256-256C511.84,114.682,397.319,0.16,256,0z
			 M256,494.933C124.041,494.933,17.067,387.959,17.067,256S124.041,17.067,256,17.067S494.933,124.041,494.933,256
			C494.785,387.898,387.898,494.785,256,494.933z"/>
		<path d="M93.867,204.8c4.713,0,8.533-3.821,8.533-8.533c0.028-23.553,19.114-42.639,42.667-42.667
			c4.713,0,8.533-3.821,8.533-8.533c0-4.713-3.821-8.533-8.533-8.533c-32.974,0.037-59.696,26.759-59.733,59.733
			C85.333,200.98,89.154,204.8,93.867,204.8z"/>
		<path d="M145.067,358.4c-23.553-0.028-42.639-19.114-42.667-42.667c0-4.713-3.821-8.533-8.533-8.533
			c-4.713,0-8.533,3.821-8.533,8.533c0.037,32.974,26.759,59.696,59.733,59.733c4.713,0,8.533-3.82,8.533-8.533
			S149.779,358.4,145.067,358.4z"/>
		<path d="M418.133,307.2c-2.263-0.001-4.434,0.898-6.035,2.499c-1.6,1.6-2.499,3.771-2.499,6.035
			c-0.028,23.553-19.114,42.639-42.667,42.667c-4.713,0-8.533,3.82-8.533,8.533s3.82,8.533,8.533,8.533
			c32.974-0.037,59.696-26.759,59.733-59.733c0.001-2.263-0.898-4.434-2.499-6.035C422.568,308.098,420.397,307.199,418.133,307.2z"
			/>
		<path d="M366.933,136.533c-4.713,0-8.533,3.821-8.533,8.533c0,4.713,3.82,8.533,8.533,8.533
			c23.553,0.028,42.639,19.114,42.667,42.667c0,4.713,3.82,8.533,8.533,8.533s8.533-3.821,8.533-8.533
			C426.63,163.292,399.908,136.57,366.933,136.533z"/>
		<path d="M392.533,315.733V196.267c-0.015-14.132-11.468-25.585-25.6-25.6H305.33l-6.918-27.671
			c-0.951-3.798-4.364-6.462-8.279-6.462h-68.267c-3.915,0-7.328,2.664-8.279,6.462l-6.918,27.671h-61.603
			c-14.132,0.015-25.585,11.468-25.6,25.6v119.467c0.015,14.132,11.468,25.585,25.6,25.6h221.867
			C381.065,341.318,392.518,329.865,392.533,315.733z M228.529,153.6h54.942l4.267,17.067h-63.475L228.529,153.6z M136.533,315.733
			V196.267c0.006-4.71,3.823-8.527,8.533-8.533h221.867c4.71,0.006,8.527,3.823,8.533,8.533v119.467
			c-0.006,4.71-3.823,8.527-8.533,8.533H145.067C140.356,324.261,136.539,320.444,136.533,315.733z"/>
		<path d="M256,204.8c-28.277,0-51.2,22.923-51.2,51.2c0,28.277,22.923,51.2,51.2,51.2c28.277,0,51.2-22.923,51.2-51.2
			C307.169,227.736,284.264,204.831,256,204.8z M256,290.133c-18.851,0-34.133-15.282-34.133-34.133
			c0-18.851,15.282-34.133,34.133-34.133c18.851,0,34.133,15.282,34.133,34.133C290.112,274.842,274.842,290.112,256,290.133z"/>
	</g>
</g>
<g>
</g>
<g>
</g>
<g>
</g>
<g>
</g>
<g>
</g>
<g>
</g>
<g>
</g>
<g>
</g>
<g>
</g>
<g>
</g>
<g>
</g>
<g>
</g>
<g>
</g>
<g>
</g>
<g>
</g>
</svg>
